<?xml version="1.0" encoding="UTF-8"?>
<svg xmlns="http://www.w3.org/2000/svg" xmlns:xlink="http://www.w3.org/1999/xlink" version="1.1" viewBox="0 0 367 172.5">
  <defs>
    <style>
      .cls-1 {
        fill: none;
      }

      .cls-2 {
        fill: #fccca8;
      }

      .cls-3 {
        fill: url(#radial-gradient);
      }

      .cls-4 {
        fill: #fbbe8f;
      }

      .cls-5 {
        fill: #addcd6;
      }

      .cls-6 {
        isolation: isolate;
      }

      .cls-7 {
        fill: #b0b7ca;
      }

      .cls-8 {
        fill: #8a93b0;
      }

      .cls-9 {
        fill: #fff;
      }

      .cls-10 {
        fill: #687498;
      }

      .cls-11 {
        fill: #bb8d6c;
      }

      .cls-12 {
        fill: #b98c6c;
      }

      .cls-13 {
        fill: #75c9ba;
      }

      .cls-14 {
        fill: #8fd1c5;
      }

      .cls-15 {
        clip-path: url(#clippath);
      }

      .cls-16 {
        mix-blend-mode: screen;
        opacity: .7;
      }
    </style>
    <clipPath id="clippath">
      <polygon class="cls-1" points="204.5 15 347 86.2 204.5 157.5 204.5 15"/>
    </clipPath>
    <radialGradient id="radial-gradient" cx="435.5" cy="100.5" fx="435.5" fy="100.5" r="137.5" gradientTransform="translate(-86 151.8) scale(.8 -.8)" gradientUnits="userSpaceOnUse">
      <stop offset="0" stop-color="#fff"/>
      <stop offset="1" stop-color="#000" stop-opacity="0"/>
    </radialGradient>
  </defs>
  <!-- Generator: Adobe Illustrator 28.6.0, SVG Export Plug-In . SVG Version: 1.2.0 Build 709)  -->
  <g>
    <g id="Layer_1">
      <g class="cls-6">
        <g id="uuid-a0fabb7a-1611-4024-9e25-c6c37e115163">
          <g id="uuid-b2f4f3d7-91b9-46ce-b06c-fbbb521daaff">
            <g>
              <rect class="cls-1" x="20" y="15" width="327" height="142.5"/>
              <g>
                <polygon class="cls-10" points="311.4 68.4 347 86.2 311.4 104 311.4 68.4"/>
                <g>
                  <path class="cls-9" d="M82.7,68.2v35.6h95.3v-35.6h-95.3ZM114.3,76.3h-3.1v22.1h-3.4l-12.2-17.7c-.5-.7-.8-1.8-.8-1.8h-.1s.2,1.2.1,2v14.8h3.2v2.7h-9.8v-2.7h3.1v-19.3h-3.1v-2.7h6.6l12.2,17.7c.4.7.8,1.8.8,1.8h.1s-.2-1.2-.2-2v-14.8h-3.2v-2.7h9.8v2.7h0ZM136,98.3h-18.5v-2.7h3.1v-19.3h-3.1v-2.7h17.9v5.8h-3.1v-2.9h-8.3v8h8.8v2.9h-8.8v8.2h8.9v-3h3.1v5.9h0ZM172.6,76.3h-2.4l-5.5,22.1h-4l-4.8-17.6c-.2-.9-.3-2-.3-2h-.1s0,1.1-.3,2l-4.8,17.6h-4l-5.5-22.1h-2.4v-2.7h8.8v2.7h-2.9l3.9,16.2c.2.9.3,1.9.3,1.9h.1s.1-1,.4-1.9l5.2-18.9h3l5.1,18.9c.2.9.4,1.9.4,1.9h.1s0-1,.2-1.9l3.9-16.2h-2.9v-2.7h8.8v2.7h0Z"/>
                  <g>
                    <path class="cls-9" d="M28.7,42c4.9,0,7.4,3.8,7.4,8.1s0,1.2,0,1.2h-13.5c0,4.4,3.2,7,6.8,7s5.3-2.2,5.3-2.2l1.2,1.8s-2.6,2.5-6.6,2.5-9.2-3.8-9.2-9.2,4-9.3,8.7-9.3h0ZM33.6,49.4c-.1-3.7-2.4-5.4-5-5.4s-5.5,1.9-6.1,5.4h11Z"/>
                    <path class="cls-9" d="M40.8,45.3c0-.5-.3-.8-.8-.8h-1.5v-2.1h2.5c1.5,0,2.1.6,2.1,2v.8c0,.7,0,1.3,0,1.3h0c.6-1.6,2.9-4.5,7-4.5s5.9,2.5,5.9,6.8v8.4c0,.5.3.8.8.8h1.5v2.1h-2.5c-1.5,0-2.1-.6-2.1-2.1v-8.4c0-2.8-.4-5.2-3.8-5.2s-5.6,2.1-6.4,5c-.2.7-.3,1.5-.3,2.4v8.4h-2.4s0-14.8,0-14.8Z"/>
                    <path class="cls-9" d="M61.5,55.7s2,2.7,5.4,2.7,3.7-.9,3.7-2.8c0-3.9-9.9-3.2-9.9-8.8s2.7-4.8,6.3-4.8,5.4.7,5.4,3.2v1.5h-2.2v-.8c0-1.3-1.9-1.8-3.1-1.8-2.4,0-3.9.8-3.9,2.6,0,4,9.9,3.1,9.9,8.9s-2.7,4.9-6.2,4.9-6.8-3.1-6.8-3.1l1.4-1.7h0Z"/>
                    <path class="cls-9" d="M84.6,42c4.9,0,7.4,3.8,7.4,8.1s0,1.2,0,1.2h-13.5c0,4.4,3.2,7,6.8,7s5.3-2.2,5.3-2.2l1.2,1.8s-2.6,2.5-6.6,2.5-9.2-3.8-9.2-9.2,4-9.3,8.7-9.3h0ZM89.6,49.4c-.1-3.7-2.4-5.4-5-5.4s-5.5,1.9-6.1,5.4h11.1Z"/>
                    <path class="cls-9" d="M96.8,45.3c0-.5-.3-.8-.8-.8h-1.5v-2.1h2.4c1.5,0,2.1.6,2.1,2v.8c0,.7,0,1.3,0,1.3h0c.9-2.4,3.7-4.5,6.4-4.5s4.9,1.5,5.5,4.4h0c.9-2.4,3.5-4.4,6.5-4.4,4.3,0,5.9,2.5,5.9,6.8v8.4c0,.5.3.8.8.8h1.5v2.1h-2.5c-1.5,0-2.1-.6-2.1-2.1v-8.5c0-2.9-.6-5.3-3.8-5.3s-4.9,2.4-5.6,5c-.2.8-.3,1.6-.3,2.6v8.3h-2.4v-10.6c0-2.7-.4-5.3-3.7-5.3s-5,2.5-5.8,5.2c-.2.7-.3,1.5-.3,2.3v8.3h-2.4v-14.8h0Z"/>
                    <path class="cls-9" d="M129.3,38.3c0-.5-.3-.8-.8-.8h-1.5v-2.1h2.5c1.5,0,2.1.6,2.1,2.1v6.4c0,.8,0,1.4,0,1.4h0s1.5-3.4,6-3.4,7.7,3.8,7.7,9.3-3.3,9.2-8,9.2-5.8-3.4-5.8-3.4h0s0,.6,0,1.4v1.5h-2.3v-21.8h0ZM137.3,58.4c3.1,0,5.7-2.6,5.7-7.1s-2.3-7.1-5.6-7.1-5.7,2.1-5.7,7.1,1.8,7.1,5.6,7.1h0Z"/>
                    <path class="cls-9" d="M149.6,38.3c0-.5-.3-.8-.8-.8h-1.5v-2.1h2.5c1.5,0,2.1.6,2.1,2.1v19.7c0,.5.3.8.8.8h1.5v2.1h-2.5c-1.5,0-2.1-.6-2.1-2.1,0,0,0-19.7,0-19.7Z"/>
                    <path class="cls-9" d="M165.2,42c4.9,0,7.4,3.8,7.4,8.1s0,1.2,0,1.2h-13.5c0,4.4,3.2,7,6.8,7s5.3-2.2,5.3-2.2l1.2,1.8s-2.6,2.5-6.6,2.5-9.2-3.8-9.2-9.2,4-9.3,8.7-9.3h0ZM170.2,49.4c-.1-3.7-2.4-5.4-5-5.4s-5.5,1.9-6.1,5.4h11.1Z"/>
                  </g>
                  <g>
                    <path class="cls-9" d="M109.7,131.6s2.5,3,6.4,3,4.9-1.8,4.9-4.4c0-6.1-12.2-4.9-12.2-12.5s3-6.3,7.5-6.3,6.7,1,6.7,4.2v1.8h-2.3v-1.2c0-1.5-2-2.6-4.3-2.6s-5.1,1.9-5.1,4c0,5.7,12.2,4.3,12.2,12.4s-2.8,6.8-7.5,6.8-7.8-3.5-7.8-3.5l1.5-1.8h0Z"/>
                    <path class="cls-9" d="M128.8,114h-2.3v-2.2h10.4c4.1,0,7.1,2.7,7.1,7s-2.4,6.1-4.8,6.6h0c0,0,.5.4.8,1.1l3.5,7c.4.7.9.8,1.8.8h.5v2.2h-1.1c-2,0-2.6-.2-3.4-1.9l-3.5-7.1c-.7-1.3-1.1-1.5-2.5-1.5h-4.1v10.4h-2.4v-22.5h0ZM136.7,123.9c2.9,0,4.8-1.9,4.8-5s-1.8-4.9-4.7-4.9h-5.5v9.9h5.5,0Z"/>
                    <path class="cls-9" d="M159.9,111.4c7.1,0,12.6,5.5,12.6,12.6s-1.2,6.2-3.1,8.5l3,3-1.5,1.6-3-3.1c-2.2,1.9-4.9,2.9-8,2.9-7,0-12.5-5.7-12.5-12.9s5.5-12.6,12.5-12.6h0ZM159.9,134.6c3.9,0,6.3-2.2,6.3-2.2l-2.9-3,1.5-1.6,2.9,3c1.4-1.8,2.3-4.2,2.3-6.8,0-5.8-4.4-10.2-10.1-10.2s-9.9,4.4-9.9,10.2,4.4,10.6,9.9,10.6h0Z"/>
                  </g>
                  <polygon class="cls-2" points="204.5 15 240.1 32.8 204.5 50.6 204.5 15"/>
                  <polygon class="cls-10" points="204.5 50.6 240.1 68.4 204.5 86.2 204.5 50.6"/>
                  <polygon class="cls-5" points="204.5 86.2 240.1 104 204.5 121.9 204.5 86.2"/>
                  <polygon class="cls-11" points="204.5 121.9 240.1 139.7 204.5 157.5 204.5 121.9"/>
                  <polygon class="cls-10" points="240.1 139.7 204.5 121.9 240.1 104 240.1 139.7"/>
                  <polygon class="cls-13" points="240.1 104 204.5 86.2 240.1 68.4 240.1 104"/>
                  <polygon class="cls-14" points="240.1 68.4 204.5 50.6 240.1 32.8 240.1 68.4"/>
                  <polygon class="cls-12" points="240.1 32.8 275.8 50.6 240.1 68.4 240.1 32.8"/>
                  <polygon class="cls-12" points="240.1 68.4 275.8 86.2 240.1 104 240.1 68.4"/>
                  <polygon class="cls-14" points="240.1 104 275.8 121.9 240.1 139.7 240.1 104"/>
                  <polygon class="cls-8" points="275.8 121.9 240.1 104 275.8 86.2 275.8 121.9"/>
                  <polygon class="cls-4" points="275.8 86.2 240.1 68.4 275.8 50.6 275.8 86.2"/>
                  <polygon class="cls-14" points="275.8 50.6 311.4 68.4 275.8 86.2 275.8 50.6"/>
                  <polygon class="cls-10" points="275.8 86.2 311.4 104 275.8 121.9 275.8 86.2"/>
                  <polygon class="cls-7" points="311.4 104 275.8 86.2 311.4 68.4 311.4 104"/>
                  <g class="cls-16">
                    <g class="cls-15">
                      <circle class="cls-3" cx="275.8" cy="68.4" r="114.3"/>
                    </g>
                  </g>
                </g>
              </g>
            </g>
          </g>
        </g>
      </g>
    </g>
  </g>
</svg>