<?xml version="1.0" encoding="UTF-8"?>
<svg id="uuid-ff7c4288-18aa-4535-993e-81f427f46a88" data-name="Layer_2" xmlns="http://www.w3.org/2000/svg" viewBox="0 0 332.77 146.77">
  <defs>
    <style>
      .uuid-7fcdc760-8f0e-40f7-a71f-ddb0b98c7ce9 {
        fill: #fff;
      }
    </style>
  </defs>
  <g id="uuid-b65fde89-0517-4c1f-839d-2328edec3035" data-name="Graphics">
    <g>
      <g>
        <path class="uuid-7fcdc760-8f0e-40f7-a71f-ddb0b98c7ce9" d="M90.8,119.62s2.53,3.06,6.48,3.06c2.74,0,4.95-1.78,4.95-4.45,0-6.19-12.35-4.95-12.35-12.71,0-3.49,3.03-6.41,7.65-6.41,2.42,0,6.76,1.03,6.76,4.31v1.78h-2.35v-1.17c0-1.49-2.06-2.6-4.38-2.6-3.24,0-5.13,1.89-5.13,4.02,0,5.8,12.35,4.38,12.35,12.64,0,3.74-2.88,6.9-7.58,6.9-5.13,0-7.94-3.56-7.94-3.56l1.53-1.81Z"/>
        <path class="uuid-7fcdc760-8f0e-40f7-a71f-ddb0b98c7ce9" d="M110.2,101.75h-2.31v-2.21h10.61c4.2,0,7.19,2.78,7.19,7.12,0,3.88-2.38,6.16-4.84,6.69v.07s.5.29.85,1l3.59,7.12c.36.75.89.82,1.78.82h.5v2.21h-1.1c-2.03,0-2.63-.25-3.45-1.89l-3.59-7.15c-.68-1.32-1.14-1.5-2.53-1.5h-4.2v10.53h-2.49v-22.81ZM118.24,111.82c2.99,0,4.84-1.96,4.84-5.09s-1.85-4.98-4.81-4.98h-5.59v10.07h5.55Z"/>
        <path class="uuid-7fcdc760-8f0e-40f7-a71f-ddb0b98c7ce9" d="M141.84,99.12c7.19,0,12.81,5.59,12.81,12.78,0,3.27-1.21,6.33-3.13,8.61l3.06,3.06-1.53,1.6-3.06-3.1c-2.21,1.89-5.02,2.92-8.15,2.92-7.08,0-12.67-5.8-12.67-13.1s5.59-12.78,12.67-12.78ZM141.84,122.64c3.95,0,6.41-2.28,6.41-2.28l-2.99-3.03,1.53-1.6,2.95,3.06c1.42-1.82,2.31-4.31,2.31-6.9,0-5.91-4.45-10.39-10.21-10.39s-10.07,4.48-10.07,10.39,4.41,10.75,10.07,10.75Z"/>
      </g>
      <g>
        <path class="uuid-7fcdc760-8f0e-40f7-a71f-ddb0b98c7ce9" d="M8.83,28.78c4.95,0,7.51,3.81,7.51,8.26,0,.43-.07,1.21-.07,1.21H2.53c.07,4.52,3.24,7.12,6.94,7.12,3.27,0,5.37-2.21,5.37-2.21l1.17,1.82s-2.6,2.56-6.66,2.56c-5.3,0-9.36-3.84-9.36-9.36,0-5.87,4.02-9.4,8.83-9.4ZM13.85,36.32c-.14-3.7-2.42-5.52-5.05-5.52-2.95,0-5.55,1.92-6.16,5.52h11.21Z"/>
        <path class="uuid-7fcdc760-8f0e-40f7-a71f-ddb0b98c7ce9" d="M21.18,32.09c0-.5-.28-.78-.78-.78h-1.49v-2.1h2.49c1.49,0,2.17.64,2.17,1.99v.82c0,.71-.07,1.28-.07,1.28h.07c.64-1.64,2.92-4.52,7.12-4.52,4.45,0,6.01,2.53,6.01,6.94v8.51c0,.53.28.78.78.78h1.49v2.1h-2.53c-1.53,0-2.17-.64-2.17-2.17v-8.58c0-2.81-.43-5.3-3.88-5.3-3.06,0-5.69,2.1-6.51,5.05-.21.75-.28,1.57-.28,2.42v8.58h-2.42v-15.02Z"/>
        <path class="uuid-7fcdc760-8f0e-40f7-a71f-ddb0b98c7ce9" d="M42.14,42.73s1.99,2.7,5.52,2.7c1.99,0,3.77-.96,3.77-2.85,0-3.91-10.04-3.2-10.04-8.97,0-3.24,2.78-4.84,6.37-4.84,1.82,0,5.45.71,5.45,3.24v1.53h-2.28v-.85c0-1.32-1.92-1.81-3.1-1.81-2.49,0-3.99.85-3.99,2.6,0,4.02,10.04,3.1,10.04,9.04,0,2.99-2.7,5.02-6.26,5.02-4.66,0-6.87-3.13-6.87-3.13l1.39-1.67Z"/>
        <path class="uuid-7fcdc760-8f0e-40f7-a71f-ddb0b98c7ce9" d="M65.62,28.78c4.95,0,7.51,3.81,7.51,8.26,0,.43-.07,1.21-.07,1.21h-13.74c.07,4.52,3.24,7.12,6.94,7.12,3.27,0,5.37-2.21,5.37-2.21l1.17,1.82s-2.6,2.56-6.66,2.56c-5.3,0-9.36-3.84-9.36-9.36,0-5.87,4.02-9.4,8.83-9.4ZM70.64,36.32c-.14-3.7-2.42-5.52-5.05-5.52-2.95,0-5.55,1.92-6.16,5.52h11.21Z"/>
        <path class="uuid-7fcdc760-8f0e-40f7-a71f-ddb0b98c7ce9" d="M77.97,32.09c0-.5-.28-.78-.78-.78h-1.49v-2.1h2.49c1.49,0,2.17.64,2.17,1.99v.82c0,.71-.07,1.28-.07,1.28h.07c.89-2.42,3.7-4.52,6.48-4.52,3.31,0,5.02,1.53,5.55,4.48h.07c.96-2.42,3.56-4.48,6.58-4.48,4.34,0,5.94,2.53,5.94,6.94v8.51c0,.53.28.78.78.78h1.49v2.1h-2.53c-1.53,0-2.17-.64-2.17-2.17v-8.61c0-2.92-.6-5.34-3.88-5.34-2.71,0-4.95,2.42-5.66,5.05-.25.78-.32,1.64-.32,2.6v8.47h-2.42v-10.78c0-2.7-.39-5.34-3.77-5.34-2.92,0-5.09,2.53-5.84,5.27-.21.75-.28,1.57-.28,2.38v8.47h-2.42v-15.02Z"/>
        <path class="uuid-7fcdc760-8f0e-40f7-a71f-ddb0b98c7ce9" d="M111,24.97c0-.5-.28-.78-.78-.78h-1.49v-2.1h2.53c1.53,0,2.17.64,2.17,2.17v6.48c0,.82-.07,1.46-.07,1.46h.07s1.5-3.42,6.09-3.42,7.79,3.84,7.79,9.4-3.38,9.36-8.08,9.36c-4.27,0-5.87-3.45-5.87-3.45h-.07s.07.61.07,1.46v1.57h-2.35v-22.14ZM119.04,45.4c3.17,0,5.77-2.67,5.77-7.22s-2.35-7.19-5.66-7.19c-2.99,0-5.8,2.14-5.8,7.23,0,3.59,1.85,7.19,5.69,7.19Z"/>
        <path class="uuid-7fcdc760-8f0e-40f7-a71f-ddb0b98c7ce9" d="M131.53,24.97c0-.5-.28-.78-.78-.78h-1.49v-2.1h2.53c1.53,0,2.17.64,2.17,2.17v19.97c0,.53.28.78.78.78h1.49v2.1h-2.53c-1.53,0-2.17-.64-2.17-2.17v-19.97Z"/>
        <path class="uuid-7fcdc760-8f0e-40f7-a71f-ddb0b98c7ce9" d="M147.44,28.78c4.95,0,7.51,3.81,7.51,8.26,0,.43-.07,1.21-.07,1.21h-13.74c.07,4.52,3.24,7.12,6.94,7.12,3.27,0,5.37-2.21,5.37-2.21l1.18,1.82s-2.6,2.56-6.66,2.56c-5.3,0-9.36-3.84-9.36-9.36,0-5.87,4.02-9.4,8.83-9.4ZM152.46,36.32c-.14-3.7-2.42-5.52-5.05-5.52-2.95,0-5.55,1.92-6.16,5.52h11.21Z"/>
      </g>
      <path class="uuid-7fcdc760-8f0e-40f7-a71f-ddb0b98c7ce9" d="M63.33,55.34v36.09h96.73v-36.09H63.33ZM95.32,63.56h-3.17v22.39h-3.49l-12.35-18.01c-.46-.71-.85-1.82-.85-1.82h-.11s.18,1.25.14,2.03v15.02h3.24v2.78h-9.93v-2.78h3.13v-19.61h-3.13v-2.74h6.66l12.35,18.01c.43.71.85,1.82.85,1.82h.11s-.18-1.25-.18-2.03v-15.06h-3.2v-2.74h9.93v2.74ZM117.42,85.95h-18.79v-2.78h3.13v-19.61h-3.13v-2.74h18.19v5.84h-3.1v-2.92h-8.4v8.08h8.9v2.92h-8.9v8.29h9v-3.03h3.1v5.94ZM154.58,63.56h-2.42l-5.62,22.39h-4.06l-4.91-17.83c-.25-.89-.32-1.99-.32-1.99h-.14s-.07,1.1-.32,1.99l-4.91,17.83h-4.06l-5.59-22.39h-2.42v-2.74h8.93v2.74h-2.99l3.92,16.48c.18.89.28,1.89.28,1.89h.11s.14-1,.36-1.89l5.27-19.22h3.03l5.23,19.22c.25.89.36,1.89.36,1.89h.14s.07-1,.25-1.89l3.92-16.48h-2.99v-2.74h8.97v2.74Z"/>
      <path class="uuid-7fcdc760-8f0e-40f7-a71f-ddb0b98c7ce9" d="M332.11,72.31l-36.09-18.04s0,0,0,0l-36.09-18.04s0,0,0,0l-36.08-18.04s0,0,0,0L187.75.13c-.37-.19-.82-.17-1.17.05-.35.22-.57.61-.57,1.03v36.09h0v36.09h0v72.18c0,.42.22.81.57,1.02.19.12.41.18.63.18.18,0,.37-.04.54-.13l36.09-18.04s0,0,0,0l36.09-18.04s0,0,0,0l36.08-18.04s0,0,0,0l36.09-18.04c.41-.2.67-.62.67-1.08s-.26-.87-.67-1.08ZM224.5,57.29l32.19,16.09-32.19,16.09v-32.19ZM222.09,89.48l-32.19-16.09,32.19-16.09v32.19ZM220.6,55.34l-32.19,16.1v-32.19l32.19,16.1ZM220.6,91.43l-32.19,16.09v-32.19l32.19,16.09ZM258.18,107.52l-32.19-16.09,32.19-16.09v32.19ZM258.18,71.43l-32.19-16.09,32.19-16.09v32.19ZM222.09,53.39l-32.19-16.1,32.19-16.1v32.19ZM189.9,109.47l32.19-16.09v32.19l-32.19-16.09ZM262.08,73.38l32.19-16.09v32.19l-32.19-16.09ZM260.59,71.43v-32.19l32.19,16.1-32.19,16.1ZM224.5,53.39V21.2l32.19,16.1-32.19,16.1ZM188.41,3.15l32.19,16.1-32.19,16.1V3.15ZM188.41,111.42l32.19,16.09-32.19,16.09v-32.19ZM224.5,93.38l32.19,16.09-32.19,16.09v-32.19ZM260.59,75.33l32.19,16.09-32.19,16.09v-32.19ZM296.68,89.48v-32.19l32.19,16.1-32.19,16.1Z"/>
    </g>
  </g>
</svg>