<?xml version="1.0" encoding="UTF-8"?>
<svg id="uuid-a28b6bd7-2042-4344-82e6-4e324048e496" data-name="Layer_2" xmlns="http://www.w3.org/2000/svg" viewBox="0 0 400 210">
  <defs>
    <style>
      .uuid-b780d67d-e953-404d-b68c-c6d110ecc18d {
        fill: none;
      }
    </style>
  </defs>
  <g id="uuid-f6918f1b-a723-4863-af31-9daacb34e3ea" data-name="Graphics">
    <g>
      <rect class="uuid-b780d67d-e953-404d-b68c-c6d110ecc18d" width="400" height="210"/>
      <g>
        <g>
          <path d="M124.62,151.11s2.52,3.05,6.46,3.05c2.73,0,4.93-1.77,4.93-4.44,0-6.18-12.32-4.93-12.32-12.67,0-3.48,3.02-6.39,7.63-6.39,2.41,0,6.74,1.03,6.74,4.29v1.77h-2.34v-1.17c0-1.49-2.06-2.59-4.37-2.59-3.23,0-5.11,1.88-5.11,4.01,0,5.79,12.32,4.37,12.32,12.6,0,3.73-2.87,6.89-7.56,6.89-5.11,0-7.91-3.55-7.91-3.55l1.53-1.81Z"/>
          <path d="M143.97,133.29h-2.31v-2.2h10.58c4.19,0,7.17,2.77,7.17,7.1,0,3.87-2.38,6.14-4.83,6.67v.07s.5.28.85.99l3.59,7.1c.35.75.89.82,1.77.82h.5v2.2h-1.1c-2.02,0-2.63-.25-3.44-1.88l-3.59-7.13c-.67-1.31-1.14-1.49-2.52-1.49h-4.19v10.51h-2.48v-22.75ZM151.99,143.33c2.98,0,4.83-1.95,4.83-5.08s-1.85-4.97-4.79-4.97h-5.57v10.04h5.54Z"/>
          <path d="M175.52,130.66c7.17,0,12.78,5.57,12.78,12.74,0,3.27-1.21,6.32-3.12,8.59l3.05,3.05-1.53,1.6-3.05-3.09c-2.2,1.88-5,2.91-8.13,2.91-7.06,0-12.64-5.79-12.64-13.06s5.57-12.74,12.64-12.74ZM175.52,154.12c3.94,0,6.39-2.27,6.39-2.27l-2.98-3.02,1.53-1.6,2.95,3.05c1.42-1.81,2.31-4.29,2.31-6.89,0-5.89-4.44-10.36-10.19-10.36s-10.04,4.47-10.04,10.36,4.4,10.72,10.04,10.72Z"/>
        </g>
        <g>
          <path d="M42.87,60.52c4.93,0,7.49,3.8,7.49,8.23,0,.43-.07,1.21-.07,1.21h-13.7c.07,4.51,3.23,7.1,6.92,7.1,3.27,0,5.36-2.2,5.36-2.2l1.17,1.81s-2.59,2.56-6.64,2.56c-5.29,0-9.34-3.83-9.34-9.33,0-5.86,4.01-9.37,8.8-9.37ZM47.88,68.04c-.14-3.69-2.41-5.5-5.04-5.5-2.95,0-5.54,1.92-6.14,5.5h11.18Z"/>
          <path d="M55.19,63.82c0-.5-.28-.78-.78-.78h-1.49v-2.09h2.48c1.49,0,2.17.64,2.17,1.99v.82c0,.71-.07,1.28-.07,1.28h.07c.64-1.63,2.91-4.51,7.1-4.51,4.44,0,6,2.52,6,6.92v8.48c0,.53.28.78.78.78h1.49v2.09h-2.52c-1.53,0-2.17-.64-2.17-2.17v-8.55c0-2.8-.43-5.29-3.87-5.29-3.05,0-5.68,2.09-6.5,5.04-.21.75-.28,1.56-.28,2.41v8.55h-2.41v-14.98Z"/>
          <path d="M76.09,74.43s1.99,2.7,5.5,2.7c1.99,0,3.76-.96,3.76-2.84,0-3.9-10.01-3.19-10.01-8.94,0-3.23,2.77-4.83,6.35-4.83,1.81,0,5.43.71,5.43,3.23v1.53h-2.27v-.85c0-1.31-1.92-1.81-3.09-1.81-2.48,0-3.98.85-3.98,2.59,0,4.01,10.01,3.09,10.01,9.02,0,2.98-2.7,5-6.25,5-4.65,0-6.85-3.12-6.85-3.12l1.38-1.67Z"/>
          <path d="M99.51,60.52c4.93,0,7.49,3.8,7.49,8.23,0,.43-.07,1.21-.07,1.21h-13.7c.07,4.51,3.23,7.1,6.92,7.1,3.27,0,5.36-2.2,5.36-2.2l1.17,1.81s-2.59,2.56-6.64,2.56c-5.29,0-9.34-3.83-9.34-9.33,0-5.86,4.01-9.37,8.8-9.37ZM104.52,68.04c-.14-3.69-2.41-5.5-5.04-5.5-2.95,0-5.54,1.92-6.14,5.5h11.18Z"/>
          <path d="M111.83,63.82c0-.5-.28-.78-.78-.78h-1.49v-2.09h2.48c1.49,0,2.17.64,2.17,1.99v.82c0,.71-.07,1.28-.07,1.28h.07c.89-2.41,3.69-4.51,6.46-4.51,3.3,0,5,1.53,5.54,4.47h.07c.96-2.41,3.55-4.47,6.57-4.47,4.33,0,5.93,2.52,5.93,6.92v8.48c0,.53.28.78.78.78h1.49v2.09h-2.52c-1.53,0-2.17-.64-2.17-2.17v-8.59c0-2.91-.6-5.32-3.87-5.32-2.7,0-4.93,2.41-5.64,5.04-.25.78-.32,1.63-.32,2.59v8.45h-2.41v-10.75c0-2.7-.39-5.32-3.76-5.32-2.91,0-5.08,2.52-5.82,5.25-.21.75-.28,1.56-.28,2.38v8.45h-2.41v-14.98Z"/>
          <path d="M144.76,56.72c0-.5-.28-.78-.78-.78h-1.49v-2.09h2.52c1.53,0,2.17.64,2.17,2.17v6.46c0,.82-.07,1.46-.07,1.46h.07s1.49-3.41,6.07-3.41,7.77,3.83,7.77,9.37-3.37,9.33-8.06,9.33c-4.26,0-5.86-3.44-5.86-3.44h-.07s.07.6.07,1.46v1.56h-2.34v-22.08ZM152.79,77.09c3.16,0,5.75-2.66,5.75-7.21s-2.34-7.17-5.64-7.17c-2.98,0-5.79,2.13-5.79,7.21,0,3.58,1.85,7.17,5.68,7.17Z"/>
          <path d="M165.24,56.72c0-.5-.28-.78-.78-.78h-1.49v-2.09h2.52c1.53,0,2.17.64,2.17,2.17v19.91c0,.53.28.78.78.78h1.49v2.09h-2.52c-1.53,0-2.17-.64-2.17-2.17v-19.91Z"/>
          <path d="M181.11,60.52c4.93,0,7.49,3.8,7.49,8.23,0,.43-.07,1.21-.07,1.21h-13.7c.07,4.51,3.23,7.1,6.92,7.1,3.27,0,5.36-2.2,5.36-2.2l1.17,1.81s-2.59,2.56-6.64,2.56c-5.29,0-9.34-3.83-9.34-9.33,0-5.86,4.01-9.37,8.8-9.37ZM186.11,68.04c-.14-3.69-2.41-5.5-5.04-5.5-2.95,0-5.54,1.92-6.14,5.5h11.18Z"/>
        </g>
        <path d="M97.22,87.01v35.99h96.47v-35.99h-96.47ZM129.13,95.2h-3.16v22.33h-3.48l-12.32-17.96c-.46-.71-.85-1.81-.85-1.81h-.11s.18,1.24.14,2.02v14.98h3.23v2.77h-9.9v-2.77h3.12v-19.56h-3.12v-2.73h6.64l12.32,17.96c.43.71.85,1.81.85,1.81h.11s-.18-1.24-.18-2.02v-15.01h-3.19v-2.73h9.9v2.73ZM151.17,117.53h-18.74v-2.77h3.12v-19.56h-3.12v-2.73h18.14v5.82h-3.09v-2.91h-8.38v8.06h8.87v2.91h-8.87v8.27h8.98v-3.02h3.09v5.93ZM188.22,95.2h-2.41l-5.61,22.33h-4.05l-4.9-17.78c-.25-.89-.32-1.99-.32-1.99h-.14s-.07,1.1-.32,1.99l-4.9,17.78h-4.05l-5.57-22.33h-2.41v-2.73h8.91v2.73h-2.98l3.9,16.43c.18.89.28,1.88.28,1.88h.11s.14-.99.35-1.88l5.25-19.17h3.02l5.22,19.17c.25.89.35,1.88.35,1.88h.14s.07-.99.25-1.88l3.9-16.43h-2.98v-2.73h8.94v2.73Z"/>
        <path d="M365.27,103.93l-35.99-17.99s0,0,0,0l-35.99-18s0,0,0,0l-35.98-17.99s0,0,0,0l-35.99-18c-.37-.19-.81-.17-1.17.05-.35.22-.57.61-.57,1.02v35.99h0v35.99h0v71.98c0,.42.22.8.57,1.02.19.12.41.18.63.18.18,0,.37-.04.54-.13l35.99-17.99s0,0,0,0l35.99-18s0,0,0,0l35.98-17.99s0,0,0,0l35.99-18c.41-.2.66-.62.66-1.07s-.26-.87-.66-1.07ZM257.96,88.95l32.1,16.05-32.1,16.05v-32.1ZM255.56,121.05l-32.1-16.05,32.1-16.05v32.1ZM254.07,87l-32.1,16.05v-32.1l32.1,16.05ZM254.07,123l-32.1,16.05v-32.1l32.1,16.05ZM291.55,139.05l-32.1-16.05,32.1-16.05v32.1ZM291.55,103.06l-32.1-16.05,32.1-16.05v32.1ZM255.56,85.06l-32.1-16.05,32.1-16.05v32.1ZM223.45,140.99l32.1-16.05v32.1l-32.1-16.05ZM295.44,105l32.1-16.05v32.1l-32.1-16.05ZM293.95,103.06v-32.1l32.1,16.05-32.1,16.05ZM257.96,85.06v-32.1l32.1,16.05-32.1,16.05ZM221.97,34.96l32.1,16.05-32.1,16.05v-32.1ZM221.97,142.93l32.1,16.05-32.1,16.05v-32.1ZM257.96,124.94l32.1,16.05-32.1,16.05v-32.1ZM293.95,106.94l32.1,16.05-32.1,16.05v-32.1ZM329.94,121.05v-32.1l32.1,16.05-32.1,16.05Z"/>
      </g>
    </g>
  </g>
</svg>