<?xml version="1.0" encoding="UTF-8"?>
<svg xmlns="http://www.w3.org/2000/svg" version="1.1" viewBox="0 0 400 210">
  <defs>
    <style>
      .cls-1 {
        fill: none;
      }

      .cls-2 {
        fill: #fff;
      }
    </style>
  </defs>
  <!-- Generator: Adobe Illustrator 28.6.0, SVG Export Plug-In . SVG Version: 1.2.0 Build 709)  -->
  <g>
    <g id="uuid-c3932bfb-7c78-4a5c-bbc0-f65b7d388db8">
      <g id="uuid-35cf0911-1c78-472d-9ca9-e17b9af79503">
        <g>
          <rect class="cls-1" x="33.6" y="31.8" width="332.8" height="146.4"/>
          <g>
            <g>
              <path class="cls-2" d="M124.4,151.2s2.5,3.1,6.5,3.1,4.9-1.8,4.9-4.4c0-6.2-12.3-4.9-12.3-12.7s3-6.4,7.7-6.4,6.8,1,6.8,4.3v1.8h-2.4v-1.2c0-1.5-2.1-2.6-4.4-2.6s-5.1,1.9-5.1,4c0,5.8,12.3,4.4,12.3,12.6s-2.9,6.9-7.6,6.9-7.9-3.6-7.9-3.6l1.5-1.8h0Z"/>
              <path class="cls-2" d="M143.8,133.4h-2.3v-2.2h10.6c4.2,0,7.2,2.8,7.2,7.1s-2.4,6.2-4.8,6.7h0c0,0,.5.4.9,1.1l3.6,7.1c.4.8.9.8,1.8.8h.5v2.2h-1.1c-2,0-2.6-.2-3.4-1.9l-3.6-7.1c-.7-1.3-1.1-1.5-2.5-1.5h-4.2v10.5h-2.5v-22.8h0ZM151.9,143.4c3,0,4.8-2,4.8-5.1s-1.9-5-4.8-5h-5.6v10.1h5.6Z"/>
              <path class="cls-2" d="M175.4,130.7c7.2,0,12.8,5.6,12.8,12.8s-1.2,6.3-3.1,8.6l3.1,3.1-1.5,1.6-3.1-3.1c-2.2,1.9-5,2.9-8.1,2.9-7.1,0-12.7-5.8-12.7-13.1s5.6-12.8,12.7-12.8h0ZM175.4,154.3c3.9,0,6.4-2.3,6.4-2.3l-3-3,1.5-1.6,2.9,3.1c1.4-1.8,2.3-4.3,2.3-6.9,0-5.9-4.4-10.4-10.2-10.4s-10.1,4.5-10.1,10.4,4.4,10.8,10.1,10.8h0Z"/>
            </g>
            <g>
              <path class="cls-2" d="M42.4,60.4c5,0,7.5,3.8,7.5,8.3s0,1.2,0,1.2h-13.7c0,4.5,3.2,7.1,6.9,7.1s5.4-2.2,5.4-2.2l1.2,1.8s-2.6,2.6-6.7,2.6-9.4-3.8-9.4-9.4,4-9.4,8.8-9.4h0ZM47.5,67.9c-.1-3.7-2.4-5.5-5-5.5s-5.5,1.9-6.2,5.5h11.2Z"/>
              <path class="cls-2" d="M54.8,63.7c0-.5-.3-.8-.8-.8h-1.5v-2.1h2.5c1.5,0,2.2.6,2.2,2v.8c0,.7,0,1.3,0,1.3h0c.6-1.6,2.9-4.5,7.1-4.5s6,2.5,6,6.9v8.5c0,.5.3.8.8.8h1.5v2.1h-2.5c-1.5,0-2.2-.6-2.2-2.2v-8.6c0-2.8-.4-5.3-3.9-5.3s-5.7,2.1-6.5,5c-.2.8-.3,1.6-.3,2.4v8.6h-2.4s0-15,0-15Z"/>
              <path class="cls-2" d="M75.8,74.3s2,2.7,5.5,2.7,3.8-1,3.8-2.8c0-3.9-10-3.2-10-9s2.8-4.8,6.4-4.8,5.4.7,5.4,3.2v1.5h-2.3v-.8c0-1.3-1.9-1.8-3.1-1.8-2.5,0-4,.8-4,2.6,0,4,10,3.1,10,9s-2.7,5-6.3,5-6.9-3.1-6.9-3.1l1.4-1.7h0Z"/>
              <path class="cls-2" d="M99.2,60.4c4.9,0,7.5,3.8,7.5,8.3s0,1.2,0,1.2h-13.7c0,4.5,3.2,7.1,6.9,7.1s5.4-2.2,5.4-2.2l1.2,1.8s-2.6,2.6-6.7,2.6-9.4-3.8-9.4-9.4,4-9.4,8.8-9.4h0ZM104.3,67.9c-.1-3.7-2.4-5.5-5.1-5.5s-5.6,1.9-6.2,5.5h11.2Z"/>
              <path class="cls-2" d="M111.6,63.7c0-.5-.3-.8-.8-.8h-1.5v-2.1h2.5c1.5,0,2.2.6,2.2,2v.8c0,.7,0,1.3,0,1.3h0c.9-2.4,3.7-4.5,6.5-4.5s5,1.5,5.6,4.5h0c1-2.4,3.6-4.5,6.6-4.5,4.3,0,5.9,2.5,5.9,6.9v8.5c0,.5.3.8.8.8h1.5v2.1h-2.5c-1.5,0-2.2-.6-2.2-2.2v-8.6c0-2.9-.6-5.3-3.9-5.3s-4.9,2.4-5.7,5c-.2.8-.3,1.6-.3,2.6v8.5h-2.4v-10.8c0-2.7-.4-5.3-3.8-5.3s-5.1,2.5-5.8,5.3c-.2.8-.3,1.6-.3,2.4v8.5h-2.4v-15h0Z"/>
              <path class="cls-2" d="M144.6,56.6c0-.5-.3-.8-.8-.8h-1.5v-2.1h2.5c1.5,0,2.2.6,2.2,2.2v6.5c0,.8,0,1.5,0,1.5h0s1.5-3.4,6.1-3.4,7.8,3.8,7.8,9.4-3.4,9.4-8.1,9.4-5.9-3.4-5.9-3.4h0s0,.6,0,1.5v1.6h-2.4v-22.1h0ZM152.7,77c3.2,0,5.8-2.7,5.8-7.2s-2.4-7.2-5.7-7.2-5.8,2.1-5.8,7.2,1.9,7.2,5.7,7.2h0Z"/>
              <path class="cls-2" d="M165.1,56.6c0-.5-.3-.8-.8-.8h-1.5v-2.1h2.5c1.5,0,2.2.6,2.2,2.2v20c0,.5.3.8.8.8h1.5v2.1h-2.5c-1.5,0-2.2-.6-2.2-2.2v-20Z"/>
              <path class="cls-2" d="M181.1,60.4c4.9,0,7.5,3.8,7.5,8.3s0,1.2,0,1.2h-13.7c0,4.5,3.2,7.1,6.9,7.1s5.4-2.2,5.4-2.2l1.2,1.8s-2.6,2.6-6.7,2.6-9.4-3.8-9.4-9.4,4-9.4,8.8-9.4h0ZM186.1,67.9c-.1-3.7-2.4-5.5-5.1-5.5s-5.6,1.9-6.2,5.5h11.2Z"/>
            </g>
            <path class="cls-2" d="M96.9,87v36.1h96.7v-36.1s-96.7,0-96.7,0ZM128.9,95.2h-3.2v22.4h-3.5l-12.3-18c-.5-.7-.8-1.8-.8-1.8h-.1s.2,1.2.1,2v15h3.2v2.8h-9.9v-2.8h3.1v-19.6h-3.1v-2.7h6.7l12.3,18c.4.7.8,1.8.8,1.8h.1s-.2-1.2-.2-2v-15.1h-3.2v-2.7h9.9v2.7ZM151,117.6h-18.8v-2.8h3.1v-19.6h-3.1v-2.7h18.2v5.8h-3.1v-2.9h-8.4v8.1h8.9v2.9h-8.9v8.3h9v-3h3.1v5.9h0ZM188.2,95.2h-2.4l-5.6,22.4h-4.1l-4.9-17.8c-.2-.9-.3-2-.3-2h-.1s0,1.1-.3,2l-4.9,17.8h-4.1l-5.6-22.4h-2.4v-2.7h8.9v2.7h-3l3.9,16.5c.2.9.3,1.9.3,1.9h.1s.1-1,.4-1.9l5.3-19.2h3l5.2,19.2c.2.9.4,1.9.4,1.9h.1s0-1,.2-1.9l3.9-16.5h-3v-2.7h9v2.7h0Z"/>
            <path class="cls-2" d="M365.7,103.9l-36.1-18h0l-36.1-18h0l-36.1-18h0l-36.1-18c-.4-.2-.8-.2-1.2,0-.4.2-.6.6-.6,1v36.1h0v36.1h0v72.2c0,.4.2.8.6,1,.2.1.4.2.6.2s.4,0,.5-.1l36.1-18h0l36.1-18h0l36.1-18h0l36.1-18c.4-.2.7-.6.7-1.1s-.3-.9-.7-1.1h0ZM258.1,88.9l32.2,16.1-32.2,16.1v-32.2h0ZM255.7,121.1l-32.2-16.1,32.2-16.1v32.2h0ZM254.2,87l-32.2,16.1v-32.2l32.2,16.1h0ZM254.2,123l-32.2,16.1v-32.2l32.2,16.1h0ZM291.8,139.1l-32.2-16.1,32.2-16.1v32.2h0ZM291.8,103.1l-32.2-16.1,32.2-16.1v32.2h0ZM255.7,85l-32.2-16.1,32.2-16.1v32.2h0ZM223.5,141.1l32.2-16.1v32.2l-32.2-16.1h0ZM295.7,105l32.2-16.1v32.2l-32.2-16.1h0ZM294.2,103.1v-32.2l32.2,16.1-32.2,16.1h0ZM258.1,85v-32.2l32.2,16.1-32.2,16.1h0ZM222,34.8l32.2,16.1-32.2,16.1v-32.2h0ZM222,143l32.2,16.1-32.2,16.1v-32.2h0ZM258.1,125l32.2,16.1-32.2,16.1v-32.2h0ZM294.2,106.9l32.2,16.1-32.2,16.1v-32.2h0ZM330.3,121.1v-32.2l32.2,16.1-32.2,16.1h0Z"/>
          </g>
        </g>
      </g>
    </g>
  </g>
</svg>