<?xml version="1.0" encoding="UTF-8"?>
<svg id="Layer_1" xmlns="http://www.w3.org/2000/svg" version="1.1" viewBox="0 0 1038 261">
  <!-- Generator: Adobe Illustrator 29.1.0, SVG Export Plug-In . SVG Version: 2.1.0 Build 142)  -->
  <defs>
    <style>
      .st0 {
        fill: none;
      }

      .st1 {
        fill: #070707;
      }
    </style>
  </defs>
  <g id="uuid-fc802cac-78e2-442c-beef-c886795944da">
  <path style="--index:4;" d="M1000.3 5.6001H1037.8V254.8H1000.3V143.9H871.8V254.8H834.3V5.6001H871.8V109.6H1000.3V5.6001Z" />
  <path style="--index:3;" d="M702.8 260.4C634.2 260.4 585.2 210.7 585.2 130.2C585.2 49.7 633.8 0 702.8 0C754.6 0 800.1 27.3 812 88.2H774.2C764.1 48.6 735 33.2 702.8 33.2C655.2 33.2 624 69.2 624 130.1C624 191 655.1 227.1 702.8 227.1C736.8 227.1 770 206.8 775.9 162.7H813.4C806.4 228.2 756.7 260.4 702.8 260.4Z" />
  <path style="--index:2;" d="M604.3 5.6001L499.7 107.1L604.3 254.8H559.1L472.7 132.3L429.3 173.9V254.8H391.9V5.6001H429.3V130.6L556.7 5.6001H604.3Z" />
  <path style="--index:1;" d="M252.2 221.2H374.3V254.8H214.7V5.6001H252.1V221.2H252.2Z" />
  <path style="--index:0;" d="M152.6 124.6C182.7 135.8 195.7 159.2 195.7 184.1C195.7 226.4 168 254.8 112.4 254.8H0V5.6001H107.4C162 5.6001 185.4 35.7001 185.4 70.4001C185.5 95.2001 173.2 113.4 152.6 124.6ZM105 37.8001H37.5V112.4H105C134.4 112.4 148.8 97.7001 148.8 73.5001C148.7 52.5001 134.4 37.8001 105 37.8001ZM110.2 222.6C141.7 222.6 157.8 207.9 157.8 183.4C157.8 155.7 139.9 143.5 110.2 143.5H37.5V222.6H110.2Z" />
  </g>
</svg>



