<?xml version="1.0" encoding="UTF-8"?>
<svg id="uuid-6166fc17-16c7-4053-a47e-b09b88b79797" data-name="Layer_2" xmlns="http://www.w3.org/2000/svg" viewBox="0 0 400 619.22">
  <g id="uuid-8b814d38-23bc-4b51-ba6f-7f0d69b3b4d0" data-name="partnerEnergy">
    <g id="uuid-ce4b8b7d-d46f-479c-b1ba-b90bd3e0e0e1" data-name="partner">
      <path d="M38.08,465.05H0v79.73h11.96v-27.9h26.12c9.57,0,15.95-6.38,15.95-15.95v-19.93c0-9.57-6.38-15.95-15.95-15.95h0ZM38.08,504.91H11.96v-27.9h26.12c2.38,0,3.99,1.59,3.99,3.99v19.93c0,2.39-1.61,3.99-3.99,3.99h0ZM100.46,465.05h-20.11c-9.57,0-15.95,6.38-15.95,15.95h11.96c0-2.39,1.59-3.99,3.99-3.99h20.11c2.38,0,3.99,1.59,3.99,3.99v3.99h-26.12c-9.57,0-15.95,6.38-15.95,15.95s6.38,15.95,15.95,15.95h38.08v-35.88c0-9.57-6.38-15.95-15.95-15.95h0ZM104.45,504.91h-26.12c-2.39,0-3.99-1.59-3.99-3.99s1.59-3.99,3.99-3.99h26.12v7.97h0ZM174.49,480.99h-11.96c0-2.39-1.61-3.99-3.99-3.99h-20.14v39.86h-11.96v-51.82h32.1c9.57,0,15.95,6.38,15.95,15.95h0ZM400,480.99h-11.96c0-2.39-1.61-3.99-3.99-3.99h-20.14v39.86h-11.96v-51.82h32.1c9.57,0,15.95,6.38,15.95,15.95h0ZM192.25,477.01v23.92c0,2.39,1.59,3.99,3.99,3.99h20.14v11.96h-20.14c-9.57,0-15.95-6.38-15.95-15.95h0v-51.82h11.96v15.94h24.13v11.96h-24.13ZM280.41,480.99v35.88h-11.96v-35.88c0-2.39-1.61-3.99-3.99-3.99h-26.12v39.86h-11.96v-51.82h38.08c9.57,0,15.95,6.38,15.95,15.95h0ZM327.68,504.91h-22.13c-2.39,0-3.99-1.59-3.99-3.99v-3.99h26.12c9.57,0,15.95-6.38,15.95-15.95s-6.38-15.95-15.95-15.95h-22.13c-9.57,0-15.95,6.38-15.95,15.95v19.93c0,9.57,6.38,15.95,15.95,15.95h22.13c9.57,0,15.95-6.38,15.95-15.95h-11.96c0,2.39-1.59,3.99-3.99,3.99h0ZM305.55,477.01h22.13c2.38,0,3.99,1.59,3.99,3.99s-1.61,3.99-3.99,3.99h-26.12v-3.99c0-2.39,1.59-3.99,3.99-3.99Z" style="fill: #163c9e;"/>
    </g>
    <g id="uuid-6474829a-61e6-4cff-af56-1e11fb03f427" data-name="energy">
      <path d="M276.95,555.43h-11.96c0-2.39-1.61-3.99-3.99-3.99h-20.14v39.86h-11.96v-51.82h32.1c9.57,0,15.95,6.38,15.95,15.95h0ZM141.41,539.48h-38.08v51.82h11.96v-39.86h26.12c2.38,0,3.99,1.59,3.99,3.99v35.88h11.96v-35.88c0-9.57-6.38-15.95-15.95-15.95h0ZM208.62,575.36h11.96c0,9.57-6.38,15.95-15.95,15.95h-22.13c-9.57,0-15.95-6.38-15.95-15.95v-19.93c0-9.57,6.38-15.95,15.95-15.95h22.13c9.57,0,15.95,6.38,15.95,15.95s-6.38,15.95-15.95,15.95h-26.12v3.99c0,2.39,1.59,3.99,3.99,3.99h22.13c2.39,0,3.99-1.59,3.99-3.99h0ZM178.52,555.43v3.99h26.12c2.38,0,3.99-1.59,3.99-3.99s-1.61-3.99-3.99-3.99h-22.13c-2.39,0-3.99,1.59-3.99,3.99h0ZM83.5,575.36h11.96c0,9.57-6.38,15.95-15.95,15.95h-22.13c-9.57,0-15.95-6.38-15.95-15.95v-19.93c0-9.57,6.38-15.95,15.95-15.95h22.13c9.57,0,15.95,6.38,15.95,15.95s-6.38,15.95-15.95,15.95h-26.12v3.99c0,2.39,1.59,3.99,3.99,3.99h22.13c2.39,0,3.99-1.59,3.99-3.99h0ZM53.4,555.43v3.99h26.12c2.38,0,3.99-1.59,3.99-3.99s-1.61-3.99-3.99-3.99h-22.13c-2.39,0-3.99,1.59-3.99,3.99ZM336.78,555.43h0v47.84c0,9.57-6.38,15.95-15.95,15.95h-22.13c-9.57,0-15.95-6.38-15.95-15.95h11.96c0,2.39,1.59,3.99,3.99,3.99h22.13c2.39,0,3.99-1.59,3.99-3.99h0v-11.96h-26.12c-9.57,0-15.95-6.38-15.95-15.95v-19.93c0-9.57,6.38-15.95,15.95-15.95h22.13c9.57,0,15.95,6.38,15.95,15.95h0ZM324.82,555.43c0-2.39-1.61-3.99-3.99-3.99h-22.13c-2.39,0-3.99,1.59-3.99,3.99v19.93c0,2.39,1.59,3.99,3.99,3.99h26.12v-23.92ZM388.04,539.48v39.86h-26.12c-2.39,0-3.99-1.59-3.99-3.99v-35.88h-11.96v35.88c0,9.57,6.38,15.95,15.95,15.95h26.12v11.96h0c0,2.39-1.59,3.99-3.99,3.99h-22.13c-2.39,0-3.99-1.59-3.99-3.99h-11.96c0,9.57,6.38,15.95,15.95,15.95h22.13c9.57,0,15.95-6.38,15.95-15.95v-63.78h-11.96Z" style="fill: #163c9e;"/>
    </g>
    <g id="uuid-2a03e207-92e1-42af-a9f5-b69b4418e9d4" data-name="fill">
      <path d="M225.01,140.42l-51.5,82.42-13.47-76.39,51.5-82.42,13.47,76.39ZM209.38,51.79L200.25,0l-88.91,142.29h41.49s56.55-90.5,56.55-90.5ZM109.48,150.6l13.07,74.11h42.85l-13.07-74.11h-42.85,0ZM227.17,152.65l-51.5,82.42,13.44,76.21,51.5-82.42-13.44-76.21ZM235.25,150.6l13.07,74.11h42.21l-13.07-74.11h-42.21ZM191.26,323.52l8.99,50.98,88.41-141.49h-40.85l-56.55,90.5h0Z" style="fill: #163c9e;"/>
    </g>
  </g>
</svg>