<?xml version="1.0" encoding="UTF-8"?>
<svg id="uuid-9c8d07d2-6ac5-41f7-80e6-d969f54aa826" data-name="Layer_2" xmlns="http://www.w3.org/2000/svg" xmlns:xlink="http://www.w3.org/1999/xlink" viewBox="0 0 181.05 374.5">
  <defs>
    <linearGradient id="uuid-507fdb0c-243f-4a31-8d35-aabb25e47a7e" x1="174.93" y1="239.83" x2="6.63" y2="134.66" gradientUnits="userSpaceOnUse">
      <stop offset="0" stop-color="#50a938"/>
      <stop offset=".5" stop-color="#3b867b"/>
      <stop offset="1" stop-color="#163c9e"/>
    </linearGradient>
  </defs>
  <g id="uuid-1a9ed128-ed3f-4b3d-9e5b-864085ab1f42" data-name="partnerEnergy">
    <g id="uuid-6a0ad278-7ba8-4844-80e3-d2d17d72477b" data-name="fill">
      <path d="M115.54,140.42l-51.5,82.42-13.47-76.39,51.5-82.42,13.47,76.39ZM99.91,51.79L90.78,0,1.86,142.29h41.49l56.55-90.5h.01ZM0,150.6l13.07,74.11h42.85l-13.07-74.11H0ZM117.69,152.65l-51.5,82.42,13.44,76.21,51.5-82.42-13.44-76.21ZM125.77,150.6l13.07,74.11h42.21l-13.07-74.11h-42.21,0ZM81.79,323.52l8.99,50.98,88.41-141.49h-40.85l-56.55,90.5h0Z" style="fill: url(#uuid-507fdb0c-243f-4a31-8d35-aabb25e47a7e);"/>
    </g>
  </g>
</svg>