<?xml version="1.0" encoding="UTF-8"?>
<svg id="uuid-2f2e1e1f-fb12-4943-934c-8b7d46c218e0" data-name="Layer_2" xmlns="http://www.w3.org/2000/svg" viewBox="0 0 1218.88 143.51">
  <g id="uuid-982772ab-266b-4871-9132-90b7902ac841" data-name="partnerEnergy">
    <g id="uuid-0663f749-f217-4e34-b944-7ad26226c3b0" data-name="partner">
      <path d="M57.12,23.91H0v119.59h17.94v-41.86h39.18c14.35,0,23.92-9.57,23.92-23.92v-29.9c0-14.35-9.57-23.92-23.92-23.92h0ZM57.12,83.7H17.94v-41.86h39.18c3.57,0,5.98,2.39,5.98,5.98v29.9c0,3.59-2.41,5.98-5.98,5.98h0ZM150.69,23.91h-30.17c-14.35,0-23.92,9.57-23.92,23.92h17.94c0-3.59,2.39-5.98,5.98-5.98h30.17c3.57,0,5.98,2.39,5.98,5.98v5.98h-39.18c-14.35,0-23.92,9.57-23.92,23.92s9.57,23.92,23.92,23.92h57.12v-53.82c0-14.35-9.57-23.92-23.92-23.92ZM156.67,83.7h-39.18c-3.59,0-5.98-2.39-5.98-5.98s2.39-5.98,5.98-5.98h39.18v11.96h0ZM261.74,47.83h-17.94c0-3.59-2.41-5.98-5.98-5.98h-30.21v59.8h-17.94V23.92h48.15c14.35,0,23.92,9.57,23.92,23.92h0ZM600,47.83h-17.94c0-3.59-2.41-5.98-5.98-5.98h-30.21v59.8h-17.94V23.92h48.15c14.35,0,23.92,9.57,23.92,23.92h0ZM288.38,41.85v35.88c0,3.59,2.39,5.98,5.98,5.98h30.21v17.94h-30.21c-14.35,0-23.92-9.57-23.92-23.92h0V0h17.94v23.92h36.19v17.94h-36.19ZM420.61,47.83v53.82h-17.94v-53.82c0-3.59-2.41-5.98-5.98-5.98h-39.18v59.8h-17.94V23.92h57.12c14.35,0,23.92,9.57,23.92,23.92h0ZM491.53,83.7h-33.2c-3.59,0-5.98-2.39-5.98-5.98v-5.98h39.18c14.35,0,23.92-9.57,23.92-23.92s-9.57-23.92-23.92-23.92h-33.2c-14.35,0-23.92,9.57-23.92,23.92v29.9c0,14.35,9.57,23.92,23.92,23.92h33.2c14.35,0,23.92-9.57,23.92-23.92h-17.94c0,3.59-2.39,5.98-5.98,5.98ZM458.33,41.85h33.2c3.57,0,5.98,2.39,5.98,5.98s-2.41,5.98-5.98,5.98h-39.18v-5.98c0-3.59,2.39-5.98,5.98-5.98Z" style="fill: #3c7031;"/>
    </g>
    <g id="uuid-89c3167b-bdae-40fb-8fa4-32b63a3191cc" data-name="energy">
      <path d="M1034.31,47.83h-17.94c0-3.59-2.41-5.98-5.98-5.98h-30.21v59.8h-17.94V23.92h48.15c14.35,0,23.92,9.57,23.92,23.92h0ZM831,23.91h-57.12v77.73h17.94v-59.8h39.18c3.57,0,5.98,2.39,5.98,5.98v53.82h17.94v-53.82c0-14.35-9.57-23.92-23.92-23.92h0ZM931.82,77.72h17.94c0,14.35-9.57,23.92-23.92,23.92h-33.2c-14.35,0-23.92-9.57-23.92-23.92v-29.9c0-14.35,9.57-23.92,23.92-23.92h33.2c14.35,0,23.92,9.57,23.92,23.92s-9.57,23.92-23.92,23.92h-39.18v5.98c0,3.59,2.39,5.98,5.98,5.98h33.2c3.59,0,5.98-2.39,5.98-5.98h0ZM886.66,47.83v5.98h39.18c3.57,0,5.98-2.39,5.98-5.98s-2.41-5.98-5.98-5.98h-33.2c-3.59,0-5.98,2.39-5.98,5.98h0ZM744.14,77.72h17.94c0,14.35-9.57,23.92-23.92,23.92h-33.2c-14.35,0-23.92-9.57-23.92-23.92v-29.9c0-14.35,9.57-23.92,23.92-23.92h33.2c14.35,0,23.92,9.57,23.92,23.92s-9.57,23.92-23.92,23.92h-39.18v5.98c0,3.59,2.39,5.98,5.98,5.98h33.2c3.59,0,5.98-2.39,5.98-5.98ZM698.98,47.83v5.98h39.18c3.57,0,5.98-2.39,5.98-5.98s-2.41-5.98-5.98-5.98h-33.2c-3.59,0-5.98,2.39-5.98,5.98ZM1124.04,47.83h0v71.75c0,14.35-9.57,23.92-23.92,23.92h-33.2c-14.35,0-23.92-9.57-23.92-23.92h17.94c0,3.59,2.39,5.98,5.98,5.98h33.2c3.59,0,5.98-2.39,5.98-5.98h0v-17.94h-39.18c-14.35,0-23.92-9.57-23.92-23.92v-29.9c0-14.35,9.57-23.92,23.92-23.92h33.2c14.35,0,23.92,9.57,23.92,23.92h0ZM1106.1,47.83c0-3.59-2.41-5.98-5.98-5.98h-33.2c-3.59,0-5.98,2.39-5.98,5.98v29.9c0,3.59,2.39,5.98,5.98,5.98h39.18v-35.88h0ZM1200.94,23.91v59.8h-39.18c-3.59,0-5.98-2.39-5.98-5.98V23.91h-17.94v53.82c0,14.35,9.57,23.92,23.92,23.92h39.18v17.94h0c0,3.59-2.39,5.98-5.98,5.98h-33.2c-3.59,0-5.98-2.39-5.98-5.98h-17.94c0,14.35,9.57,23.92,23.92,23.92h33.2c14.35,0,23.92-9.57,23.92-23.92V23.92h-17.94Z" style="fill: #3c7031;"/>
    </g>
  </g>
</svg>