<?xml version="1.0" encoding="UTF-8"?>
<svg id="uuid-7d6f6cb8-3fa1-461e-9b71-a20177f6383c" data-name="Layer_2" xmlns="http://www.w3.org/2000/svg" xmlns:xlink="http://www.w3.org/1999/xlink" viewBox="0 0 181.05 374.5">
  <defs>
    <linearGradient id="uuid-56ced651-0024-43d2-9a3f-aacbf39510bd" x1="174.93" y1="239.83" x2="6.63" y2="134.66" gradientUnits="userSpaceOnUse">
      <stop offset="0" stop-color="#67db48"/>
      <stop offset=".5" stop-color="#51b8a8"/>
      <stop offset="1" stop-color="#1d4fd0"/>
    </linearGradient>
  </defs>
  <g id="uuid-ea931f8a-6ca6-401a-81fb-520b590e2c5d" data-name="partnerEnergy">
    <g id="uuid-5a4a7561-2a26-446b-a835-730df305e465" data-name="fill">
      <path d="M115.54,140.42l-51.5,82.42-13.47-76.39,51.5-82.42,13.47,76.39ZM99.91,51.79L90.78,0,1.86,142.29h41.49l56.55-90.5h.01ZM0,150.6l13.07,74.11h42.85l-13.07-74.11H0ZM117.69,152.65l-51.5,82.42,13.44,76.21,51.5-82.42-13.44-76.21ZM125.77,150.6l13.07,74.11h42.21l-13.07-74.11h-42.21,0ZM81.79,323.52l8.99,50.98,88.41-141.49h-40.85l-56.55,90.5h0Z" style="fill: url(#uuid-56ced651-0024-43d2-9a3f-aacbf39510bd);"/>
    </g>
  </g>
</svg>