<?xml version="1.0" encoding="UTF-8"?>
<svg id="uuid-4ac69ea7-8093-4b06-b021-6b7feb6677ad" data-name="Layer_2" xmlns="http://www.w3.org/2000/svg" xmlns:xlink="http://www.w3.org/1999/xlink" viewBox="0 0 1490.44 374.5">
  <defs>
    <linearGradient id="uuid-585c2c62-2209-4770-8a94-9a8b827a819f" x1="174.93" y1="239.83" x2="6.63" y2="134.66" gradientUnits="userSpaceOnUse">
      <stop offset="0" stop-color="#67db48"/>
      <stop offset=".5" stop-color="#51b8a8"/>
      <stop offset="1" stop-color="#1d4fd0"/>
    </linearGradient>
  </defs>
  <g id="uuid-ca823fe8-18da-416a-9eae-3cc79d1be721" data-name="partnerEnergy">
    <g id="uuid-956cf186-3b28-45ad-bcd8-026e060f66ac" data-name="partner">
      <path d="M328.68,148.39h-57.12v119.59h17.94v-41.86h39.18c14.35,0,23.92-9.57,23.92-23.92v-29.9c0-14.35-9.57-23.92-23.92-23.92h0ZM328.68,208.18h-39.18v-41.86h39.18c3.57,0,5.98,2.39,5.98,5.98v29.9c0,3.59-2.41,5.98-5.98,5.98h0ZM422.25,148.39h-30.17c-14.35,0-23.92,9.57-23.92,23.92h17.94c0-3.59,2.39-5.98,5.98-5.98h30.17c3.57,0,5.98,2.39,5.98,5.98v5.98h-39.18c-14.35,0-23.92,9.57-23.92,23.92s9.57,23.92,23.92,23.92h57.12v-53.82c0-14.35-9.57-23.92-23.92-23.92ZM428.23,208.18h-39.18c-3.59,0-5.98-2.39-5.98-5.98s2.39-5.98,5.98-5.98h39.18v11.96h0ZM533.3,172.31h-17.94c0-3.59-2.41-5.98-5.98-5.98h-30.21v59.8h-17.94v-77.73h48.15c14.35,0,23.92,9.57,23.92,23.92h0ZM871.56,172.31h-17.94c0-3.59-2.41-5.98-5.98-5.98h-30.21v59.8h-17.94v-77.73h48.15c14.35,0,23.92,9.57,23.92,23.92h0ZM559.94,166.33v35.88c0,3.59,2.39,5.98,5.98,5.98h30.21v17.94h-30.21c-14.35,0-23.92-9.57-23.92-23.92h0v-77.73h17.94v23.92h36.19v17.94h-36.19ZM692.17,172.31v53.82h-17.94v-53.82c0-3.59-2.41-5.98-5.98-5.98h-39.18v59.8h-17.94v-77.73h57.12c14.35,0,23.92,9.57,23.92,23.92h0ZM763.09,208.18h-33.2c-3.59,0-5.98-2.39-5.98-5.98v-5.98h39.18c14.35,0,23.92-9.57,23.92-23.92s-9.57-23.92-23.92-23.92h-33.2c-14.35,0-23.92,9.57-23.92,23.92v29.9c0,14.35,9.57,23.92,23.92,23.92h33.2c14.35,0,23.92-9.57,23.92-23.92h-17.94c0,3.59-2.39,5.98-5.98,5.98ZM729.89,166.33h33.2c3.57,0,5.98,2.39,5.98,5.98s-2.41,5.98-5.98,5.98h-39.18v-5.98c0-3.59,2.39-5.98,5.98-5.98Z" style="fill: #4075ff;"/>
    </g>
    <g id="uuid-3b34a5d7-dd7f-4f5d-9ca3-0879bdc29097" data-name="energy">
      <path d="M1305.87,172.31h-17.94c0-3.59-2.41-5.98-5.98-5.98h-30.21v59.8h-17.94v-77.73h48.15c14.35,0,23.92,9.57,23.92,23.92h0ZM1102.56,148.39h-57.12v77.73h17.94v-59.8h39.18c3.57,0,5.98,2.39,5.98,5.98v53.82h17.94v-53.82c0-14.35-9.57-23.92-23.92-23.92h0ZM1203.38,202.2h17.94c0,14.35-9.57,23.92-23.92,23.92h-33.2c-14.35,0-23.92-9.57-23.92-23.92v-29.9c0-14.35,9.57-23.92,23.92-23.92h33.2c14.35,0,23.92,9.57,23.92,23.92s-9.57,23.92-23.92,23.92h-39.18v5.98c0,3.59,2.39,5.98,5.98,5.98h33.2c3.59,0,5.98-2.39,5.98-5.98h0ZM1158.22,172.31v5.98h39.18c3.57,0,5.98-2.39,5.98-5.98s-2.41-5.98-5.98-5.98h-33.2c-3.59,0-5.98,2.39-5.98,5.98h0ZM1015.7,202.2h17.94c0,14.35-9.57,23.92-23.92,23.92h-33.2c-14.35,0-23.92-9.57-23.92-23.92v-29.9c0-14.35,9.57-23.92,23.92-23.92h33.2c14.35,0,23.92,9.57,23.92,23.92s-9.57,23.92-23.92,23.92h-39.18v5.98c0,3.59,2.39,5.98,5.98,5.98h33.2c3.59,0,5.98-2.39,5.98-5.98ZM970.54,172.31v5.98h39.18c3.57,0,5.98-2.39,5.98-5.98s-2.41-5.98-5.98-5.98h-33.2c-3.59,0-5.98,2.39-5.98,5.98ZM1395.6,172.31h0v71.75c0,14.35-9.57,23.92-23.92,23.92h-33.2c-14.35,0-23.92-9.57-23.92-23.92h17.94c0,3.59,2.39,5.98,5.98,5.98h33.2c3.59,0,5.98-2.39,5.98-5.98h0v-17.94h-39.18c-14.35,0-23.92-9.57-23.92-23.92v-29.9c0-14.35,9.57-23.92,23.92-23.92h33.2c14.35,0,23.92,9.57,23.92,23.92h0ZM1377.66,172.31c0-3.59-2.41-5.98-5.98-5.98h-33.2c-3.59,0-5.98,2.39-5.98,5.98v29.9c0,3.59,2.39,5.98,5.98,5.98h39.18v-35.88h0ZM1472.5,148.39v59.8h-39.18c-3.59,0-5.98-2.39-5.98-5.98v-53.82h-17.94v53.82c0,14.35,9.57,23.92,23.92,23.92h39.18v17.94h0c0,3.59-2.39,5.98-5.98,5.98h-33.2c-3.59,0-5.98-2.39-5.98-5.98h-17.94c0,14.35,9.57,23.92,23.92,23.92h33.2c14.35,0,23.92-9.57,23.92-23.92v-95.67h-17.94Z" style="fill: #67db48;"/>
    </g>
    <g id="uuid-bdba411b-48bf-4f36-b37c-1a4989325045" data-name="fill">
      <path d="M115.54,140.42l-51.5,82.42-13.47-76.39,51.5-82.42,13.47,76.39ZM99.91,51.79L90.78,0,1.86,142.29h41.49l56.55-90.5h.01ZM0,150.6l13.07,74.11h42.85l-13.07-74.11H0ZM117.69,152.65l-51.5,82.42,13.44,76.21,51.5-82.42-13.44-76.21ZM125.77,150.6l13.07,74.11h42.21l-13.07-74.11h-42.21,0ZM81.79,323.52l8.99,50.98,88.41-141.49h-40.85l-56.55,90.5h0Z" style="fill: url(#uuid-585c2c62-2209-4770-8a94-9a8b827a819f);"/>
    </g>
  </g>
</svg>