<?xml version="1.0" encoding="UTF-8"?>
<svg id="uuid-3d7778b7-d128-4f81-b9a9-7f570e3b538c" data-name="Layer_2" xmlns="http://www.w3.org/2000/svg" viewBox="0 0 200.01 420.06">
  <g id="uuid-751960fe-2665-466b-9615-907fcefb5c3a" data-name="partnerEnergy">
    <g id="uuid-d138c647-1f8c-4439-904e-c3a843995aa1" data-name="line">
      <path d="M184.43,165.06h-50.65L104.68,0,0,167.52l15.57,88.28h51.3l28.96,164.26,104.18-166.72-15.57-88.28h-.01ZM190.52,247.48h-42.21l-13.07-74.11h42.21l13.07,74.11h0ZM73.51,245.61l-13.47-76.39,51.5-82.42,13.47,76.39-51.5,82.42ZM127.17,175.43l13.44,76.21-51.5,82.42-13.44-76.21,51.5-82.42h0ZM109.38,74.56l-56.55,90.5H11.34L100.25,22.77l9.13,51.79ZM9.47,173.37h42.85l13.07,74.11H22.54s-13.07-74.11-13.07-74.11ZM91.26,346.3l56.55-90.5h40.85l-88.41,141.48-8.99-50.98h0Z" style="fill: #3c7031;"/>
    </g>
  </g>
</svg>