<?xml version="1.0" encoding="UTF-8"?>
<svg id="uuid-a8a64c79-8973-4984-a946-33f2e10d58a3" data-name="Layer_2" xmlns="http://www.w3.org/2000/svg" xmlns:xlink="http://www.w3.org/1999/xlink" viewBox="0 0 181.05 374.5">
  <defs>
    <linearGradient id="uuid-70b79825-13cc-40d2-b8f7-fb786321ef78" x1="174.93" y1="239.83" x2="6.63" y2="134.66" gradientUnits="userSpaceOnUse">
      <stop offset="0" stop-color="#67db48"/>
      <stop offset=".5" stop-color="#51b8a8"/>
      <stop offset="1" stop-color="#1d4fd0"/>
    </linearGradient>
  </defs>
  <g id="uuid-77b1c035-ccc5-4976-af4e-202e26bcad50" data-name="partnerEnergy">
    <g id="uuid-1652cff0-3757-4fdf-8b12-f745d9512d32" data-name="fill">
      <path d="M115.54,140.42l-51.5,82.42-13.47-76.39,51.5-82.42,13.47,76.39ZM99.91,51.79L90.78,0,1.86,142.29h41.49l56.55-90.5h.01ZM0,150.6l13.07,74.11h42.85l-13.07-74.11H0ZM117.69,152.65l-51.5,82.42,13.44,76.21,51.5-82.42-13.44-76.21ZM125.77,150.6l13.07,74.11h42.21l-13.07-74.11h-42.21,0ZM81.79,323.52l8.99,50.98,88.41-141.49h-40.85l-56.55,90.5h0Z" style="fill: url(#uuid-70b79825-13cc-40d2-b8f7-fb786321ef78);"/>
    </g>
  </g>
</svg>