<?xml version="1.0" encoding="UTF-8"?>
<svg id="uuid-b44a6dc3-d579-41e8-a5f6-e35a4712999a" data-name="Layer_2" xmlns="http://www.w3.org/2000/svg" viewBox="0 0 1490.44 374.5">
  <g id="uuid-bdf286a9-c0e1-4b8a-9e9c-c565f1673443" data-name="partnerEnergy">
    <g id="uuid-7ea00da3-fb0b-4163-9833-1d7f024ed9e6" data-name="partner">
      <path d="M328.68,148.39h-57.12v119.59h17.94v-41.86h39.18c14.35,0,23.92-9.57,23.92-23.92v-29.9c0-14.35-9.57-23.92-23.92-23.92h0ZM328.68,208.18h-39.18v-41.86h39.18c3.57,0,5.98,2.39,5.98,5.98v29.9c0,3.59-2.41,5.98-5.98,5.98h0ZM422.25,148.39h-30.17c-14.35,0-23.92,9.57-23.92,23.92h17.94c0-3.59,2.39-5.98,5.98-5.98h30.17c3.57,0,5.98,2.39,5.98,5.98v5.98h-39.18c-14.35,0-23.92,9.57-23.92,23.92s9.57,23.92,23.92,23.92h57.12v-53.82c0-14.35-9.57-23.92-23.92-23.92ZM428.23,208.18h-39.18c-3.59,0-5.98-2.39-5.98-5.98s2.39-5.98,5.98-5.98h39.18v11.96h0ZM533.3,172.31h-17.94c0-3.59-2.41-5.98-5.98-5.98h-30.21v59.8h-17.94v-77.73h48.15c14.35,0,23.92,9.57,23.92,23.92h0ZM871.56,172.31h-17.94c0-3.59-2.41-5.98-5.98-5.98h-30.21v59.8h-17.94v-77.73h48.15c14.35,0,23.92,9.57,23.92,23.92h0ZM559.94,166.33v35.88c0,3.59,2.39,5.98,5.98,5.98h30.21v17.94h-30.21c-14.35,0-23.92-9.57-23.92-23.92h0v-77.73h17.94v23.92h36.19v17.94h-36.19ZM692.17,172.31v53.82h-17.94v-53.82c0-3.59-2.41-5.98-5.98-5.98h-39.18v59.8h-17.94v-77.73h57.12c14.35,0,23.92,9.57,23.92,23.92h0ZM763.09,208.18h-33.2c-3.59,0-5.98-2.39-5.98-5.98v-5.98h39.18c14.35,0,23.92-9.57,23.92-23.92s-9.57-23.92-23.92-23.92h-33.2c-14.35,0-23.92,9.57-23.92,23.92v29.9c0,14.35,9.57,23.92,23.92,23.92h33.2c14.35,0,23.92-9.57,23.92-23.92h-17.94c0,3.59-2.39,5.98-5.98,5.98ZM729.89,166.33h33.2c3.57,0,5.98,2.39,5.98,5.98s-2.41,5.98-5.98,5.98h-39.18v-5.98c0-3.59,2.39-5.98,5.98-5.98Z" style="fill: #163c9e;"/>
    </g>
    <g id="uuid-00e56c2a-dd96-4e8f-ad9e-c7bb604f4262" data-name="energy">
      <path d="M1305.87,172.31h-17.94c0-3.59-2.41-5.98-5.98-5.98h-30.21v59.8h-17.94v-77.73h48.15c14.35,0,23.92,9.57,23.92,23.92h0ZM1102.56,148.39h-57.12v77.73h17.94v-59.8h39.18c3.57,0,5.98,2.39,5.98,5.98v53.82h17.94v-53.82c0-14.35-9.57-23.92-23.92-23.92h0ZM1203.38,202.2h17.94c0,14.35-9.57,23.92-23.92,23.92h-33.2c-14.35,0-23.92-9.57-23.92-23.92v-29.9c0-14.35,9.57-23.92,23.92-23.92h33.2c14.35,0,23.92,9.57,23.92,23.92s-9.57,23.92-23.92,23.92h-39.18v5.98c0,3.59,2.39,5.98,5.98,5.98h33.2c3.59,0,5.98-2.39,5.98-5.98h0ZM1158.22,172.31v5.98h39.18c3.57,0,5.98-2.39,5.98-5.98s-2.41-5.98-5.98-5.98h-33.2c-3.59,0-5.98,2.39-5.98,5.98h0ZM1015.7,202.2h17.94c0,14.35-9.57,23.92-23.92,23.92h-33.2c-14.35,0-23.92-9.57-23.92-23.92v-29.9c0-14.35,9.57-23.92,23.92-23.92h33.2c14.35,0,23.92,9.57,23.92,23.92s-9.57,23.92-23.92,23.92h-39.18v5.98c0,3.59,2.39,5.98,5.98,5.98h33.2c3.59,0,5.98-2.39,5.98-5.98ZM970.54,172.31v5.98h39.18c3.57,0,5.98-2.39,5.98-5.98s-2.41-5.98-5.98-5.98h-33.2c-3.59,0-5.98,2.39-5.98,5.98ZM1395.6,172.31h0v71.75c0,14.35-9.57,23.92-23.92,23.92h-33.2c-14.35,0-23.92-9.57-23.92-23.92h17.94c0,3.59,2.39,5.98,5.98,5.98h33.2c3.59,0,5.98-2.39,5.98-5.98h0v-17.94h-39.18c-14.35,0-23.92-9.57-23.92-23.92v-29.9c0-14.35,9.57-23.92,23.92-23.92h33.2c14.35,0,23.92,9.57,23.92,23.92h0ZM1377.66,172.31c0-3.59-2.41-5.98-5.98-5.98h-33.2c-3.59,0-5.98,2.39-5.98,5.98v29.9c0,3.59,2.39,5.98,5.98,5.98h39.18v-35.88h0ZM1472.5,148.39v59.8h-39.18c-3.59,0-5.98-2.39-5.98-5.98v-53.82h-17.94v53.82c0,14.35,9.57,23.92,23.92,23.92h39.18v17.94h0c0,3.59-2.39,5.98-5.98,5.98h-33.2c-3.59,0-5.98-2.39-5.98-5.98h-17.94c0,14.35,9.57,23.92,23.92,23.92h33.2c14.35,0,23.92-9.57,23.92-23.92v-95.67h-17.94Z" style="fill: #3c7031;"/>
    </g>
    <g id="uuid-8a2f0de8-87cc-44ef-a06b-cea7f38c2b60" data-name="fill">
      <g>
        <polygon points="115.54 140.42 64.04 222.84 50.57 146.45 102.07 64.03 115.54 140.42" style="fill: #163c9e;"/>
        <polygon points="99.91 51.79 90.78 0 1.86 142.29 43.35 142.29 99.9 51.79 99.91 51.79" style="fill: #163c9e;"/>
        <polygon points="0 150.6 13.07 224.71 55.92 224.71 42.85 150.6 0 150.6" style="fill: #163c9e;"/>
      </g>
      <g>
        <polygon points="117.69 152.65 66.19 235.07 79.63 311.28 131.13 228.86 117.69 152.65" style="fill: #3c7031;"/>
        <polygon points="125.77 150.6 138.84 224.71 181.05 224.71 167.98 150.6 125.77 150.6 125.77 150.6" style="fill: #3c7031;"/>
        <polygon points="81.79 323.52 90.78 374.5 179.19 233.01 138.34 233.01 81.79 323.51 81.79 323.52" style="fill: #3c7031;"/>
      </g>
    </g>
  </g>
</svg>