<?xml version="1.0" encoding="UTF-8"?>
<svg id="uuid-44e702b8-d2f1-42c2-9496-299365b4c641" data-name="Layer_2" xmlns="http://www.w3.org/2000/svg" viewBox="0 0 181.05 374.5">
  <g id="uuid-0e526e2f-d5cb-4490-b19e-40e2110b6270" data-name="partnerEnergy">
    <g id="uuid-5e8a8bf2-0a10-4a74-b512-589319935af5" data-name="fill">
      <g>
        <polygon points="115.54 140.42 64.04 222.84 50.57 146.45 102.07 64.03 115.54 140.42" style="fill: #4075ff;"/>
        <polygon points="99.91 51.79 90.78 0 1.86 142.29 43.35 142.29 99.9 51.79 99.91 51.79" style="fill: #4075ff;"/>
        <polygon points="0 150.6 13.07 224.71 55.92 224.71 42.85 150.6 0 150.6" style="fill: #4075ff;"/>
      </g>
      <g>
        <polygon points="117.69 152.65 66.19 235.07 79.63 311.28 131.13 228.86 117.69 152.65" style="fill: #67db48;"/>
        <polygon points="125.77 150.6 138.84 224.71 181.05 224.71 167.98 150.6 125.77 150.6 125.77 150.6" style="fill: #67db48;"/>
        <polygon points="81.79 323.52 90.78 374.5 179.19 233.01 138.34 233.01 81.79 323.51 81.79 323.52" style="fill: #67db48;"/>
      </g>
    </g>
  </g>
</svg>