<?xml version="1.0" encoding="UTF-8"?>
<svg id="uuid-c874938c-542b-4d35-8b95-e6d071d6eec2" data-name="Layer_2" xmlns="http://www.w3.org/2000/svg" viewBox="0 0 400 619.22">
  <g id="uuid-48fa0fac-b307-4090-acaa-a8427ffbf36b" data-name="partnerEnergy">
    <g id="uuid-4bedbea1-e0de-4752-a9d1-2e7570dcc6ed" data-name="partner">
      <path d="M38.08,465.05H0v79.73h11.96v-27.9h26.12c9.57,0,15.95-6.38,15.95-15.95v-19.93c0-9.57-6.38-15.95-15.95-15.95h0ZM38.08,504.91H11.96v-27.9h26.12c2.38,0,3.99,1.59,3.99,3.99v19.93c0,2.39-1.61,3.99-3.99,3.99h0ZM100.46,465.05h-20.11c-9.57,0-15.95,6.38-15.95,15.95h11.96c0-2.39,1.59-3.99,3.99-3.99h20.11c2.38,0,3.99,1.59,3.99,3.99v3.99h-26.12c-9.57,0-15.95,6.38-15.95,15.95s6.38,15.95,15.95,15.95h38.08v-35.88c0-9.57-6.38-15.95-15.95-15.95h0ZM104.45,504.91h-26.12c-2.39,0-3.99-1.59-3.99-3.99s1.59-3.99,3.99-3.99h26.12v7.97h0ZM174.49,480.99h-11.96c0-2.39-1.61-3.99-3.99-3.99h-20.14v39.86h-11.96v-51.82h32.1c9.57,0,15.95,6.38,15.95,15.95h0ZM400,480.99h-11.96c0-2.39-1.61-3.99-3.99-3.99h-20.14v39.86h-11.96v-51.82h32.1c9.57,0,15.95,6.38,15.95,15.95h0ZM192.25,477.01v23.92c0,2.39,1.59,3.99,3.99,3.99h20.14v11.96h-20.14c-9.57,0-15.95-6.38-15.95-15.95h0v-51.82h11.96v15.94h24.13v11.96h-24.13ZM280.41,480.99v35.88h-11.96v-35.88c0-2.39-1.61-3.99-3.99-3.99h-26.12v39.86h-11.96v-51.82h38.08c9.57,0,15.95,6.38,15.95,15.95h0ZM327.68,504.91h-22.13c-2.39,0-3.99-1.59-3.99-3.99v-3.99h26.12c9.57,0,15.95-6.38,15.95-15.95s-6.38-15.95-15.95-15.95h-22.13c-9.57,0-15.95,6.38-15.95,15.95v19.93c0,9.57,6.38,15.95,15.95,15.95h22.13c9.57,0,15.95-6.38,15.95-15.95h-11.96c0,2.39-1.59,3.99-3.99,3.99h0ZM305.55,477.01h22.13c2.38,0,3.99,1.59,3.99,3.99s-1.61,3.99-3.99,3.99h-26.12v-3.99c0-2.39,1.59-3.99,3.99-3.99Z" style="fill: #163c9e;"/>
    </g>
    <g id="uuid-23db10ab-40eb-440b-b268-c111c21f1fd8" data-name="energy">
      <path d="M276.95,555.43h-11.96c0-2.39-1.61-3.99-3.99-3.99h-20.14v39.86h-11.96v-51.82h32.1c9.57,0,15.95,6.38,15.95,15.95h0ZM141.41,539.48h-38.08v51.82h11.96v-39.86h26.12c2.38,0,3.99,1.59,3.99,3.99v35.88h11.96v-35.88c0-9.57-6.38-15.95-15.95-15.95h0ZM208.62,575.36h11.96c0,9.57-6.38,15.95-15.95,15.95h-22.13c-9.57,0-15.95-6.38-15.95-15.95v-19.93c0-9.57,6.38-15.95,15.95-15.95h22.13c9.57,0,15.95,6.38,15.95,15.95s-6.38,15.95-15.95,15.95h-26.12v3.99c0,2.39,1.59,3.99,3.99,3.99h22.13c2.39,0,3.99-1.59,3.99-3.99h0ZM178.52,555.43v3.99h26.12c2.38,0,3.99-1.59,3.99-3.99s-1.61-3.99-3.99-3.99h-22.13c-2.39,0-3.99,1.59-3.99,3.99h0ZM83.5,575.36h11.96c0,9.57-6.38,15.95-15.95,15.95h-22.13c-9.57,0-15.95-6.38-15.95-15.95v-19.93c0-9.57,6.38-15.95,15.95-15.95h22.13c9.57,0,15.95,6.38,15.95,15.95s-6.38,15.95-15.95,15.95h-26.12v3.99c0,2.39,1.59,3.99,3.99,3.99h22.13c2.39,0,3.99-1.59,3.99-3.99h0ZM53.4,555.43v3.99h26.12c2.38,0,3.99-1.59,3.99-3.99s-1.61-3.99-3.99-3.99h-22.13c-2.39,0-3.99,1.59-3.99,3.99ZM336.78,555.43h0v47.84c0,9.57-6.38,15.95-15.95,15.95h-22.13c-9.57,0-15.95-6.38-15.95-15.95h11.96c0,2.39,1.59,3.99,3.99,3.99h22.13c2.39,0,3.99-1.59,3.99-3.99h0v-11.96h-26.12c-9.57,0-15.95-6.38-15.95-15.95v-19.93c0-9.57,6.38-15.95,15.95-15.95h22.13c9.57,0,15.95,6.38,15.95,15.95h0ZM324.82,555.43c0-2.39-1.61-3.99-3.99-3.99h-22.13c-2.39,0-3.99,1.59-3.99,3.99v19.93c0,2.39,1.59,3.99,3.99,3.99h26.12v-23.92ZM388.04,539.48v39.86h-26.12c-2.39,0-3.99-1.59-3.99-3.99v-35.88h-11.96v35.88c0,9.57,6.38,15.95,15.95,15.95h26.12v11.96h0c0,2.39-1.59,3.99-3.99,3.99h-22.13c-2.39,0-3.99-1.59-3.99-3.99h-11.96c0,9.57,6.38,15.95,15.95,15.95h22.13c9.57,0,15.95-6.38,15.95-15.95v-63.78h-11.96Z" style="fill: #3c7031;"/>
    </g>
    <g id="uuid-29eedeb3-dec7-4b8e-81c9-dc2130fb280b" data-name="fill">
      <g>
        <polygon points="225.01 140.42 173.51 222.84 160.04 146.45 211.54 64.03 225.01 140.42" style="fill: #163c9e;"/>
        <polygon points="209.38 51.79 200.25 0 111.34 142.29 152.83 142.29 209.38 51.79" style="fill: #163c9e;"/>
        <polygon points="109.48 150.6 122.55 224.71 165.4 224.71 152.33 150.6 109.48 150.6 109.48 150.6" style="fill: #163c9e;"/>
      </g>
      <g>
        <polygon points="227.17 152.65 175.67 235.07 189.11 311.28 240.61 228.86 227.17 152.65" style="fill: #3c7031;"/>
        <polygon points="235.25 150.6 248.32 224.71 290.53 224.71 277.46 150.6 235.25 150.6" style="fill: #3c7031;"/>
        <polygon points="191.26 323.52 200.25 374.5 288.66 233.01 247.81 233.01 191.26 323.51 191.26 323.52" style="fill: #3c7031;"/>
      </g>
    </g>
  </g>
</svg>