<?xml version="1.0" encoding="UTF-8"?>
<svg id="uuid-b6d20128-e9e7-4ffe-a4e6-c009cfa2bdf1" data-name="Layer_2" xmlns="http://www.w3.org/2000/svg" viewBox="0 0 600 255.16">
  <g id="uuid-a3e19b54-844e-4666-81e5-569c4186ea50" data-name="partnerEnergy">
    <g id="uuid-0df28d7f-0e3a-4257-ae84-569f96d2583c" data-name="partner">
      <path d="M57.12,23.91H0v119.59h17.94v-41.86h39.18c14.35,0,23.92-9.57,23.92-23.92v-29.9c0-14.35-9.57-23.92-23.92-23.92h0ZM57.12,83.71H17.94v-41.86h39.18c3.57,0,5.98,2.39,5.98,5.98v29.9c0,3.59-2.41,5.98-5.98,5.98ZM150.69,23.91h-30.17c-14.35,0-23.92,9.57-23.92,23.92h17.94c0-3.59,2.39-5.98,5.98-5.98h30.17c3.57,0,5.98,2.39,5.98,5.98v5.98h-39.18c-14.35,0-23.92,9.57-23.92,23.92s9.57,23.92,23.92,23.92h57.12v-53.82c0-14.35-9.57-23.92-23.92-23.92ZM156.67,83.71h-39.18c-3.59,0-5.98-2.39-5.98-5.98s2.39-5.98,5.98-5.98h39.18v11.96h0ZM261.74,47.83h-17.94c0-3.59-2.41-5.98-5.98-5.98h-30.21v59.8h-17.94V23.92h48.15c14.35,0,23.92,9.57,23.92,23.92h0ZM600,47.83h-17.94c0-3.59-2.41-5.98-5.98-5.98h-30.21v59.8h-17.94V23.92h48.15c14.35,0,23.92,9.57,23.92,23.92h0ZM288.38,41.85v35.88c0,3.59,2.39,5.98,5.98,5.98h30.21v17.94h-30.21c-14.35,0-23.92-9.57-23.92-23.92h0V0h17.94v23.92h36.19v17.94h-36.19ZM420.61,47.83v53.82h-17.94v-53.82c0-3.59-2.41-5.98-5.98-5.98h-39.18v59.8h-17.94V23.92h57.12c14.35,0,23.92,9.57,23.92,23.92h0ZM491.53,83.71h-33.2c-3.59,0-5.98-2.39-5.98-5.98v-5.98h39.18c14.35,0,23.92-9.57,23.92-23.92s-9.57-23.92-23.92-23.92h-33.2c-14.35,0-23.92,9.57-23.92,23.92v29.9c0,14.35,9.57,23.92,23.92,23.92h33.2c14.35,0,23.92-9.57,23.92-23.92h-17.94c0,3.59-2.39,5.98-5.98,5.98ZM458.33,41.85h33.2c3.57,0,5.98,2.39,5.98,5.98s-2.41,5.98-5.98,5.98h-39.18v-5.98c0-3.59,2.39-5.98,5.98-5.98Z" style="fill: #d8d8d5;"/>
    </g>
    <g id="uuid-3ff49463-39a1-4e31-91d6-5b2e2a44f9f7" data-name="energy">
      <path d="M415.43,159.48h-17.94c0-3.59-2.41-5.98-5.98-5.98h-30.21v59.8h-17.94v-77.73h48.15c14.35,0,23.92,9.57,23.92,23.92h0ZM212.13,135.56h-57.12v77.73h17.94v-59.8h39.18c3.57,0,5.98,2.39,5.98,5.98v53.82h17.94v-53.82c0-14.35-9.57-23.92-23.92-23.92h0ZM312.94,189.38h17.94c0,14.35-9.57,23.92-23.92,23.92h-33.2c-14.35,0-23.92-9.57-23.92-23.92v-29.9c0-14.35,9.57-23.92,23.92-23.92h33.2c14.35,0,23.92,9.57,23.92,23.92s-9.57,23.92-23.92,23.92h-39.18v5.98c0,3.59,2.39,5.98,5.98,5.98h33.2c3.59,0,5.98-2.39,5.98-5.98ZM267.78,159.48v5.98h39.18c3.57,0,5.98-2.39,5.98-5.98s-2.41-5.98-5.98-5.98h-33.2c-3.59,0-5.98,2.39-5.98,5.98ZM125.26,189.38h17.94c0,14.35-9.57,23.92-23.92,23.92h-33.2c-14.35,0-23.92-9.57-23.92-23.92v-29.9c0-14.35,9.57-23.92,23.92-23.92h33.2c14.35,0,23.92,9.57,23.92,23.92s-9.57,23.92-23.92,23.92h-39.18v5.98c0,3.59,2.39,5.98,5.98,5.98h33.2c3.59,0,5.98-2.39,5.98-5.98h0ZM80.1,159.48v5.98h39.18c3.57,0,5.98-2.39,5.98-5.98s-2.41-5.98-5.98-5.98h-33.2c-3.59,0-5.98,2.39-5.98,5.98h0ZM505.17,159.48h0v71.75c0,14.35-9.57,23.92-23.92,23.92h-33.2c-14.35,0-23.92-9.57-23.92-23.92h17.94c0,3.59,2.39,5.98,5.98,5.98h33.2c3.59,0,5.98-2.39,5.98-5.98h0v-17.94h-39.18c-14.35,0-23.92-9.57-23.92-23.92v-29.9c0-14.35,9.57-23.92,23.92-23.92h33.2c14.35,0,23.92,9.57,23.92,23.92h0ZM487.23,159.48c0-3.59-2.41-5.98-5.98-5.98h-33.2c-3.59,0-5.98,2.39-5.98,5.98v29.9c0,3.59,2.39,5.98,5.98,5.98h39.18v-35.88ZM582.06,135.56v59.8h-39.18c-3.59,0-5.98-2.39-5.98-5.98v-53.82h-17.94v53.82c0,14.35,9.57,23.92,23.92,23.92h39.18v17.94h0c0,3.59-2.39,5.98-5.98,5.98h-33.2c-3.59,0-5.98-2.39-5.98-5.98h-17.94c0,14.35,9.57,23.92,23.92,23.92h33.2c14.35,0,23.92-9.57,23.92-23.92v-95.67h-17.94Z" style="fill: #d8d8d5;"/>
    </g>
  </g>
</svg>