<?xml version="1.0" encoding="UTF-8"?>
<svg id="uuid-81768cc4-aadf-46cd-94d6-57b4254cf596" data-name="Layer_2" xmlns="http://www.w3.org/2000/svg" viewBox="0 0 871.56 374.5">
  <g id="uuid-24917823-5d8a-4cd4-8c81-9fba07404b97" data-name="partnerEnergy">
    <g id="uuid-4c86cd0e-df96-48a6-9f5d-17ff7bcf00f2" data-name="partner">
      <path d="M328.68,92.56h-57.12v119.59h17.94v-41.86h39.18c14.35,0,23.92-9.57,23.92-23.92v-29.9c0-14.35-9.57-23.92-23.92-23.92h0ZM328.68,152.36h-39.18v-41.86h39.18c3.57,0,5.98,2.39,5.98,5.98v29.9c0,3.59-2.41,5.98-5.98,5.98ZM422.25,92.56h-30.17c-14.35,0-23.92,9.57-23.92,23.92h17.94c0-3.59,2.39-5.98,5.98-5.98h30.17c3.57,0,5.98,2.39,5.98,5.98v5.98h-39.18c-14.35,0-23.92,9.57-23.92,23.92s9.57,23.92,23.92,23.92h57.12v-53.82c0-14.35-9.57-23.92-23.92-23.92ZM428.23,152.36h-39.18c-3.59,0-5.98-2.39-5.98-5.98s2.39-5.98,5.98-5.98h39.18v11.96h0ZM533.3,116.48h-17.94c0-3.59-2.41-5.98-5.98-5.98h-30.21v59.8h-17.94v-77.73h48.15c14.35,0,23.92,9.57,23.92,23.92h0ZM871.56,116.48h-17.94c0-3.59-2.41-5.98-5.98-5.98h-30.21v59.8h-17.94v-77.73h48.15c14.35,0,23.92,9.57,23.92,23.92h0ZM559.94,110.5v35.88c0,3.59,2.39,5.98,5.98,5.98h30.21v17.94h-30.21c-14.35,0-23.92-9.57-23.92-23.92h0v-77.73h17.94v23.92h36.19v17.94h-36.19ZM692.17,116.48v53.82h-17.94v-53.82c0-3.59-2.41-5.98-5.98-5.98h-39.18v59.8h-17.94v-77.73h57.12c14.35,0,23.92,9.57,23.92,23.92h0ZM763.09,152.36h-33.2c-3.59,0-5.98-2.39-5.98-5.98v-5.98h39.18c14.35,0,23.92-9.57,23.92-23.92s-9.57-23.92-23.92-23.92h-33.2c-14.35,0-23.92,9.57-23.92,23.92v29.9c0,14.35,9.57,23.92,23.92,23.92h33.2c14.35,0,23.92-9.57,23.92-23.92h-17.94c0,3.59-2.39,5.98-5.98,5.98ZM729.89,110.5h33.2c3.57,0,5.98,2.39,5.98,5.98s-2.41,5.98-5.98,5.98h-39.18v-5.98c0-3.59,2.39-5.98,5.98-5.98Z" style="fill: #d8d8d5;"/>
    </g>
    <g id="uuid-9a7fe126-8fce-4188-beda-766f5bb6a7b8" data-name="energy">
      <path d="M686.99,228.13h-17.94c0-3.59-2.41-5.98-5.98-5.98h-30.21v59.8h-17.94v-77.73h48.15c14.35,0,23.92,9.57,23.92,23.92h0ZM483.69,204.21h-57.12v77.73h17.94v-59.8h39.18c3.57,0,5.98,2.39,5.98,5.98v53.82h17.94v-53.82c0-14.35-9.57-23.92-23.92-23.92h0ZM584.5,258.03h17.94c0,14.35-9.57,23.92-23.92,23.92h-33.2c-14.35,0-23.92-9.57-23.92-23.92v-29.9c0-14.35,9.57-23.92,23.92-23.92h33.2c14.35,0,23.92,9.57,23.92,23.92s-9.57,23.92-23.92,23.92h-39.18v5.98c0,3.59,2.39,5.98,5.98,5.98h33.2c3.59,0,5.98-2.39,5.98-5.98ZM539.34,228.13v5.98h39.18c3.57,0,5.98-2.39,5.98-5.98s-2.41-5.98-5.98-5.98h-33.2c-3.59,0-5.98,2.39-5.98,5.98ZM396.82,258.03h17.94c0,14.35-9.57,23.92-23.92,23.92h-33.2c-14.35,0-23.92-9.57-23.92-23.92v-29.9c0-14.35,9.57-23.92,23.92-23.92h33.2c14.35,0,23.92,9.57,23.92,23.92s-9.57,23.92-23.92,23.92h-39.18v5.98c0,3.59,2.39,5.98,5.98,5.98h33.2c3.59,0,5.98-2.39,5.98-5.98h0ZM351.66,228.13v5.98h39.18c3.57,0,5.98-2.39,5.98-5.98s-2.41-5.98-5.98-5.98h-33.2c-3.59,0-5.98,2.39-5.98,5.98h0ZM776.73,228.13h0v71.75c0,14.35-9.57,23.92-23.92,23.92h-33.2c-14.35,0-23.92-9.57-23.92-23.92h17.94c0,3.59,2.39,5.98,5.98,5.98h33.2c3.59,0,5.98-2.39,5.98-5.98h0v-17.94h-39.18c-14.35,0-23.92-9.57-23.92-23.92v-29.9c0-14.35,9.57-23.92,23.92-23.92h33.2c14.35,0,23.92,9.57,23.92,23.92h0ZM758.79,228.13c0-3.59-2.41-5.98-5.98-5.98h-33.2c-3.59,0-5.98,2.39-5.98,5.98v29.9c0,3.59,2.39,5.98,5.98,5.98h39.18v-35.88ZM853.62,204.21v59.8h-39.18c-3.59,0-5.98-2.39-5.98-5.98v-53.82h-17.94v53.82c0,14.35,9.57,23.92,23.92,23.92h39.18v17.94h0c0,3.59-2.39,5.98-5.98,5.98h-33.2c-3.59,0-5.98-2.39-5.98-5.98h-17.94c0,14.35,9.57,23.92,23.92,23.92h33.2c14.35,0,23.92-9.57,23.92-23.92v-95.67h-17.94Z" style="fill: #d8d8d5;"/>
    </g>
    <g id="uuid-379ff0e3-62e4-4e3b-a694-9ca969fd16ea" data-name="fill">
      <path d="M115.54,140.42l-51.5,82.42-13.47-76.39,51.5-82.42,13.47,76.39ZM99.91,51.79L90.78,0,1.86,142.29h41.49l56.55-90.5h.01ZM0,150.6l13.07,74.11h42.85l-13.07-74.11H0ZM117.69,152.65l-51.5,82.42,13.44,76.21,51.5-82.42-13.44-76.21ZM125.77,150.6l13.07,74.11h42.21l-13.07-74.11h-42.21,0ZM81.79,323.52l8.99,50.98,88.41-141.49h-40.85l-56.55,90.5h0Z" style="fill: #d8d8d5;"/>
    </g>
  </g>
</svg>