<?xml version="1.0" encoding="UTF-8"?>
<svg id="uuid-4b156e55-4e4e-45a6-94d0-787572d4c4f7" data-name="Layer_2" xmlns="http://www.w3.org/2000/svg" viewBox="0 0 200.01 420.06">
  <g id="uuid-5ed9c9b2-799e-4afa-860f-5e11a4d11c79" data-name="partnerEnergy">
    <g id="uuid-c5eb3a57-de01-4bbb-a79c-305c7becf074" data-name="line">
      <path d="M184.43,165.06h-50.65L104.68,0,0,167.52l15.57,88.28h51.3l28.96,164.26,104.18-166.72-15.57-88.28h-.01ZM190.52,247.48h-42.21l-13.07-74.11h42.21l13.07,74.11h0ZM73.51,245.61l-13.47-76.39,51.5-82.42,13.47,76.39-51.5,82.42ZM127.17,175.43l13.44,76.21-51.5,82.42-13.44-76.21,51.5-82.42h0ZM109.38,74.56l-56.55,90.5H11.34L100.25,22.77l9.13,51.79ZM9.47,173.37h42.85l13.07,74.11H22.54s-13.07-74.11-13.07-74.11ZM91.26,346.3l56.55-90.5h40.85l-88.41,141.48-8.99-50.98h0Z" style="fill: #d8d8d5;"/>
    </g>
  </g>
</svg>