<?xml version="1.0" encoding="UTF-8"?>
<svg id="uuid-a888c5e4-1d72-43c6-be81-dace96c50611" data-name="Layer_2" xmlns="http://www.w3.org/2000/svg" viewBox="0 0 880.64 420.06">
  <g id="uuid-a3138a12-ce19-431f-95e5-4966c1b112e1" data-name="partnerEnergy">
    <g id="uuid-1d6c37dd-e0fb-4056-bf51-0ec553e0830d" data-name="partner">
      <path d="M337.76,115.33h-57.12v119.59h17.94v-41.86h39.18c14.35,0,23.92-9.57,23.92-23.92v-29.9c0-14.35-9.57-23.92-23.92-23.92h0ZM337.76,175.13h-39.18v-41.86h39.18c3.57,0,5.98,2.39,5.98,5.98v29.9c0,3.59-2.41,5.98-5.98,5.98ZM431.33,115.33h-30.17c-14.35,0-23.92,9.57-23.92,23.92h17.94c0-3.59,2.39-5.98,5.98-5.98h30.17c3.57,0,5.98,2.39,5.98,5.98v5.98h-39.18c-14.35,0-23.92,9.57-23.92,23.92s9.57,23.92,23.92,23.92h57.12v-53.82c0-14.35-9.57-23.92-23.92-23.92ZM437.31,175.13h-39.18c-3.59,0-5.98-2.39-5.98-5.98s2.39-5.98,5.98-5.98h39.18v11.96h0ZM542.38,139.25h-17.94c0-3.59-2.41-5.98-5.98-5.98h-30.21v59.8h-17.94v-77.73h48.15c14.35,0,23.92,9.57,23.92,23.92h0ZM880.64,139.25h-17.94c0-3.59-2.41-5.98-5.98-5.98h-30.21v59.8h-17.94v-77.73h48.15c14.35,0,23.92,9.57,23.92,23.92h0ZM569.02,133.27v35.88c0,3.59,2.39,5.98,5.98,5.98h30.21v17.94h-30.21c-14.35,0-23.92-9.57-23.92-23.92h0v-77.73h17.94v23.92h36.19v17.94h-36.19ZM701.25,139.25v53.82h-17.94v-53.82c0-3.59-2.41-5.98-5.98-5.98h-39.18v59.8h-17.94v-77.73h57.12c14.35,0,23.92,9.57,23.92,23.92h0ZM772.17,175.13h-33.2c-3.59,0-5.98-2.39-5.98-5.98v-5.98h39.18c14.35,0,23.92-9.57,23.92-23.92s-9.57-23.92-23.92-23.92h-33.2c-14.35,0-23.92,9.57-23.92,23.92v29.9c0,14.35,9.57,23.92,23.92,23.92h33.2c14.35,0,23.92-9.57,23.92-23.92h-17.94c0,3.59-2.39,5.98-5.98,5.98ZM738.97,133.27h33.2c3.57,0,5.98,2.39,5.98,5.98s-2.41,5.98-5.98,5.98h-39.18v-5.98c0-3.59,2.39-5.98,5.98-5.98Z" style="fill: #d8d8d5;"/>
    </g>
    <g id="uuid-6d7de267-5f7f-4a5d-9bba-2494080ea694" data-name="energy">
      <path d="M696.07,250.9h-17.94c0-3.59-2.41-5.98-5.98-5.98h-30.21v59.8h-17.94v-77.73h48.15c14.35,0,23.92,9.57,23.92,23.92h0ZM492.77,226.98h-57.12v77.73h17.94v-59.8h39.18c3.57,0,5.98,2.39,5.98,5.98v53.82h17.94v-53.82c0-14.35-9.57-23.92-23.92-23.92h0ZM593.58,280.8h17.94c0,14.35-9.57,23.92-23.92,23.92h-33.2c-14.35,0-23.92-9.57-23.92-23.92v-29.9c0-14.35,9.57-23.92,23.92-23.92h33.2c14.35,0,23.92,9.57,23.92,23.92s-9.57,23.92-23.92,23.92h-39.18v5.98c0,3.59,2.39,5.98,5.98,5.98h33.2c3.59,0,5.98-2.39,5.98-5.98ZM548.42,250.9v5.98h39.18c3.57,0,5.98-2.39,5.98-5.98s-2.41-5.98-5.98-5.98h-33.2c-3.59,0-5.98,2.39-5.98,5.98ZM405.9,280.8h17.94c0,14.35-9.57,23.92-23.92,23.92h-33.2c-14.35,0-23.92-9.57-23.92-23.92v-29.9c0-14.35,9.57-23.92,23.92-23.92h33.2c14.35,0,23.92,9.57,23.92,23.92s-9.57,23.92-23.92,23.92h-39.18v5.98c0,3.59,2.39,5.98,5.98,5.98h33.2c3.59,0,5.98-2.39,5.98-5.98h0ZM360.74,250.9v5.98h39.18c3.57,0,5.98-2.39,5.98-5.98s-2.41-5.98-5.98-5.98h-33.2c-3.59,0-5.98,2.39-5.98,5.98h0ZM785.81,250.9h0v71.75c0,14.35-9.57,23.92-23.92,23.92h-33.2c-14.35,0-23.92-9.57-23.92-23.92h17.94c0,3.59,2.39,5.98,5.98,5.98h33.2c3.59,0,5.98-2.39,5.98-5.98h0v-17.94h-39.18c-14.35,0-23.92-9.57-23.92-23.92v-29.9c0-14.35,9.57-23.92,23.92-23.92h33.2c14.35,0,23.92,9.57,23.92,23.92h0ZM767.87,250.9c0-3.59-2.41-5.98-5.98-5.98h-33.2c-3.59,0-5.98,2.39-5.98,5.98v29.9c0,3.59,2.39,5.98,5.98,5.98h39.18v-35.88ZM862.7,226.98v59.8h-39.18c-3.59,0-5.98-2.39-5.98-5.98v-53.82h-17.94v53.82c0,14.35,9.57,23.92,23.92,23.92h39.18v17.94h0c0,3.59-2.39,5.98-5.98,5.98h-33.2c-3.59,0-5.98-2.39-5.98-5.98h-17.94c0,14.35,9.57,23.92,23.92,23.92h33.2c14.35,0,23.92-9.57,23.92-23.92v-95.67h-17.94Z" style="fill: #d8d8d5;"/>
    </g>
    <g id="uuid-7b6e2528-38dc-4c13-a629-87b33db71cca" data-name="line">
      <path d="M184.43,165.06h-50.65L104.68,0,0,167.52l15.57,88.28h51.3l28.96,164.26,104.18-166.72-15.57-88.28h-.01ZM190.52,247.48h-42.21l-13.07-74.11h42.21l13.07,74.11h0ZM73.51,245.61l-13.47-76.39,51.5-82.42,13.47,76.39-51.5,82.42ZM127.17,175.43l13.44,76.21-51.5,82.42-13.44-76.21,51.5-82.42h0ZM109.38,74.56l-56.55,90.5H11.34L100.25,22.77l9.13,51.79ZM9.47,173.37h42.85l13.07,74.11H22.54l-13.07-74.11ZM91.26,346.3l56.55-90.5h40.85l-88.41,141.48-8.99-50.98h0Z" style="fill: #d8d8d5;"/>
    </g>
  </g>
</svg>