<?xml version="1.0" encoding="UTF-8"?>
<svg id="uuid-52e7ac0e-64eb-4958-a4ba-dbd98cefc912" data-name="Layer_2" xmlns="http://www.w3.org/2000/svg" viewBox="0 0 400 641.99">
  <g id="uuid-39455028-1605-47c4-97ec-ebfb228de122" data-name="partnerEnergy">
    <g id="uuid-4173e6ef-f299-4076-a984-77df50540232" data-name="partner">
      <path d="M38.08,487.82H0v79.73h11.96v-27.9h26.12c9.57,0,15.95-6.38,15.95-15.95v-19.93c0-9.57-6.38-15.95-15.95-15.95h0ZM38.08,527.68H11.96v-27.9h26.12c2.38,0,3.99,1.59,3.99,3.99v19.93c0,2.39-1.61,3.99-3.99,3.99h0ZM100.46,487.82h-20.11c-9.57,0-15.95,6.38-15.95,15.95h11.96c0-2.39,1.59-3.99,3.99-3.99h20.11c2.38,0,3.99,1.59,3.99,3.99v3.99h-26.12c-9.57,0-15.95,6.38-15.95,15.95s6.38,15.95,15.95,15.95h38.08v-35.88c0-9.57-6.38-15.95-15.95-15.95h0ZM104.45,527.68h-26.12c-2.39,0-3.99-1.59-3.99-3.99s1.59-3.99,3.99-3.99h26.12v7.97h0ZM174.49,503.76h-11.96c0-2.39-1.61-3.99-3.99-3.99h-20.14v39.86h-11.96v-51.82h32.1c9.57,0,15.95,6.38,15.95,15.95h0ZM400,503.76h-11.96c0-2.39-1.61-3.99-3.99-3.99h-20.14v39.86h-11.96v-51.82h32.1c9.57,0,15.95,6.38,15.95,15.95h0ZM192.25,499.78v23.92c0,2.39,1.59,3.99,3.99,3.99h20.14v11.96h-20.14c-9.57,0-15.95-6.38-15.95-15.95h0v-51.82h11.96v15.94h24.13v11.96h-24.13ZM280.41,503.76v35.88h-11.96v-35.88c0-2.39-1.61-3.99-3.99-3.99h-26.12v39.86h-11.96v-51.82h38.08c9.57,0,15.95,6.38,15.95,15.95h0ZM327.68,527.68h-22.13c-2.39,0-3.99-1.59-3.99-3.99v-3.99h26.12c9.57,0,15.95-6.38,15.95-15.95s-6.38-15.95-15.95-15.95h-22.13c-9.57,0-15.95,6.38-15.95,15.95v19.93c0,9.57,6.38,15.95,15.95,15.95h22.13c9.57,0,15.95-6.38,15.95-15.95h-11.96c0,2.39-1.59,3.99-3.99,3.99h0ZM305.55,499.78h22.13c2.38,0,3.99,1.59,3.99,3.99s-1.61,3.99-3.99,3.99h-26.12v-3.99c0-2.39,1.59-3.99,3.99-3.99Z" style="fill: #d8d8d5;"/>
    </g>
    <g id="uuid-1d69db2b-803a-4fa4-b639-2277abc77e3c" data-name="energy">
      <path d="M276.95,578.2h-11.96c0-2.39-1.61-3.99-3.99-3.99h-20.14v39.86h-11.96v-51.82h32.1c9.57,0,15.95,6.38,15.95,15.95h0ZM141.41,562.25h-38.08v51.82h11.96v-39.86h26.12c2.38,0,3.99,1.59,3.99,3.99v35.88h11.96v-35.88c0-9.57-6.38-15.95-15.95-15.95h0ZM208.62,598.13h11.96c0,9.57-6.38,15.95-15.95,15.95h-22.13c-9.57,0-15.95-6.38-15.95-15.95v-19.93c0-9.57,6.38-15.95,15.95-15.95h22.13c9.57,0,15.95,6.38,15.95,15.95s-6.38,15.95-15.95,15.95h-26.12v3.99c0,2.39,1.59,3.99,3.99,3.99h22.13c2.39,0,3.99-1.59,3.99-3.99h0ZM178.52,578.2v3.99h26.12c2.38,0,3.99-1.59,3.99-3.99s-1.61-3.99-3.99-3.99h-22.13c-2.39,0-3.99,1.59-3.99,3.99h0ZM83.5,598.13h11.96c0,9.57-6.38,15.95-15.95,15.95h-22.13c-9.57,0-15.95-6.38-15.95-15.95v-19.93c0-9.57,6.38-15.95,15.95-15.95h22.13c9.57,0,15.95,6.38,15.95,15.95s-6.38,15.95-15.95,15.95h-26.12v3.99c0,2.39,1.59,3.99,3.99,3.99h22.13c2.39,0,3.99-1.59,3.99-3.99h0ZM53.4,578.2v3.99h26.12c2.38,0,3.99-1.59,3.99-3.99s-1.61-3.99-3.99-3.99h-22.13c-2.39,0-3.99,1.59-3.99,3.99ZM336.78,578.2h0v47.84c0,9.57-6.38,15.95-15.95,15.95h-22.13c-9.57,0-15.95-6.38-15.95-15.95h11.96c0,2.39,1.59,3.99,3.99,3.99h22.13c2.39,0,3.99-1.59,3.99-3.99h0v-11.96h-26.12c-9.57,0-15.95-6.38-15.95-15.95v-19.93c0-9.57,6.38-15.95,15.95-15.95h22.13c9.57,0,15.95,6.38,15.95,15.95h0ZM324.82,578.2c0-2.39-1.61-3.99-3.99-3.99h-22.13c-2.39,0-3.99,1.59-3.99,3.99v19.93c0,2.39,1.59,3.99,3.99,3.99h26.12v-23.92ZM388.04,562.25v39.86h-26.12c-2.39,0-3.99-1.59-3.99-3.99v-35.88h-11.96v35.88c0,9.57,6.38,15.95,15.95,15.95h26.12v11.96h0c0,2.39-1.59,3.99-3.99,3.99h-22.13c-2.39,0-3.99-1.59-3.99-3.99h-11.96c0,9.57,6.38,15.95,15.95,15.95h22.13c9.57,0,15.95-6.38,15.95-15.95v-63.78h-11.96Z" style="fill: #d8d8d5;"/>
    </g>
    <g id="uuid-9b55dd50-cc67-46a3-a31c-202aed82e1f6" data-name="line">
      <path d="M284.44,165.06h-50.65L204.69,0l-104.68,167.52,15.57,88.28h51.3l28.96,164.26,104.18-166.72-15.57-88.28h-.01ZM290.53,247.48h-42.21l-13.07-74.11h42.21l13.07,74.11h0ZM173.52,245.61l-13.47-76.39,51.5-82.42,13.47,76.39-51.5,82.42ZM227.18,175.43l13.44,76.21-51.5,82.42-13.44-76.21,51.5-82.42h0ZM209.39,74.56l-56.55,90.5h-41.49L200.26,22.77l9.13,51.79ZM109.48,173.37h42.85l13.07,74.11h-42.85l-13.07-74.11ZM191.27,346.3l56.55-90.5h40.85l-88.41,141.48-8.99-50.98h0Z" style="fill: #d8d8d5;"/>
    </g>
  </g>
</svg>