<?xml version="1.0" encoding="UTF-8"?>
<svg id="uuid-f8e65872-6c89-4a7a-a504-ceb552d780a5" data-name="Layer_2" xmlns="http://www.w3.org/2000/svg" viewBox="0 0 440 248">
  <defs>
    <style>
      .uuid-c46eae40-21f3-4b2c-aa6d-fcb9dbb7c06f {
        fill: #fc3d21;
      }
    </style>
  </defs>
  <g id="uuid-a23898c6-3def-4a39-8f90-c5acc8b3b312" data-name="Graphics">
    <path class="uuid-c46eae40-21f3-4b2c-aa6d-fcb9dbb7c06f" d="M100,72h-16c-2.21,0-4,1.79-4,4v80c0,2.21,1.79,4,4,4s4-1.79,4-4v-76h12c6.62,0,12,5.38,12,12v8c0,5.21-3.35,9.65-8,11.3v-19.3c0-2.21-1.79-4-4-4s-4,1.79-4,4v64c0,2.21,1.79,4,4,4s4-1.79,4-4v-35.3c4.65,1.65,8,6.09,8,11.3v32c0,2.21,1.79,4,4,4s4-1.79,4-4v-32c0-6.55-3.18-12.35-8.05-16,4.88-3.65,8.05-9.45,8.05-16v-8c0-11.03-8.97-20-20-20ZM180,40c-11.03,0-20,8.97-20,20v128c0,11.03,8.97,20,20,20s20-8.97,20-20v-56c0-2.21-1.79-4-4-4s-4,1.79-4,4v56c0,6.62-5.38,12-12,12s-12-5.38-12-12V60c0-6.62,5.38-12,12-12s12,5.38,12,12v56c0,2.21,1.79,4,4,4s4-1.79,4-4v-56c0-11.03-8.97-20-20-20ZM260,40c-11.03,0-20,8.97-20,20v152c0,2.21,1.79,4,4,4s4-1.79,4-4V60c0-6.62,5.38-12,12-12s12,5.38,12,12v128c0,2.21,1.79,4,4,4s4-1.79,4-4V60c0-11.03-8.97-20-20-20ZM348,88c-1.4,0-2.75.25-4,.7v-4.7c0-6.62-5.38-12-12-12s-12,5.38-12,12v80c0,2.21,1.79,4,4,4s4-1.79,4-4v-80c0-2.21,1.79-4,4-4s4,1.79,4,4v80c0,2.21,1.79,4,4,4s4-1.79,4-4v-64c0-2.21,1.79-4,4-4s4,1.79,4,4v48c0,2.21,1.79,4,4,4s4-1.79,4-4v-48c0-6.62-5.38-12-12-12ZM24,116v16c0,2.21-1.79,4-4,4s-4-1.79-4-4v-16c0-2.21,1.79-4,4-4s4,1.79,4,4ZM36,96c-2.21,0-4,1.79-4,4v48c0,2.21,1.79,4,4,4s4-1.79,4-4v-48c0-2.21-1.79-4-4-4ZM52,72c-2.21,0-4,1.79-4,4v96c0,2.21,1.79,4,4,4s4-1.79,4-4v-96c0-2.21-1.79-4-4-4ZM68,104c-2.21,0-4,1.79-4,4v32c0,2.21,1.79,4,4,4s4-1.79,4-4v-32c0-2.21-1.79-4-4-4ZM1.16,121.16c-.72.76-1.16,1.8-1.16,2.84,0,.52.12,1.04.32,1.52.2.52.48.92.84,1.32.76.72,1.8,1.16,2.84,1.16s2.08-.44,2.84-1.16c.36-.4.64-.8.84-1.32.2-.48.32-1,.32-1.52,0-1.04-.44-2.08-1.16-2.84-1.48-1.48-4.16-1.48-5.68,0ZM132,64c-2.21,0-4,1.79-4,4v112c0,2.21,1.79,4,4,4s4-1.79,4-4v-112c0-2.21-1.79-4-4-4ZM148,88c-2.21,0-4,1.79-4,4v64c0,2.21,1.79,4,4,4s4-1.79,4-4v-64c0-2.21-1.79-4-4-4ZM176,60v128c0,2.21,1.79,4,4,4s4-1.79,4-4V60c0-2.21-1.79-4-4-4s-4,1.79-4,4ZM260,56c-2.21,0-4,1.79-4,4v136c0,2.21,1.79,4,4,4s4-1.79,4-4V60c0-2.21-1.79-4-4-4ZM212,0c-2.21,0-4,1.79-4,4v208c0,2.21,1.79,4,4,4s4-1.79,4-4V4c0-2.21-1.79-4-4-4ZM228,32c-2.21,0-4,1.79-4,4v208c0,2.21,1.79,4,4,4s4-1.79,4-4V36c0-2.21-1.79-4-4-4ZM292,88c-2.21,0-4,1.79-4,4v64c0,2.21,1.79,4,4,4s4-1.79,4-4v-64c0-2.21-1.79-4-4-4ZM308,64c-2.21,0-4,1.79-4,4v112c0,2.21,1.79,4,4,4s4-1.79,4-4v-112c0-2.21-1.79-4-4-4ZM372,112c-2.21,0-4,1.79-4,4v16c0,2.21,1.79,4,4,4s4-1.79,4-4v-16c0-2.21-1.79-4-4-4ZM388,88c-2.21,0-4,1.79-4,4v64c0,2.21,1.79,4,4,4s4-1.79,4-4v-64c0-2.21-1.79-4-4-4ZM404,112c-2.21,0-4,1.79-4,4v16c0,2.21,1.79,4,4,4s4-1.79,4-4v-16c0-2.21-1.79-4-4-4ZM420,104c-2.21,0-4,1.79-4,4v32c0,2.21,1.79,4,4,4s4-1.79,4-4v-32c0-2.21-1.79-4-4-4ZM438.84,121.16c-.4-.36-.84-.64-1.32-.84-.96-.4-2.08-.4-3.04,0-.48.2-.92.48-1.32.84-.72.76-1.16,1.8-1.16,2.84,0,.52.12,1.04.32,1.52.2.52.48.92.84,1.32.4.36.84.64,1.32.84.48.24,1,.32,1.52.32s1.04-.08,1.52-.32c.48-.2.92-.48,1.32-.84.36-.4.64-.8.84-1.32.24-.48.32-1,.32-1.52,0-1.04-.44-2.08-1.16-2.84Z"/>
  </g>
</svg>