<?xml version="1.0" encoding="UTF-8"?>
<svg id="uuid-549d380e-8f5d-433b-9a04-45789f891676" data-name="Layer_2" xmlns="http://www.w3.org/2000/svg" viewBox="0 0 978.26 182.24">
  <defs>
    <style>
      .uuid-a10ff20e-7e18-4ef8-a37b-5dba3a600ab4 {
        fill: #e1dbd3;
      }
    </style>
  </defs>
  <g id="uuid-6a879738-7649-446f-8e72-09feec506b14" data-name="Graphics">
    <path class="uuid-a10ff20e-7e18-4ef8-a37b-5dba3a600ab4" d="M36.33,2.02c6.73,0,15.34,1.08,21.93,7.94,5.11,5.25,7.67,13.05,7.67,20.19,0,7.67-2.69,14.4-7.13,18.7-3.5,3.36-8.21,5.38-12.38,6.19l28.13,36.74h-28.93l-22.34-34.45v34.45H0V2.02h36.33ZM23.28,42.25h4.44c3.5,0,8.48-.94,11.3-3.63,1.75-1.75,2.96-4.71,2.96-7.54s-1.08-5.65-3.1-7.54c-2.15-2.15-6.06-3.5-11.17-3.5h-4.44v22.2ZM178.74,80.47c-9.15,8.75-22.07,13.32-35.39,13.32s-26.24-4.58-35.39-13.32c-9.55-9.15-14.13-21.67-14.13-33.51s4.58-24.63,14.13-33.64C117.11,4.58,130.03,0,143.35,0s26.24,4.58,35.39,13.32c9.55,9.02,14.13,21.67,14.13,33.64s-4.58,24.36-14.13,33.51ZM125.18,29.74c-4.84,4.71-7.13,11.3-7.13,17.63,0,7.94,3.77,13.46,7.13,16.69,4.31,4.17,10.36,7.13,18.17,7.13s13.86-2.83,18.03-7c4.17-4.17,7.27-10.36,7.27-17.22s-3.1-13.19-7.27-17.22c-4.98-4.71-11.84-7.13-18.03-7.13s-13.32,2.29-18.17,7.13ZM286.49,89.35c-9.29,3.36-14.4,4.44-20.19,4.44-15.61,0-27.32-6.19-34.72-13.46-8.75-8.75-13.59-20.99-13.59-32.7,0-12.78,5.52-24.89,13.59-33.1,7.94-8.07,19.92-14,33.91-14,4.31,0,11.3.67,20.99,4.58v27.86c-7.54-9.29-16.42-9.82-20.32-9.82-6.73,0-11.84,2.02-16.15,5.92-5.52,5.11-7.8,12.11-7.8,18.44s2.56,13.05,7.27,17.49c3.9,3.63,10.09,6.19,16.69,6.19,3.5,0,12.11-.4,20.32-9.42v27.59ZM347.29,39.02l28.53-37.01h28.8l-35.66,42.52,38.89,47.23h-30.14l-30.41-38.89v38.89h-23.28V2.02h23.28v37.01ZM484.63,21.8h-27.72v14.94h26.24v19.78h-26.24v15.48h27.72v19.78h-51V2.02h51v19.78ZM559.03,21.8v69.98h-23.28V21.8h-19.11V2.02h61.5v19.78h-19.11ZM722.19,89.35c-9.28,3.36-14.4,4.44-20.18,4.44-15.61,0-27.32-6.19-34.72-13.46-8.75-8.75-13.59-20.99-13.59-32.7,0-12.78,5.52-24.89,13.59-33.1,7.94-8.07,19.92-14,33.91-14,4.31,0,11.3.67,20.99,4.58v27.86c-7.54-9.29-16.42-9.82-20.32-9.82-6.73,0-11.84,2.02-16.15,5.92-5.52,5.11-7.81,12.11-7.81,18.44s2.56,13.05,7.27,17.49c3.9,3.63,10.09,6.19,16.69,6.19,3.5,0,12.11-.4,20.32-9.42v27.59ZM780.95,2.02v89.76h-23.28V2.02h23.28ZM853.14,21.8v69.98h-23.28V21.8h-19.11V2.02h61.5v19.78h-19.11ZM921.33,48.71l-32.43-46.7h27.86l16.96,24.49,16.28-24.49h28.26l-33.51,46.7v43.06h-23.41v-43.06ZM0,179.71v-41.92l28.49,29.85v-27.2h6.01v41.68l-28.5-29.85v27.44H0ZM147.59,146.09h-15.66v9.95h15.19v5.65h-15.19v12.36h15.66v5.65h-21.67v-39.27h21.67v5.65ZM239.37,140.44l10.36,26.26,10.6-28.14,10.24,28.14,10.71-26.26h6.48l-17.54,41.8-10.24-27.85-10.36,27.85-16.72-41.8h6.48ZM469.26,179.71l8.24-42.21,13.66,30.5,13.78-30.5,7.42,42.21h-6.12l-4-23.67-11.42,25.49-11.3-25.55-4.12,23.73h-6.12ZM608.6,140.44v23.67c0,2.12.06,4.71,1.24,6.77,1.18,2,3.83,4.06,7.3,4.06s6.12-2.06,7.3-4.06c1.18-2.06,1.24-4.65,1.24-6.77v-23.67h6v25.26c0,3.12-.65,6.89-3.65,10.19-2.06,2.24-5.53,4.59-10.89,4.59s-8.83-2.35-10.89-4.59c-3-3.3-3.65-7.07-3.65-10.19v-25.26h6ZM740.06,149.15c-.35-.88-.88-1.71-1.77-2.47-1.24-1-2.53-1.41-4.24-1.41-3.65,0-5.53,2.18-5.53,4.71,0,1.18.41,3.24,4.24,4.77l3.95,1.59c7.24,2.94,9.24,7.06,9.24,11.54,0,7.48-5.3,12.6-12.66,12.6-4.53,0-7.24-1.71-9.24-3.94-2.12-2.36-3.06-4.95-3.3-7.65l5.95-1.3c0,1.94.71,3.77,1.65,5,1.12,1.41,2.77,2.36,5.12,2.36,3.65,0,6.48-2.65,6.48-6.59s-3.06-5.65-5.65-6.71l-3.77-1.59c-3.24-1.35-8.01-4.06-8.01-9.95,0-5.3,4.12-10.36,11.48-10.36,4.24,0,6.65,1.59,7.89,2.65,1.06.94,2.18,2.3,3,3.94l-4.83,2.83ZM841.5,140.44v39.27h-6v-39.27h6ZM962.01,149.62c-4.36-3.94-8.42-4.36-10.66-4.36-8.54,0-14.31,6.3-14.31,14.95s6,14.72,14.37,14.72c4.71,0,8.36-2.41,10.6-4.53v7.12c-3.94,2.35-8.07,2.94-10.77,2.94-7.12,0-11.6-3.24-13.89-5.42-4.59-4.3-6.3-9.3-6.3-14.84,0-7.24,3-12.25,6.3-15.37,4.06-3.83,8.77-5.12,14.19-5.12,3.59,0,7.06.65,10.48,2.83v7.06Z"/>
  </g>
</svg>