<?xml version="1.0" encoding="UTF-8"?>
<svg id="Layer_1" data-name="Layer 1" xmlns="http://www.w3.org/2000/svg" version="1.1" viewBox="0 0 800 800">
  <defs>
    <style>
      .cls-1 {
        fill: #300;
      }

      .cls-1, .cls-2 {
        stroke-width: 0px;
      }

      .cls-2 {
        fill: #ff9a00;
      }
    </style>
  </defs>
  <path class="cls-1" d="M0,289.5C0,188.2,0,137.5,19.8,98.8c17.3-34,45-61.7,79.1-79.1C137.5,0,188.2,0,289.5,0h220.9C611.8,0,662.5,0,701.2,19.8c34,17.3,61.7,45,79.1,79.1,19.7,38.7,19.7,89.4,19.7,190.7v220.9c0,101.3,0,152-19.7,190.7-17.3,34-45,61.7-79.1,79.1-38.7,19.7-89.4,19.7-190.7,19.7h-220.9c-101.3,0-152,0-190.7-19.7-34-17.3-61.7-45-79.1-79.1C0,662.5,0,611.8,0,510.5v-220.9Z"/>
  <path class="cls-2" d="M387.7,502.7h-124l-25.2,80.4c-.7,3-3.4,5.1-6.4,5h-62.8c-3.6,0-4.8-2-3.8-6.1l107.3-317c1.1-3.3,2.1-7.1,3.2-11.3,1.4-7.3,2.1-14.8,2.1-22.3-.3-2.2,1.6-4.2,3.8-3.9h85.3c2.5,0,3.9.9,4.3,2.8l121.8,352.2c1.1,3.7,0,5.5-3.2,5.5h-69.8c-2.4.3-4.8-1.4-5.4-3.9l-27.4-81.5ZM283,433.4h84.8c-13.9-47.6-29.7-94.6-42.4-142.5-13.7,48.1-28.7,95.9-42.4,142.5Z"/>
  <path class="cls-2" d="M565.8,285.9c-5.5.2-10.9-.7-16-2.8-5.1-2.1-9.7-5.3-13.5-9.3-3.8-4.2-6.8-9.1-8.7-14.5-1.9-5.4-2.8-11.1-2.6-16.8-.2-5.7.8-11.3,2.9-16.6,2.1-5.3,5.2-10,9.2-14,4-3.9,8.6-6.9,13.7-9,5.1-2,10.6-3,16-2.9,12.9,0,23,3.9,30.3,11.8,3.7,4.1,6.6,8.9,8.5,14.1,1.9,5.2,2.7,10.8,2.5,16.4.2,5.8-.7,11.5-2.7,16.9-2,5.4-5,10.3-8.9,14.5-4,4.1-8.9,7.3-14.2,9.4-5.3,2.1-11,3-16.7,2.7ZM528.8,582.5v-263.1c0-3.3,1.4-5,4.3-5h66c2.9,0,4.3,1.7,4.3,5v263.1c0,3.7-1.4,5.5-4.3,5.5h-65.5c-3.2,0-4.8-1.8-4.8-5.5Z"/>
</svg>