<?xml version="1.0" encoding="UTF-8"?>
<svg xmlns="http://www.w3.org/2000/svg" viewBox="0 0 800 800">
  <defs>
    <style>
      .uuid-14dd6a8c-5d01-416d-b206-8aa3601af5fd {
        fill: none;
      }

      .uuid-14dd6a8c-5d01-416d-b206-8aa3601af5fd, .uuid-9e2c347f-31a8-4225-9e4d-711d832a4cbf, .uuid-eaea742e-98a5-45ea-8c7a-63c8ddd0bd33 {
        stroke-width: 0px;
      }

      .uuid-9e2c347f-31a8-4225-9e4d-711d832a4cbf {
        fill: #49021f;
      }

      .uuid-eaea742e-98a5-45ea-8c7a-63c8ddd0bd33 {
        fill: #f36;
      }
    </style>
  </defs>
  <g id="uuid-fb22e6fe-a869-473e-82c2-f4869fa8b7b2" data-name="Layer 5">
    <rect class="uuid-14dd6a8c-5d01-416d-b206-8aa3601af5fd" width="800" height="800"/>
  </g>
  <g id="uuid-ebd89326-6762-4436-8b9d-cc8ada2ec366" data-name="Layer 1">
    <g>
      <path class="uuid-9e2c347f-31a8-4225-9e4d-711d832a4cbf" d="M191.72,77.5h416.56c63.16,0,114.22,52.37,114.22,117.15v410.71c0,64.78-51.06,117.15-114.22,117.15H191.72c-63.16,0-114.22-52.37-114.22-117.15V194.65c0-64.78,51.06-117.15,114.22-117.15Z"/>
      <g id="uuid-3a39b518-3f1e-498a-9278-a2d8a8e76362" data-name="vlpa">
        <g id="uuid-0640d1dc-9732-4b38-82f1-bd0349c4aa8f" data-name="vlpb">
          <path class="uuid-eaea742e-98a5-45ea-8c7a-63c8ddd0bd33" d="M311.85,246.19v283.91c0,3.03-1.34,4.41-3.76,4.41h-52.67c-2.42,0-3.49-1.38-3.49-4.41V246.19c0-2.48,1.34-3.58,3.76-3.58h52.41c1.61-.28,3.22.83,3.49,2.76.27.28.27.55.27.83Z"/>
          <path class="uuid-eaea742e-98a5-45ea-8c7a-63c8ddd0bd33" d="M467.19,537.82c-19.89.28-39.78-3.86-57.78-12.4-16.93-7.99-30.91-21.22-40.58-37.49-9.94-16.81-14.78-37.76-14.78-62.85-.27-20.4,4.84-40.52,14.78-58.16,10.21-17.92,24.99-32.8,42.73-42.72,18.81-10.75,41.39-15.99,67.99-15.99,1.34,0,3.22,0,5.64.28s5.11.28,8.33.55v-87.1c0-1.93.81-3.03,2.69-3.03h54.56c1.34-.28,2.42.83,2.69,1.93v262.96c0,4.96.27,10.47.54,16.54.54,5.79.81,11.3,1.07,15.99,0,1.93-.81,3.58-2.69,4.41-13.97,6.06-28.76,10.47-43.81,13.23-13.44,2.48-27.41,3.86-41.39,3.86h0ZM493.53,482.69v-121.28c-2.42-.55-4.84-1.1-7.26-1.38-2.96-.28-5.91-.55-8.87-.55-10.48,0-20.96,2.21-30.37,7.17-9.14,4.69-16.93,11.58-22.84,20.4-5.91,8.82-8.87,20.67-8.87,35.01-.27,9.65,1.34,19.29,4.57,28.39,2.69,7.44,6.72,14.06,12.09,19.57,5.11,4.96,11.29,8.82,18.28,11.03,7.26,2.48,14.78,3.58,22.31,3.58,4.03,0,7.79-.28,11.29-.55,3.49.28,6.72-.28,9.68-1.38h0Z"/>
        </g>
      </g>
    </g>
  </g>
</svg>