<?xml version="1.0" encoding="UTF-8"?>
<svg id="Layer_1" data-name="Layer 1" xmlns="http://www.w3.org/2000/svg" version="1.1" viewBox="0 0 800 800">
  <defs>
    <style>
      .cls-1 {
        fill: #31a8ff;
      }

      .cls-1, .cls-2 {
        stroke-width: 0px;
      }

      .cls-2 {
        fill: #001e36;
      }
    </style>
  </defs>
  <path class="cls-2" d="M0,289.5C0,188.2,0,137.5,19.8,98.8c17.3-34,45-61.7,79.1-79.1C137.5,0,188.2,0,289.5,0h220.9C611.8,0,662.5,0,701.2,19.8c34,17.3,61.7,45,79.1,79.1,19.7,38.7,19.7,89.4,19.7,190.7v220.9c0,101.3,0,152-19.7,190.7-17.3,34-45,61.7-79.1,79.1-38.7,19.7-89.4,19.7-190.7,19.7h-220.9c-101.3,0-152,0-190.7-19.7-34-17.3-61.7-45-79.1-79.1C0,662.5,0,611.8,0,510.5v-220.9Z"/>
  <path class="cls-1" d="M171.5,586.2V234.4c0-2.4,1-3.8,3.3-3.8,34.4,0,68.9-2.1,103.3-2.1,55.9,0,116.4,19.1,137.7,77.6,5,14.4,7.7,29.1,7.7,44.4,0,29.4-6.7,53.7-20,72.8-37.2,53.5-101.8,52.6-159.6,52.6v109.7c.5,3.2-2.3,4.8-5,4.8h-63.3c-2.7,0-4-1.4-4-4.4ZM244.1,296.6v114.9c22.9,1.7,46.9,1.9,69-5.5,24.3-7,37.7-28.1,37.7-53.3.7-21.5-11-42.1-31-49.9-21.8-9.1-52.2-9.6-75.7-6.2Z"/>
  <path class="cls-1" d="M631.3,388.8c-10.1-5.3-20.8-9.2-31.9-11.6-14.3-3.4-70.5-15.1-70.6,14.3.5,16.4,26.6,24.5,38.1,29.2,40.5,13.9,86.2,38.7,85.3,88.6,1.2,62.1-59,87-110.5,87-26.9.3-54.8-3.9-79.4-15.4-2.3-1.2-3.9-3.9-3.8-6.6v-59.4c-.3-2.4,2.3-4.5,4.3-2.8,24.1,14.6,52.6,21.6,80.5,22,12.3,0,36.7-1.2,36.5-19.3,0-17.3-29.2-25.3-40.8-29.7-16.8-6-32.8-14.3-47.5-24.8-20.5-14.6-33.4-38.1-33-63.8-.1-58.5,55.3-84.7,105.2-84.8,23.3-.2,48.4,1.5,70.1,11,3.1.9,3.8,4.2,3.8,7.2v55.6c.2,3.5-3.6,4.6-6.2,3.3Z"/>
</svg>