<?xml version="1.0" encoding="UTF-8"?>
<svg xmlns="http://www.w3.org/2000/svg" viewBox="0 0 800 800">
  <defs>
    <style>
      .uuid-c00d3358-5cb3-46a6-9dcb-4a1eb75b2a61 {
        fill: none;
      }

      .uuid-c00d3358-5cb3-46a6-9dcb-4a1eb75b2a61, .uuid-9712dd2d-0eca-4f37-8e4e-facb3022639b, .uuid-02dcfff3-ce74-40f3-a318-ecf996f54387 {
        stroke-width: 0px;
      }

      .uuid-9712dd2d-0eca-4f37-8e4e-facb3022639b {
        fill: #300;
      }

      .uuid-02dcfff3-ce74-40f3-a318-ecf996f54387 {
        fill: #ff9a00;
      }
    </style>
  </defs>
  <g id="uuid-99e81997-cbdd-42aa-9ea3-e0841ef4496c" data-name="Layer 5">
    <rect class="uuid-c00d3358-5cb3-46a6-9dcb-4a1eb75b2a61" width="800" height="800"/>
  </g>
  <g id="uuid-be0d2de4-4415-4557-b7b7-1eb6a08740f3" data-name="Layer 1">
    <path class="uuid-9712dd2d-0eca-4f37-8e4e-facb3022639b" d="M191.71,77.5h416.58c63.14,0,114.21,52.37,114.21,117.13v410.74c0,64.76-51.07,117.13-114.21,117.13H191.71c-63.14,0-114.21-52.37-114.21-117.13V194.63c0-64.76,51.07-117.13,114.21-117.13Z"/>
    <g>
      <path class="uuid-02dcfff3-ce74-40f3-a318-ecf996f54387" d="M390.08,464.53h-99.97l-20.32,64.82c-.56,2.42-2.74,4.11-5.16,4.03h-50.63c-2.9,0-3.87-1.61-3.06-4.92l86.51-255.58c.89-2.66,1.69-5.72,2.58-9.11,1.13-5.89,1.69-11.93,1.69-17.98-.24-1.77,1.29-3.39,3.06-3.14h68.77c2.02,0,3.14.73,3.47,2.26l98.2,283.96c.89,2.98,0,4.43-2.58,4.43h-56.28c-1.93.24-3.87-1.13-4.35-3.14l-22.09-65.71.16.08ZM305.67,408.66h68.37c-11.21-38.38-23.95-76.27-34.18-114.89-11.05,38.78-23.14,77.32-34.18,114.89Z"/>
      <path class="uuid-02dcfff3-ce74-40f3-a318-ecf996f54387" d="M533.68,289.74c-4.43.16-8.79-.56-12.9-2.26-4.11-1.69-7.82-4.27-10.88-7.5-3.06-3.39-5.48-7.34-7.01-11.69s-2.26-8.95-2.1-13.55c-.16-4.6.64-9.11,2.34-13.38,1.69-4.27,4.19-8.06,7.42-11.29,3.23-3.14,6.93-5.56,11.05-7.26,4.11-1.61,8.55-2.42,12.9-2.34,10.4,0,18.54,3.14,24.43,9.51,2.98,3.31,5.32,7.18,6.85,11.37,1.53,4.19,2.18,8.71,2.02,13.22.16,4.68-.56,9.27-2.18,13.63s-4.03,8.3-7.18,11.69c-3.23,3.31-7.18,5.89-11.45,7.58s-8.87,2.42-13.46,2.18l.16.08ZM503.84,528.87v-212.12c0-2.66,1.13-4.03,3.47-4.03h53.21c2.34,0,3.47,1.37,3.47,4.03v212.12c0,2.98-1.13,4.43-3.47,4.43h-52.81c-2.58,0-3.87-1.45-3.87-4.43Z"/>
    </g>
  </g>
</svg>