<?xml version="1.0" encoding="UTF-8"?>
<svg xmlns="http://www.w3.org/2000/svg" viewBox="0 0 800 800">
  <defs>
    <style>
      .uuid-e0b9e66d-a1e7-4515-bcb8-01042bace249 {
        fill: none;
      }

      .uuid-e0b9e66d-a1e7-4515-bcb8-01042bace249, .uuid-e59f5d90-2041-4015-933c-46b645587937, .uuid-667fee3c-20e3-45d6-83e1-310e4a185b21 {
        stroke-width: 0px;
      }

      .uuid-e59f5d90-2041-4015-933c-46b645587937 {
        fill: #00005b;
      }

      .uuid-667fee3c-20e3-45d6-83e1-310e4a185b21 {
        fill: #99f;
      }
    </style>
  </defs>
  <g id="uuid-ddca2fcb-9038-4494-a35f-acefde78e37d" data-name="Layer 5">
    <rect class="uuid-e0b9e66d-a1e7-4515-bcb8-01042bace249" width="800" height="800"/>
  </g>
  <g id="uuid-d4d54d29-ecbc-41b3-bb27-2b021e72589c" data-name="Layer 1">
    <g id="uuid-24c92534-514f-44a5-9e7b-e3e26bfcfb7f" data-name="vlpa">
      <g id="uuid-d4d8708f-f287-4302-a483-76b657c2fc55" data-name="vlpb">
        <g id="uuid-6c6a25ee-f5b9-49a7-844b-30e0bc1322a7" data-name="vlpc">
          <g id="uuid-a5931116-eee9-4cf7-9a09-279487372d06" data-name="vlpd">
            <path class="uuid-e59f5d90-2041-4015-933c-46b645587937" d="M191.72,77.5h416.56c63.16,0,114.22,52.37,114.22,117.15v410.71c0,64.78-51.06,117.15-114.22,117.15H191.72c-63.16,0-114.22-52.37-114.22-117.15V194.65c0-64.78,51.06-117.15,114.22-117.15Z"/>
          </g>
        </g>
      </g>
      <g id="uuid-9be15b29-6249-4237-adc5-8ab9c0eb006e" data-name="vlpe">
        <g id="uuid-fa404d86-117c-4fb1-94d2-32cdd8240c3e" data-name="vlpf">
          <path class="uuid-667fee3c-20e3-45d6-83e1-310e4a185b21" d="M336.58,463.4h-99.98l-20.42,65.05c-.54,2.48-2.69,4.13-5.11,3.86h-50.52c-2.96,0-3.76-1.65-2.96-4.96l86.54-254.42c.81-2.76,1.61-5.24,2.69-8.54,1.08-5.79,1.61-11.85,1.61-17.92-.27-1.38.81-2.76,2.15-3.03h69.61c1.88,0,3.22.83,3.49,2.21l98.09,281.15c.81,3.03,0,4.41-2.69,4.41h-56.17c-1.88.28-3.76-1.1-4.3-3.03l-22.04-66.15v1.38ZM252.19,408.54h68.26c-1.61-5.79-3.76-12.68-6.18-19.85-2.42-7.44-4.84-15.44-7.26-23.71-2.69-8.54-5.11-16.81-7.79-25.36s-5.11-16.54-7.26-24.53c-2.15-7.72-4.03-14.88-5.91-21.5h-.54c-2.42,11.85-5.38,23.71-9.14,35.56-4.03,13.23-8.06,27.01-12.36,40.79-3.49,14.06-7.79,27.01-11.83,38.59Z"/>
          <path class="uuid-667fee3c-20e3-45d6-83e1-310e4a185b21" d="M580.06,438.59h-85.19c1.07,8.54,3.76,17.09,8.33,24.53,4.84,7.44,11.56,13.23,19.62,16.54,10.75,4.69,22.57,7.17,34.4,6.89,9.41-.28,18.81-1.1,27.95-3.03,8.33-1.1,16.39-3.31,23.92-6.34,1.34-1.1,2.15-.55,2.15,2.21v42.17c0,1.1-.27,2.21-.54,3.31-.54.83-1.07,1.38-1.88,1.93-8.6,3.86-17.47,6.62-26.88,8.27-12.63,2.48-25.26,3.58-38.16,3.31-20.43,0-37.62-3.31-51.6-9.65-13.17-5.79-24.72-14.88-33.86-26.19-8.6-10.75-14.78-22.88-18.54-36.11-3.76-12.96-5.64-26.46-5.64-40.24,0-14.88,2.15-29.49,6.72-43.83,4.3-13.78,11.02-26.46,20.16-37.76,8.87-11.03,19.89-19.85,32.52-26.19s27.68-8.54,44.88-8.54c14.24-.28,28.49,2.48,41.66,8.54,11.02,4.96,20.69,12.4,28.22,22.05,6.99,9.37,12.63,19.85,16.12,31.42,3.49,11.03,5.11,22.33,5.11,33.63,0,6.62-.27,12.4-.54,17.64-.54,5.24-.81,9.1-1.07,11.58-.27,1.93-1.88,3.58-3.76,3.58-1.61,0-4.57.28-8.87.55-4.3.55-9.41.83-15.59.83s-12.63-1.1-19.62-1.1h0ZM494.87,398.35h56.71c6.99,0,12.09,0,15.32-.28,2.15-.28,4.3-.83,6.18-2.21v-2.76c0-3.58-.54-6.89-1.61-10.2-4.84-15.44-19.08-25.91-34.94-25.36-14.78-.83-28.76,7.17-35.74,20.95-3.22,6.34-5.11,12.96-5.91,19.85Z"/>
        </g>
      </g>
    </g>
  </g>
</svg>