<?xml version="1.0" encoding="UTF-8"?>
<svg xmlns="http://www.w3.org/2000/svg" viewBox="0 0 800 800">
  <defs>
    <style>
      .uuid-9af669ee-8370-4a9e-aaf5-9a6556f01293 {
        fill: none;
      }

      .uuid-9af669ee-8370-4a9e-aaf5-9a6556f01293, .uuid-043596d6-3f46-4ea7-96ed-1f34435cd3b8, .uuid-88ba9178-5473-4cfa-a5e6-f35c58cbcfa2 {
        stroke-width: 0px;
      }

      .uuid-043596d6-3f46-4ea7-96ed-1f34435cd3b8 {
        fill: #31a8ff;
      }

      .uuid-88ba9178-5473-4cfa-a5e6-f35c58cbcfa2 {
        fill: #001e36;
      }
    </style>
  </defs>
  <g id="uuid-1a0c9613-0b85-4586-8e13-8b026f0f473a" data-name="Layer 5">
    <rect class="uuid-9af669ee-8370-4a9e-aaf5-9a6556f01293" width="800" height="800"/>
  </g>
  <g id="uuid-6aa98e7a-6f1e-4916-9e6b-8b0b695e1316" data-name="Layer 1">
    <g id="uuid-03ba0ab1-5340-4a2f-b787-d0584c388ddf" data-name="Layer 2">
      <path class="uuid-88ba9178-5473-4cfa-a5e6-f35c58cbcfa2" d="M191.71,77.5h416.58c63.14,0,114.21,52.37,114.21,117.13v410.74c0,64.76-51.07,117.13-114.21,117.13H191.71c-63.14,0-114.21-52.37-114.21-117.13V194.63c0-64.76,51.07-117.13,114.21-117.13Z"/>
      <g id="uuid-a42ba5e0-ebbe-428c-a9bc-53a89b2a9c9c" data-name="LrC">
        <path class="uuid-043596d6-3f46-4ea7-96ed-1f34435cd3b8" d="M303.9,533.39h-153.45c-2.77,0-3.77-1.55-3.77-4.9V246.75c0-2.84,1.01-3.87,3.52-3.87h47.54c1.76,0,2.77,1.03,2.77,3.1v231.43h111.69c2.52,0,3.27,1.29,2.77,3.87l-7.04,47.99c-.25,1.55-.75,2.84-1.51,3.35s-1.76.77-2.52.77Z"/>
        <path class="uuid-043596d6-3f46-4ea7-96ed-1f34435cd3b8" d="M342.14,312.8h42.51c2.52,0,4.02,1.29,5.03,4.39.75,1.81,1.51,4.13,1.76,6.45.5,2.84.75,5.68,1.01,8.51.25,3.1.25,6.45.25,9.8,7.04-9.29,15.85-17.54,25.91-23.74,10.82-6.71,23.4-10.32,35.97-9.8,2.52,0,3.52,1.29,3.52,3.87v53.66c0,2.32-1.26,3.1-3.77,3.1-8.55-.52-17.11,0-25.41,1.81-7.04,1.55-13.58,4.13-20.12,7.48-4.78,2.58-9.31,6.19-13.08,10.32v140.61c0,2.84-1.01,3.87-3.27,3.87h-46.79c-2.77,0-3.77-1.29-3.77-4.39v-152.74c0-6.71,0-13.42-.25-20.64,0-7.22-.25-14.45-.5-21.41-.25-6.19-.75-12.13-1.51-18.32,0-.77,0-1.55.5-2.58.75-.26,1.26-.52,2.01-.26Z"/>
        <path class="uuid-043596d6-3f46-4ea7-96ed-1f34435cd3b8" d="M648.79,272.03c-5.53-2.58-11.82-3.87-18.11-4.64-9.06-1.03-18.36-1.55-27.42-1.55-26.41,0-49.56,5.68-68.42,17.03-18.87,11.35-34.46,28.12-44.53,48.25-10.57,20.38-15.6,44.63-15.6,71.72-.25,16.25,1.76,32.51,6.04,48.5,3.77,13.42,9.31,26.06,17.11,37.67,7.3,10.84,16.1,19.87,26.41,27.35,10.31,7.48,21.89,13.16,34.21,16.51,12.58,3.61,26.16,5.42,39.24,5.42,9.31,0,18.62-.52,27.67-1.81,7.55-.77,14.84-2.84,21.89-5.42,2.77-1.29,4.28-4.13,4.02-7.48v-41.02c.25-1.29-.25-3.1-1.26-4.13-.75-.52-2.26-1.29-4.28.26-6.04,2.32-12.33,3.87-18.87,4.64-7.8.77-15.6,1.03-23.4,1.03-7.04,0-14.34-1.03-20.88-3.1-7.3-1.81-14.09-4.9-20.38-8.77-6.79-4.13-12.33-9.55-16.85-16-5.03-7.22-9.06-15.22-11.82-23.74-3.02-10.58-4.53-21.16-4.28-32.25-.25-15.22,2.77-30.44,8.8-44.12,5.53-11.87,14.34-21.93,25.16-28.9,11.82-7.22,25.41-10.84,39.24-10.58,8.3,0,16.85.52,25.16,2.32,6.79,1.03,13.08,3.35,19.37,6.71,1.01.52,2.52.52,3.52,0,1.01-1.03,1.76-2.58,1.51-4.13v-43.09c0-2.84-1.01-5.16-3.27-6.71Z"/>
      </g>
    </g>
  </g>
</svg>