<?xml version="1.0" encoding="UTF-8"?>
<svg xmlns="http://www.w3.org/2000/svg" viewBox="0 0 800 800">
  <defs>
    <style>
      .uuid-447444a2-0f67-41f7-83fa-648afaa87af7 {
        fill: none;
      }

      .uuid-447444a2-0f67-41f7-83fa-648afaa87af7, .uuid-2cdb7cd8-3062-46f3-8d14-e954f5757ef7, .uuid-511c8809-942b-4773-9097-945d916b5b4e {
        stroke-width: 0px;
      }

      .uuid-2cdb7cd8-3062-46f3-8d14-e954f5757ef7 {
        fill: #00005b;
      }

      .uuid-511c8809-942b-4773-9097-945d916b5b4e {
        fill: #99f;
      }
    </style>
  </defs>
  <g id="uuid-59db9754-fbb7-4792-afd9-c78b13505533" data-name="Layer 5">
    <rect class="uuid-447444a2-0f67-41f7-83fa-648afaa87af7" width="800" height="800"/>
  </g>
  <g id="uuid-0a6df5e6-9a8a-4360-89e9-6c58a3b64578" data-name="Layer 1">
    <g id="uuid-23f17c54-6bfe-4212-94ef-cbbfd29df10b" data-name="vlpa">
      <g id="uuid-0dd76e40-4023-4210-b0b5-62af1caa63b3" data-name="vlpb">
        <g id="uuid-bec88798-047e-495c-a664-406e52d5abc3" data-name="vlpc">
          <g id="uuid-e6474c61-00a1-400a-ad15-100e537e2cb9" data-name="vlpd">
            <path class="uuid-2cdb7cd8-3062-46f3-8d14-e954f5757ef7" d="M191.72,77.5h416.56c63.16,0,114.22,52.37,114.22,117.15v410.71c0,64.78-51.06,117.15-114.22,117.15H191.72c-63.16,0-114.22-52.37-114.22-117.15V194.65c0-64.78,51.06-117.15,114.22-117.15Z"/>
          </g>
        </g>
      </g>
      <g id="uuid-458f173a-67d8-48ff-b94c-2819b6562513" data-name="vlpe">
        <g id="uuid-fbcd4a4d-75a0-49b4-be53-cf143e6f30d0" data-name="vlpf">
          <path class="uuid-511c8809-942b-4773-9097-945d916b5b4e" d="M230.69,529.55V245.64c0-1.93.81-3.03,2.69-3.03,4.57,0,8.87,0,15.05-.28,6.45-.28,13.17-.28,20.42-.55s15.05-.28,23.38-.55,16.39-.28,24.46-.28c22.04,0,40.31,2.76,55.36,8.54,13.44,4.69,25.8,12.4,36.01,22.6,8.6,8.82,15.32,19.57,19.62,31.42,4.03,11.58,6.18,23.43,6.18,35.83,0,23.71-5.38,43.28-16.12,58.71-10.75,15.44-25.8,27.01-43.27,33.63-18.28,6.89-38.43,9.37-60.47,9.37-6.45,0-10.75,0-13.44-.28s-6.45-.28-11.56-.28v88.48c.27,1.93-1.08,3.58-2.96,3.86h-52.14c-2.15,0-3.23-1.1-3.23-3.58v.28ZM289.28,296.08v92.62c3.76.28,7.26.55,10.48.55h14.24c10.48,0,20.96-1.65,30.91-4.96,8.6-2.48,16.13-7.72,22.04-14.61,5.64-6.89,8.33-16.26,8.33-28.39.27-8.54-1.88-17.09-6.18-24.53-4.57-7.17-11.02-12.68-18.81-15.71-9.94-4.13-20.69-5.79-31.71-5.51-6.99,0-13.17,0-18.28.28-5.38-.28-9.14,0-11.02.28h0Z"/>
          <path class="uuid-511c8809-942b-4773-9097-945d916b5b4e" d="M472.56,312.35h47.03c2.69,0,4.84,1.93,5.64,4.41.81,2.21,1.34,4.41,1.61,6.89.54,2.76,1.07,5.79,1.34,8.54.27,3.03.54,6.34.54,9.92,8.06-9.65,17.74-17.64,28.76-23.71,12.36-7.17,26.61-10.75,40.85-10.75,1.88-.28,3.49,1.1,3.76,3.03v54.85c0,2.21-1.34,3.03-4.3,3.03-9.68-.28-19.62.55-29.03,2.76-7.79,1.65-15.32,4.13-22.57,7.44-5.11,2.48-9.94,5.79-13.71,10.2v140.58c0,2.76-1.07,3.86-3.49,3.86h-52.94c-2.15.28-4.03-1.1-4.3-3.31v-153.81c0-6.62,0-13.51-.27-20.67s-.27-14.33-.54-21.5c0-6.34-.54-12.4-1.07-18.74-.27-1.38.54-2.76,1.88-3.03,0-.28.54-.28.81,0h0Z"/>
        </g>
      </g>
    </g>
  </g>
</svg>