<?xml version="1.0" encoding="UTF-8"?>
<svg xmlns="http://www.w3.org/2000/svg" viewBox="0 0 800 800">
  <defs>
    <style>
      .uuid-7b90d9be-828f-431e-a23f-dc808c42e717 {
        fill: none;
      }

      .uuid-7b90d9be-828f-431e-a23f-dc808c42e717, .uuid-24e6adc8-ee3a-4ab7-9cab-85369a989824, .uuid-0a523d5e-e5f1-48f3-8a85-a4d852047d26 {
        stroke-width: 0px;
      }

      .uuid-24e6adc8-ee3a-4ab7-9cab-85369a989824 {
        fill: #31a8ff;
      }

      .uuid-0a523d5e-e5f1-48f3-8a85-a4d852047d26 {
        fill: #001e36;
      }
    </style>
  </defs>
  <g id="uuid-c3d9e5a3-4c2d-4235-ba7e-c278291d7774" data-name="Layer 5">
    <rect class="uuid-7b90d9be-828f-431e-a23f-dc808c42e717" width="800" height="800"/>
  </g>
  <g id="uuid-806e734e-b933-4f83-a673-953882528e6e" data-name="Layer 1">
    <g id="uuid-a808a239-6a89-4b3a-8464-2fe55176e153" data-name="Layer 2">
      <path class="uuid-0a523d5e-e5f1-48f3-8a85-a4d852047d26" d="M191.71,77.5h416.58c63.14,0,114.21,52.37,114.21,117.13v410.74c0,64.76-51.07,117.13-114.21,117.13H191.71c-63.14,0-114.21-52.37-114.21-117.13V194.63c0-64.76,51.07-117.13,114.21-117.13Z"/>
      <g id="uuid-f7bd8308-4acd-46d3-8356-d48427c419b8" data-name="Lr">
        <path class="uuid-24e6adc8-ee3a-4ab7-9cab-85369a989824" d="M416.1,533.39h-170.31c-3.02,0-4.28-1.55-4.28-4.9V246.75c-.25-1.81,1.01-3.61,3.02-3.87h53.58c1.26-.26,3.02.77,3.02,2.32v232.2h124.27c2.77,0,3.52,1.29,3.02,3.87l-7.8,47.99c0,1.29-.75,2.58-1.51,3.35-1.01.52-2.01.77-3.02.77Z"/>
        <path class="uuid-24e6adc8-ee3a-4ab7-9cab-85369a989824" d="M459.12,312.8h47.04c2.77,0,4.78,1.81,5.53,4.39,1.01,1.81,1.76,4.13,2.26,6.45.5,2.84,1.01,5.68,1.26,8.51.25,3.1.5,6.45.5,9.8,8.05-9.55,17.86-17.54,28.68-23.74,12.33-6.97,26.16-10.32,40-9.8,1.76-.26,3.52,1.03,3.77,3.1v54.95c0,2.32-1.26,3.1-4.28,3.1-17.36-1.03-34.97,2.32-50.82,9.29-5.28,2.58-10.57,5.68-14.59,10.32v140.61c0,2.84-1.01,3.87-3.52,3.87h-52.32c-2.26.26-4.02-1.03-4.28-3.35v-153.77c0-6.71,0-13.42-.25-20.64-.25-7.22-.25-14.45-.5-21.41-.25-6.19-.75-12.13-1.51-18.32-.25-1.29.5-2.84,1.76-3.1.5-.52.75-.52,1.26-.26h0Z"/>
      </g>
    </g>
  </g>
</svg>