<?xml version="1.0" encoding="UTF-8"?>
<svg id="Layer_1" data-name="Layer 1" xmlns="http://www.w3.org/2000/svg" xmlns:xlink="http://www.w3.org/1999/xlink" version="1.1" viewBox="0 0 800 800">
  <defs>
    <style>
      .cls-1 {
        fill: url(#radial-gradient);
      }

      .cls-1, .cls-2, .cls-3, .cls-4, .cls-5, .cls-6, .cls-7, .cls-8 {
        stroke-width: 0px;
      }

      .cls-2 {
        fill: url(#radial-gradient-2);
      }

      .cls-3 {
        fill: url(#radial-gradient-3);
      }

      .cls-4 {
        fill: url(#radial-gradient-4);
      }

      .cls-5 {
        fill: url(#radial-gradient-6);
      }

      .cls-6 {
        fill: url(#radial-gradient-5);
      }

      .cls-7 {
        fill: url(#radial-gradient-7);
      }

      .cls-8 {
        fill: #fff;
      }
    </style>
    <radialGradient id="radial-gradient" cx="94" cy="795.8" fx="94" fy="795.8" r="1.1" gradientTransform="translate(-274920.4 205017) rotate(46.9) scale(418.1 -428.2)" gradientUnits="userSpaceOnUse">
      <stop offset="0" stop-color="#68e048"/>
      <stop offset="1" stop-color="#5ce049" stop-opacity="0"/>
    </radialGradient>
    <radialGradient id="radial-gradient-2" cx="94.3" cy="795.9" fx="94.3" fy="795.9" r="1.1" gradientTransform="translate(-206519.5 -283079.4) rotate(137.4) scale(426.2 -438.2)" gradientUnits="userSpaceOnUse">
      <stop offset="0" stop-color="#308cfe"/>
      <stop offset="1" stop-color="#2f8bff" stop-opacity="0"/>
    </radialGradient>
    <radialGradient id="radial-gradient-3" cx="93.8" cy="796" fx="93.8" fy="796" r="1.1" gradientTransform="translate(-51370.8 204610.7) rotate(7.9) scale(250.3 -263)" gradientUnits="userSpaceOnUse">
      <stop offset="0" stop-color="#fdd511"/>
      <stop offset="1" stop-color="#fdd20d" stop-opacity="0"/>
    </radialGradient>
    <radialGradient id="radial-gradient-4" cx="94.2" cy="796.2" fx="94.2" fy="796.2" r="1.1" gradientTransform="translate(260226.1 -152964.2) rotate(-127.1) scale(369.6 -376.6)" gradientUnits="userSpaceOnUse">
      <stop offset="0" stop-color="#f928c2"/>
      <stop offset="1" stop-color="#f922bc" stop-opacity="0"/>
    </radialGradient>
    <radialGradient id="radial-gradient-5" cx="94" cy="796.3" fx="94" fy="796.3" r="1.1" gradientTransform="translate(251977 165095.8) rotate(-63.4) scale(371.3 -375.2)" gradientUnits="userSpaceOnUse">
      <stop offset="0" stop-color="#f90700"/>
      <stop offset="1" stop-color="#f90700" stop-opacity="0"/>
    </radialGradient>
    <radialGradient id="radial-gradient-6" cx="94.1" cy="796.3" fx="94.1" fy="796.3" r="1.1" gradientTransform="translate(155516.2 93053.1) rotate(-65.7) scale(223.2 -225.2)" gradientUnits="userSpaceOnUse">
      <stop offset="0" stop-color="#fb4200"/>
      <stop offset="1" stop-color="#fb4300" stop-opacity="0"/>
    </radialGradient>
    <radialGradient id="radial-gradient-7" cx="94.6" cy="796.3" fx="94.6" fy="796.3" r="1.1" gradientTransform="translate(130231 -98184) rotate(-133.7) scale(198.5 -203.4)" gradientUnits="userSpaceOnUse">
      <stop offset="0" stop-color="#fe0d88"/>
      <stop offset="1" stop-color="#fe0d88" stop-opacity="0"/>
    </radialGradient>
  </defs>
  <path class="cls-8" d="M0,289.5C0,188.2,0,137.5,19.8,98.8c17.3-34,45-61.7,79.1-79.1C137.5,0,188.2,0,289.5,0h220.9C611.8,0,662.5,0,701.2,19.8c34,17.3,61.7,45,79.1,79.1,19.7,38.7,19.7,89.4,19.7,190.7v220.9c0,101.3,0,152-19.7,190.7-17.3,34-45,61.7-79.1,79.1-38.7,19.7-89.4,19.7-190.7,19.7h-220.9c-101.3,0-152,0-190.7-19.7-34-17.3-61.7-45-79.1-79.1C0,662.5,0,611.8,0,510.5v-220.9Z"/>
  <path class="cls-1" d="M0,289.5C0,188.2,0,137.5,19.8,98.8c17.3-34,45-61.7,79.1-79.1C137.5,0,188.2,0,289.5,0h220.9C611.8,0,662.5,0,701.2,19.8c34,17.3,61.7,45,79.1,79.1,19.7,38.7,19.7,89.4,19.7,190.7v220.9c0,101.3,0,152-19.7,190.7-17.3,34-45,61.7-79.1,79.1-38.7,19.7-89.4,19.7-190.7,19.7h-220.9c-101.3,0-152,0-190.7-19.7-34-17.3-61.7-45-79.1-79.1C0,662.5,0,611.8,0,510.5v-220.9Z"/>
  <path class="cls-2" d="M0,289.5C0,188.2,0,137.5,19.8,98.8c17.3-34,45-61.7,79.1-79.1C137.5,0,188.2,0,289.5,0h220.9C611.8,0,662.5,0,701.2,19.8c34,17.3,61.7,45,79.1,79.1,19.7,38.7,19.7,89.4,19.7,190.7v220.9c0,101.3,0,152-19.7,190.7-17.3,34-45,61.7-79.1,79.1-38.7,19.7-89.4,19.7-190.7,19.7h-220.9c-101.3,0-152,0-190.7-19.7-34-17.3-61.7-45-79.1-79.1C0,662.5,0,611.8,0,510.5v-220.9Z"/>
  <path class="cls-3" d="M0,289.5C0,188.2,0,137.5,19.8,98.8c17.3-34,45-61.7,79.1-79.1C137.5,0,188.2,0,289.5,0h220.9C611.8,0,662.5,0,701.2,19.8c34,17.3,61.7,45,79.1,79.1,19.7,38.7,19.7,89.4,19.7,190.7v220.9c0,101.3,0,152-19.7,190.7-17.3,34-45,61.7-79.1,79.1-38.7,19.7-89.4,19.7-190.7,19.7h-220.9c-101.3,0-152,0-190.7-19.7-34-17.3-61.7-45-79.1-79.1C0,662.5,0,611.8,0,510.5v-220.9Z"/>
  <path class="cls-4" d="M0,289.5C0,188.2,0,137.5,19.8,98.8c17.3-34,45-61.7,79.1-79.1C137.5,0,188.2,0,289.5,0h220.9C611.8,0,662.5,0,701.2,19.8c34,17.3,61.7,45,79.1,79.1,19.7,38.7,19.7,89.4,19.7,190.7v220.9c0,101.3,0,152-19.7,190.7-17.3,34-45,61.7-79.1,79.1-38.7,19.7-89.4,19.7-190.7,19.7h-220.9c-101.3,0-152,0-190.7-19.7-34-17.3-61.7-45-79.1-79.1C0,662.5,0,611.8,0,510.5v-220.9Z"/>
  <path class="cls-6" d="M0,289.5C0,188.2,0,137.5,19.8,98.8c17.3-34,45-61.7,79.1-79.1C137.5,0,188.2,0,289.5,0h220.9C611.8,0,662.5,0,701.2,19.8c34,17.3,61.7,45,79.1,79.1,19.7,38.7,19.7,89.4,19.7,190.7v220.9c0,101.3,0,152-19.7,190.7-17.3,34-45,61.7-79.1,79.1-38.7,19.7-89.4,19.7-190.7,19.7h-220.9c-101.3,0-152,0-190.7-19.7-34-17.3-61.7-45-79.1-79.1C0,662.5,0,611.8,0,510.5v-220.9Z"/>
  <path class="cls-5" d="M0,289.5C0,188.2,0,137.5,19.8,98.8c17.3-34,45-61.7,79.1-79.1C137.5,0,188.2,0,289.5,0h220.9C611.8,0,662.5,0,701.2,19.8c34,17.3,61.7,45,79.1,79.1,19.7,38.7,19.7,89.4,19.7,190.7v220.9c0,101.3,0,152-19.7,190.7-17.3,34-45,61.7-79.1,79.1-38.7,19.7-89.4,19.7-190.7,19.7h-220.9c-101.3,0-152,0-190.7-19.7-34-17.3-61.7-45-79.1-79.1C0,662.5,0,611.8,0,510.5v-220.9Z"/>
  <path class="cls-7" d="M0,289.5C0,188.2,0,137.5,19.8,98.8c17.3-34,45-61.7,79.1-79.1C137.5,0,188.2,0,289.5,0h220.9C611.8,0,662.5,0,701.2,19.8c34,17.3,61.7,45,79.1,79.1,19.7,38.7,19.7,89.4,19.7,190.7v220.9c0,101.3,0,152-19.7,190.7-17.3,34-45,61.7-79.1,79.1-38.7,19.7-89.4,19.7-190.7,19.7h-220.9c-101.3,0-152,0-190.7-19.7-34-17.3-61.7-45-79.1-79.1C0,662.5,0,611.8,0,510.5v-220.9Z"/>
  <path class="cls-8" d="M642,241c-42.3-46.8-102-73.2-164-72.8-60.7,0-122.3,26.7-162,69.7-7.3-.7-14.7-1.4-21.7-1.4-119,0-192.6,102.6-192.6,197.6.3,51.3,19.7,100.5,54,138.1,36,39.3,86,61.5,138.7,61.5h183.7c124.7,0,226-104.9,226-233.5-.7-59.1-22.7-115.9-62-159.3ZM290.7,600.3c-88.3,0-159.7-73.5-159.7-164.1s71-163.1,159-163.7c39,0,80,13,106,41.4l67,70.4c11,11.6,10.7,30.1-.7,41.4-11.3,11.3-29.3,10.9-40.3-.7l-65.3-69.1c-42.7-37.6-107-32.8-143.7,10.9-16,18.8-24.7,43.1-24.7,68,0,57.4,47.7,106,104,106h13c18.7,26.7,71,59.5,71,59.5h-85.7ZM618,541.5c-35.7,38.3-85,59.8-136.7,60.2-49,0-99-22.6-137.3-61.5l-87.3-90.2c-11-11.6-10.7-30.1.3-41.4,5.3-5.5,12.3-8.2,20-8.2s15,3.1,20.3,8.9l87,89.2c27.7,28.4,63,44.4,97,44.4s71-15.4,96-42.7c25.7-27,40-63.2,40-100.8,0-77.3-61.3-139.8-136.7-140.2-28.7,0-52.3,5.8-75.7,22.6-13.2-13.5-41.7-27-54.7-29.7,36-34.5,81-51.3,130.3-51.3,107,0,193.3,88.9,193.6,198.6,0,53-20,104.3-56.3,142.2Z"/>
</svg>