<?xml version="1.0" encoding="UTF-8"?>
<svg xmlns="http://www.w3.org/2000/svg" viewBox="0 0 800 800">
  <defs>
    <style>
      .uuid-63459245-5c59-40f1-b298-e7782717a6c3 {
        fill: none;
      }

      .uuid-63459245-5c59-40f1-b298-e7782717a6c3, .uuid-f8fbe13a-5f23-43f2-9f29-774490629c0e, .uuid-88ae2e0f-1458-45f5-ae5d-647e7ea4e4e9 {
        stroke-width: 0px;
      }

      .uuid-f8fbe13a-5f23-43f2-9f29-774490629c0e {
        fill: #31a8ff;
      }

      .uuid-88ae2e0f-1458-45f5-ae5d-647e7ea4e4e9 {
        fill: #001e36;
      }
    </style>
  </defs>
  <g id="uuid-c470a1d2-036e-4bde-b217-134204a9bfbf" data-name="Layer 5">
    <rect class="uuid-63459245-5c59-40f1-b298-e7782717a6c3" width="800" height="800"/>
  </g>
  <g id="uuid-9c34282b-94a6-4b4d-8367-c37c40899abe" data-name="Layer 1">
    <g>
      <path class="uuid-88ae2e0f-1458-45f5-ae5d-647e7ea4e4e9" d="M191.71,77.5h416.58c63.14,0,114.21,52.37,114.21,117.13v410.74c0,64.76-51.07,117.13-114.21,117.13H191.71c-63.14,0-114.21-52.37-114.21-117.13V194.63c0-64.76,51.07-117.13,114.21-117.13Z"/>
      <g>
        <path class="uuid-f8fbe13a-5f23-43f2-9f29-774490629c0e" d="M215.77,530V246.36c0-1.93.81-3.06,2.66-3.06,27.74,0,55.55-1.69,83.29-1.69,45.07,0,93.85,15.4,111.02,62.56,4.03,11.61,6.21,23.46,6.21,35.8,0,23.7-5.4,43.3-16.12,58.7-29.99,43.13-82.08,42.41-128.68,42.41v88.45c.4,2.58-1.85,3.87-4.03,3.87h-51.04c-2.18,0-3.23-1.13-3.23-3.55l-.08.16ZM274.31,296.51v92.64c18.46,1.37,37.81,1.53,55.63-4.43,19.59-5.64,30.4-22.66,30.4-42.97.56-17.33-8.87-33.94-24.99-40.23-17.58-7.34-42.09-7.74-61.03-5h0Z"/>
        <path class="uuid-f8fbe13a-5f23-43f2-9f29-774490629c0e" d="M586.49,370.85c-8.14-4.27-16.77-7.42-25.72-9.35-11.53-2.74-56.84-12.17-56.92,11.53.4,13.22,21.45,19.75,30.72,23.54,32.65,11.21,69.5,31.2,68.77,71.43.97,50.07-47.57,70.14-89.09,70.14-21.69.24-44.18-3.14-64.02-12.42-1.85-.97-3.14-3.14-3.06-5.32v-47.89c-.24-1.94,1.85-3.63,3.47-2.26,19.43,11.77,42.41,17.41,64.9,17.74,9.92,0,29.59-.97,29.43-15.56,0-13.95-23.54-20.4-32.89-23.95-13.54-4.84-26.44-11.53-38.3-19.99-16.53-11.77-26.93-30.72-26.61-51.44-.08-47.17,44.59-68.29,84.82-68.37,18.79-.16,39.02,1.21,56.52,8.87,2.5.73,3.06,3.39,3.06,5.81v44.83c.16,2.82-2.9,3.71-5,2.66h-.08Z"/>
      </g>
    </g>
  </g>
</svg>