<?xml version="1.0" encoding="UTF-8"?>
<svg id="Layer_1" xmlns="http://www.w3.org/2000/svg" version="1.1" viewBox="0 0 800 800">
  <!-- Generator: Adobe Illustrator 29.1.0, SVG Export Plug-In . SVG Version: 2.1.0 Build 142)  -->
  <defs>
    <style>
      .st0 {
        fill: none;
      }

      .st1 {
        fill: #070707;
      }
    </style>
  </defs>
  <g id="uuid-fc802cac-78e2-442c-beef-c886795944da">
    <path class="st0" d="M553.2,77.5H246.8c-111.8,0-169.3,57.5-169.3,169.3v306.5c0,111.8,57.5,169.3,169.3,169.3h306.5c111.8,0,169.3-57.5,169.3-169.3V246.8c0-111.8-57.5-169.3-169.3-169.3h0Z"/>
  </g>
  <g id="uuid-cc37f32c-376d-4497-9178-37daaec32ef4">
    <path class="st1" d="M575.5,199.9h-216.9c-13.6,0-24.5,11-24.5,24.5s11,24.5,24.5,24.5h157.6l-309,309.1c-9.6,9.6-9.6,25.1,0,34.7,4.8,4.8,11.1,7.2,17.3,7.2s12.6-2.4,17.3-7.2l309-309v157.6c0,13.6,11,24.5,24.5,24.5s24.5-11,24.5-24.5v-216.9c0-13.6-11-24.5-24.5-24.5h.1Z"/>
  </g>
</svg>