<?xml version="1.0" encoding="UTF-8"?>
<svg xmlns="http://www.w3.org/2000/svg" viewBox="0 0 800 800">
  <g id="uuid-fc802cac-78e2-442c-beef-c886795944da" data-name="Layer_3">
    <path d="M553.24,77.5H246.76c-111.77,0-169.26,57.5-169.26,169.26v306.48c0,111.76,57.49,169.26,169.26,169.26h306.48c111.76,0,169.26-57.49,169.26-169.26V246.76c0-111.77-57.5-169.26-169.26-169.26Z" style="fill: none;"/>
  </g>
  <g id="uuid-cc37f32c-376d-4497-9178-37daaec32ef4" data-name="Layer_1">
    <path d="M525,257.5h-154.51c-9.67,0-17.5,7.83-17.5,17.5s7.83,17.5,17.5,17.5h112.26l-220.13,220.13c-6.83,6.83-6.83,17.91,0,24.75,3.42,3.42,7.9,5.13,12.37,5.13s8.96-1.71,12.37-5.13l220.13-220.13v112.26c0,9.67,7.83,17.5,17.5,17.5s17.5-7.83,17.5-17.5v-154.51c0-9.67-7.83-17.5-17.5-17.5Z" style="fill: #070707;"/>
  </g>
</svg>