<?xml version="1.0" encoding="UTF-8"?>
<svg id="uuid-7c75e622-a329-4ec0-99e7-f67c67d1ace3" data-name="Layer 1" xmlns="http://www.w3.org/2000/svg" viewBox="0 0 800 800">
  <defs>
    <style>
      .uuid-e4efb5dc-52ed-46eb-a16b-e9e5e4d19f02 {
        fill: #000;
        stroke-width: 0px;
      }
    </style>
  </defs>
  <path class="uuid-e4efb5dc-52ed-46eb-a16b-e9e5e4d19f02" d="M610.82,610.99h-88.9v-139.23c0-33.2-.59-75.94-46.24-75.94s-53.39,36.17-53.39,73.52v141.63h-88.9v-286.31h85.35v39.13h1.19c17.4-29.76,49.76-47.53,84.21-46.25,90.11,0,106.72,59.27,106.72,136.37l-.04,157.06ZM233.08,285.54c-28.49,0-51.59-23.09-51.6-51.58,0-28.49,23.09-51.6,51.58-51.6,28.49,0,51.59,23.09,51.6,51.58,0,13.68-5.43,26.81-15.1,36.48-9.67,9.68-22.79,15.11-36.48,15.12M277.53,610.99h-88.99v-286.31h88.99v286.31ZM655.14,99.79H143.86c-24.16-.27-43.98,19.08-44.27,43.25v513.41c.28,24.18,20.1,43.55,44.27,43.3h511.27c24.22.3,44.12-19.07,44.45-43.3V143c-.35-24.21-20.24-43.57-44.45-43.25"/>
</svg>