<?xml version="1.0" encoding="UTF-8"?>
<svg id="uuid-eaa1827b-3444-4e48-9018-052b2f229783" data-name="Layer 1" xmlns="http://www.w3.org/2000/svg" viewBox="0 0 800 800">
  <defs>
    <style>
      .uuid-ce163e58-b624-469e-b345-6b71b5ee99f4 {
        fill: #000;
        stroke-width: 0px;
      }
    </style>
  </defs>
  <path class="uuid-ce163e58-b624-469e-b345-6b71b5ee99f4" d="M400,68.27c-182.23,0-330,147.74-330,330,0,145.8,94.56,269.5,225.68,313.14,16.49,3.05,22.55-7.16,22.55-15.87,0-7.87-.31-33.86-.45-61.44-91.81,19.96-111.18-38.94-111.18-38.94-15.01-38.14-36.64-48.29-36.64-48.29-29.94-20.48,2.26-20.06,2.26-20.06,33.14,2.33,50.59,34.01,50.59,34.01,29.43,50.45,77.2,35.86,96.03,27.43,2.96-21.33,11.51-35.89,20.95-44.13-73.3-8.34-150.35-36.64-150.35-163.09,0-36.03,12.89-65.47,34-88.58-3.43-8.31-14.72-41.88,3.2-87.33,0,0,27.71-8.87,90.77,33.83,26.32-7.31,54.55-10.98,82.6-11.1,28.04.13,56.3,3.79,82.67,11.1,62.99-42.7,90.66-33.83,90.66-33.83,17.96,45.46,6.66,79.02,3.24,87.33,21.16,23.11,33.96,52.55,33.96,88.58,0,126.75-77.2,154.66-150.68,162.83,11.84,10.24,22.38,30.32,22.38,61.11,0,44.15-.38,79.69-.38,90.56,0,8.78,5.94,19.07,22.67,15.83,131.05-43.68,225.48-167.34,225.48-313.09,0-182.26-147.75-330-330-330ZM193.6,538.37c-.73,1.64-3.31,2.13-5.66,1.01-2.39-1.08-3.74-3.31-2.96-4.96.71-1.69,3.3-2.16,5.68-1.03,2.4,1.08,3.77,3.33,2.93,4.98ZM209.83,552.85c-1.57,1.46-4.65.78-6.74-1.52-2.16-2.3-2.56-5.38-.97-6.86,1.62-1.46,4.61-.78,6.77,1.52,2.16,2.33,2.58,5.38.93,6.86ZM220.97,571.38c-2.02,1.4-5.33.09-7.37-2.85-2.02-2.93-2.02-6.45.04-7.86,2.05-1.41,5.31-.14,7.38,2.77,2.02,2.98,2.02,6.5-.05,7.94ZM239.8,592.85c-1.81,1.99-5.66,1.46-8.48-1.26-2.89-2.66-3.69-6.44-1.87-8.43,1.83-2,5.71-1.44,8.55,1.26,2.86,2.66,3.74,6.46,1.81,8.43ZM264.14,600.09c-.8,2.58-4.51,3.76-8.25,2.66-3.73-1.13-6.18-4.16-5.42-6.77.78-2.6,4.5-3.83,8.27-2.65,3.73,1.13,6.18,4.13,5.4,6.76ZM291.84,603.17c.09,2.72-3.08,4.98-7,5.03-3.95.09-7.14-2.11-7.18-4.79,0-2.75,3.1-4.98,7.04-5.05,3.92-.08,7.14,2.11,7.14,4.81ZM319.05,602.12c.47,2.66-2.26,5.38-6.15,6.11-3.83.7-7.38-.94-7.86-3.57-.48-2.72,2.3-5.45,6.13-6.15,3.9-.68,7.39.92,7.89,3.62Z"/>
</svg>