<?xml version="1.0" encoding="UTF-8"?>
<svg id="uuid-6542f730-1d73-4e49-8df9-532848e30ee5" data-name="Layer 1" xmlns="http://www.w3.org/2000/svg" viewBox="0 0 800 800">
  <defs>
    <style>
      .uuid-452cba0c-d770-45c1-902d-d11131a17dd7, .uuid-84e51873-9f82-4406-8691-c43667ece36a {
        fill: #0f0f0f;
        stroke-width: 0px;
      }

      .uuid-84e51873-9f82-4406-8691-c43667ece36a {
        fill-rule: evenodd;
      }
    </style>
  </defs>
  <path class="uuid-84e51873-9f82-4406-8691-c43667ece36a" d="M400,574.55c96.4,0,174.55-78.15,174.55-174.55s-78.15-174.55-174.55-174.55-174.55,78.15-174.55,174.55,78.15,174.55,174.55,174.55ZM400,516.36c64.26,0,116.36-52.1,116.36-116.36s-52.1-116.36-116.36-116.36-116.36,52.1-116.36,116.36,52.1,116.36,116.36,116.36Z"/>
  <path class="uuid-452cba0c-d770-45c1-902d-d11131a17dd7" d="M574.55,196.36c-16.07,0-29.09,13.02-29.09,29.09s13.02,29.09,29.09,29.09,29.09-13.02,29.09-29.09-13.02-29.09-29.09-29.09Z"/>
  <path class="uuid-84e51873-9f82-4406-8691-c43667ece36a" d="M99.02,175.3c-19.02,37.34-19.02,86.21-19.02,183.97v81.45c0,97.75,0,146.63,19.02,183.97,16.73,32.84,43.44,59.55,76.28,76.28,37.34,19.03,86.21,19.03,183.97,19.03h81.45c97.75,0,146.63,0,183.97-19.03,32.84-16.73,59.55-43.44,76.28-76.28,19.03-37.34,19.03-86.21,19.03-183.97v-81.45c0-97.75,0-146.63-19.03-183.97-16.73-32.84-43.44-59.55-76.28-76.28-37.34-19.02-86.21-19.02-183.97-19.02h-81.45c-97.75,0-146.63,0-183.97,19.02-32.84,16.73-59.55,43.44-76.28,76.28ZM440.73,138.18h-81.45c-49.84,0-83.72.05-109.9,2.18-25.51,2.08-38.55,5.86-47.65,10.5-21.9,11.16-39.7,28.96-50.85,50.85-4.64,9.1-8.41,22.14-10.5,47.65-2.14,26.19-2.18,60.07-2.18,109.9v81.45c0,49.84.05,83.71,2.18,109.9,2.08,25.51,5.86,38.55,10.5,47.65,11.16,21.89,28.96,39.69,50.85,50.85,9.1,4.64,22.14,8.42,47.65,10.5,26.19,2.14,60.07,2.18,109.9,2.18h81.45c49.84,0,83.71-.05,109.9-2.18,25.51-2.08,38.55-5.86,47.65-10.5,21.89-11.16,39.69-28.96,50.85-50.85,4.64-9.1,8.42-22.14,10.5-47.65,2.14-26.19,2.18-60.06,2.18-109.9v-81.45c0-49.84-.05-83.72-2.18-109.9-2.08-25.51-5.86-38.55-10.5-47.65-11.16-21.9-28.96-39.7-50.85-50.85-9.1-4.64-22.14-8.41-47.65-10.5-26.19-2.14-60.06-2.18-109.9-2.18Z"/>
</svg>