<?xml version="1.0" encoding="UTF-8"?>
<svg xmlns="http://www.w3.org/2000/svg" viewBox="0 0 800 800">
  <defs>
    <style>
      .uuid-cc7ceb48-6b00-4044-8c97-ecf01ab8ef1a {
        fill: #ebebeb;
      }

      .uuid-cc7ceb48-6b00-4044-8c97-ecf01ab8ef1a, .uuid-e2596e53-12ac-4fe9-8bec-c001e864e182, .uuid-07e33cd7-930f-4ff7-a4b4-b3d65f56b2ea, .uuid-a213b769-f85c-4154-9402-b2822b9c72c7, .uuid-003d2cef-2f7f-497e-b08d-8c55956117a6 {
        stroke-width: 0px;
      }

      .uuid-e2596e53-12ac-4fe9-8bec-c001e864e182 {
        fill: none;
      }

      .uuid-07e33cd7-930f-4ff7-a4b4-b3d65f56b2ea {
        fill: #264de4;
      }

      .uuid-a213b769-f85c-4154-9402-b2822b9c72c7 {
        fill: #fff;
      }

      .uuid-003d2cef-2f7f-497e-b08d-8c55956117a6 {
        fill: #2965f1;
      }
    </style>
  </defs>
  <g id="uuid-1f8d1e1f-7151-4da3-b690-7bbc1ac6b1f7" data-name="Layer 5">
    <rect class="uuid-e2596e53-12ac-4fe9-8bec-c001e864e182" width="800" height="800"/>
  </g>
  <g id="uuid-58f1a2fb-3349-44c1-b67b-eaa12bf07daf" data-name="Layer 3">
    <path class="uuid-a213b769-f85c-4154-9402-b2822b9c72c7" d="M553.24,77.5H246.76c-111.77,0-169.26,57.5-169.26,169.26v306.48c0,111.76,57.49,169.26,169.26,169.26h306.48c111.76,0,169.26-57.49,169.26-169.26V246.76c0-111.77-57.5-169.26-169.26-169.26Z"/>
  </g>
  <g id="uuid-fb735a10-7c6a-43c5-8c9d-7a02127aaf88" data-name="Layer 1">
    <g>
      <path class="uuid-07e33cd7-930f-4ff7-a4b4-b3d65f56b2ea" d="M399.81,637.75l-160.2-44.5-35.77-400.5h392.32l-35.77,400.39-160.64,44.56h0l.06.06Z"/>
      <path class="uuid-003d2cef-2f7f-497e-b08d-8c55956117a6" d="M529.86,567.66l30.54-342.15h-160.37v378.14l129.83-35.99h0Z"/>
      <path class="uuid-cc7ceb48-6b00-4044-8c97-ecf01ab8ef1a" d="M285.72,374.03l4.39,49.12h109.92v-49.12h-114.31Z"/>
      <path class="uuid-cc7ceb48-6b00-4044-8c97-ecf01ab8ef1a" d="M276.87,274.63l4.45,49.12h118.7v-49.12h-123.15Z"/>
      <path class="uuid-cc7ceb48-6b00-4044-8c97-ecf01ab8ef1a" d="M400.03,501.64h-.22c0,.06-54.68-14.74-54.68-14.74l-3.5-39.16h-49.28l6.9,77.1,100.63,27.92h.22v-51.17h0l-.06.06Z"/>
      <path class="uuid-a213b769-f85c-4154-9402-b2822b9c72c7" d="M514,374.03l8.84-99.4h-123.04v49.12h69.2l-4.45,50.28h-64.75v49.12h60.46l-5.67,63.69-54.79,14.8v51.12l100.68-27.92.72-8.29,11.51-129.33,1.22-13.18h.06Z"/>
    </g>
  </g>
</svg>