<?xml version="1.0" encoding="UTF-8"?>
<svg xmlns="http://www.w3.org/2000/svg" viewBox="0 0 800 800">
  <defs>
    <style>
      .uuid-81bb66ea-8e5c-4abc-9b9f-62de7ab64e5e {
        fill: #ebebeb;
      }

      .uuid-81bb66ea-8e5c-4abc-9b9f-62de7ab64e5e, .uuid-0b3a29c1-1590-432e-9914-111cafd4f87c, .uuid-907c9d7e-782c-40fd-a1de-5da623d744f9, .uuid-6d7d1ae9-33e9-4122-bd9e-19cb846ca25f, .uuid-cb563e00-30f0-48eb-b031-4777eac9476f, .uuid-d1076958-7c1e-4774-8e66-7795bccc6592 {
        stroke-width: 0px;
      }

      .uuid-0b3a29c1-1590-432e-9914-111cafd4f87c {
        fill: none;
      }

      .uuid-907c9d7e-782c-40fd-a1de-5da623d744f9 {
        fill: #264de4;
      }

      .uuid-6d7d1ae9-33e9-4122-bd9e-19cb846ca25f {
        fill: #000;
      }

      .uuid-cb563e00-30f0-48eb-b031-4777eac9476f {
        fill: #fff;
      }

      .uuid-d1076958-7c1e-4774-8e66-7795bccc6592 {
        fill: #2965f1;
      }
    </style>
  </defs>
  <g id="uuid-53cb9113-9408-4e31-ba68-6a4a23ab0c28" data-name="Layer 5">
    <rect class="uuid-0b3a29c1-1590-432e-9914-111cafd4f87c" width="800" height="800"/>
  </g>
  <g id="uuid-1b09080a-5a53-4084-90ad-fafb5345bcc5" data-name="Layer 3">
    <path class="uuid-cb563e00-30f0-48eb-b031-4777eac9476f" d="M553.24,77.5H246.76c-111.77,0-169.26,57.5-169.26,169.26v306.48c0,111.76,57.49,169.26,169.26,169.26h306.48c111.76,0,169.26-57.49,169.26-169.26V246.76c0-111.77-57.5-169.26-169.26-169.26Z"/>
  </g>
  <g id="uuid-00fa8775-41ee-4915-9be3-e39e06c237bd" data-name="Layer 1">
    <g>
      <path class="uuid-907c9d7e-782c-40fd-a1de-5da623d744f9" d="M399.81,622.5l-128.75-35.74-28.69-321.81h315.27l-28.72,321.75-129.1,35.79h0Z"/>
      <path class="uuid-d1076958-7c1e-4774-8e66-7795bccc6592" d="M504.32,566.22l24.54-274.95h-128.87v303.88l104.32-28.92h0Z"/>
      <path class="uuid-81bb66ea-8e5c-4abc-9b9f-62de7ab64e5e" d="M308.14,410.62l3.54,39.47h88.32v-39.47h-91.86Z"/>
      <path class="uuid-81bb66ea-8e5c-4abc-9b9f-62de7ab64e5e" d="M301.03,330.73l3.59,39.47h95.38v-39.47h-98.97Z"/>
      <path class="uuid-81bb66ea-8e5c-4abc-9b9f-62de7ab64e5e" d="M400,513.12l-.17.05-43.96-11.87-2.81-31.48h-39.62l5.53,61.97,80.85,22.44.18-.05v-41.06h0Z"/>
      <path class="uuid-6d7d1ae9-33e9-4122-bd9e-19cb846ca25f" d="M316.56,177.5h47.8v19.99h-27.81v19.99h27.81v19.99h-47.8v-59.97h0Z"/>
      <path class="uuid-6d7d1ae9-33e9-4122-bd9e-19cb846ca25f" d="M373.93,177.5h47.8v17.38h-27.81v3.48h27.81v39.98h-47.8v-18.25h27.81v-3.48h-27.81v-39.11h0Z"/>
      <path class="uuid-6d7d1ae9-33e9-4122-bd9e-19cb846ca25f" d="M431.29,177.5h47.8v17.38h-27.81v3.48h27.81v39.98h-47.8v-18.25h27.81v-3.48h-27.81v-39.11h0Z"/>
      <path class="uuid-cb563e00-30f0-48eb-b031-4777eac9476f" d="M491.61,410.62l7.13-79.88h-98.87v39.47h55.61l-3.59,40.42h-52.02v39.47h48.6l-4.58,51.19-44.02,11.88v41.06l80.91-22.42.59-6.67,9.27-103.91.96-10.6h0Z"/>
    </g>
  </g>
</svg>