<?xml version="1.0" encoding="UTF-8"?>
<svg xmlns="http://www.w3.org/2000/svg" viewBox="0 0 800 800">
  <defs>
    <style>
      .uuid-54fcea83-0586-4eae-b85d-f22a9b776339 {
        fill: #092e20;
      }

      .uuid-54fcea83-0586-4eae-b85d-f22a9b776339, .uuid-c31cd998-4970-4781-8201-092b16634129, .uuid-eda9e44f-0e6b-46b7-8767-9c75a37d403b {
        stroke-width: 0px;
      }

      .uuid-c31cd998-4970-4781-8201-092b16634129 {
        fill: none;
      }

      .uuid-eda9e44f-0e6b-46b7-8767-9c75a37d403b {
        fill: #fff;
      }
    </style>
  </defs>
  <g id="uuid-e53f60c2-d5dc-4875-9318-6212d20a9ae3" data-name="Layer 5">
    <rect class="uuid-c31cd998-4970-4781-8201-092b16634129" width="800" height="800"/>
  </g>
  <g id="uuid-019661cf-ce77-4e57-b481-aae94b1e38a6" data-name="Layer 3">
    <path class="uuid-eda9e44f-0e6b-46b7-8767-9c75a37d403b" d="M553.24,77.5H246.76c-111.77,0-169.26,57.5-169.26,169.26v306.48c0,111.76,57.49,169.26,169.26,169.26h306.48c111.76,0,169.26-57.49,169.26-169.26V246.76c0-111.77-57.5-169.26-169.26-169.26Z"/>
  </g>
  <g id="uuid-fc9ede60-2638-49eb-953f-a4eaad8a3159" data-name="Layer 1">
    <path class="uuid-54fcea83-0586-4eae-b85d-f22a9b776339" d="M550.83,344.67c13.83,0,26.61,1.47,42.12,4.61l-11.05,23.27c-8.59-1.68-.69-.22-7.18-.85v3.35l.42,13.62.21,17.6c.21,4.4.21,8.8.42,13.2v8.8h0c0,27.66-2.3,40.65-9.22,51.33-10.06,15.72-27.45,23.47-52.17,23.47-12.57,0-23.46-1.89-34.78-6.29v-29.75h0c11.32,5.87,22.63,8.59,34.57,8.59,21.16,0,30.17-8.59,30.17-29.12v-.63h0c-6.29,3.14-12.57,4.4-20.95,4.4-28.29,0-46.31-18.65-46.31-48.19,0-36.67,26.61-57.41,73.75-57.41ZM258.16,346.76v74.8c0,25.77-1.89,38.13-7.54,48.82-5.24,10.27-12.15,16.76-26.4,23.89l-29.96-14.25c14.25-6.7,21.16-12.57,25.56-21.58,4.61-9.22,6.08-19.9,6.08-47.98v-63.69h32.27ZM643.04,344.04c32.27,0,51.96,20.32,51.96,53.22s-20.53,54.9-53.22,54.9-52.17-20.32-52.17-53.01c0-33.95,20.54-55.11,53.43-55.11ZM320.39,344.46c16.55,0,27.45,4.4,32.27,12.99,2.72,4.82,3.56,11.1,3.56,24.51v65.58c-14.46,2.1-32.69,3.56-46.09,3.56-27.03,0-39.18-9.43-39.18-30.38,0-22.63,16.13-33.1,55.73-36.46v-7.12c0-5.87-2.93-7.96-11.11-7.96-11.94,0-25.35,3.35-37.92,9.85v-24.93h0c14.25-6.7,27.87-9.64,42.74-9.64ZM206.83,296.93v149.35c-16.55,3.14-28.7,4.4-41.9,4.4-39.39,0-59.92-17.81-59.92-51.96s21.79-54.26,55.52-54.26c5.24,0,9.22.42,14.04,1.67v-49.2h32.27ZM422.64,344.46c16.55,0,28.5,3.77,35.62,11.1,6.7,6.91,8.8,14.45,8.8,30.59v63.27h-32.27v-62.02c0-12.36-4.19-16.97-15.71-16.97-4.4,0-8.38.42-14.88,2.3v76.68h-32.27v-97.64c19.06-5.03,34.78-7.33,50.7-7.33ZM328.14,405.43c-21.37,2.1-28.29,5.45-28.29,13.83,0,6.29,3.98,9.22,12.78,9.22,4.82,0,9.22-.42,15.5-1.47v-21.58ZM642.62,370.02c-12.78,0-20.12,10.27-20.12,28.08,0,17.81,7.34,28.08,19.9,28.08s19.7-10.27,19.7-28.08-7.12-28.08-19.48-28.08ZM163.67,370.44c-16.34,0-25.77,10.06-25.77,27.66s9.01,26.61,25.56,26.61c3.56,0,6.49-.21,11.1-.84v-51.75c-3.77-1.26-6.91-1.67-10.89-1.67ZM521.71,375.26c-7.75,4.4-11.73,12.36-11.73,23.68,0,16.13,7.96,25.35,22.21,25.35,4.4,0,7.96-.84,12.15-2.1v-11.1c0-3.77-.21-7.96-.21-12.36l-.21-14.87-.21-10.69v-2.52h-3.35c-6.28-.21-13.62,1.47-18.65,4.61ZM258.16,297.11v33.1h-32.27v-33.1h32.27Z"/>
  </g>
</svg>