<?xml version="1.0" encoding="UTF-8"?>
<svg xmlns="http://www.w3.org/2000/svg" viewBox="0 0 800 800">
  <defs>
    <style>
      .uuid-e9b0aedd-2091-47bc-bed7-95d82ad89f43 {
        fill: none;
      }

      .uuid-e9b0aedd-2091-47bc-bed7-95d82ad89f43, .uuid-3203b2f8-c074-4563-80e4-58d4548157ae, .uuid-bf7349f6-d9a3-4777-bed4-a8199d9af6f6 {
        stroke-width: 0px;
      }

      .uuid-3203b2f8-c074-4563-80e4-58d4548157ae {
        fill: #222;
      }

      .uuid-bf7349f6-d9a3-4777-bed4-a8199d9af6f6 {
        fill: #fff;
      }
    </style>
  </defs>
  <g id="uuid-1e75e6d1-e37e-4e05-9157-a7ea32bc752e" data-name="Layer 5">
    <rect class="uuid-e9b0aedd-2091-47bc-bed7-95d82ad89f43" width="800" height="800"/>
  </g>
  <g id="uuid-768e8aef-dcd2-4dde-add6-36f80cb0d2cd" data-name="Layer 3">
    <path class="uuid-bf7349f6-d9a3-4777-bed4-a8199d9af6f6" d="M553.24,77.5H246.76c-111.77,0-169.26,57.5-169.26,169.26v306.48c0,111.76,57.49,169.26,169.26,169.26h306.48c111.76,0,169.26-57.49,169.26-169.26V246.76c0-111.77-57.5-169.26-169.26-169.26Z"/>
  </g>
  <g id="uuid-4be44bd1-81e5-43fb-ad27-7caff54cf61d" data-name="Layer 1">
    <path class="uuid-3203b2f8-c074-4563-80e4-58d4548157ae" d="M108.84,447.81v-65.66h81.98v-3.84h-81.98v-59.9h87.17v-3.84h-91.01v137.08h91.77v-3.84h-87.93ZM270.69,352.96l-33.98,44.73-33.22-44.73h-4.99l35.9,47.61-39.36,51.07h4.61l37.05-48.19,37.25,48.19h4.8l-39.55-51.07,36.1-47.61h-4.61ZM290.27,485.44v-61.44h.38c2.3,8.96,6.85,16.16,13.63,21.6,6.78,5.44,15.42,8.16,25.92,8.16,6.78,0,12.8-1.38,18.05-4.13s9.63-6.5,13.15-11.23c3.52-4.74,6.21-10.24,8.06-16.51,1.86-6.27,2.78-12.86,2.78-19.78,0-7.42-.96-14.27-2.88-20.54-1.92-6.27-4.7-11.71-8.35-16.32s-8.06-8.19-13.25-10.75c-5.18-2.56-11.04-3.84-17.57-3.84-4.99,0-9.63.74-13.92,2.21-4.29,1.47-8.1,3.55-11.42,6.24-3.33,2.69-6.21,5.86-8.64,9.5-2.43,3.65-4.29,7.65-5.57,12h-.38v-27.65h-3.84v132.48h3.84ZM330.21,450.11c-12.03,0-21.7-4.13-28.99-12.38-7.3-8.26-10.94-20.13-10.94-35.62,0-6.4.9-12.48,2.69-18.24s4.38-10.82,7.78-15.17c3.39-4.35,7.58-7.81,12.58-10.37,4.99-2.56,10.62-3.84,16.9-3.84s12,1.28,16.8,3.84c4.8,2.56,8.77,6.05,11.9,10.46,3.14,4.42,5.5,9.47,7.1,15.17,1.6,5.7,2.4,11.74,2.4,18.14,0,5.76-.74,11.49-2.21,17.18-1.47,5.7-3.74,10.82-6.82,15.36-3.07,4.54-7.01,8.26-11.81,11.14-4.8,2.88-10.59,4.32-17.38,4.32h0ZM393.38,451.65v-55.87c0-5.38.77-10.62,2.3-15.74s3.9-9.63,7.1-13.54c3.2-3.9,7.26-6.98,12.19-9.22,4.93-2.24,10.78-3.17,17.57-2.78v-3.84c-5.89-.13-11.04.51-15.46,1.92-4.42,1.41-8.22,3.33-11.42,5.76-3.2,2.43-5.76,5.28-7.68,8.54-1.92,3.26-3.33,6.75-4.22,10.46h-.38v-24.38h-3.84v98.69h3.84ZM437.34,403.07h82.56c.26-6.78-.42-13.31-2.02-19.58-1.6-6.27-4.16-11.84-7.68-16.7-3.52-4.86-8.06-8.77-13.63-11.71s-12.19-4.42-19.87-4.42c-5.5,0-10.88,1.15-16.13,3.46s-9.86,5.66-13.82,10.08-7.17,9.82-9.6,16.22-3.65,13.7-3.65,21.89c0,7.3.83,14.11,2.5,20.45,1.66,6.34,4.22,11.84,7.68,16.51,3.46,4.67,7.9,8.29,13.34,10.85,5.44,2.56,12,3.78,19.68,3.65,11.26,0,20.74-3.17,28.42-9.5s12.22-15.26,13.63-26.78h-3.84c-1.66,10.88-5.92,19.04-12.77,24.48s-15.46,8.16-25.82,8.16c-7.04,0-12.99-1.22-17.86-3.65-4.86-2.43-8.83-5.76-11.9-9.98-3.07-4.22-5.34-9.18-6.82-14.88-1.47-5.7-2.27-11.87-2.4-18.53h0ZM516.06,399.23h-78.72c.38-6.91,1.66-13.12,3.84-18.62,2.18-5.5,5.02-10.21,8.54-14.11,3.52-3.9,7.62-6.88,12.29-8.93,4.67-2.05,9.7-3.07,15.07-3.07,6.4,0,12.03,1.18,16.9,3.55,4.86,2.37,8.93,5.6,12.19,9.7,3.26,4.1,5.73,8.86,7.39,14.3,1.66,5.44,2.5,11.17,2.5,17.18h0ZM599.58,382.14h3.84c0-11.01-3.2-19.01-9.6-24s-15.1-7.49-26.11-7.49c-6.14,0-11.33.77-15.55,2.3-4.22,1.54-7.68,3.52-10.37,5.95s-4.61,5.12-5.76,8.06c-1.15,2.94-1.73,5.76-1.73,8.45,0,5.38.96,9.66,2.88,12.86s4.93,5.7,9.02,7.49c2.82,1.28,6.02,2.43,9.6,3.46s7.74,2.11,12.48,3.26c4.22,1.02,8.38,2.05,12.48,3.07,4.1,1.02,7.71,2.4,10.85,4.13s5.7,3.94,7.68,6.62c1.98,2.69,2.98,6.21,2.98,10.56s-.99,7.81-2.98,10.75c-1.98,2.94-4.51,5.34-7.58,7.2-3.07,1.86-6.5,3.2-10.27,4.03-3.78.83-7.46,1.25-11.04,1.25-11.65,0-20.58-2.59-26.78-7.78s-9.31-13.34-9.31-24.48h-3.84c0,12.42,3.36,21.5,10.08,27.26,6.72,5.76,16.67,8.64,29.86,8.64,4.22,0,8.48-.48,12.77-1.44,4.29-.96,8.13-2.53,11.52-4.7,3.39-2.18,6.14-4.99,8.26-8.45,2.11-3.46,3.17-7.68,3.17-12.67s-.93-8.58-2.78-11.52c-1.86-2.94-4.29-5.38-7.3-7.3-3.01-1.92-6.4-3.42-10.18-4.51-3.78-1.09-7.58-2.14-11.42-3.17-5.38-1.41-10.08-2.62-14.11-3.65-4.03-1.02-7.78-2.24-11.23-3.65-3.33-1.41-5.98-3.42-7.97-6.05-1.98-2.62-2.98-6.37-2.98-11.23,0-.9.26-2.5.77-4.8s1.73-4.64,3.65-7.01c1.92-2.37,4.86-4.48,8.83-6.34s9.41-2.78,16.32-2.78c4.74,0,9.06.51,12.96,1.54,3.9,1.02,7.26,2.66,10.08,4.9,2.82,2.24,4.99,5.09,6.53,8.54s2.3,7.68,2.3,12.67h0ZM688.47,382.14h3.84c0-11.01-3.2-19.01-9.6-24-6.4-4.99-15.1-7.49-26.11-7.49-6.14,0-11.33.77-15.55,2.3-4.22,1.54-7.68,3.52-10.37,5.95s-4.61,5.12-5.76,8.06c-1.15,2.94-1.73,5.76-1.73,8.45,0,5.38.96,9.66,2.88,12.86s4.93,5.7,9.02,7.49c2.82,1.28,6.02,2.43,9.6,3.46,3.58,1.02,7.74,2.11,12.48,3.26,4.22,1.02,8.38,2.05,12.48,3.07,4.1,1.02,7.71,2.4,10.85,4.13,3.14,1.73,5.7,3.94,7.68,6.62,1.98,2.69,2.98,6.21,2.98,10.56s-.99,7.81-2.98,10.75c-1.98,2.94-4.51,5.34-7.58,7.2-3.07,1.86-6.5,3.2-10.27,4.03s-7.46,1.25-11.04,1.25c-11.65,0-20.58-2.59-26.78-7.78-6.21-5.18-9.31-13.34-9.31-24.48h-3.84c0,12.42,3.36,21.5,10.08,27.26,6.72,5.76,16.67,8.64,29.86,8.64,4.22,0,8.48-.48,12.77-1.44s8.13-2.53,11.52-4.7c3.39-2.18,6.14-4.99,8.26-8.45,2.11-3.46,3.17-7.68,3.17-12.67s-.93-8.58-2.78-11.52c-1.86-2.94-4.29-5.38-7.3-7.3-3.01-1.92-6.4-3.42-10.18-4.51-3.78-1.09-7.58-2.14-11.42-3.17-5.38-1.41-10.08-2.62-14.11-3.65s-7.78-2.24-11.23-3.65c-3.33-1.41-5.98-3.42-7.97-6.05-1.98-2.62-2.98-6.37-2.98-11.23,0-.9.26-2.5.77-4.8s1.73-4.64,3.65-7.01,4.86-4.48,8.83-6.34c3.97-1.86,9.41-2.78,16.32-2.78,4.74,0,9.06.51,12.96,1.54,3.9,1.02,7.26,2.66,10.08,4.9,2.82,2.24,4.99,5.09,6.53,8.54,1.54,3.46,2.3,7.68,2.3,12.67h0Z"/>
  </g>
</svg>