<?xml version="1.0" encoding="UTF-8"?>
<svg xmlns="http://www.w3.org/2000/svg" viewBox="0 0 800 800">
  <defs>
    <style>
      .uuid-df16910d-7072-4044-b2e1-ea7d3da75dfc {
        fill: none;
      }

      .uuid-df16910d-7072-4044-b2e1-ea7d3da75dfc, .uuid-e1857708-7cf0-4c00-aac5-6cb3446d532d, .uuid-9a040db0-728a-4302-a631-a3b04ed85c2b {
        stroke-width: 0px;
      }

      .uuid-e1857708-7cf0-4c00-aac5-6cb3446d532d {
        fill: #000;
      }

      .uuid-9a040db0-728a-4302-a631-a3b04ed85c2b {
        fill: #fff;
      }
    </style>
  </defs>
  <g id="uuid-4c943bf1-03d0-44a0-b4c4-72ab421da875" data-name="Layer 5">
    <rect class="uuid-df16910d-7072-4044-b2e1-ea7d3da75dfc" width="800" height="800"/>
  </g>
  <g id="uuid-9df3ffa4-6f39-4456-8be4-1bfa75a69d4a" data-name="Layer 3">
    <path class="uuid-9a040db0-728a-4302-a631-a3b04ed85c2b" d="M553.24,77.5H246.76c-111.77,0-169.26,57.5-169.26,169.26v306.48c0,111.76,57.49,169.26,169.26,169.26h306.48c111.76,0,169.26-57.49,169.26-169.26V246.76c0-111.77-57.5-169.26-169.26-169.26Z"/>
  </g>
  <g id="uuid-0c28cf4f-f6be-4497-8012-cfada1fb4e0f" data-name="Layer 1">
    <path class="uuid-e1857708-7cf0-4c00-aac5-6cb3446d532d" d="M400,183c-122.87,0-222.5,99.61-222.5,222.5,0,98.3,63.76,181.71,152.16,211.13,11.12,2.06,15.2-4.83,15.2-10.7,0-5.31-.21-22.83-.3-41.42-61.9,13.46-74.96-26.25-74.96-26.25-10.12-25.72-24.7-32.56-24.7-32.56-20.19-13.81,1.52-13.53,1.52-13.53,22.34,1.57,34.11,22.93,34.11,22.93,19.84,34.02,52.05,24.18,64.75,18.49,2-14.38,7.76-24.2,14.13-29.75-49.42-5.62-101.37-24.7-101.37-109.96,0-24.29,8.69-44.14,22.92-59.72-2.31-5.6-9.92-28.24,2.16-58.88,0,0,18.68-5.98,61.2,22.81,17.75-4.93,36.78-7.4,55.69-7.48,18.91.09,37.96,2.56,55.74,7.48,42.47-28.79,61.13-22.81,61.13-22.81,12.11,30.65,4.49,53.28,2.18,58.88,14.27,15.58,22.9,35.43,22.9,59.72,0,85.46-52.05,104.28-101.59,109.79,7.98,6.9,15.09,20.44,15.09,41.2,0,29.77-.26,53.73-.26,61.06,0,5.92,4,12.86,15.28,10.67,88.36-29.45,152.03-112.83,152.03-211.1,0-122.89-99.62-222.5-222.5-222.5h0ZM260.84,499.95c-.49,1.11-2.23,1.44-3.82.68-1.61-.73-2.52-2.23-2-3.34.48-1.14,2.22-1.46,3.83-.69,1.62.73,2.54,2.25,1.98,3.36h0ZM271.78,509.72c-1.06.98-3.14.53-4.54-1.02-1.46-1.55-1.73-3.63-.65-4.63,1.09-.98,3.11-.53,4.56,1.02,1.46,1.57,1.74,3.63.63,4.63h0ZM279.29,522.21c-1.36.94-3.59.06-4.97-1.92-1.36-1.98-1.36-4.35.03-5.3,1.38-.95,3.58-.09,4.98,1.87,1.36,2.01,1.36,4.38-.03,5.35h0ZM291.98,536.69c-1.22,1.34-3.82.98-5.72-.85-1.95-1.79-2.49-4.34-1.26-5.68,1.23-1.35,3.85-.97,5.76.85,1.93,1.79,2.52,4.36,1.22,5.68h0ZM308.4,541.57c-.54,1.74-3.04,2.54-5.56,1.79-2.51-.76-4.17-2.8-3.65-4.56.53-1.75,3.03-2.58,5.58-1.79,2.51.76,4.17,2.78,3.64,4.56h0ZM327.07,543.64c.06,1.83-2.08,3.36-4.72,3.39-2.66.06-4.81-1.42-4.84-3.23,0-1.85,2.09-3.36,4.75-3.4,2.64-.05,4.81,1.42,4.81,3.24h0ZM345.42,542.94c.32,1.79-1.52,3.63-4.15,4.12-2.58.47-4.98-.63-5.3-2.41-.32-1.83,1.55-3.67,4.13-4.15,2.63-.46,4.98.62,5.32,2.44h0Z"/>
  </g>
</svg>