<?xml version="1.0" encoding="UTF-8"?>
<svg xmlns="http://www.w3.org/2000/svg" viewBox="0 0 800 800">
  <defs>
    <style>
      .uuid-4b932d2c-8f53-483d-be5b-4bc3fb86c8d2 {
        fill: none;
      }

      .uuid-4b932d2c-8f53-483d-be5b-4bc3fb86c8d2, .uuid-d0809fb7-3fd5-4745-aff9-5b953349375b, .uuid-630987c9-0d0c-4043-9b1d-b6f0ebaa194c {
        stroke-width: 0px;
      }

      .uuid-d0809fb7-3fd5-4745-aff9-5b953349375b {
        fill: #000;
      }

      .uuid-630987c9-0d0c-4043-9b1d-b6f0ebaa194c {
        fill: #f2f2f2;
      }
    </style>
  </defs>
  <g id="uuid-e4d5f578-83e6-43d5-848f-1a83a8938a06" data-name="Layer 5">
    <rect class="uuid-4b932d2c-8f53-483d-be5b-4bc3fb86c8d2" width="800" height="800"/>
  </g>
  <g id="uuid-7ba49551-4cb7-40e9-bf08-7170f7ee5669" data-name="Layer 3">
    <path class="uuid-d0809fb7-3fd5-4745-aff9-5b953349375b" d="M553.24,77.5H246.76c-111.77,0-169.26,57.5-169.26,169.26v306.48c0,111.76,57.49,169.26,169.26,169.26h306.48c111.76,0,169.26-57.49,169.26-169.26V246.76c0-111.77-57.5-169.26-169.26-169.26Z"/>
  </g>
  <g id="uuid-09f72709-9e28-4a26-a0e0-2309e38f2ada" data-name="Layer 1">
    <path class="uuid-630987c9-0d0c-4043-9b1d-b6f0ebaa194c" d="M400,182.99c-122.87,0-222.5,99.62-222.5,222.5,0,98.31,63.75,181.71,152.16,211.13,11.12,2.06,15.2-4.83,15.2-10.7,0-5.31-.21-22.83-.3-41.43-61.9,13.46-74.96-26.25-74.96-26.25-10.12-25.72-24.7-32.56-24.7-32.56-20.19-13.81,1.52-13.53,1.52-13.53,22.34,1.57,34.11,22.93,34.11,22.93,19.84,34.02,52.05,24.18,64.75,18.5,2-14.38,7.76-24.2,14.13-29.75-49.42-5.63-101.37-24.7-101.37-109.96,0-24.29,8.69-44.14,22.93-59.72-2.31-5.6-9.93-28.23,2.16-58.88,0,0,18.68-5.98,61.2,22.81,17.75-4.93,36.78-7.4,55.69-7.49,18.91.08,37.96,2.56,55.74,7.49,42.47-28.79,61.13-22.81,61.13-22.81,12.11,30.65,4.49,53.28,2.18,58.88,14.27,15.58,22.9,35.43,22.9,59.72,0,85.46-52.05,104.28-101.6,109.78,7.98,6.9,15.09,20.45,15.09,41.2,0,29.77-.26,53.73-.26,61.06,0,5.92,4.01,12.86,15.28,10.67,88.36-29.45,152.03-112.83,152.03-211.1,0-122.89-99.62-222.5-222.5-222.5ZM260.83,499.95c-.49,1.11-2.23,1.44-3.81.68-1.61-.73-2.52-2.23-2-3.34.48-1.14,2.22-1.46,3.83-.69,1.62.73,2.54,2.25,1.98,3.36ZM271.78,509.72c-1.06.98-3.14.53-4.54-1.03-1.46-1.55-1.73-3.63-.65-4.62,1.09-.98,3.11-.52,4.57,1.03,1.46,1.57,1.74,3.63.63,4.62ZM279.29,522.21c-1.36.95-3.59.06-4.97-1.92-1.36-1.98-1.36-4.35.03-5.3,1.38-.95,3.58-.1,4.97,1.87,1.36,2.01,1.36,4.38-.03,5.35ZM291.99,536.68c-1.22,1.34-3.82.98-5.72-.85-1.95-1.79-2.49-4.34-1.26-5.69,1.23-1.35,3.85-.97,5.76.85,1.93,1.79,2.52,4.36,1.22,5.69ZM308.4,541.57c-.54,1.74-3.04,2.53-5.56,1.79-2.52-.76-4.16-2.8-3.66-4.57.52-1.75,3.04-2.58,5.57-1.79,2.51.76,4.16,2.79,3.64,4.56ZM327.07,543.64c.06,1.83-2.07,3.36-4.72,3.39-2.66.06-4.81-1.43-4.84-3.23,0-1.85,2.09-3.36,4.75-3.4,2.65-.05,4.81,1.42,4.81,3.25ZM345.42,542.94c.32,1.79-1.52,3.63-4.15,4.12-2.58.47-4.97-.63-5.3-2.41-.32-1.83,1.55-3.67,4.13-4.15,2.63-.46,4.99.62,5.32,2.44Z"/>
  </g>
</svg>