<?xml version="1.0" encoding="UTF-8"?>
<svg xmlns="http://www.w3.org/2000/svg" viewBox="0 0 800 800">
  <defs>
    <style>
      .uuid-19139cbf-763d-49a7-9dfa-c2957107019b {
        fill: none;
      }

      .uuid-19139cbf-763d-49a7-9dfa-c2957107019b, .uuid-63dcfc23-6c9c-41bb-a44a-3b6def84815d, .uuid-5730f51f-043c-4dcf-8c97-188dea602e2a, .uuid-3537caf0-22f5-4dab-b890-94ea69417cb4, .uuid-f37bd662-31fd-4dfe-8e6d-8bf65430084a, .uuid-177be669-2f4a-425d-9855-c33391e62042, .uuid-ae7be023-1a71-4df0-abb7-0b3dcba5e787, .uuid-ab175dae-ed78-4765-95fe-f9244578d767 {
        stroke-width: 0px;
      }

      .uuid-63dcfc23-6c9c-41bb-a44a-3b6def84815d {
        fill: #0066da;
      }

      .uuid-5730f51f-043c-4dcf-8c97-188dea602e2a {
        fill: #00832d;
      }

      .uuid-3537caf0-22f5-4dab-b890-94ea69417cb4 {
        fill: #ffba00;
      }

      .uuid-f37bd662-31fd-4dfe-8e6d-8bf65430084a {
        fill: #ea4335;
      }

      .uuid-177be669-2f4a-425d-9855-c33391e62042 {
        fill: #00ac47;
      }

      .uuid-ae7be023-1a71-4df0-abb7-0b3dcba5e787 {
        fill: #2684fc;
      }

      .uuid-ab175dae-ed78-4765-95fe-f9244578d767 {
        fill: #fff;
      }
    </style>
  </defs>
  <g id="uuid-554e09e0-2be2-46a9-95b5-497ac90e4086" data-name="Layer 5">
    <rect class="uuid-19139cbf-763d-49a7-9dfa-c2957107019b" width="800" height="800"/>
  </g>
  <g id="uuid-ee91a6ba-7700-448c-aa8e-4644a91d4508" data-name="Layer 3">
    <path class="uuid-ab175dae-ed78-4765-95fe-f9244578d767" d="M553.24,77.5H246.76c-111.77,0-169.26,57.5-169.26,169.26v306.48c0,111.76,57.49,169.26,169.26,169.26h306.48c111.76,0,169.26-57.49,169.26-169.26V246.76c0-111.77-57.5-169.26-169.26-169.26Z"/>
  </g>
  <g id="uuid-41acd98d-2f7a-4441-9a0b-df29c6b0537d" data-name="Layer 1">
    <g>
      <path class="uuid-63dcfc23-6c9c-41bb-a44a-3b6def84815d" d="M211.14,541.96l19.62,33.9c4.08,7.14,9.94,12.74,16.82,16.82,19.71-25.02,33.43-44.22,41.16-57.6,7.84-13.58,17.49-34.82,28.93-63.72-30.83-4.06-54.19-6.09-70.09-6.09s-38.62,2.03-70.09,6.09c0,7.9,2.04,15.8,6.12,22.94l27.53,47.66Z"/>
      <path class="uuid-f37bd662-31fd-4dfe-8e6d-8bf65430084a" d="M552.41,592.68c6.88-4.08,12.74-9.68,16.82-16.82l8.16-14.02,38.99-67.54c4.08-7.14,6.12-15.04,6.12-22.94-31.65-4.06-54.97-6.09-69.96-6.09-16.11,0-39.43,2.03-69.96,6.09,11.3,29.06,20.82,50.3,28.55,63.72,7.79,13.54,21.56,32.74,41.29,57.6Z"/>
      <path class="uuid-5730f51f-043c-4dcf-8c97-188dea602e2a" d="M400,328.64c22.81-27.54,38.52-48.78,47.15-63.72,6.95-12.03,14.59-31.23,22.94-57.6-6.88-4.08-14.78-6.12-22.94-6.12h-94.3c-8.16,0-16.06,2.29-22.94,6.12,10.61,30.25,19.62,51.78,27.02,64.58,8.18,14.15,22.53,33.06,43.07,56.73Z"/>
      <path class="uuid-ae7be023-1a71-4df0-abb7-0b3dcba5e787" d="M482.32,471.36h-164.65l-70.09,121.32c6.88,4.08,14.78,6.12,22.94,6.12h258.95c8.16,0,16.06-2.29,22.94-6.12l-70.09-121.32Z"/>
      <path class="uuid-177be669-2f4a-425d-9855-c33391e62042" d="M400,328.64l-70.09-121.32c-6.88,4.08-12.74,9.68-16.82,16.82l-129.47,224.28c-4.08,7.14-6.12,15.04-6.12,22.94h140.18l82.32-142.73Z"/>
      <path class="uuid-3537caf0-22f5-4dab-b890-94ea69417cb4" d="M551.65,336.28l-64.74-112.14c-4.08-7.14-9.94-12.74-16.82-16.82l-70.09,121.32,82.32,142.73h139.92c0-7.9-2.04-15.8-6.12-22.94l-64.48-112.14Z"/>
    </g>
  </g>
</svg>