<?xml version="1.0" encoding="UTF-8"?>
<svg xmlns="http://www.w3.org/2000/svg" viewBox="0 0 800 800">
  <defs>
    <style>
      .uuid-f352ce6b-d953-4081-84e5-2da2598c3d5c {
        fill: #ebebeb;
      }

      .uuid-f352ce6b-d953-4081-84e5-2da2598c3d5c, .uuid-2017801f-e41f-48b4-96a0-1146bfdb0dba, .uuid-761413cf-857c-4118-b47b-1963026b57a2, .uuid-2e51a058-6a85-4740-af71-1a009e96f78a, .uuid-cc192717-ebc4-4076-babb-758817f225c9 {
        stroke-width: 0px;
      }

      .uuid-2017801f-e41f-48b4-96a0-1146bfdb0dba {
        fill: none;
      }

      .uuid-761413cf-857c-4118-b47b-1963026b57a2 {
        fill: #e44f26;
      }

      .uuid-2e51a058-6a85-4740-af71-1a009e96f78a {
        fill: #f1662a;
      }

      .uuid-cc192717-ebc4-4076-babb-758817f225c9 {
        fill: #fff;
      }
    </style>
  </defs>
  <g id="uuid-c344aab7-b477-4d41-bf2d-a819312234cd" data-name="Layer 5">
    <rect class="uuid-2017801f-e41f-48b4-96a0-1146bfdb0dba" width="800" height="800"/>
  </g>
  <g id="uuid-1b667496-4eec-4c53-8f91-d46d42a94432" data-name="Layer 3">
    <path class="uuid-cc192717-ebc4-4076-babb-758817f225c9" d="M553.24,77.5H246.76c-111.77,0-169.26,57.5-169.26,169.26v306.48c0,111.76,57.49,169.26,169.26,169.26h306.48c111.76,0,169.26-57.49,169.26-169.26V246.76c0-111.77-57.5-169.26-169.26-169.26Z"/>
  </g>
  <g id="uuid-b6ddcb98-436b-411c-a7bf-2a02c2636a4e" data-name="Layer 1">
    <g>
      <polygon class="uuid-761413cf-857c-4118-b47b-1963026b57a2" points="239.52 593.25 203.81 192.75 596.19 192.75 560.42 593.19 399.78 637.75 239.52 593.25"/>
      <polygon class="uuid-2e51a058-6a85-4740-af71-1a009e96f78a" points="400 603.71 529.83 567.72 560.37 225.51 400 225.51 400 603.71"/>
      <polygon class="uuid-f352ce6b-d953-4081-84e5-2da2598c3d5c" points="400 374.03 335.03 374.03 330.52 323.75 400 323.75 400 274.63 399.83 274.63 276.85 274.63 278.01 287.81 290.08 423.15 400 423.15 400 374.03"/>
      <polygon class="uuid-f352ce6b-d953-4081-84e5-2da2598c3d5c" points="400 501.58 399.78 501.69 345.1 486.89 341.59 447.73 315 447.73 292.25 447.73 299.15 524.83 399.78 552.76 400 552.7 400 501.58"/>
      <polygon class="uuid-cc192717-ebc4-4076-babb-758817f225c9" points="399.83 374.03 399.83 423.15 460.3 423.15 454.62 486.89 399.83 501.64 399.83 552.76 500.51 524.83 501.24 516.54 512.81 387.22 514.03 374.03 500.79 374.03 399.83 374.03"/>
      <polygon class="uuid-cc192717-ebc4-4076-babb-758817f225c9" points="399.83 274.63 399.83 305.11 399.83 323.64 399.83 323.75 518.31 323.75 518.31 323.75 518.48 323.75 519.43 312.73 521.71 287.81 522.88 274.63 399.83 274.63"/>
    </g>
  </g>
</svg>