<?xml version="1.0" encoding="UTF-8"?>
<svg xmlns="http://www.w3.org/2000/svg" viewBox="0 0 800 800">
  <defs>
    <style>
      .uuid-13ef554a-92ee-4d46-b72a-f3e4c3173a6c {
        fill: #ebebeb;
      }

      .uuid-13ef554a-92ee-4d46-b72a-f3e4c3173a6c, .uuid-0c702164-0e1a-4451-a002-16ec05e1e507, .uuid-bd316ea6-5987-4558-bff3-f14156672b21, .uuid-318bc7e7-0e19-4723-b2d7-8eb843ef7163, .uuid-9f60d7c4-347f-4e6c-b119-555fcd60e5b3, .uuid-effcb969-01ff-474c-a6e8-944b86d54861 {
        stroke-width: 0px;
      }

      .uuid-0c702164-0e1a-4451-a002-16ec05e1e507 {
        fill: none;
      }

      .uuid-bd316ea6-5987-4558-bff3-f14156672b21 {
        fill: #000;
      }

      .uuid-318bc7e7-0e19-4723-b2d7-8eb843ef7163 {
        fill: #f16529;
      }

      .uuid-9f60d7c4-347f-4e6c-b119-555fcd60e5b3 {
        fill: #e44d26;
      }

      .uuid-effcb969-01ff-474c-a6e8-944b86d54861 {
        fill: #fff;
      }
    </style>
  </defs>
  <g id="uuid-0721b731-a890-437f-8aee-0629a7363e6f" data-name="Layer 5">
    <rect class="uuid-0c702164-0e1a-4451-a002-16ec05e1e507" width="800" height="800"/>
  </g>
  <g id="uuid-78c5eef4-1750-4035-992c-1c1e11090b47" data-name="Layer 3">
    <path class="uuid-effcb969-01ff-474c-a6e8-944b86d54861" d="M553.24,77.5H246.76c-111.77,0-169.26,57.5-169.26,169.26v306.48c0,111.76,57.49,169.26,169.26,169.26h306.48c111.76,0,169.26-57.49,169.26-169.26V246.76c0-111.77-57.5-169.26-169.26-169.26Z"/>
  </g>
  <g id="uuid-88054f34-faf0-4d94-91f5-7767ac83695f" data-name="Layer 1">
    <g>
      <path class="uuid-9f60d7c4-347f-4e6c-b119-555fcd60e5b3" d="M557.63,264.95l-28.72,321.75-129.1,35.79-128.75-35.74-28.69-321.81h315.27Z"/>
      <path class="uuid-318bc7e7-0e19-4723-b2d7-8eb843ef7163" d="M400,595.14l104.32-28.92,24.54-274.95h-128.87v303.88h0Z"/>
      <path class="uuid-13ef554a-92ee-4d46-b72a-f3e4c3173a6c" d="M344.17,370.2h55.83v-39.47h-98.97l.94,10.59,9.7,108.76h88.32v-39.47h-52.23l-3.61-40.42h0Z"/>
      <path class="uuid-13ef554a-92ee-4d46-b72a-f3e4c3173a6c" d="M353.06,469.82h-39.62l5.53,61.97,80.85,22.44.18-.05v-41.06l-.17.05-43.96-11.87-2.81-31.48h0Z"/>
      <path class="uuid-bd316ea6-5987-4558-bff3-f14156672b21" d="M271.7,177.5h20.06v19.82h18.35v-19.82h20.06v60.01h-20.06v-20.09h-18.35v20.09h-20.06v-60.01h0Z"/>
      <path class="uuid-bd316ea6-5987-4558-bff3-f14156672b21" d="M356.54,197.4h-17.66v-19.9h55.38v19.9h-17.67v40.11h-20.06v-40.11h0Z"/>
      <path class="uuid-bd316ea6-5987-4558-bff3-f14156672b21" d="M403.05,177.5h20.91l12.87,21.09,12.85-21.09h20.92v60.01h-19.97v-29.74l-13.8,21.34h-.35l-13.81-21.34v29.74h-19.63v-60.01h0Z"/>
      <path class="uuid-bd316ea6-5987-4558-bff3-f14156672b21" d="M480.59,177.5h20.06v40.17h28.21v19.84h-48.27v-60.01h0Z"/>
      <path class="uuid-effcb969-01ff-474c-a6e8-944b86d54861" d="M399.86,450.09h48.6l-4.58,51.19-44.02,11.88v41.06l80.91-22.42.59-6.67,9.27-103.91.96-10.6h-91.74v39.47h0Z"/>
      <path class="uuid-effcb969-01ff-474c-a6e8-944b86d54861" d="M399.86,370.11v.1h95.33l.79-8.87,1.8-20.01.94-10.59h-98.87v39.37h0Z"/>
    </g>
  </g>
</svg>