<?xml version="1.0" encoding="UTF-8"?>
<svg id="Layer_1" data-name="Layer 1" xmlns="http://www.w3.org/2000/svg" version="1.1" viewBox="0 0 800 800">
  <defs>
    <style>
      .cls-1 {
        fill: #ebebeb;
      }

      .cls-1, .cls-2, .cls-3, .cls-4 {
        stroke-width: 0px;
      }

      .cls-2 {
        fill: #e44f26;
      }

      .cls-3 {
        fill: #f1662a;
      }

      .cls-4 {
        fill: #fff;
      }
    </style>
  </defs>
  <polygon class="cls-2" points="111.5 720 47.3 0 752.7 0 688.4 719.9 399.6 800 111.5 720"/>
  <polygon class="cls-3" points="400 738.8 633.4 674.1 688.3 58.9 400 58.9 400 738.8"/>
  <polygon class="cls-1" points="400 325.9 283.2 325.9 275.1 235.5 400 235.5 400 147.2 399.7 147.2 178.6 147.2 180.7 170.9 202.4 414.2 400 414.2 400 325.9"/>
  <polygon class="cls-1" points="400 555.2 399.6 555.4 301.3 528.8 295 458.4 247.2 458.4 206.3 458.4 218.7 597 399.6 647.2 400 647.1 400 555.2"/>
  <polygon class="cls-4" points="399.7 325.9 399.7 414.2 508.4 414.2 498.2 528.8 399.7 555.3 399.7 647.2 580.7 597 582 582.1 602.8 349.6 605 325.9 581.2 325.9 399.7 325.9"/>
  <polygon class="cls-4" points="399.7 147.2 399.7 202 399.7 235.3 399.7 235.5 612.7 235.5 612.7 235.5 613 235.5 614.7 215.7 618.8 170.9 620.9 147.2 399.7 147.2"/>
</svg>