<?xml version="1.0" encoding="UTF-8"?>
<svg xmlns="http://www.w3.org/2000/svg" xmlns:xlink="http://www.w3.org/1999/xlink" viewBox="0 0 800 800">
  <defs>
    <style>
      .uuid-d1bfe36d-de7b-4f79-adb6-d9d28ebb1c8d {
        fill: url(#uuid-51bdd17d-f3bf-4bb3-a0bf-75472bc61926);
      }

      .uuid-d1bfe36d-de7b-4f79-adb6-d9d28ebb1c8d, .uuid-f5802337-4e69-49d6-ae53-02f9c943d8bc, .uuid-3fa63301-7d9c-4037-939e-4f7b2a271666, .uuid-46458a45-1cf5-4f99-9401-cdd19b25768a {
        stroke-width: 0px;
      }

      .uuid-f5802337-4e69-49d6-ae53-02f9c943d8bc {
        fill: none;
      }

      .uuid-3fa63301-7d9c-4037-939e-4f7b2a271666 {
        fill: url(#uuid-44b507c0-5bc7-41a6-8254-000701de1f44);
      }

      .uuid-46458a45-1cf5-4f99-9401-cdd19b25768a {
        fill: #fff;
      }
    </style>
    <radialGradient id="uuid-51bdd17d-f3bf-4bb3-a0bf-75472bc61926" cx="-1060.55" cy="-985.29" fx="-1060.55" fy="-985.29" r="322.44" gradientTransform="translate(-1567.94 -1329.91) rotate(-90) scale(1.98 -1.84)" gradientUnits="userSpaceOnUse">
      <stop offset="0" stop-color="#fd5"/>
      <stop offset=".1" stop-color="#fd5"/>
      <stop offset=".5" stop-color="#ff543e"/>
      <stop offset="1" stop-color="#c837ab"/>
    </radialGradient>
    <radialGradient id="uuid-44b507c0-5bc7-41a6-8254-000701de1f44" cx="891.55" cy="-534" fx="891.55" fy="-534" r="322.44" gradientTransform="translate(1727.05 -1033.44) rotate(78.68) scale(.89 -3.65)" gradientUnits="userSpaceOnUse">
      <stop offset="0" stop-color="#3771c8"/>
      <stop offset=".13" stop-color="#3771c8"/>
      <stop offset="1" stop-color="#60f" stop-opacity="0"/>
    </radialGradient>
  </defs>
  <g id="uuid-8f4a7562-326d-4e73-84b8-fb296eba016d" data-name="Layer 5">
    <rect class="uuid-f5802337-4e69-49d6-ae53-02f9c943d8bc" width="800" height="800"/>
    <rect class="uuid-f5802337-4e69-49d6-ae53-02f9c943d8bc" x="0" width="800" height="800"/>
  </g>
  <g id="uuid-0e25928e-9409-4898-9a2e-ff69095c903d" data-name="Layer 1">
    <g>
      <path class="uuid-d1bfe36d-de7b-4f79-adb6-d9d28ebb1c8d" d="M400.11,77.59c-134.64,0-174.02.14-181.67.77-27.63,2.3-44.82,6.65-63.56,15.97-14.44,7.17-25.82,15.48-37.06,27.12-20.46,21.24-32.86,47.37-37.35,78.44-2.18,15.08-2.82,18.16-2.95,95.18-.05,25.68,0,59.47,0,104.79,0,134.53.15,173.87.79,181.51,2.23,26.89,6.45,43.8,15.38,62.31,17.06,35.42,49.66,62.01,88.05,71.93,13.29,3.42,27.98,5.31,46.83,6.2,7.99.35,89.39.6,170.84.6s162.91-.1,170.69-.5c21.83-1.03,34.5-2.73,48.51-6.35,38.64-9.97,70.64-36.16,88.05-72.08,8.76-18.06,13.2-35.62,15.2-61.1.44-5.56.62-94.14.62-182.6s-.2-176.9-.63-182.45c-2.03-25.89-6.47-43.31-15.51-61.71-7.42-15.07-15.65-26.32-27.61-37.82-21.34-20.38-47.43-32.78-78.52-37.26-15.07-2.18-18.07-2.82-95.15-2.96h-104.97Z"/>
      <path class="uuid-3fa63301-7d9c-4037-939e-4f7b2a271666" d="M400.11,77.59c-134.64,0-174.02.14-181.67.77-27.63,2.3-44.82,6.65-63.56,15.97-14.44,7.17-25.82,15.48-37.06,27.12-20.46,21.24-32.86,47.37-37.35,78.44-2.18,15.08-2.82,18.16-2.95,95.18-.05,25.68,0,59.47,0,104.79,0,134.53.15,173.87.79,181.51,2.23,26.89,6.45,43.8,15.38,62.31,17.06,35.42,49.66,62.01,88.05,71.93,13.29,3.42,27.98,5.31,46.83,6.2,7.99.35,89.39.6,170.84.6s162.91-.1,170.69-.5c21.83-1.03,34.5-2.73,48.51-6.35,38.64-9.97,70.64-36.16,88.05-72.08,8.76-18.06,13.2-35.62,15.2-61.1.44-5.56.62-94.14.62-182.6s-.2-176.9-.63-182.45c-2.03-25.89-6.47-43.31-15.51-61.71-7.42-15.07-15.65-26.32-27.61-37.82-21.34-20.38-47.43-32.78-78.52-37.26-15.07-2.18-18.07-2.82-95.15-2.96h-104.97Z"/>
      <path class="uuid-46458a45-1cf5-4f99-9401-cdd19b25768a" d="M399.96,161.92c-64.67,0-72.78.28-98.18,1.44-25.35,1.16-42.65,5.17-57.79,11.06-15.66,6.08-28.95,14.22-42.18,27.46-13.24,13.23-21.38,26.52-27.48,42.18-5.9,15.14-9.92,32.45-11.06,57.79-1.14,25.4-1.43,33.52-1.43,98.19s.29,72.76,1.44,98.16c1.17,25.35,5.18,42.65,11.06,57.79,6.09,15.66,14.22,28.95,27.46,42.18,13.23,13.24,26.51,21.4,42.17,27.48,15.15,5.89,32.46,9.9,57.8,11.06,25.4,1.16,33.51,1.44,98.17,1.44s72.76-.28,98.16-1.44c25.35-1.16,42.67-5.17,57.82-11.06,15.66-6.08,28.92-14.24,42.15-27.48,13.24-13.23,21.38-26.52,27.48-42.18,5.85-15.14,9.87-32.45,11.06-57.79,1.14-25.4,1.44-33.49,1.44-98.16s-.3-72.78-1.44-98.18c-1.19-25.35-5.21-42.65-11.06-57.79-6.1-15.66-14.24-28.95-27.48-42.18-13.24-13.24-26.49-21.38-42.17-27.46-15.18-5.89-32.49-9.9-57.84-11.06-25.4-1.16-33.48-1.44-98.17-1.44h.07ZM378.6,204.83c6.34,0,13.41,0,21.36,0,63.58,0,71.11.23,96.22,1.37,23.22,1.06,35.82,4.94,44.21,8.2,11.11,4.32,19.03,9.47,27.36,17.81,8.33,8.33,13.49,16.27,17.82,27.38,3.26,8.38,7.14,20.98,8.2,44.2,1.14,25.1,1.39,32.64,1.39,96.19s-.25,71.09-1.39,96.19c-1.06,23.22-4.94,35.82-8.2,44.2-4.32,11.11-9.48,19.02-17.82,27.35-8.33,8.33-16.25,13.49-27.36,17.81-8.38,3.27-20.99,7.14-44.21,8.2-25.1,1.14-32.64,1.39-96.22,1.39s-71.12-.25-96.22-1.39c-23.22-1.07-35.82-4.95-44.21-8.21-11.11-4.32-19.05-9.47-27.38-17.81-8.33-8.33-13.49-16.25-17.82-27.37-3.26-8.38-7.14-20.98-8.2-44.2-1.14-25.1-1.37-32.64-1.37-96.23s.23-71.09,1.37-96.19c1.06-23.22,4.94-35.82,8.2-44.21,4.32-11.11,9.48-19.05,17.82-27.38,8.33-8.33,16.27-13.49,27.38-17.82,8.39-3.27,21-7.14,44.21-8.21,21.97-.99,30.48-1.29,74.86-1.34v.06ZM527.06,244.36c-15.77,0-28.57,12.78-28.57,28.56s12.8,28.57,28.57,28.57,28.57-12.8,28.57-28.57-12.8-28.57-28.57-28.57h0ZM399.96,277.75c-67.53,0-122.28,54.75-122.28,122.28s54.75,122.25,122.28,122.25c67.53,0,122.26-54.73,122.26-122.25s-54.74-122.28-122.26-122.28h0ZM399.96,320.66c43.83,0,79.37,35.53,79.37,79.37s-35.54,79.37-79.37,79.37-79.37-35.54-79.37-79.37,35.53-79.37,79.37-79.37Z"/>
    </g>
  </g>
</svg>