<?xml version="1.0" encoding="UTF-8"?>
<svg xmlns="http://www.w3.org/2000/svg" viewBox="0 0 800 800">
  <defs>
    <style>
      .uuid-ebb328c4-691e-4106-babb-064ce005ae45 {
        fill: none;
      }

      .uuid-ebb328c4-691e-4106-babb-064ce005ae45, .uuid-ce6cb6de-b3b0-4ebd-b00c-4d5adcd917ba, .uuid-6a347a3f-ccaa-4128-8b1e-e8f7f8b21009 {
        stroke-width: 0px;
      }

      .uuid-ce6cb6de-b3b0-4ebd-b00c-4d5adcd917ba, .uuid-6a347a3f-ccaa-4128-8b1e-e8f7f8b21009 {
        fill: #0f0f0f;
      }

      .uuid-6a347a3f-ccaa-4128-8b1e-e8f7f8b21009 {
        fill-rule: evenodd;
      }
    </style>
  </defs>
  <g id="uuid-8f2277ff-81ee-46bb-b9e6-1ebbbc162839" data-name="Layer 5">
    <rect class="uuid-ebb328c4-691e-4106-babb-064ce005ae45" width="800" height="800"/>
  </g>
  <g id="uuid-2715f2cc-eeb9-4edd-b712-e26013b3e6fb" data-name="Layer 1">
    <g>
      <path class="uuid-6a347a3f-ccaa-4128-8b1e-e8f7f8b21009" d="M400,575.91c97.15,0,175.91-78.76,175.91-175.91s-78.76-175.91-175.91-175.91-175.91,78.76-175.91,175.91,78.76,175.91,175.91,175.91ZM400,517.27c64.76,0,117.27-52.51,117.27-117.27s-52.51-117.27-117.27-117.27-117.27,52.51-117.27,117.27,52.51,117.27,117.27,117.27Z"/>
      <path class="uuid-ce6cb6de-b3b0-4ebd-b00c-4d5adcd917ba" d="M575.91,194.77c-16.2,0-29.32,13.12-29.32,29.32s13.12,29.32,29.32,29.32,29.32-13.12,29.32-29.32-13.12-29.32-29.32-29.32Z"/>
      <path class="uuid-6a347a3f-ccaa-4128-8b1e-e8f7f8b21009" d="M96.67,173.54c-19.17,37.63-19.17,86.88-19.17,185.41v82.09c0,98.51,0,147.78,19.17,185.41,16.86,33.1,43.78,60.02,76.88,76.88,37.63,19.18,86.88,19.18,185.41,19.18h82.09c98.51,0,147.78,0,185.41-19.18,33.1-16.86,60.02-43.78,76.88-76.88,19.18-37.63,19.18-86.88,19.18-185.41v-82.09c0-98.51,0-147.78-19.18-185.41-16.86-33.1-43.78-60.02-76.88-76.88-37.63-19.17-86.88-19.17-185.41-19.17h-82.09c-98.51,0-147.78,0-185.41,19.17-33.1,16.86-60.02,43.78-76.88,76.88h0ZM441.05,136.13h-82.09c-50.23,0-84.37.05-110.76,2.2-25.71,2.1-38.85,5.91-48.02,10.58-22.07,11.25-40.01,29.19-51.25,51.25-4.68,9.17-8.48,22.31-10.58,48.02-2.16,26.39-2.2,60.54-2.2,110.76v82.09c0,50.23.05,84.36,2.2,110.76,2.1,25.71,5.91,38.85,10.58,48.02,11.25,22.06,29.19,40,51.25,51.25,9.17,4.68,22.31,8.49,48.02,10.58,26.39,2.16,60.54,2.2,110.76,2.2h82.09c50.23,0,84.36-.05,110.76-2.2,25.71-2.1,38.85-5.91,48.02-10.58,22.06-11.25,40-29.19,51.25-51.25,4.68-9.17,8.49-22.31,10.58-48.02,2.16-26.39,2.2-60.53,2.2-110.76v-82.09c0-50.23-.05-84.37-2.2-110.76-2.1-25.71-5.91-38.85-10.58-48.02-11.25-22.07-29.19-40.01-51.25-51.25-9.17-4.68-22.31-8.48-48.02-10.58-26.39-2.16-60.53-2.2-110.76-2.2h0Z"/>
    </g>
  </g>
</svg>