<?xml version="1.0" encoding="UTF-8"?>
<svg xmlns="http://www.w3.org/2000/svg" viewBox="0 0 800 800">
  <defs>
    <style>
      .uuid-54b2dfc0-2180-4eb6-b94c-bb1ba708c1e8 {
        fill: none;
      }

      .uuid-54b2dfc0-2180-4eb6-b94c-bb1ba708c1e8, .uuid-6987c291-63cd-46a2-b247-59324a94640f, .uuid-ac89c2e3-0949-4133-a700-a8b8d6299f1d {
        stroke-width: 0px;
      }

      .uuid-6987c291-63cd-46a2-b247-59324a94640f {
        fill: #000;
      }

      .uuid-ac89c2e3-0949-4133-a700-a8b8d6299f1d {
        fill: #f7df1e;
      }
    </style>
  </defs>
  <g id="uuid-1a1b1bc9-cf29-4588-b4c9-a460a568ef2f" data-name="Layer 5">
    <rect class="uuid-54b2dfc0-2180-4eb6-b94c-bb1ba708c1e8" width="800" height="800"/>
  </g>
  <g id="uuid-422e9483-90e0-40ca-82d1-817a0dddb068" data-name="Layer 1">
    <g>
      <rect class="uuid-ac89c2e3-0949-4133-a700-a8b8d6299f1d" x="77.5" y="77.5" width="645" height="645"/>
      <path class="uuid-6987c291-63cd-46a2-b247-59324a94640f" d="M485.66,543.61c12.6,21.42,30.23,36.53,59.21,36.53,25.2,0,41.57-12.6,41.57-30.23,0-20.16-16.38-27.71-44.09-40.31l-15.12-6.3c-44.09-18.9-73.07-41.57-73.07-90.7,0-45.35,34.01-80.62,88.18-80.62,39.05,0,66.77,13.86,85.66,49.13l-46.61,30.23c-10.08-18.9-21.42-26.46-39.05-26.46s-28.97,11.34-28.97,26.46c0,17.64,11.34,25.2,37.79,36.53l15.12,6.3c51.65,22.68,80.62,44.09,80.62,95.74s-42.83,84.4-100.78,84.4-93.22-26.46-110.86-61.73l50.39-28.97ZM271.5,548.65c10.08,16.38,17.64,31.49,39.05,31.49,20.16,0,32.75-7.56,32.75-37.79v-209.12h60.47v206.6c0,62.99-36.53,90.7-90.7,90.7-49.13,0-76.85-25.2-90.7-55.43l49.13-26.46Z"/>
    </g>
  </g>
</svg>