<?xml version="1.0" encoding="UTF-8"?>
<svg xmlns="http://www.w3.org/2000/svg" viewBox="0 0 800 800">
  <defs>
    <style>
      .uuid-cee20fa9-fd0e-48d5-8a40-29784ffe7745 {
        fill: none;
      }

      .uuid-cee20fa9-fd0e-48d5-8a40-29784ffe7745, .uuid-293669c2-5603-4bcb-8842-9f83a1376ed4, .uuid-0cdadbfe-312a-45a2-998d-dcc4a9a7a109, .uuid-68ace95f-4642-48eb-b651-3e50d4e5d96e {
        stroke-width: 0px;
      }

      .uuid-293669c2-5603-4bcb-8842-9f83a1376ed4 {
        fill: #1a1918;
      }

      .uuid-293669c2-5603-4bcb-8842-9f83a1376ed4, .uuid-68ace95f-4642-48eb-b651-3e50d4e5d96e {
        fill-rule: evenodd;
      }

      .uuid-0cdadbfe-312a-45a2-998d-dcc4a9a7a109 {
        fill: #fff;
      }

      .uuid-68ace95f-4642-48eb-b651-3e50d4e5d96e {
        fill: #21609b;
      }
    </style>
  </defs>
  <g id="uuid-458e9afb-76e8-41fd-8bc5-ab7f322a734b" data-name="Layer 5">
    <rect class="uuid-cee20fa9-fd0e-48d5-8a40-29784ffe7745" width="800" height="800"/>
  </g>
  <g id="uuid-c321cf92-dd08-4194-9e8f-2873900ed954" data-name="Layer 3">
    <path class="uuid-0cdadbfe-312a-45a2-998d-dcc4a9a7a109" d="M553.24,77.5H246.76c-111.77,0-169.26,57.5-169.26,169.26v306.48c0,111.76,57.49,169.26,169.26,169.26h306.48c111.76,0,169.26-57.49,169.26-169.26V246.76c0-111.77-57.5-169.26-169.26-169.26Z"/>
  </g>
  <g id="uuid-f31bbbc0-06ef-41be-8b21-30260477e2eb" data-name="Layer 1">
    <g>
      <path class="uuid-293669c2-5603-4bcb-8842-9f83a1376ed4" d="M670.23,342.87l24.77.14s-46.06,62.41-49.82,67.5c-1.22,1.65-3.08,3.42-4.02,5.63-2.38,5.54-4.82,17.68-4.82,17.68l-22.67.11s3.53-12.66,3.38-19.4c-.13-5.89-3.13-11.77-4.82-17.68-1.7-5.98-4.02-17.68-4.02-17.68h23.3l3.21,12.86,35.49-49.15"/>
      <path class="uuid-293669c2-5603-4bcb-8842-9f83a1376ed4" d="M623.32,356.03c4.57,2.76,7.38,17.96,7.38,17.96,0,0-23.92.35-36.94.35h-11.25l-13.66,59.46h-20.89s13-64.62,16.07-76.33c1-3.79,6.81-3.14,16.64-3.14h15.69c10.13,0,21.98-1.29,26.96,1.7"/>
      <path class="uuid-293669c2-5603-4bcb-8842-9f83a1376ed4" d="M526.06,384.99s.65-3.82-2.21-8.24c-2.44-3.77-4.7-4.64-11.13-4.84-18.15-.57-17.8,12.88-17.8,12.88l31.14.2h0ZM545.75,369.59c2.66,9.59-2.41,32.14-2.41,32.14,0,0-26.48-.44-40.98,0-4.51.14-9.91-.49-11.25,1.61-1.89,2.94.69,7.47,2.88,9.38,2.52,2.2,7.42,2.45,9.18,2.68,11.77,1.5,36.41.39,36.41.39l-4.27,18.9s-34.82,1.74-52.23-2.41c-3.44-.82-6.66-2.47-8.84-4.82-.59-.64-1.11-1.52-1.67-2.27-.45-.6-1.76-2.59-2.35-4.16-3.98-10.6.47-30.9,4.82-41.78.51-1.26,1.14-2.86,1.81-4.22.83-1.69,1.54-3.61,2.21-4.62.45-.7,1.01-1.15,1.47-1.81.54-.78,1.16-1.53,1.74-2.21,1.61-1.86,3.43-3.18,5.62-4.82,7.26-5.43,20.39-9.65,36.16-8.04,5.94.61,14.91,2.73,19.29,8.84,1.17,1.63,1.75,4.87,2.41,7.23h0Z"/>
      <path class="uuid-293669c2-5603-4bcb-8842-9f83a1376ed4" d="M449.93,354.26l20.26-.12s-11.29,53.55-17.04,79.67h-23.3c-16.29,0-30.79,2.02-36.96-9.64-5.99-11.32-.27-29.94,2.41-42.59,1.9-8.95,5.89-27.25,5.89-27.25l20.99-.19s-5.93,28.48-8.4,42.71c-.88,5.09-2.71,9.89-.8,13.66,1.81,3.58,4.34,3.84,12.05,4.02,2.44.06,10.45,0,10.45,0l14.46-60.26"/>
      <path class="uuid-293669c2-5603-4bcb-8842-9f83a1376ed4" d="M355.11,392.82c2.12-7.54,5.21-15.71,4.82-22.5-.43-7.26-6.52-13.88-10.45-15.27-11.84-4.18-22.92,1.66-27.32,6.43-5.7,6.17-7.63,13.38-9.64,23.3-1.5,7.37-2.73,15.15,0,20.89,4.84,10.16,19.92,7.94,36.16,8.04,2.41-6.46,4.4-13.72,6.43-20.89h0ZM383.23,363.09c2.31,16.83-6.56,35.4-12.68,51.55,6.24.56,11.7-.09,12.09.38.41.6-4.18,19.28-5.78,19.32-4.95.13-21.35.27-28.19.27-22.31,0-43.19,1.45-53.84-9.64-4.32-4.51-7.31-12.24-8.04-17.68-1.21-9.08.31-19.08,2.41-27.32,1.9-7.44,4.35-14.46,8.04-20.89,9.38-16.37,25.69-28.52,53.03-25.71,5.3.55,12.92,2.87,17.68,5.62.33.19,1.48,1.11,1.74,1.27,6.43,4.09,12.29,13.85,13.52,22.84h0Z"/>
      <path class="uuid-293669c2-5603-4bcb-8842-9f83a1376ed4" d="M284.5,354.35c-1.35,6.15-2.7,13.11-4.12,19.19h-22.5c1.74-6.73,3.08-13.43,4.82-19.29,7.2,0,13.89.1,21.8.1"/>
      <path class="uuid-293669c2-5603-4bcb-8842-9f83a1376ed4" d="M257.08,379.16h21.69c-2.84,15.7-8.45,41.03-12.86,58.66-2.76,11.03-4.6,19.08-12.05,24.91-.67.52-1.05.27-1.61.8-1.37,1.31-7.73,2.83-11.25,3.21-5.72.62-12.19.08-19.22-.06,1.84-6.73,3.92-14.8,5.56-20.83,17.14,2.07,17.57-14.13,20.89-29.73,1.92-9.02,7.74-33.35,8.84-36.96"/>
      <g>
        <path class="uuid-68ace95f-4642-48eb-b651-3e50d4e5d96e" d="M206.46,420.14l-.47,1.2c-7.92,15.43-21.96,24.89-41.98,25.31-9.36.19-18.28-2.21-24.11-4.82-12.57-5.65-23.15-16.13-28.93-27.32-8.29-16.05-9.78-38.37,7.45-55.04.27,0-2.09,3.62-1.82,3.62l-.47,1.54c-12.41,38.87,25.83,72.17,63.01,68.36,8.94-.92,20.33-5.81,27.32-12.86"/>
        <path class="uuid-68ace95f-4642-48eb-b651-3e50d4e5d96e" d="M183.96,404.07c9.35.06,19.12-4.31,24.91-10.45-5.06,12.85-19.72,21.11-39.37,18.48-16.46-2.2-32.13-18.76-33.75-35.36-1.18-12.08,3.03-19.28,9.96-28.03-2.41,4.57-3.31,8.1-3.54,10.35-2.64,26.12,20.87,44.86,41.78,45"/>
        <path class="uuid-68ace95f-4642-48eb-b651-3e50d4e5d96e" d="M207.93,371.63c-1.45,3.33-9.83,9.63-13.52,10.42-14.64,3.12-24.02-3.82-28.93-11.72-.73-1.18-2.08-4.4-2.32-5.22-1.9-6.48-1.03-16.27,4.65-21.34-1.71,4.82-1.96,10.42-1.06,14.06.55,2.2,2.21,6.04,3.87,8.46,3.03,4.4,4.95,5.47,8.84,7.81,1.75,1.05,3.63,1.9,4.44,2.13,3.69,1.08,11.47,3.95,24.03-4.6"/>
      </g>
    </g>
  </g>
</svg>