<?xml version="1.0" encoding="UTF-8"?>
<svg xmlns="http://www.w3.org/2000/svg" viewBox="0 0 800 800">
  <defs>
    <style>
      .uuid-52669368-2348-4740-b55c-d4a467ebc2c7 {
        fill: none;
      }

      .uuid-52669368-2348-4740-b55c-d4a467ebc2c7, .uuid-4caa6eeb-a69b-4dfa-9fbe-237392b08795, .uuid-eb7d1d58-3545-4a04-866d-5edd60dc91ce, .uuid-99abcd5d-e173-40e5-bd34-2aeaebdd72f3, .uuid-4bff7f23-29a6-411d-b51d-c60870bae443, .uuid-66bcd9f3-2999-498b-9048-2eac1bba622b, .uuid-f75dc348-a57c-40e6-b067-baeaceb20705 {
        stroke-width: 0px;
      }

      .uuid-4caa6eeb-a69b-4dfa-9fbe-237392b08795 {
        fill: #00f2e6;
      }

      .uuid-4caa6eeb-a69b-4dfa-9fbe-237392b08795, .uuid-eb7d1d58-3545-4a04-866d-5edd60dc91ce, .uuid-4bff7f23-29a6-411d-b51d-c60870bae443, .uuid-66bcd9f3-2999-498b-9048-2eac1bba622b, .uuid-f75dc348-a57c-40e6-b067-baeaceb20705 {
        fill-rule: evenodd;
      }

      .uuid-eb7d1d58-3545-4a04-866d-5edd60dc91ce {
        fill: #fb015b;
      }

      .uuid-99abcd5d-e173-40e5-bd34-2aeaebdd72f3 {
        fill: #1c1c1c;
      }

      .uuid-4bff7f23-29a6-411d-b51d-c60870bae443 {
        fill: #fff;
      }

      .uuid-66bcd9f3-2999-498b-9048-2eac1bba622b {
        fill: #00b9f1;
      }

      .uuid-f75dc348-a57c-40e6-b067-baeaceb20705 {
        fill: #d63aff;
      }
    </style>
  </defs>
  <g id="uuid-597dd4cd-6983-4fa1-9268-592f7b0184f8" data-name="Layer 5">
    <rect class="uuid-52669368-2348-4740-b55c-d4a467ebc2c7" width="800" height="800"/>
  </g>
  <g id="uuid-3c73d2d9-8e25-42f8-b271-39db40d32065" data-name="Layer 3">
    <path class="uuid-99abcd5d-e173-40e5-bd34-2aeaebdd72f3" d="M553.24,77.5H246.76c-111.77,0-169.26,57.5-169.26,169.26v306.48c0,111.76,57.49,169.26,169.26,169.26h306.48c111.76,0,169.26-57.49,169.26-169.26V246.76c0-111.77-57.5-169.26-169.26-169.26Z"/>
  </g>
  <g id="uuid-a22c4d42-708b-438e-9523-96216b35b71a" data-name="Layer 1">
    <g>
      <path class="uuid-4bff7f23-29a6-411d-b51d-c60870bae443" d="M433.6,297.2l-.44-119.7h-66.75l.44,119.7,33.37,45.83,33.37-45.83ZM366.85,502.35v120.15h66.75v-120.15l-33.37-45.83-33.37,45.83Z"/>
      <path class="uuid-4caa6eeb-a69b-4dfa-9fbe-237392b08795" d="M433.6,502.35l70.31,97.01,53.84-39.16-70.31-97.01-53.84-17.36v56.52ZM366.85,297.21l-70.75-97.01-53.85,39.16,70.31,97.01,54.29,17.36v-56.52Z"/>
      <path class="uuid-66bcd9f3-2999-498b-9048-2eac1bba622b" d="M312.56,336.36l-113.92-36.93-20.47,63.19,113.92,37.38,53.84-17.8-33.37-45.84ZM454.07,417.35l33.37,45.83,113.92,36.94,20.47-63.19-113.92-36.93-53.84,17.35Z"/>
      <path class="uuid-f75dc348-a57c-40e6-b067-baeaceb20705" d="M507.91,400l113.92-37.38-20.47-63.19-113.92,36.93-33.37,45.83,53.84,17.8ZM292.09,400l-113.92,36.93,20.47,63.19,113.92-36.94,33.37-45.83-53.84-17.35Z"/>
      <path class="uuid-eb7d1d58-3545-4a04-866d-5edd60dc91ce" d="M312.56,463.19l-70.31,97.01,53.85,39.16,70.76-97.01v-56.52l-54.29,17.35ZM487.44,336.36l70.31-97.01-53.84-39.16-70.31,97.01v56.52l53.84-17.36Z"/>
    </g>
  </g>
</svg>