<?xml version="1.0" encoding="UTF-8"?>
<svg id="Layer_1" data-name="Layer 1" xmlns="http://www.w3.org/2000/svg" version="1.1" viewBox="0 0 800 800">
  <defs>
    <style>
      .cls-1 {
        fill: #31a8ff;
      }

      .cls-1, .cls-2 {
        stroke-width: 0px;
      }

      .cls-2 {
        fill: #001e36;
      }
    </style>
  </defs>
  <path class="cls-2" d="M0,289.5C0,188.2,0,137.5,19.8,98.8c17.3-34,45-61.7,79.1-79.1C137.5,0,188.2,0,289.5,0h220.9C611.8,0,662.5,0,701.2,19.8c34,17.3,61.7,45,79.1,79.1,19.7,38.7,19.7,89.4,19.7,190.7v220.9c0,101.3,0,152-19.7,190.7-17.3,34-45,61.7-79.1,79.1-38.7,19.7-89.4,19.7-190.7,19.7h-220.9c-101.3,0-152,0-190.7-19.7-34-17.3-61.7-45-79.1-79.1C0,662.5,0,611.8,0,510.5v-220.9Z"/>
  <path class="cls-1" d="M420.1,589.1h-211.4c-3.6,0-5.4-2-5.4-6.1V233.6c-.4-2.8,2.1-5.4,4.8-5h65.5c2.2-.3,4.1,1.7,3.8,3.9v287.3h154c3.2,0,4.5,1.7,3.8,5l-9.7,59.4c0,3-2.5,4.9-5.4,5Z"/>
  <path class="cls-1" d="M473.9,315.2h58.5c3.2,0,6.1,2.3,7,5.5,4.3,9.8,4.8,21.5,4.8,32.1,10-12,22.1-22,35.7-29.4,14.5-8.4,31-12.7,47.7-12.4,2.8-.4,5.2,2.1,4.8,5v66.6c0,2.6-1.8,3.9-5.4,3.9-24.8-1.8-63.3,4.2-81.3,24.2v173.2c0,3.3-1.4,5-4.3,5h-62.8c-3.1.5-5.8-2.4-5.4-5.5v-188c0-25.2.5-51.1-3.2-76.1-.6-2.3,1.6-4.4,3.8-3.9Z"/>
</svg>