<?xml version="1.0" encoding="UTF-8"?>
<svg xmlns="http://www.w3.org/2000/svg" viewBox="0 0 800 800">
  <defs>
    <style>
      .uuid-e279a113-3831-4bd6-91c1-d4e6de7ae58c {
        fill: #0a66c2;
      }

      .uuid-e279a113-3831-4bd6-91c1-d4e6de7ae58c, .uuid-02c069bb-9b5a-4251-8336-3ea121619181 {
        stroke-width: 0px;
      }

      .uuid-02c069bb-9b5a-4251-8336-3ea121619181 {
        fill: none;
      }
    </style>
  </defs>
  <g id="uuid-87d6af9d-1afd-4eaf-8498-b0124bcecf22" data-name="Layer 5">
    <rect class="uuid-02c069bb-9b5a-4251-8336-3ea121619181" width="800" height="800"/>
  </g>
  <g id="uuid-7e381e2a-aa46-4cb4-b477-e0016a5be178" data-name="Layer 1">
    <path class="uuid-e279a113-3831-4bd6-91c1-d4e6de7ae58c" d="M627.07,627.08h-95.57v-149.67c0-35.69-.64-81.63-49.71-81.63s-57.39,38.89-57.39,79.04v152.26h-95.57v-307.78h91.75v42.06h1.28c18.71-31.99,53.49-51.09,90.52-49.72,96.86,0,114.72,63.71,114.72,146.6l-.04,168.84ZM221,277.22c-30.63,0-55.46-24.82-55.47-55.45,0-30.63,24.82-55.47,55.45-55.47,30.63,0,55.46,24.82,55.47,55.45,0,14.71-5.84,28.82-16.24,39.22-10.4,10.4-24.5,16.25-39.21,16.25M268.79,627.08h-95.67v-307.79h95.67v307.79ZM674.72,77.55H125.1c-25.98-.29-47.28,20.51-47.6,46.49v551.91c.31,25.99,21.61,46.82,47.6,46.54h549.62c26.04.32,47.42-20.5,47.78-46.54V124c-.37-26.03-21.76-46.83-47.78-46.5"/>
  </g>
</svg>