<?xml version="1.0" encoding="UTF-8"?>
<svg xmlns="http://www.w3.org/2000/svg" viewBox="0 0 800 800">
  <defs>
    <style>
      .uuid-ff0db9fd-29dd-4cf6-84ba-908cc23094c7 {
        fill: none;
      }

      .uuid-ff0db9fd-29dd-4cf6-84ba-908cc23094c7, .uuid-9e9538bb-74d0-42f5-8a1b-74b67e831004 {
        stroke-width: 0px;
      }

      .uuid-9e9538bb-74d0-42f5-8a1b-74b67e831004 {
        fill: #000;
      }
    </style>
  </defs>
  <g id="uuid-f7949dba-5463-4f9d-83f1-0251528fb535" data-name="Layer 5">
    <rect class="uuid-ff0db9fd-29dd-4cf6-84ba-908cc23094c7" width="800" height="800"/>
  </g>
  <g id="uuid-419c8398-935b-4935-a3f5-96147cd7eec1" data-name="Layer 1">
    <path class="uuid-9e9538bb-74d0-42f5-8a1b-74b67e831004" d="M627.08,627.09h-95.57v-149.67c0-35.69-.63-81.64-49.71-81.64s-57.4,38.88-57.4,79.04v152.25h-95.57v-307.79h91.75v42.07h1.28c18.71-31.99,53.49-51.1,90.53-49.72,96.87,0,114.73,63.72,114.73,146.6l-.04,168.84v.02ZM221,277.22c-30.63,0-55.46-24.82-55.47-55.45,0-30.63,24.82-55.47,55.45-55.47s55.46,24.82,55.47,55.45c0,14.71-5.84,28.82-16.23,39.22-10.4,10.41-24.5,16.24-39.22,16.25M268.79,627.09h-95.67v-307.79h95.67v307.79ZM674.73,77.54H125.09c-25.97-.29-47.28,20.51-47.59,46.49v551.92c.3,25.99,21.61,46.82,47.59,46.55h549.62c26.04.32,47.43-20.5,47.78-46.55V123.99c-.38-26.03-21.76-46.84-47.78-46.49"/>
  </g>
</svg>