<?xml version="1.0" encoding="UTF-8"?>
<svg xmlns="http://www.w3.org/2000/svg" viewBox="0 0 800 800">
  <defs>
    <style>
      .uuid-0bb3d788-3ecc-4656-ad7d-e333c00b0c95 {
        fill: none;
      }

      .uuid-0bb3d788-3ecc-4656-ad7d-e333c00b0c95, .uuid-632eede9-a6c3-4f1f-b5dc-d8bfb70df43a, .uuid-a8108bc3-076a-4797-9ba2-be037473d39f {
        stroke-width: 0px;
      }

      .uuid-632eede9-a6c3-4f1f-b5dc-d8bfb70df43a {
        fill: #011e2b;
      }

      .uuid-a8108bc3-076a-4797-9ba2-be037473d39f {
        fill: #28ff82;
      }
    </style>
  </defs>
  <g id="uuid-92e3628b-749f-47b3-a93a-c165640f257f" data-name="Layer 5">
    <rect class="uuid-0bb3d788-3ecc-4656-ad7d-e333c00b0c95" width="800" height="800"/>
  </g>
  <g id="uuid-c0c847de-29d9-4fa1-9e1e-f7d7df0da633" data-name="Layer 3">
    <path class="uuid-632eede9-a6c3-4f1f-b5dc-d8bfb70df43a" d="M553.24,77.5H246.76c-111.77,0-169.26,57.5-169.26,169.26v306.48c0,111.76,57.49,169.26,169.26,169.26h306.48c111.76,0,169.26-57.49,169.26-169.26V246.76c0-111.77-57.5-169.26-169.26-169.26Z"/>
  </g>
  <g id="uuid-7c785ad4-d6fe-4c60-ab97-e9f30b4242e2" data-name="Layer 1">
    <path class="uuid-a8108bc3-076a-4797-9ba2-be037473d39f" d="M498.13,355.14c-23.19-102.34-77.99-135.99-83.89-148.85-6.45-9.07-12.99-25.2-12.99-25.2-.11-.27-.28-.75-.48-1.22-.67,9.07-1.01,12.57-9.59,21.72-13.28,10.38-81.41,67.55-86.96,183.83-5.17,108.44,78.34,173.06,89.63,181.3l1.28.91v-.08c.07.54,3.59,25.81,6.05,52.59h8.85c2.08-18.93,5.19-37.72,9.32-56.31l.72-.47c5.05-3.62,9.87-7.56,14.42-11.8l.52-.47c24.01-22.18,67.16-73.47,66.74-155.26-.09-13.64-1.3-27.25-3.62-40.7h0ZM400.25,505.49s0-152.1,5.02-152.07c3.92,0,8.98,196.19,8.98,196.19-6.97-.84-14-32.29-14-44.12Z"/>
  </g>
</svg>