<?xml version="1.0" encoding="UTF-8"?>
<svg xmlns="http://www.w3.org/2000/svg" viewBox="0 0 800 800">
  <defs>
    <style>
      .uuid-3a994d11-be12-4203-8055-8aa930640be8 {
        fill: none;
      }

      .uuid-3a994d11-be12-4203-8055-8aa930640be8, .uuid-b28100e8-19e9-468f-b966-8d30c5110198, .uuid-c15e36b0-d13e-43e5-9657-daa0509802b2, .uuid-0c7b9c8e-bac9-4f18-84c6-cf328dd59fab, .uuid-abdf6e0c-f027-4497-b6d5-408b485c2973, .uuid-b20cded2-2410-4e0c-8e00-457398a83bdb, .uuid-0e66bfed-89b6-4a64-a959-f7c64548b596, .uuid-e9122ce6-f120-4cb3-bba1-1ef3e0c07b0b {
        stroke-width: 0px;
      }

      .uuid-b28100e8-19e9-468f-b966-8d30c5110198 {
        fill: #58aa50;
      }

      .uuid-b28100e8-19e9-468f-b966-8d30c5110198, .uuid-c15e36b0-d13e-43e5-9657-daa0509802b2, .uuid-0c7b9c8e-bac9-4f18-84c6-cf328dd59fab, .uuid-abdf6e0c-f027-4497-b6d5-408b485c2973, .uuid-b20cded2-2410-4e0c-8e00-457398a83bdb, .uuid-0e66bfed-89b6-4a64-a959-f7c64548b596 {
        fill-rule: evenodd;
      }

      .uuid-c15e36b0-d13e-43e5-9657-daa0509802b2 {
        fill: #499d4a;
      }

      .uuid-0c7b9c8e-bac9-4f18-84c6-cf328dd59fab {
        fill: #8e714e;
      }

      .uuid-abdf6e0c-f027-4497-b6d5-408b485c2973 {
        fill: #a6a385;
      }

      .uuid-b20cded2-2410-4e0c-8e00-457398a83bdb {
        fill: #442d22;
      }

      .uuid-0e66bfed-89b6-4a64-a959-f7c64548b596, .uuid-e9122ce6-f120-4cb3-bba1-1ef3e0c07b0b {
        fill: #fff;
      }
    </style>
  </defs>
  <g id="uuid-95c6c213-bc08-41f9-abd0-10a9b7d531ff" data-name="Layer 5">
    <rect class="uuid-3a994d11-be12-4203-8055-8aa930640be8" width="800" height="800"/>
  </g>
  <g id="uuid-02586f2b-b9f5-456d-85cf-ad826aa4f1e2" data-name="Layer 3">
    <path class="uuid-e9122ce6-f120-4cb3-bba1-1ef3e0c07b0b" d="M553.24,77.5H246.76c-111.77,0-169.26,57.5-169.26,169.26v306.48c0,111.76,57.49,169.26,169.26,169.26h306.48c111.76,0,169.26-57.49,169.26-169.26V246.76c0-111.77-57.5-169.26-169.26-169.26Z"/>
  </g>
  <g id="uuid-bfd0cc90-8595-443c-b535-e4e6187703ca" data-name="Layer 1">
    <g>
      <path class="uuid-0c7b9c8e-bac9-4f18-84c6-cf328dd59fab" d="M654.97,385.47c-.53.11-1.06,1.28-1.06,1.92-.11,4.26-.21,15.54-.21,23.21,0,.21.32.64.64.64,1.6.11,5.43.21,8.73.21,4.58,0,7.24-.64,8.73-1.28,3.83-1.92,5.64-6.07,5.64-10.65,0-10.33-7.24-14.27-17.99-14.27-.75-.11-2.87-.11-4.47.21h0ZM682.44,433.06c0-10.54-7.77-16.4-21.83-16.4-.64,0-5.11-.11-6.17.11-.32.11-.75.32-.75.64,0,7.56-.11,19.59.21,24.27.21,2.02,1.7,4.9,3.51,5.75,1.92,1.06,6.28,1.28,9.26,1.28,8.41,0,15.76-4.68,15.76-15.65h0ZM633.25,379.61c1.06,0,4.26.32,12.46.32,7.77,0,13.95-.21,21.51-.21,9.26,0,22.04,3.3,22.04,17.14,0,6.81-4.79,12.24-11.07,14.91-.32.11-.32.32,0,.43,8.94,2.24,16.82,7.77,16.82,18.21s-6.39,16.71-15.65,20.76c-5.64,2.45-12.67,3.3-19.8,3.3-5.43,0-20.01-.64-28.11-.43-.85-.32.75-4.15,1.49-4.79,1.92-.11,3.41-.21,5.43-.85,2.87-.75,3.19-1.6,3.62-5.96.21-3.73.21-16.93.21-26.3,0-12.88.11-21.61,0-25.87-.11-3.3-1.28-4.36-3.62-5-1.81-.32-4.79-.75-7.24-1.06-.53-.53,1.28-4.15,1.92-4.58h0ZM571.82,445.83c2.56,2.02,7.56,2.87,12.03,2.87,5.75,0,11.5-1.06,17.03-6.07,5.64-5.11,9.58-12.99,9.58-25.55s-4.58-21.83-13.95-27.57c-5.32-3.3-12.14-4.68-20.02-4.68-2.34,0-4.58.11-5.96.75-.32.21-1.06,1.17-1.06,1.7-.21,2.13-.21,18.52-.21,28.11s0,23.74.21,25.34c0,1.6.75,4.05,2.34,5.11h0ZM547.66,379.61c2.02,0,9.79.32,13.52.32,6.71,0,11.5-.32,24.17-.32,10.65,0,19.59,2.87,25.98,8.3,7.77,6.71,11.82,15.97,11.82,27.25,0,16.08-7.35,25.34-14.69,30.66-7.35,5.43-16.93,8.62-30.55,8.62-7.24,0-19.7-.21-30.02-.32h-.11c-.53-.96.85-4.68,1.7-4.79,2.77-.32,3.51-.43,4.9-.96,2.24-.85,2.66-2.02,2.98-5.96.32-7.35.21-16.18.21-26.19,0-7.13.11-21.08-.11-25.55-.32-3.73-1.92-4.68-5.11-5.32-1.6-.32-3.73-.75-6.71-1.06-.43-.75,1.49-4.05,2.02-4.68h0Z"/>
      <path class="uuid-b20cded2-2410-4e0c-8e00-457398a83bdb" d="M418.84,449.98c-2.66-.32-4.58-.75-6.92-1.81-.32-.21-.85-1.28-.85-1.7-.21-3.73-.21-14.37-.21-21.51,0-5.75-.96-10.75-3.41-14.27-2.87-4.05-7.03-6.39-12.35-6.39-4.68,0-10.97,3.19-16.18,7.67-.11.11-.96.85-.85-.32,0-1.17.21-3.51.32-5.11.11-1.49-.75-2.24-.75-2.24-3.41,1.7-12.99,3.94-16.5,4.26-2.55.53-3.19,2.98-.53,3.83h.11c2.87.85,4.79,1.81,6.28,2.77,1.06.85.96,2.02.96,2.98.11,7.98.11,20.23-.21,26.94-.11,2.66-.85,3.62-2.77,4.05l.21-.11c-1.49.32-2.66.64-4.47.85-.64.64-.64,4.05,0,4.79,1.17,0,7.35-.32,12.46-.32,7.03,0,10.65.32,12.46.32.75-.85.96-4.05.53-4.79-2.02-.11-3.51-.32-4.9-.75-1.92-.43-2.45-1.38-2.56-3.62-.21-5.64-.21-17.57-.21-25.66,0-2.24.64-3.3,1.28-3.94,2.45-2.13,6.39-3.62,9.9-3.62s5.64,1.06,7.35,2.45c2.34,1.92,3.09,4.68,3.41,6.71.53,4.58.32,13.63.32,21.51,0,4.26-.32,5.32-1.92,5.85-.75.32-2.66.75-4.9.96-.75.75-.53,4.05,0,4.79,3.09,0,6.71-.32,12.03-.32,6.6,0,10.86.32,12.56.32.53-.64.75-3.73.32-4.58h0ZM448.33,409.32c-5.64,0-9.16,4.36-9.16,11.18s3.09,14.9,11.82,14.9c1.49,0,4.26-.64,5.54-2.13,2.02-1.92,3.41-5.75,3.41-9.79,0-8.84-4.37-14.16-11.6-14.16h0ZM447.58,456.37c-2.13,0-3.62.64-4.58,1.17-4.47,2.87-6.49,5.64-6.49,8.94,0,3.09,1.17,5.54,3.73,7.66,3.09,2.66,7.35,3.94,12.77,3.94,10.86,0,15.65-5.86,15.65-11.6,0-4.05-2.02-6.71-6.17-8.2-2.98-1.28-8.41-1.92-14.91-1.92h0ZM448.33,484.05c-6.49,0-11.18-1.38-15.22-4.47-3.94-2.98-5.64-7.45-5.64-10.54,0-.85.21-3.19,2.13-5.32,1.17-1.28,3.73-3.73,9.79-7.88.21-.11.32-.21.32-.43s-.21-.43-.43-.53c-5-1.92-6.49-5-6.92-6.71v-.21c-.11-.64-.32-1.28.64-1.92.75-.53,1.81-1.17,2.98-1.92,1.81-1.06,3.73-2.24,4.9-3.19.21-.21.21-.43.21-.64s-.21-.43-.43-.53c-7.45-2.45-11.18-7.99-11.18-16.29,0-5.43,2.45-10.33,6.81-13.41,2.98-2.34,10.43-5.22,15.33-5.22h.32c5,.11,7.77,1.17,11.71,2.55,2.13.75,4.15,1.06,6.92,1.06,4.15,0,5.96-1.28,7.45-2.77.11.21.32.75.43,2.13.11,1.38-.32,3.41-1.38,4.9-.85,1.17-2.77,2.02-4.68,2.02h-.53c-1.92-.21-2.77-.43-2.77-.43l-.43.21c-.11.21,0,.43.11.75l.11.21c.21.96.64,3.83.64,4.58,0,8.73-3.51,12.56-7.24,15.44-3.62,2.66-7.77,4.36-12.46,4.79-.11,0-.53,0-1.49.11-.53,0-1.28.11-1.38.11h-.11c-.85.21-2.98,1.28-2.98,3.09,0,1.6.96,3.51,5.54,3.83.96.11,1.92.11,2.98.21,6.07.43,13.63.96,17.14,2.13,4.9,1.81,7.98,6.17,7.98,11.39,0,7.88-5.64,15.22-15.01,19.8-4.58,2.02-9.16,3.09-14.16,3.09h0ZM509.01,409.85c-2.24,0-4.26.53-5.75,1.6-4.15,2.55-6.28,7.67-6.28,15.12,0,13.95,7.03,23.74,17.03,23.74,2.98,0,5.32-.85,7.35-2.55,3.09-2.56,4.68-7.67,4.68-14.8,0-13.84-6.92-23.1-17.03-23.1h0ZM510.93,455.41c-18.1,0-24.59-13.31-24.59-25.76,0-8.73,3.51-15.44,10.54-20.23,5-3.09,10.97-4.79,16.29-4.79,13.84,0,23.53,9.9,23.53,24.17,0,9.69-3.83,17.35-11.18,22.04-3.51,2.34-9.58,4.58-14.59,4.58h0ZM321.21,409.85c-2.24,0-4.26.53-5.75,1.6-4.15,2.55-6.28,7.67-6.28,15.12,0,13.95,7.03,23.74,17.03,23.74,2.98,0,5.32-.85,7.35-2.55,3.09-2.56,4.68-7.67,4.68-14.8,0-13.84-6.81-23.1-17.03-23.1h0ZM323.13,455.41c-18.1,0-24.59-13.31-24.59-25.76,0-8.73,3.51-15.44,10.54-20.23,5-3.09,10.97-4.79,16.29-4.79,13.84,0,23.53,9.9,23.53,24.17,0,9.69-3.83,17.35-11.18,22.04-3.41,2.34-9.47,4.58-14.58,4.58h0ZM201.44,454.35c-.21-.32-.43-1.28-.32-2.45,0-.85.21-1.38.32-1.6,2.24-.32,3.41-.64,4.68-.96,2.13-.53,2.98-1.7,3.09-4.36.32-6.39.32-18.53.21-26.94v-.21c0-.96,0-2.13-1.17-2.98-1.7-1.06-3.73-2.02-6.39-2.77-.96-.32-1.6-.85-1.49-1.49,0-.64.64-1.38,2.02-1.6,3.51-.32,12.67-2.55,16.29-4.15.21.21.53.85.53,1.7l-.11,1.17c-.11,1.17-.21,2.56-.21,3.94,0,.43.43.75.85.75.21,0,.43-.11.64-.21,6.81-5.32,12.99-7.24,16.18-7.24,5.22,0,9.26,2.45,12.35,7.56.21.32.43.43.75.43.21,0,.53-.11.64-.32,6.28-4.79,12.56-7.67,16.71-7.67,9.9,0,15.76,7.35,15.76,19.8,0,3.51,0,8.09-.11,12.24,0,3.73-.11,7.13-.11,9.58,0,.53.75,2.24,1.92,2.55,1.49.75,3.51,1.06,6.17,1.49h.11c.21.75-.21,3.51-.64,4.05-.64,0-1.6,0-2.66-.11-2.02-.11-4.9-.21-8.09-.21-6.6,0-10.01.11-13.31.32-.21-.85-.32-3.41,0-4.05,1.92-.32,2.87-.64,4.05-.96,2.13-.64,2.66-1.6,2.77-4.36,0-2.02.43-19.27-.21-23.42-.64-4.26-3.83-9.26-10.86-9.26-2.66,0-6.81,1.06-10.86,4.15-.21.21-.43.75-.43,1.06v.11c.43,2.24.43,4.79.43,8.73v6.92c0,4.79-.11,9.26,0,12.67,0,2.34,1.38,2.87,2.56,3.3.64.11,1.06.21,1.6.32.96.21,1.92.43,3.41.75.21.43.21,1.81-.11,2.98-.11.64-.32.96-.43,1.06-3.62-.11-7.35-.21-12.78-.21-1.6,0-4.36.11-6.71.11-1.92,0-3.73.11-4.79.11-.11-.21-.32-.96-.32-2.13,0-.96.21-1.7.43-1.92.53-.11.96-.21,1.49-.21,1.28-.21,2.34-.43,3.41-.64,1.81-.53,2.45-1.49,2.55-3.83.32-5.32.64-20.55-.11-24.38-1.28-6.17-4.79-9.26-10.43-9.26-3.3,0-7.45,1.6-10.86,4.15-.53.43-.96,1.49-.96,2.45v6.28c0,7.66,0,17.25.11,21.4.11,1.28.53,2.77,2.98,3.3.53.11,1.38.32,2.45.43l1.92.32c.21.64.11,3.19-.32,4.05-1.06,0-2.34-.11-3.83-.11-2.24-.11-5.11-.21-8.3-.21-3.73,0-6.39.11-8.52.21-1.49-.21-2.66-.21-3.94-.21h0Z"/>
      <g>
        <path class="uuid-0e66bfed-89b6-4a64-a959-f7c64548b596" d="M145.44,479.9l-4.36-1.49s.53-22.25-7.45-23.85c-5.32-6.17.85-261.9,20.01-.85,0,0-6.6,3.3-7.77,8.94-1.28,5.54-.43,17.25-.43,17.25h0Z"/>
        <path class="uuid-abdf6e0c-f027-4497-b6d5-408b485c2973" d="M145.44,479.9l-4.36-1.49s.53-22.25-7.45-23.85c-5.32-6.17.85-261.9,20.01-.85,0,0-6.6,3.3-7.77,8.94-1.28,5.54-.43,17.25-.43,17.25h0Z"/>
        <path class="uuid-0e66bfed-89b6-4a64-a959-f7c64548b596" d="M147.78,458.4s38.22-25.13,29.28-77.4c-8.62-38.01-28.96-50.46-31.19-55.25-2.45-3.41-4.79-9.37-4.79-9.37l1.6,105.72c0,.11-3.3,32.36,5.11,36.3"/>
        <path class="uuid-c15e36b0-d13e-43e5-9657-daa0509802b2" d="M147.78,458.4s38.22-25.13,29.28-77.4c-8.62-38.01-28.96-50.46-31.19-55.25-2.45-3.41-4.79-9.37-4.79-9.37l1.6,105.72c0,.11-3.3,32.36,5.11,36.3"/>
        <path class="uuid-0e66bfed-89b6-4a64-a959-f7c64548b596" d="M138.84,459.78s-35.88-24.49-33.75-67.6c2.02-43.12,27.36-64.3,32.26-68.14,3.19-3.41,3.3-4.68,3.51-8.09,2.24,4.79,1.81,71.65,2.13,79.53.96,30.34-1.7,58.55-4.15,64.3h0Z"/>
        <path class="uuid-b28100e8-19e9-468f-b966-8d30c5110198" d="M138.84,459.78s-35.88-24.49-33.75-67.6c2.02-43.12,27.36-64.3,32.26-68.14,3.19-3.41,3.3-4.68,3.51-8.09,2.24,4.79,1.81,71.65,2.13,79.53.96,30.34-1.7,58.55-4.15,64.3h0Z"/>
      </g>
    </g>
  </g>
</svg>