<?xml version="1.0" encoding="UTF-8"?>
<svg xmlns="http://www.w3.org/2000/svg" xmlns:xlink="http://www.w3.org/1999/xlink" viewBox="0 0 800 800">
  <defs>
    <style>
      .uuid-4b6a5f69-a321-48f7-a828-f91b4b6ca983 {
        fill: none;
      }

      .uuid-4b6a5f69-a321-48f7-a828-f91b4b6ca983, .uuid-03a9aba7-8c9f-4ad9-9b0f-bea84e783756, .uuid-a78fd868-1ce3-4252-a354-7f9ac671b638, .uuid-64897fb2-0f34-4923-b446-1338d90dc1a6, .uuid-cd48b939-f066-4589-ab25-4f12ac98dbf2, .uuid-82658185-8400-4419-8c7e-c25dad0f2183, .uuid-53730d4b-b288-4f98-aed0-d40b9a9396aa, .uuid-cef1850a-4038-40ca-a771-95ca674d70ef, .uuid-e5952948-d377-4f1a-9cb2-465f7c3edcaf {
        stroke-width: 0px;
      }

      .uuid-03a9aba7-8c9f-4ad9-9b0f-bea84e783756 {
        fill: #107c41;
      }

      .uuid-a78fd868-1ce3-4252-a354-7f9ac671b638 {
        fill: #21a366;
      }

      .uuid-64897fb2-0f34-4923-b446-1338d90dc1a6 {
        fill: #185c37;
      }

      .uuid-cd48b939-f066-4589-ab25-4f12ac98dbf2 {
        opacity: .1;
      }

      .uuid-cd48b939-f066-4589-ab25-4f12ac98dbf2, .uuid-e5952948-d377-4f1a-9cb2-465f7c3edcaf {
        fill: #000;
        isolation: isolate;
      }

      .uuid-82658185-8400-4419-8c7e-c25dad0f2183 {
        fill: #33c481;
      }

      .uuid-53730d4b-b288-4f98-aed0-d40b9a9396aa {
        fill: url(#uuid-f3f49593-2650-4112-aee9-32fe4517cbf1);
      }

      .uuid-cef1850a-4038-40ca-a771-95ca674d70ef {
        fill: #fff;
      }

      .uuid-e5952948-d377-4f1a-9cb2-465f7c3edcaf {
        opacity: .2;
      }
    </style>
    <linearGradient id="uuid-f3f49593-2650-4112-aee9-32fe4517cbf1" x1="2162.6" y1="2892.65" x2="2171.2" y2="2877.75" gradientTransform="translate(-53930 72530) scale(25 -25)" gradientUnits="userSpaceOnUse">
      <stop offset="0" stop-color="#18884f"/>
      <stop offset=".5" stop-color="#117e43"/>
      <stop offset="1" stop-color="#0b6631"/>
    </linearGradient>
  </defs>
  <g id="uuid-a1ea68f7-c3ec-4dd5-be25-aee04609c164" data-name="Layer 5">
    <rect class="uuid-4b6a5f69-a321-48f7-a828-f91b4b6ca983" width="800" height="800"/>
  </g>
  <g id="uuid-063ee6e0-65a8-4f94-89b9-90a68d6c9f93" data-name="Layer 1">
    <g>
      <path class="uuid-64897fb2-0f34-4923-b446-1338d90dc1a6" d="M482.49,385.03l-254.98-44.92v331.92c.01,15.16,12.32,27.45,27.48,27.44h439.98c15.16.04,27.49-12.22,27.53-27.39,0-.02,0-.03,0-.05h0v-122.3l-240.01-164.71Z"/>
      <path class="uuid-a78fd868-1ce3-4252-a354-7f9ac671b638" d="M482.49,100.54h-227.5c-15.16-.01-27.47,12.27-27.48,27.44h0v122.3l254.98,149.73,135.01,44.92,105-44.92v-149.73l-240.01-149.73Z"/>
      <path class="uuid-03a9aba7-8c9f-4ad9-9b0f-bea84e783756" d="M227.51,250.27h254.98v149.73h-254.98v-149.73Z"/>
      <path class="uuid-cd48b939-f066-4589-ab25-4f12ac98dbf2" d="M410,220.32h-182.49v374.33h182.49c15.13-.08,27.39-12.3,27.5-27.44V247.76c-.11-15.13-12.37-27.36-27.5-27.44Z"/>
      <path class="uuid-e5952948-d377-4f1a-9cb2-465f7c3edcaf" d="M395,235.29h-167.49v374.33h167.49c15.13-.08,27.39-12.3,27.5-27.44v-319.46c-.11-15.13-12.37-27.36-27.5-27.44Z"/>
      <path class="uuid-e5952948-d377-4f1a-9cb2-465f7c3edcaf" d="M395,235.29h-167.49v344.38h167.49c15.13-.08,27.39-12.3,27.5-27.44v-289.51c-.11-15.13-12.37-27.36-27.5-27.44Z"/>
      <path class="uuid-e5952948-d377-4f1a-9cb2-465f7c3edcaf" d="M380,235.29h-152.5v344.38h152.5c15.13-.08,27.39-12.3,27.5-27.44v-289.51c-.11-15.13-12.37-27.36-27.5-27.44Z"/>
      <path class="uuid-53730d4b-b288-4f98-aed0-d40b9a9396aa" d="M105,235.29h275c15.17-.01,27.48,12.27,27.5,27.44v274.54c-.03,15.17-12.34,27.45-27.5,27.44H105c-15.16.03-27.48-12.25-27.5-27.41,0,0,0-.02,0-.02v-274.54c.01-15.16,12.32-27.45,27.48-27.44,0,0,.02,0,.02,0Z"/>
      <path class="uuid-cef1850a-4038-40ca-a771-95ca674d70ef" d="M162.73,489.22l57.84-89.47-52.98-88.96h42.55l28.91,56.97c2.67,5.39,4.61,9.4,5.48,12.07h.39c1.89-4.33,3.89-8.5,5.99-12.58l30.91-56.37h39.16l-54.34,88.46,55.72,89.95h-41.67l-33.4-62.45c-1.55-2.68-2.87-5.5-3.94-8.41h-.55c-.97,2.84-2.27,5.55-3.87,8.09l-34.39,62.7h-41.81Z"/>
      <path class="uuid-82658185-8400-4419-8c7e-c25dad0f2183" d="M695,100.54h-212.5v149.73h240.01v-122.3c-.01-15.16-12.32-27.45-27.48-27.44,0,0-.02,0-.02,0Z"/>
      <path class="uuid-03a9aba7-8c9f-4ad9-9b0f-bea84e783756" d="M482.49,400h240.01v149.73h-240.01v-149.73Z"/>
    </g>
  </g>
</svg>