<?xml version="1.0" encoding="UTF-8"?>
<svg xmlns="http://www.w3.org/2000/svg" xmlns:xlink="http://www.w3.org/1999/xlink" viewBox="0 0 800 800">
  <defs>
    <style>
      .uuid-d2f10ec0-a973-48e7-bb73-d0fe08b41cf8 {
        fill: url(#uuid-a3dbbeae-ccaf-47ef-ab6c-f93b474a31ad);
      }

      .uuid-d2f10ec0-a973-48e7-bb73-d0fe08b41cf8, .uuid-280837b8-c27a-41e5-81fa-eb4e5b8db3cb, .uuid-6414bcce-66cd-4430-a822-987449c7bb13, .uuid-eb013689-3148-4180-ab6d-651d17528349, .uuid-334afc8a-2393-4962-967c-53b34832b915, .uuid-9353c5fc-1e06-48f9-9b4c-5e3c6c3c5d13, .uuid-bc620d6e-dd34-493e-9b78-65e21bed2422, .uuid-f861fbd8-6d83-4b96-9e7e-d23513317e65, .uuid-d3e91ef8-2a65-4434-8df8-44621f4fa768, .uuid-e58b6bac-fa4c-4d9f-9d65-440ea5780e76, .uuid-91e8d0bc-8414-4a3e-8fcc-09b9ab406654, .uuid-0f9be40c-a4dd-4d09-a5b2-560b2ad87646 {
        stroke-width: 0px;
      }

      .uuid-280837b8-c27a-41e5-81fa-eb4e5b8db3cb {
        fill: none;
      }

      .uuid-6414bcce-66cd-4430-a822-987449c7bb13 {
        fill: url(#uuid-f17867f6-85fa-4b51-ae7c-ae4b5b5fba9e);
      }

      .uuid-eb013689-3148-4180-ab6d-651d17528349 {
        fill: url(#uuid-a7e800ec-c25d-4ef3-8878-77aaa27d00a5);
      }

      .uuid-334afc8a-2393-4962-967c-53b34832b915 {
        fill: url(#uuid-2e7c30a1-cc99-4eae-8b6d-1d8a1cdad68d);
      }

      .uuid-9353c5fc-1e06-48f9-9b4c-5e3c6c3c5d13 {
        fill: #34439e;
      }

      .uuid-bc620d6e-dd34-493e-9b78-65e21bed2422 {
        fill: url(#uuid-503be225-4f4b-4e37-aacb-0cfab482df92);
      }

      .uuid-f861fbd8-6d83-4b96-9e7e-d23513317e65 {
        fill: url(#uuid-fe0ec13f-4bd6-4bd4-a03e-08ba61ff544c);
      }

      .uuid-c0d71c72-2f56-44d1-8df4-a82984f72419 {
        mask: url(#uuid-94c24ab2-6a57-4dce-8711-649f5e94ea5a);
      }

      .uuid-d3e91ef8-2a65-4434-8df8-44621f4fa768 {
        fill: url(#uuid-160a4662-89d5-4d95-b2f7-189be05e759e);
      }

      .uuid-e58b6bac-fa4c-4d9f-9d65-440ea5780e76 {
        fill: url(#uuid-baef7435-f908-449f-91a9-8685d7ed15e1);
      }

      .uuid-91e8d0bc-8414-4a3e-8fcc-09b9ab406654 {
        fill: rgba(0, 0, 0, .3);
      }

      .uuid-0f9be40c-a4dd-4d09-a5b2-560b2ad87646 {
        fill: #fff;
      }
    </style>
    <linearGradient id="uuid-503be225-4f4b-4e37-aacb-0cfab482df92" x1="3035.36" y1="796.35" x2="3040.55" y2="790.3" gradientTransform="translate(-75530 20030) scale(25 -25)" gradientUnits="userSpaceOnUse">
      <stop offset="0" stop-color="#4858ae"/>
      <stop offset="1" stop-color="#4e60ce"/>
    </linearGradient>
    <linearGradient id="uuid-a3dbbeae-ccaf-47ef-ab6c-f93b474a31ad" x1="3030.04" y1="791.78" x2="3035.22" y2="785.73" xlink:href="#uuid-503be225-4f4b-4e37-aacb-0cfab482df92"/>
    <linearGradient id="uuid-f17867f6-85fa-4b51-ae7c-ae4b5b5fba9e" x1="3039.35" y1="785.8" x2="3049.96" y2="778.87" gradientTransform="translate(-75530 20030) scale(25 -25)" gradientUnits="userSpaceOnUse">
      <stop offset="0" stop-color="#364088"/>
      <stop offset="1" stop-color="#6e7ee1"/>
    </linearGradient>
    <linearGradient id="uuid-a7e800ec-c25d-4ef3-8878-77aaa27d00a5" x1="3031.56" y1="780.77" x2="3044.46" y2="780.77" gradientTransform="translate(-75530 20030) scale(25 -25)" gradientUnits="userSpaceOnUse">
      <stop offset="0" stop-color="#515fc4"/>
      <stop offset="1" stop-color="#7084ea"/>
    </linearGradient>
    <linearGradient id="uuid-160a4662-89d5-4d95-b2f7-189be05e759e" x1="3043.43" y1="792.7" x2="3048.11" y2="789.41" xlink:href="#uuid-f17867f6-85fa-4b51-ae7c-ae4b5b5fba9e"/>
    <linearGradient id="uuid-fe0ec13f-4bd6-4bd4-a03e-08ba61ff544c" x1="3036.7" y1="794.92" x2="3040.85" y2="790.08" xlink:href="#uuid-503be225-4f4b-4e37-aacb-0cfab482df92"/>
    <linearGradient id="uuid-baef7435-f908-449f-91a9-8685d7ed15e1" x1="3030.04" y1="791.78" x2="3035.22" y2="785.73" xlink:href="#uuid-503be225-4f4b-4e37-aacb-0cfab482df92"/>
    <mask id="uuid-94c24ab2-6a57-4dce-8711-649f5e94ea5a" data-name="mask" x="218.59" y="97.66" width="362.81" height="604.69" maskUnits="userSpaceOnUse">
      <g id="uuid-2895a8d3-1943-4195-a3bb-9f57a2164bfc" data-name="mask0 87 7777">
        <path class="uuid-bc620d6e-dd34-493e-9b78-65e21bed2422" d="M420.16,299.22c55.66,0,100.78-45.12,100.78-100.78s-45.12-100.78-100.78-100.78-100.78,45.12-100.78,100.78,45.12,100.78,100.78,100.78Z"/>
        <path class="uuid-e58b6bac-fa4c-4d9f-9d65-440ea5780e76" d="M283.61,319.38c-13.65,0-24.71,11.06-24.71,24.71v197.01c0,89.06,72.19,161.25,161.25,161.25s161.25-72.19,161.25-161.25v-197.01c0-13.65-11.06-24.71-24.71-24.71h-273.08Z"/>
      </g>
    </mask>
    <linearGradient id="uuid-2e7c30a1-cc99-4eae-8b6d-1d8a1cdad68d" x1="3024.3" y1="784.39" x2="3038.81" y2="784.39" gradientTransform="translate(-75530 20030) scale(25 -25)" gradientUnits="userSpaceOnUse">
      <stop offset="0" stop-color="#2a3887"/>
      <stop offset="1" stop-color="#4c56b9"/>
    </linearGradient>
  </defs>
  <g id="uuid-3edc2725-188d-430a-a762-8b27a16dd1b8" data-name="Layer 5">
    <rect class="uuid-280837b8-c27a-41e5-81fa-eb4e5b8db3cb" width="800" height="800"/>
  </g>
  <g id="uuid-55a15bed-0db8-4aab-8bd7-359edd96863d" data-name="Layer 1">
    <g>
      <g id="uuid-8aefcb59-ab3a-4117-98db-492531fee1f7" data-name="mask0 87 7777">
        <path class="uuid-bc620d6e-dd34-493e-9b78-65e21bed2422" d="M420.16,299.22c55.66,0,100.78-45.12,100.78-100.78s-45.12-100.78-100.78-100.78-100.78,45.12-100.78,100.78,45.12,100.78,100.78,100.78Z"/>
        <path class="uuid-d2f10ec0-a973-48e7-bb73-d0fe08b41cf8" d="M283.61,319.38c-13.65,0-24.71,11.06-24.71,24.71v197.01c0,89.06,72.19,161.25,161.25,161.25s161.25-72.19,161.25-161.25v-197.01c0-13.65-11.06-24.71-24.71-24.71h-273.08Z"/>
      </g>
      <path class="uuid-6414bcce-66cd-4430-a822-987449c7bb13" d="M460.47,377.89c0-10.05,8.15-18.21,18.21-18.21h225.62c10.05,0,18.21,8.15,18.21,18.21v132.97c0,72.36-58.66,131.02-131.02,131.02s-131.02-58.66-131.02-131.02v-132.97Z"/>
      <path class="uuid-eb013689-3148-4180-ab6d-651d17528349" d="M258.91,344.08c0-13.65,11.06-24.71,24.71-24.71h273.08c13.65,0,24.71,11.06,24.71,24.71v197.01c0,89.06-72.19,161.25-161.25,161.25s-161.25-72.19-161.25-161.25v-197.01Z"/>
      <circle class="uuid-9353c5fc-1e06-48f9-9b4c-5e3c6c3c5d13" cx="621.72" cy="258.91" r="60.47"/>
      <circle class="uuid-d3e91ef8-2a65-4434-8df8-44621f4fa768" cx="621.72" cy="258.91" r="60.47"/>
      <circle class="uuid-f861fbd8-6d83-4b96-9e7e-d23513317e65" cx="440.31" cy="218.59" r="80.62"/>
      <g class="uuid-c0d71c72-2f56-44d1-8df4-a82984f72419">
        <path class="uuid-91e8d0bc-8414-4a3e-8fcc-09b9ab406654" d="M218.59,339.53c0-33.4,27.07-60.47,60.47-60.47h141.09c33.4,0,60.47,27.07,60.47,60.47v241.88c0,33.4-27.07,60.47-60.47,60.47h-201.56v-302.34Z"/>
      </g>
      <rect class="uuid-334afc8a-2393-4962-967c-53b34832b915" x="77.5" y="238.75" width="362.81" height="362.81" rx="40.31" ry="40.31"/>
      <path class="uuid-0f9be40c-a4dd-4d09-a5b2-560b2ad87646" d="M339.53,319.38h-161.25v36.98h60.37v164.58h40.52v-164.58h60.37v-36.98Z"/>
    </g>
  </g>
</svg>