<?xml version="1.0" encoding="UTF-8"?>
<svg xmlns="http://www.w3.org/2000/svg" xmlns:xlink="http://www.w3.org/1999/xlink" viewBox="0 0 800 800">
  <defs>
    <style>
      .uuid-c6959104-34f6-459d-beff-dba61a2c7acd {
        fill: none;
      }

      .uuid-c6959104-34f6-459d-beff-dba61a2c7acd, .uuid-009c81da-07f2-4f9d-bd5e-8ded204c0237, .uuid-35c53eff-df4d-4a58-992f-66d459de699f, .uuid-78af8a2a-3ef1-4d3f-aa7b-a4dccddecf7d, .uuid-5c51e7bd-4a80-4ff8-a543-7996f92dd129, .uuid-bf722372-63e3-4df1-bd13-11b233c3c720, .uuid-02ad9630-6d5f-4625-8b60-a157d422feaf, .uuid-6c701dd4-1e93-439a-900c-7f6bc63e2ac6, .uuid-4d880add-f95b-4f52-bc54-5f096e0d6a5c {
        stroke-width: 0px;
      }

      .uuid-009c81da-07f2-4f9d-bd5e-8ded204c0237 {
        opacity: .1;
      }

      .uuid-009c81da-07f2-4f9d-bd5e-8ded204c0237, .uuid-6c701dd4-1e93-439a-900c-7f6bc63e2ac6 {
        fill: #000;
        isolation: isolate;
      }

      .uuid-35c53eff-df4d-4a58-992f-66d459de699f {
        fill: #103f91;
      }

      .uuid-78af8a2a-3ef1-4d3f-aa7b-a4dccddecf7d {
        fill: url(#uuid-8d370add-fd41-4f3e-987c-3e4959171ee4);
      }

      .uuid-5c51e7bd-4a80-4ff8-a543-7996f92dd129 {
        fill: #185abd;
      }

      .uuid-bf722372-63e3-4df1-bd13-11b233c3c720 {
        fill: #41a5ee;
      }

      .uuid-02ad9630-6d5f-4625-8b60-a157d422feaf {
        fill: #fff;
      }

      .uuid-6c701dd4-1e93-439a-900c-7f6bc63e2ac6 {
        opacity: .2;
      }

      .uuid-4d880add-f95b-4f52-bc54-5f096e0d6a5c {
        fill: #2b7cd3;
      }
    </style>
    <linearGradient id="uuid-8d370add-fd41-4f3e-987c-3e4959171ee4" x1="-2157.4" y1="3448.65" x2="-2148.8" y2="3433.75" gradientTransform="translate(54070 86430) scale(25 -25)" gradientUnits="userSpaceOnUse">
      <stop offset="0" stop-color="#2368c4"/>
      <stop offset=".5" stop-color="#1a5dbe"/>
      <stop offset="1" stop-color="#1146ac"/>
    </linearGradient>
  </defs>
  <g id="uuid-e27b45bb-fd02-449c-b9fc-5545fc0e17a6" data-name="Layer 5">
    <rect class="uuid-c6959104-34f6-459d-beff-dba61a2c7acd" width="800" height="800"/>
  </g>
  <g id="uuid-7bee2f42-4010-470f-a9b5-2c3051139f98" data-name="Layer 1">
    <g>
      <path class="uuid-bf722372-63e3-4df1-bd13-11b233c3c720" d="M695,100.54H254.99c-15.16-.01-27.47,12.27-27.48,27.44h0v122.3l254.98,74.87,240.01-74.87v-122.3c-.01-15.16-12.32-27.45-27.48-27.44,0,0-.02,0-.02,0Z"/>
      <path class="uuid-4d880add-f95b-4f52-bc54-5f096e0d6a5c" d="M722.5,250.27H227.51v149.73l254.98,44.92,240.01-44.92v-149.73Z"/>
      <path class="uuid-5c51e7bd-4a80-4ff8-a543-7996f92dd129" d="M227.51,400v149.73l239.99,29.95,255.01-29.95v-149.73H227.51Z"/>
      <path class="uuid-35c53eff-df4d-4a58-992f-66d459de699f" d="M254.99,699.46h439.98c15.16.04,27.49-12.22,27.53-27.39,0-.02,0-.03,0-.05h0v-122.3H227.51v122.3c.01,15.16,12.32,27.45,27.48,27.44h0Z"/>
      <path class="uuid-009c81da-07f2-4f9d-bd5e-8ded204c0237" d="M410,220.32h-182.49v374.33h182.49c15.13-.08,27.39-12.3,27.5-27.44V247.76c-.11-15.13-12.37-27.36-27.5-27.44Z"/>
      <path class="uuid-6c701dd4-1e93-439a-900c-7f6bc63e2ac6" d="M395,235.29h-167.49v374.33h167.49c15.13-.08,27.39-12.3,27.5-27.44v-319.46c-.11-15.13-12.37-27.36-27.5-27.44Z"/>
      <path class="uuid-6c701dd4-1e93-439a-900c-7f6bc63e2ac6" d="M395,235.29h-167.49v344.38h167.49c15.13-.08,27.39-12.3,27.5-27.44v-289.51c-.11-15.13-12.37-27.36-27.5-27.44Z"/>
      <path class="uuid-6c701dd4-1e93-439a-900c-7f6bc63e2ac6" d="M380,235.29h-152.5v344.38h152.5c15.13-.08,27.39-12.3,27.5-27.44v-289.51c-.11-15.13-12.37-27.36-27.5-27.44Z"/>
      <path class="uuid-78af8a2a-3ef1-4d3f-aa7b-a4dccddecf7d" d="M105,235.29h275c15.17-.01,27.48,12.27,27.5,27.44v274.54c-.03,15.17-12.34,27.45-27.5,27.44H105c-15.16.03-27.48-12.25-27.5-27.41,0,0,0-.02,0-.02v-274.54c.01-15.16,12.32-27.45,27.48-27.44,0,0,.02,0,.02,0Z"/>
      <path class="uuid-02ad9630-6d5f-4625-8b60-a157d422feaf" d="M190.38,445.79c.53,4.24.9,7.92,1.06,11.08h.64c.23-2.99.74-6.61,1.5-10.83s1.43-7.79,2.05-10.71l28.91-124.55h37.41l29.95,122.69c1.74,7.59,2.99,15.28,3.73,23.04h.51c.55-7.55,1.59-15.05,3.11-22.46l23.93-123.43h34.02l-42.02,178.48h-39.78l-28.5-118.08c-.83-3.41-1.77-7.85-2.81-13.31s-1.69-9.46-1.93-11.98h-.48c-.32,2.9-.97,7.21-1.93,12.92-.97,5.74-1.73,9.95-2.3,12.72l-26.79,117.8h-40.45l-42.25-178.39h34.55l26.05,124.81c.78,3.37,1.38,6.77,1.82,10.2Z"/>
    </g>
  </g>
</svg>