<?xml version="1.0" encoding="UTF-8"?>
<svg xmlns="http://www.w3.org/2000/svg" viewBox="0 0 800 800">
  <defs>
    <style>
      .uuid-b4f01933-c2c3-4acc-8ffc-eb5e392679cc {
        fill: none;
      }

      .uuid-b4f01933-c2c3-4acc-8ffc-eb5e392679cc, .uuid-b41a0c9c-721c-4073-93e5-f5a48807bdf8, .uuid-e875601f-6c68-425f-be6e-428bbcc601c0, .uuid-bed00a22-38bc-4a8b-a039-5a9ce4b99477 {
        stroke-width: 0px;
      }

      .uuid-b41a0c9c-721c-4073-93e5-f5a48807bdf8 {
        fill: #5d87a1;
      }

      .uuid-e875601f-6c68-425f-be6e-428bbcc601c0 {
        fill: #f8981d;
      }

      .uuid-bed00a22-38bc-4a8b-a039-5a9ce4b99477 {
        fill: #fff;
      }
    </style>
  </defs>
  <g id="uuid-a9fc69a5-1fef-427a-be1d-6eae887459a5" data-name="Layer 5">
    <rect class="uuid-b4f01933-c2c3-4acc-8ffc-eb5e392679cc" width="800" height="800"/>
  </g>
  <g id="uuid-ad02b1fc-5841-46ed-beea-6f2dff72c7f2" data-name="Layer 3">
    <path class="uuid-bed00a22-38bc-4a8b-a039-5a9ce4b99477" d="M553.24,77.5H246.76c-111.77,0-169.26,57.5-169.26,169.26v306.48c0,111.76,57.49,169.26,169.26,169.26h306.48c111.76,0,169.26-57.49,169.26-169.26V246.76c0-111.77-57.5-169.26-169.26-169.26Z"/>
  </g>
  <g id="uuid-6267c15c-678e-4fb1-8c2c-7e0e22f4e7f5" data-name="Layer 1">
    <g>
      <path class="uuid-b41a0c9c-721c-4073-93e5-f5a48807bdf8" d="M262.42,547.94h-20.45c-.72-34.52-2.71-66.97-5.97-97.38h-.18l-31.14,97.38h-15.57l-30.95-97.38h-.18c-2.3,29.2-3.74,61.66-4.34,97.38h-18.64c1.2-43.44,4.22-84.17,9.05-122.18h25.35l29.5,89.78h.18l29.68-89.78h24.25c5.31,44.53,8.45,85.26,9.41,122.18M351.11,457.79c-8.33,45.18-19.31,78.02-32.95,98.51-10.62,15.78-22.26,23.67-34.93,23.67-3.38,0-7.55-1.02-12.49-3.04v-10.9c2.41.35,5.25.55,8.5.55,5.92,0,10.68-1.63,14.31-4.89,4.34-3.98,6.51-8.44,6.51-13.39,0-3.39-1.69-10.32-5.07-20.82l-22.44-69.69h20.09l16.11,52.12c3.62,11.84,5.13,20.1,4.52,24.81,8.81-23.52,14.96-49.18,18.47-76.93h19.37Z"/>
      <path class="uuid-e875601f-6c68-425f-be6e-428bbcc601c0" d="M623.33,547.94h-58.09v-122.18h19.54v107.14h38.55v15.04ZM550.03,550.89l-22.46-11.08c1.99-1.64,3.9-3.41,5.61-5.46,9.55-11.22,14.31-27.8,14.31-49.77,0-40.42-15.86-60.64-47.6-60.64-15.56,0-27.7,5.13-36.38,15.39-9.54,11.22-14.3,27.75-14.3,49.6s4.22,37.23,12.67,47.23c7.73,9.05,19.37,13.59,34.95,13.59,5.81,0,11.14-.71,16-2.15l29.24,17.02,7.97-13.73ZM477.27,523.49c-4.95-7.96-7.42-20.74-7.42-38.36,0-30.76,9.35-46.16,28.06-46.16,9.78,0,16.95,3.68,21.53,11.03,4.94,7.97,7.43,20.64,7.43,38.01,0,31.02-9.35,46.53-28.05,46.53-9.78,0-16.95-3.67-21.54-11.05M440.69,514.07c0,10.36-3.8,18.86-11.4,25.52-7.6,6.63-17.8,9.95-30.57,9.95-11.95,0-23.54-3.82-34.75-11.41l5.25-10.49c9.65,4.83,18.39,7.24,26.23,7.24,7.36,0,13.12-1.63,17.29-4.87,4.17-3.25,6.65-7.8,6.65-13.57,0-7.26-5.06-13.46-14.35-18.66-8.56-4.7-25.69-14.53-25.69-14.53-9.28-6.77-13.93-14.03-13.93-25.99,0-9.9,3.47-17.9,10.4-23.98,6.94-6.11,15.9-9.15,26.88-9.15s21.65,3.04,30.94,9.05l-4.71,10.5c-7.94-3.37-15.78-5.06-23.52-5.06-6.26,0-11.1,1.51-14.46,4.53-3.39,3.01-5.48,6.86-5.48,11.59,0,7.22,5.17,13.51,14.71,18.81,8.68,4.71,26.23,14.71,26.23,14.71,9.52,6.75,14.27,13.95,14.27,25.82"/>
      <path class="uuid-b41a0c9c-721c-4073-93e5-f5a48807bdf8" d="M647.86,384.83c-11.82-.3-20.96.89-28.64,4.14-2.22.89-5.74.89-6.05,3.69,1.2,1.19,1.34,3.1,2.38,4.73,1.77,2.95,4.86,6.92,7.67,8.99,3.09,2.37,6.2,4.72,9.46,6.79,5.74,3.55,12.25,5.62,17.85,9.16,3.26,2.06,6.5,4.72,9.76,6.94,1.6,1.18,2.63,3.1,4.71,3.84v-.45c-1.04-1.33-1.34-3.25-2.36-4.73l-4.43-4.28c-4.28-5.75-9.61-10.78-15.35-14.9-4.73-3.26-15.06-7.68-16.98-13.13l-.3-.3c3.25-.3,7.1-1.48,10.19-2.39,5.02-1.32,9.6-1.02,14.76-2.35,2.37-.59,4.72-1.34,7.1-2.07v-1.33c-2.67-2.66-4.58-6.19-7.39-8.71-7.52-6.49-15.8-12.84-24.36-18.16-4.58-2.96-10.48-4.86-15.36-7.38-1.76-.89-4.72-1.33-5.76-2.81-2.65-3.25-4.14-7.52-6.06-11.37-4.27-8.11-8.41-17.12-12.1-25.69-2.66-5.75-4.28-11.5-7.53-16.82-15.21-25.09-31.74-40.29-57.13-55.21-5.46-3.11-11.95-4.43-18.89-6.06l-11.08-.58c-2.36-1.04-4.73-3.85-6.79-5.17-8.43-5.31-30.12-16.82-36.31-1.62-3.99,9.61,5.9,19.05,9.3,23.92,2.51,3.38,5.76,7.23,7.52,11.07,1.04,2.51,1.33,5.17,2.37,7.82,2.36,6.5,4.57,13.72,7.68,19.79,1.62,3.09,3.39,6.34,5.46,9.14,1.19,1.64,3.25,2.36,3.7,5.03-2.06,2.94-2.22,7.38-3.4,11.07-5.31,16.68-3.24,37.34,4.29,49.6,2.36,3.69,7.97,11.82,15.49,8.7,6.65-2.66,5.18-11.07,7.09-18.45.44-1.78.15-2.95,1.04-4.12v.29c2.06,4.13,4.14,8.11,6.05,12.25,4.58,7.23,12.55,14.76,19.2,19.77,3.54,2.67,6.34,7.24,10.77,8.87v-.44h-.29c-.9-1.32-2.21-1.92-3.39-2.94-2.66-2.66-5.61-5.91-7.68-8.86-6.19-8.27-11.67-17.43-16.53-26.88-2.38-4.58-4.43-9.59-6.35-14.17-.89-1.77-.89-4.43-2.38-5.32-2.22,3.24-5.46,6.05-7.08,10.03-2.81,6.36-3.1,14.18-4.15,22.31l-.58.28c-4.7-1.18-6.34-6.05-8.12-10.18-4.42-10.49-5.16-27.32-1.33-39.42,1.03-3.09,5.47-12.84,3.7-15.79-.89-2.83-3.85-4.43-5.47-6.66-1.9-2.8-3.99-6.34-5.32-9.44-3.54-8.26-5.32-17.42-9.14-25.68-1.78-3.85-4.88-7.83-7.38-11.38-2.81-3.98-5.91-6.79-8.13-11.51-.74-1.62-1.77-4.28-.58-6.05.29-1.19.89-1.63,2.07-1.92,1.91-1.62,7.38.44,9.29,1.33,5.47,2.21,10.05,4.28,14.62,7.38,2.07,1.48,4.28,4.29,6.94,5.03h3.11c4.71,1.03,10.03.28,14.47,1.62,7.82,2.51,14.91,6.2,21.26,10.18,19.34,12.26,35.28,29.69,46.05,50.5,1.77,3.39,2.52,6.5,4.13,10.03,3.11,7.24,6.96,14.62,10.04,21.71,3.1,6.94,6.06,14.02,10.49,19.78,2.21,3.1,11.08,4.72,15.06,6.35,2.94,1.32,7.53,2.5,10.18,4.13,5.02,3.09,10.03,6.65,14.75,10.05,2.35,1.77,9.74,5.46,10.18,8.42M497.27,256.54c-2.04-.02-4.07.23-6.04.74v.3h.28c1.19,2.36,3.26,4,4.73,6.05,1.19,2.37,2.22,4.71,3.39,7.08l.28-.29c2.08-1.47,3.12-3.84,3.12-7.38-.9-1.04-1.04-2.06-1.78-3.1-.87-1.48-2.79-2.21-3.98-3.4"/>
      <path class="uuid-e875601f-6c68-425f-be6e-428bbcc601c0" d="M661.92,547.92h3.06v-14.97h-4.59l-3.74,10.22-4.07-10.22h-4.42v14.97h2.89v-11.39h.16l4.26,11.39h2.2l4.24-11.39v11.39h0ZM637.28,547.92h3.24v-12.43h4.24v-2.54h-11.89v2.54h4.41v12.43s0,0,0,0Z"/>
    </g>
  </g>
</svg>