<?xml version="1.0" encoding="UTF-8"?>
<svg xmlns="http://www.w3.org/2000/svg" viewBox="0 0 800 800">
  <defs>
    <style>
      .uuid-e93e768b-acb5-4398-90e8-18cd367d6887 {
        fill: none;
      }

      .uuid-e93e768b-acb5-4398-90e8-18cd367d6887, .uuid-aa5357f3-fbf1-45c7-aa7a-f4b8785054ff, .uuid-d13b956e-29a4-43a1-8c5f-d79531c0542c {
        stroke-width: 0px;
      }

      .uuid-aa5357f3-fbf1-45c7-aa7a-f4b8785054ff {
        fill: #000;
      }

      .uuid-d13b956e-29a4-43a1-8c5f-d79531c0542c {
        fill: #fff;
      }
    </style>
  </defs>
  <g id="uuid-a15d45e0-9dfd-4f48-bfad-f8d3dc8f7f5c" data-name="Layer 5">
    <rect class="uuid-e93e768b-acb5-4398-90e8-18cd367d6887" width="800" height="800"/>
  </g>
  <g id="uuid-91cd1272-3d4e-4375-ba29-6651f4a99593" data-name="Layer 3">
    <path class="uuid-d13b956e-29a4-43a1-8c5f-d79531c0542c" d="M553.24,77.5H246.76c-111.77,0-169.26,57.5-169.26,169.26v306.48c0,111.76,57.49,169.26,169.26,169.26h306.48c111.76,0,169.26-57.49,169.26-169.26V246.76c0-111.77-57.5-169.26-169.26-169.26Z"/>
  </g>
  <g id="uuid-42a476a0-1718-4a79-b914-b8f1295553c8" data-name="Layer 1">
    <path class="uuid-aa5357f3-fbf1-45c7-aa7a-f4b8785054ff" d="M260.06,323.52h99.96v7.95h-90.8v59.8h85.38v7.95h-85.38v65.65h91.84v7.95h-101v-149.29ZM368.98,323.52h10.62l47.07,65.65,48.11-65.65,65.43-83.39-107.5,155.95,55.4,76.73h-11.04l-50.4-69.83-50.61,69.83h-10.83l55.81-76.73-52.06-72.55ZM492.05,331.47v-7.95h113.92v7.95h-52.48v141.34h-9.16v-141.34h-52.27ZM135,323.52h11.45l157.95,236.35-65.27-87.06-94.55-138-.42,138h-9.16v-149.29ZM605.05,462.46c-1.87,0-3.28-1.45-3.28-3.33s1.4-3.33,3.28-3.33,3.28,1.45,3.28,3.33-1.38,3.33-3.28,3.33ZM614.05,453.72h4.9c.07,2.66,2.01,4.44,4.86,4.44,3.19,0,4.99-1.92,4.99-5.51v-22.76h4.99v22.78c0,6.47-3.74,10.2-9.94,10.2-5.82,0-9.81-3.62-9.81-9.15ZM640.33,453.43h4.95c.42,3.06,3.41,5,7.71,5,4.01,0,6.95-2.08,6.95-4.93,0-2.45-1.87-3.93-6.13-4.93l-4.15-1c-5.82-1.36-8.47-4.17-8.47-8.9,0-5.74,4.68-9.55,11.7-9.55,6.53,0,11.3,3.82,11.59,9.24h-4.86c-.47-2.97-3.05-4.82-6.8-4.82-3.94,0-6.57,1.9-6.57,4.8,0,2.3,1.69,3.62,5.88,4.6l3.54.87c6.6,1.54,9.32,4.22,9.32,9.06,0,6.16-4.77,10.02-12.39,10.02-7.13,0-11.92-3.68-12.28-9.44Z"/>
  </g>
</svg>