<?xml version="1.0" encoding="UTF-8"?>
<svg xmlns="http://www.w3.org/2000/svg" viewBox="0 0 800 800">
  <defs>
    <style>
      .uuid-288e1284-aff6-4f61-9165-0bed41342f73 {
        fill: none;
      }

      .uuid-288e1284-aff6-4f61-9165-0bed41342f73, .uuid-dd0e6587-4908-41ee-89d1-f76701b01f5b, .uuid-89cf8b6b-1b2d-4aef-a29d-3d99b24b3b99 {
        stroke-width: 0px;
      }

      .uuid-dd0e6587-4908-41ee-89d1-f76701b01f5b {
        fill: #000;
      }

      .uuid-89cf8b6b-1b2d-4aef-a29d-3d99b24b3b99 {
        fill: #fff;
      }
    </style>
  </defs>
  <g id="uuid-84df33d9-d36e-4e24-a5f5-1ead95bdd0c2" data-name="Layer 5">
    <rect class="uuid-288e1284-aff6-4f61-9165-0bed41342f73" width="800" height="800"/>
  </g>
  <g id="uuid-271dffa2-af69-46aa-a370-e6fc106fb634" data-name="Layer 3">
    <path class="uuid-89cf8b6b-1b2d-4aef-a29d-3d99b24b3b99" d="M553.24,77.5H246.76c-111.77,0-169.26,57.5-169.26,169.26v306.48c0,111.76,57.49,169.26,169.26,169.26h306.48c111.76,0,169.26-57.49,169.26-169.26V246.76c0-111.77-57.5-169.26-169.26-169.26Z"/>
  </g>
  <g id="uuid-a2ad8343-386b-4052-846d-bb72f1a31d02" data-name="Layer 1">
    <path class="uuid-dd0e6587-4908-41ee-89d1-f76701b01f5b" d="M507.78,594.7c-1.65.87-1.56,1.22.09.39.48-.21.92-.5,1.3-.87,0-.3-.04-.26-1.39.48h0ZM511.08,592.96c-.78.61-.78.65.17.17.52-.26.96-.56.96-.65,0-.35-.22-.26-1.13.48ZM513.25,591.64c-.78.61-.78.65.17.17.52-.26.96-.56.96-.65,0-.35-.22-.26-1.13.48ZM515.42,590.34c-.78.61-.78.65.17.17.52-.26.96-.56.96-.65,0-.35-.22-.26-1.13.48ZM518.42,588.4c-1.52.96-2,1.61-.65.87.96-.56,2.52-1.74,2.26-1.78-.57.24-1.11.55-1.61.91ZM385.42,177.57c-.96.09-4.01.39-6.75.61-63.19,5.69-122.4,39.79-159.89,92.21-20.73,28.77-34.2,62.12-39.27,97.22-1.78,12.22-2,15.84-2,32.41s.22,20.17,2,32.41c12.09,83.55,71.56,153.75,152.2,179.77,14.44,4.65,29.67,7.82,46.97,9.73,6.75.74,35.88.74,42.63,0,29.87-3.3,55.2-10.7,80.16-23.44,3.82-1.97,4.56-2.48,4.04-2.91-12.19-16.11-24.27-32.3-36.23-48.58l-35.58-48.06-44.58-65.97c-14.82-22.08-29.79-44.06-44.89-65.94-.17-.04-.35,29.28-.43,65.07-.13,62.67-.17,65.2-.96,66.68-.76,1.73-2.11,3.14-3.82,3.95-1.39.7-2.61.83-9.18.83h-7.53l-2-1.26c-1.24-.78-2.24-1.87-2.91-3.17l-.91-1.97.09-87.21.13-87.24,1.35-1.69c.91-1.07,2-1.97,3.23-2.65,1.78-.87,2.48-.96,10.01-.96,8.88,0,10.35.35,12.66,2.87,18.04,26.85,35.94,53.81,53.68,80.86,28.89,43.8,68.37,103.6,87.78,132.97l35.23,53.37,1.78-1.17c16.95-11.28,32.32-24.76,45.71-40.11,28.04-32.08,46.22-71.58,52.36-113.74,1.78-12.22,2-15.84,2-32.41s-.22-20.17-2-32.41c-12.09-83.55-71.56-153.75-152.2-179.77-15.07-4.8-30.59-8.05-46.32-9.7-4.17-.43-32.93-.91-36.53-.56l-.04-.06ZM476.5,312.15c2.09,1.05,3.68,2.9,4.39,5.14.35,1.13.43,25.31.35,79.81l-.13,78.21-13.8-21.14-13.83-21.14v-56.85c0-36.75.17-57.41.43-58.41.64-2.33,2.19-4.31,4.3-5.49,1.78-.91,2.43-1,9.27-1,6.43,0,7.57.09,9.01.87h0Z"/>
  </g>
</svg>