<?xml version="1.0" encoding="UTF-8"?>
<svg xmlns="http://www.w3.org/2000/svg" viewBox="0 0 800 800">
  <defs>
    <style>
      .uuid-59411ae1-9ea4-4993-b3fb-01397c460c38 {
        fill: #83cd29;
      }

      .uuid-59411ae1-9ea4-4993-b3fb-01397c460c38, .uuid-8bdf0b21-a528-47c2-bb02-fb12acd07899, .uuid-6aac2ac4-6335-45d2-8628-4cb610d0c91c {
        stroke-width: 0px;
      }

      .uuid-8bdf0b21-a528-47c2-bb02-fb12acd07899 {
        fill: none;
      }

      .uuid-6aac2ac4-6335-45d2-8628-4cb610d0c91c {
        fill: #fff;
      }
    </style>
  </defs>
  <g id="uuid-2f210ce7-307a-4b0f-814c-71b2c651cbd9" data-name="Layer 5">
    <rect class="uuid-8bdf0b21-a528-47c2-bb02-fb12acd07899" width="800" height="800"/>
  </g>
  <g id="uuid-e83c9772-d7bf-4169-8b30-bdc2a9edf7c3" data-name="Layer 3">
    <path class="uuid-6aac2ac4-6335-45d2-8628-4cb610d0c91c" d="M553.24,77.5H246.76c-111.77,0-169.26,57.5-169.26,169.26v306.48c0,111.76,57.49,169.26,169.26,169.26h306.48c111.76,0,169.26-57.49,169.26-169.26V246.76c0-111.77-57.5-169.26-169.26-169.26Z"/>
  </g>
  <g id="uuid-2bd87fc9-be56-41b2-adcc-6b6b4cfd7cda" data-name="Layer 1">
    <g>
      <path class="uuid-59411ae1-9ea4-4993-b3fb-01397c460c38" d="M400,650.9c-6.77,0-13.42-1.78-19.28-5.16l-61.36-36.33c-9.16-5.13-4.7-6.94-1.67-7.99,9.74-3.01,19.07-7.22,27.76-12.55,1.48-.68,3.21-.56,4.57.34l47.15,28.01c1.78.94,3.92.94,5.7,0l183.88-106.13c1.75-1.05,2.82-2.94,2.81-4.98v-212.3c0-2.07-1.08-4-2.85-5.07l-183.88-106.04c-1.76-.99-3.92-.99-5.68,0l-183.77,106.08c-1.78,1.05-2.88,2.96-2.9,5.04v212.21c0,2.04,1.11,3.91,2.89,4.91l50.43,29.11c27.33,13.66,44.07-2.44,44.07-18.6v-209.52c0-2.97,2.41-5.38,5.38-5.38h23.3c2.97,0,5.38,2.41,5.38,5.38h0v209.54c0,36.47-19.86,57.35-54.45,57.35-14.92.26-29.61-3.73-42.35-11.51l-48.34-27.73c-11.94-6.95-19.29-19.73-19.28-33.55v-212.21c-.04-13.84,7.32-26.65,19.28-33.6l183.9-106.17c12.04-6.59,26.6-6.59,38.64,0l183.88,106.17c11.94,6.94,19.29,19.7,19.3,33.51v212.3c-.02,13.82-7.37,26.59-19.3,33.55l-183.88,106.17c-5.87,3.39-12.54,5.17-19.32,5.16Z"/>
      <path class="uuid-59411ae1-9ea4-4993-b3fb-01397c460c38" d="M365.12,435c0-2.97,2.41-5.38,5.38-5.38h23.78c2.62,0,4.86,1.91,5.29,4.5,3.58,24.21,14.34,36.42,62.96,36.42,38.73,0,55.24-8.76,55.24-29.32,0-11.85-4.68-20.65-64.88-26.54-50.32-4.98-81.44-16.13-81.44-56.35,0-37.1,31.27-59.23,83.7-59.23,58.91,0,88.07,20.45,91.76,64.32.23,2.96-1.99,5.55-4.95,5.77-.11,0-.23.01-.34.02h-23.94c-2.47-.03-4.6-1.75-5.16-4.16-5.72-25.47-19.71-33.6-57.35-33.6-42.3,0-47.21,14.73-47.21,25.77,0,13.37,5.81,17.28,62.91,24.82,56.51,7.47,83.35,18.05,83.35,57.76s-33.41,63.01-91.67,63.01c-80.56.11-97.42-36.83-97.42-67.82Z"/>
    </g>
  </g>
</svg>