<?xml version="1.0" encoding="UTF-8"?>
<svg xmlns="http://www.w3.org/2000/svg" xmlns:xlink="http://www.w3.org/1999/xlink" viewBox="0 0 800 800">
  <defs>
    <style>
      .uuid-c0555608-bcbf-46be-a654-3b0be5108565 {
        fill: #333;
      }

      .uuid-c0555608-bcbf-46be-a654-3b0be5108565, .uuid-214eb3f8-6e0f-45ee-ade8-23efa7af41d0, .uuid-7a12bc8c-067a-4bbf-b020-f82f4e34fd85, .uuid-86c732a3-bae3-4c0a-bc0a-96c962186d46, .uuid-39551a22-c64a-468d-b95a-fd6004672f6e, .uuid-d05f3076-d49b-4bdb-a4e5-e957d584acce, .uuid-daf5127c-9976-4fc3-84ac-e7de69c3b2d9, .uuid-1462cab2-098b-435a-8bc4-de4d605f08b2, .uuid-f7e146d4-9cae-400a-881d-0fab13198213, .uuid-3d94f05e-65c3-479a-ba86-79754ac19c3a, .uuid-5315931d-1039-4b26-ad7d-19f731a1369f {
        stroke-width: 0px;
      }

      .uuid-214eb3f8-6e0f-45ee-ade8-23efa7af41d0 {
        fill: url(#uuid-5a404415-6cf2-44ca-ad33-ca04f84bdb17);
      }

      .uuid-7a12bc8c-067a-4bbf-b020-f82f4e34fd85 {
        fill: none;
      }

      .uuid-86c732a3-bae3-4c0a-bc0a-96c962186d46 {
        fill: #539e43;
      }

      .uuid-39551a22-c64a-468d-b95a-fd6004672f6e {
        fill: url(#uuid-1c495ba9-c8da-4c99-8b36-d75d19c2d6d1);
      }

      .uuid-d05f3076-d49b-4bdb-a4e5-e957d584acce {
        fill: url(#uuid-163608c0-ecfa-48ce-a632-d8b94f7a46af);
      }

      .uuid-d05f3076-d49b-4bdb-a4e5-e957d584acce, .uuid-daf5127c-9976-4fc3-84ac-e7de69c3b2d9, .uuid-1462cab2-098b-435a-8bc4-de4d605f08b2, .uuid-f7e146d4-9cae-400a-881d-0fab13198213, .uuid-3d94f05e-65c3-479a-ba86-79754ac19c3a {
        fill-rule: evenodd;
      }

      .uuid-daf5127c-9976-4fc3-84ac-e7de69c3b2d9 {
        fill: url(#uuid-3d800a92-fadd-48ad-81af-4b6c38c041b4);
      }

      .uuid-654ab09e-f7dd-4722-a9d0-4668f6680243 {
        mask: url(#uuid-0e6757d5-ef2a-4d03-963c-17b9096126a3);
      }

      .uuid-1462cab2-098b-435a-8bc4-de4d605f08b2 {
        fill: url(#uuid-38d7fbb7-fd7b-465e-8ff3-9e0718efbb6e);
      }

      .uuid-19f468ac-26a6-49f3-acdc-1ddfc0613bc2 {
        mask: url(#uuid-e3d8df1c-a8b1-4e73-86dd-f577e595213b);
      }

      .uuid-f7e146d4-9cae-400a-881d-0fab13198213 {
        fill: url(#uuid-f6f942e2-6847-46d0-a798-6065e27bd37e);
      }

      .uuid-3d94f05e-65c3-479a-ba86-79754ac19c3a {
        fill: url(#uuid-23dd43cd-1f5c-414e-a665-3b9dfc88130f);
      }

      .uuid-5315931d-1039-4b26-ad7d-19f731a1369f {
        fill: #fff;
      }
    </style>
    <linearGradient id="uuid-5a404415-6cf2-44ca-ad33-ca04f84bdb17" x1="2238.06" y1="1705.31" x2="2237.79" y2="1704.83" gradientTransform="translate(-380775.35 331234.63) scale(170.29 -194.04)" gradientUnits="userSpaceOnUse">
      <stop offset="0" stop-color="#41873f"/>
      <stop offset=".33" stop-color="#418b3d"/>
      <stop offset=".64" stop-color="#419637"/>
      <stop offset=".93" stop-color="#3fa92d"/>
      <stop offset="1" stop-color="#3fae2a"/>
    </linearGradient>
    <mask id="uuid-e3d8df1c-a8b1-4e73-86dd-f577e595213b" data-name="mask" x="273.73" y="311.9" width="113.81" height="128.9" maskUnits="userSpaceOnUse">
      <g id="uuid-2e88e9db-b24b-4952-b577-ecc1f28a1ee7" data-name="mask-3">
        <path id="uuid-086176e4-e961-4019-938e-9333e268f2e2" data-name="path-2" class="uuid-5315931d-1039-4b26-ad7d-19f731a1369f" d="M333.75,312.72c-1.92-1.08-4.19-1.08-6.11,0l-50.44,29.11c-1.92,1.08-3,3.11-3,5.27v58.34c0,2.16,1.2,4.19,3,5.27l50.44,29.11c1.92,1.08,4.19,1.08,6.11,0l50.44-29.11c1.92-1.08,3-3.11,3-5.27v-58.34c0-2.16-1.2-4.19-3-5.27l-50.44-29.11h0Z"/>
      </g>
    </mask>
    <linearGradient id="uuid-1c495ba9-c8da-4c99-8b36-d75d19c2d6d1" x1="2237.57" y1="1705.07" x2="2238.34" y2="1705.55" gradientTransform="translate(-371830.73 331093.23) scale(166.32 -193.96)" gradientUnits="userSpaceOnUse">
      <stop offset=".14" stop-color="#41873f"/>
      <stop offset=".4" stop-color="#54a044"/>
      <stop offset=".71" stop-color="#66b848"/>
      <stop offset=".91" stop-color="#6cc04a"/>
    </linearGradient>
    <mask id="uuid-0e6757d5-ef2a-4d03-963c-17b9096126a3" data-name="mask-1" x="273.73" y="302.06" width="115.37" height="140.29" maskUnits="userSpaceOnUse">
      <g id="uuid-00d2e6fd-9af4-4e74-912c-426dea002d2c" data-name="mask-3">
        <path id="uuid-4ae42cbf-e3c9-4211-8a5a-0fa59aa49d62" data-name="path-2" class="uuid-5315931d-1039-4b26-ad7d-19f731a1369f" d="M333.75,312.72c-1.92-1.08-4.19-1.08-6.11,0l-50.44,29.11c-1.92,1.08-3,3.11-3,5.27v58.34c0,2.16,1.2,4.19,3,5.27l50.44,29.11c1.92,1.08,4.19,1.08,6.11,0l50.44-29.11c1.92-1.08,3-3.11,3-5.27v-58.34c0-2.16-1.2-4.19-3-5.27l-50.44-29.11h0Z"/>
      </g>
    </mask>
    <linearGradient id="uuid-3d800a92-fadd-48ad-81af-4b6c38c041b4" x1="624.92" y1="3278.12" x2="689.55" y2="3278.12" gradientTransform="translate(-619.88 2078.2) scale(1.44 -.54)" gradientUnits="userSpaceOnUse">
      <stop offset=".09" stop-color="#6cc04a"/>
      <stop offset=".29" stop-color="#66b848"/>
      <stop offset=".6" stop-color="#54a044"/>
      <stop offset=".86" stop-color="#41873f"/>
    </linearGradient>
    <linearGradient id="uuid-38d7fbb7-fd7b-465e-8ff3-9e0718efbb6e" x1="2237.23" y1="1705.1" x2="2237.93" y2="1705.1" gradientTransform="translate(-371421.33 331360.55) scale(166.14 -194.11)" xlink:href="#uuid-3d800a92-fadd-48ad-81af-4b6c38c041b4"/>
    <linearGradient id="uuid-23dd43cd-1f5c-414e-a665-3b9dfc88130f" x1="-2131.06" y1="2419.71" x2="-2066.43" y2="2419.71" gradientTransform="translate(1508.35 3468.35) scale(.54 -1.26)" xlink:href="#uuid-3d800a92-fadd-48ad-81af-4b6c38c041b4"/>
    <linearGradient id="uuid-f6f942e2-6847-46d0-a798-6065e27bd37e" x1="2223.44" y1="1717.59" x2="2224.79" y2="1717.59" gradientTransform="translate(-190852.84 92546.48) scale(85.96 -53.63)" xlink:href="#uuid-3d800a92-fadd-48ad-81af-4b6c38c041b4"/>
    <linearGradient id="uuid-163608c0-ecfa-48ce-a632-d8b94f7a46af" x1="2224.99" y1="1719.32" x2="2224.15" y2="1716.59" gradientTransform="translate(-190852.84 92546.48) scale(85.96 -53.63)" xlink:href="#uuid-5a404415-6cf2-44ca-ad33-ca04f84bdb17"/>
  </defs>
  <g id="uuid-d609722f-31f2-4fd0-a033-2207d9b5b3e7" data-name="Layer 5">
    <rect class="uuid-7a12bc8c-067a-4bbf-b020-f82f4e34fd85" width="800" height="800"/>
  </g>
  <g id="uuid-68392b03-09cf-407d-96e5-747d16dfb81a" data-name="Layer 3">
    <path class="uuid-5315931d-1039-4b26-ad7d-19f731a1369f" d="M553.24,77.5H246.76c-111.77,0-169.26,57.5-169.26,169.26v306.48c0,111.76,57.49,169.26,169.26,169.26h306.48c111.76,0,169.26-57.49,169.26-169.26V246.76c0-111.77-57.5-169.26-169.26-169.26Z"/>
  </g>
  <g id="uuid-81e1e7b3-334b-4d96-af42-033a86758b11" data-name="Layer 1">
    <g>
      <path class="uuid-86c732a3-bae3-4c0a-bc0a-96c962186d46" d="M397.12,562.27c-1.8,0-3.47-.48-5.03-1.32l-15.93-9.46c-2.4-1.32-1.2-1.8-.48-2.04,3.23-1.08,3.83-1.32,7.19-3.23.36-.24.84-.12,1.2.12l12.22,7.31c.48.24,1.08.24,1.44,0l47.8-27.67c.48-.24.72-.72.72-1.32v-55.23c0-.6-.24-1.08-.72-1.32l-47.8-27.55c-.48-.24-1.08-.24-1.44,0l-47.8,27.55c-.48.24-.72.84-.72,1.32v55.23c0,.48.24,1.08.72,1.32l13.06,7.55c7.07,3.59,11.5-.6,11.5-4.79v-54.51c0-.72.6-1.44,1.44-1.44h6.11c.72,0,1.44.6,1.44,1.44v54.51c0,9.46-5.15,14.98-14.14,14.98-2.76,0-4.91,0-11.02-3l-12.58-7.19c-3.11-1.8-5.03-5.15-5.03-8.75v-55.23c0-3.59,1.92-6.95,5.03-8.75l47.8-27.67c3-1.68,7.07-1.68,10.06,0l47.8,27.67c3.11,1.8,5.03,5.15,5.03,8.75v55.23c0,3.59-1.92,6.95-5.03,8.75l-47.8,27.67c-1.56.72-3.35,1.08-5.03,1.08ZM411.86,524.29c-20.97,0-25.28-9.58-25.28-17.73,0-.72.6-1.44,1.44-1.44h6.23c.72,0,1.32.48,1.32,1.2.96,6.35,3.71,9.46,16.41,9.46,10.06,0,14.38-2.28,14.38-7.67,0-3.11-1.2-5.39-16.89-6.95-13.06-1.32-21.2-4.19-21.2-14.62,0-9.7,8.15-15.45,21.8-15.45,15.33,0,22.88,5.27,23.84,16.77,0,.36-.12.72-.36,1.08-.24.24-.6.48-.96.48h-6.23c-.6,0-1.2-.48-1.32-1.08-1.44-6.59-5.15-8.75-14.98-8.75-11.02,0-12.34,3.83-12.34,6.71,0,3.47,1.56,4.55,16.41,6.47,14.74,1.92,21.68,4.67,21.68,14.98-.12,10.54-8.75,16.53-23.96,16.53Z"/>
      <path class="uuid-c0555608-bcbf-46be-a654-3b0be5108565" d="M248.81,346.27c0-2.16-1.2-4.19-3.11-5.27l-50.8-29.23c-.84-.48-1.8-.72-2.76-.84h-.48c-.96,0-1.92.36-2.76.84l-50.8,29.23c-1.92,1.08-3.11,3.11-3.11,5.27l.12,78.59c0,1.08.6,2.16,1.56,2.64.96.6,2.16.6,3,0l30.19-17.25c1.92-1.08,3.11-3.11,3.11-5.27v-36.78c0-2.16,1.2-4.19,3.11-5.27l12.82-7.43c.96-.6,2.04-.84,3.11-.84s2.16.24,3,.84l12.82,7.43c1.92,1.08,3.11,3.11,3.11,5.27v36.78c0,2.16,1.2,4.19,3.11,5.27l30.19,17.25c.96.6,2.16.6,3.11,0,.96-.48,1.56-1.56,1.56-2.64l-.12-78.59h0Z"/>
      <path class="uuid-c0555608-bcbf-46be-a654-3b0be5108565" d="M492.97,238.09c-.96-.48-2.16-.48-3,0-.96.6-1.56,1.56-1.56,2.64v77.87c0,.72-.36,1.44-1.08,1.92-.72.36-1.44.36-2.16,0l-12.7-7.31c-1.92-1.08-4.19-1.08-6.11,0l-50.8,29.35c-1.92,1.08-3.11,3.11-3.11,5.27v58.58c0,2.16,1.2,4.19,3.11,5.27l50.8,29.35c1.92,1.08,4.19,1.08,6.11,0l50.8-29.35c1.92-1.08,3.11-3.11,3.11-5.27v-146.04c0-2.28-1.2-4.31-3.11-5.39l-30.31-16.89h0ZM488.29,387.12c0,.6-.24,1.08-.72,1.32l-17.37,10.06c-.48.24-1.08.24-1.56,0l-17.37-10.06c-.48-.24-.72-.84-.72-1.32v-20.13c0-.6.24-1.08.72-1.32l17.37-10.06c.48-.24,1.08-.24,1.56,0l17.37,10.06c.48.24.72.84.72,1.32v20.13h0Z"/>
      <g>
        <path class="uuid-c0555608-bcbf-46be-a654-3b0be5108565" d="M662,366.52c1.92-1.08,3-3.11,3-5.27v-14.26c0-2.16-1.2-4.19-3-5.27l-50.44-29.23c-1.92-1.08-4.19-1.08-6.11,0l-50.8,29.35c-1.92,1.08-3.11,3.11-3.11,5.27v58.58c0,2.16,1.2,4.19,3.11,5.27l50.44,28.75c1.92,1.08,4.19,1.08,5.99,0l30.55-17.01c.96-.48,1.56-1.56,1.56-2.64s-.6-2.16-1.56-2.64l-51.04-29.35c-.96-.6-1.56-1.56-1.56-2.64v-18.33c0-1.08.6-2.16,1.56-2.64l15.93-9.1c.96-.6,2.16-.6,3.11,0l15.93,9.1c.96.6,1.56,1.56,1.56,2.64v14.38c0,1.08.6,2.16,1.56,2.64.96.6,2.16.6,3.11,0l30.19-17.61h0Z"/>
        <path class="uuid-86c732a3-bae3-4c0a-bc0a-96c962186d46" d="M607.74,363.76c.36-.24.84-.24,1.2,0l9.7,5.63c.36.24.6.6.6,1.08v11.26c0,.48-.24.84-.6,1.08l-9.7,5.63c-.36.24-.84.24-1.2,0l-9.7-5.63c-.36-.24-.6-.6-.6-1.08v-11.26c0-.48.24-.84.6-1.08l9.7-5.63h0Z"/>
      </g>
      <g>
        <path id="uuid-22f9de45-b953-40da-815c-69f1a5109bdf" data-name="path-2" class="uuid-214eb3f8-6e0f-45ee-ade8-23efa7af41d0" d="M333.75,312.72c-1.92-1.08-4.19-1.08-6.11,0l-50.44,29.11c-1.92,1.08-3,3.11-3,5.27v58.34c0,2.16,1.2,4.19,3,5.27l50.44,29.11c1.92,1.08,4.19,1.08,6.11,0l50.44-29.11c1.92-1.08,3-3.11,3-5.27v-58.34c0-2.16-1.2-4.19-3-5.27l-50.44-29.11h0Z"/>
        <g class="uuid-19f468ac-26a6-49f3-acdc-1ddfc0613bc2">
          <g>
            <path class="uuid-7a12bc8c-067a-4bbf-b020-f82f4e34fd85" d="M327.52,312.72l-50.56,29.11c-1.92,1.08-3.23,3.11-3.23,5.27v58.34c0,1.44.6,2.76,1.56,3.83l56.79-97.28c-1.44-.24-3.11-.12-4.55.72h0Z"/>
            <path class="uuid-7a12bc8c-067a-4bbf-b020-f82f4e34fd85" d="M332.43,440.43c.48-.12.96-.36,1.44-.6l50.56-29.11c1.92-1.08,3.11-3.11,3.11-5.27v-58.34c0-1.56-.72-3.11-1.8-4.19l-53.31,97.52h0Z"/>
            <path class="uuid-39551a22-c64a-468d-b95a-fd6004672f6e" d="M384.31,341.84l-50.68-29.11c-.48-.24-1.08-.48-1.56-.6l-56.79,97.28c.48.6,1.08,1.08,1.68,1.44l50.68,29.11c1.44.84,3.11,1.08,4.67.6l53.31-97.52c-.36-.48-.84-.84-1.32-1.2h0Z"/>
          </g>
        </g>
        <g class="uuid-654ab09e-f7dd-4722-a9d0-4668f6680243">
          <g>
            <path class="uuid-7a12bc8c-067a-4bbf-b020-f82f4e34fd85" d="M387.54,405.45v-58.34c0-2.16-1.32-4.19-3.23-5.27l-50.68-29.11c-.6-.36-1.2-.6-1.92-.72l55.47,94.76c.24-.36.36-.84.36-1.32h0Z"/>
            <path class="uuid-7a12bc8c-067a-4bbf-b020-f82f4e34fd85" d="M276.96,341.84c-1.92,1.08-3.23,3.11-3.23,5.27v58.34c0,2.16,1.44,4.19,3.23,5.27l50.68,29.11c1.2.72,2.52.96,3.95.72l-54.27-98.84-.36.12h0Z"/>
            <path class="uuid-daf5127c-9976-4fc3-84ac-e7de69c3b2d9" d="M325.96,302.06l-.72.36h.96l-.24-.36Z"/>
            <path class="uuid-1462cab2-098b-435a-8bc4-de4d605f08b2" d="M384.43,410.72c1.44-.84,2.52-2.28,3-3.83l-55.59-94.88c-1.44-.24-3-.12-4.31.72l-50.32,28.99,54.27,98.96c.72-.12,1.56-.36,2.28-.72l50.68-29.23h0Z"/>
            <path class="uuid-3d94f05e-65c3-479a-ba86-79754ac19c3a" d="M389.1,409.76l-.36-.6v.84l.36-.24Z"/>
            <path class="uuid-f7e146d4-9cae-400a-881d-0fab13198213" d="M384.43,410.72l-50.56,29.11c-.72.36-1.44.6-2.28.72l.96,1.8,56.07-32.47v-.72l-1.44-2.4c-.24,1.68-1.32,3.11-2.76,3.95h0Z"/>
            <path class="uuid-d05f3076-d49b-4bdb-a4e5-e957d584acce" d="M384.43,410.72l-50.56,29.11c-.72.36-1.44.6-2.28.72l.96,1.8,56.07-32.47v-.72l-1.44-2.4c-.24,1.68-1.32,3.11-2.76,3.95h0Z"/>
          </g>
        </g>
      </g>
    </g>
  </g>
</svg>