<?xml version="1.0" encoding="UTF-8"?>
<svg xmlns="http://www.w3.org/2000/svg" viewBox="0 0 800 800">
  <defs>
    <style>
      .uuid-a9e79f4c-300c-4e74-856e-f7213ce661b4 {
        fill: none;
      }

      .uuid-a9e79f4c-300c-4e74-856e-f7213ce661b4, .uuid-db746312-f9c7-4a4e-b955-264b2c95c3b6, .uuid-ef7fbd43-b567-46bf-9d96-b876987de1d3, .uuid-e43d6a37-d3d5-4dcf-8ad9-8327d19de0cf {
        stroke-width: 0px;
      }

      .uuid-db746312-f9c7-4a4e-b955-264b2c95c3b6, .uuid-e43d6a37-d3d5-4dcf-8ad9-8327d19de0cf {
        fill: #000;
      }

      .uuid-ef7fbd43-b567-46bf-9d96-b876987de1d3 {
        fill: #fff;
      }

      .uuid-ef7fbd43-b567-46bf-9d96-b876987de1d3, .uuid-e43d6a37-d3d5-4dcf-8ad9-8327d19de0cf {
        fill-rule: evenodd;
      }
    </style>
  </defs>
  <g id="uuid-160ead1a-b90e-4bc5-8dcd-9ae8f66bc78d" data-name="Layer 5">
    <rect class="uuid-a9e79f4c-300c-4e74-856e-f7213ce661b4" width="800" height="800"/>
  </g>
  <g id="uuid-9b0ad6ac-9d07-4d01-b630-09f8789758f0" data-name="Layer 1">
    <g>
      <path class="uuid-ef7fbd43-b567-46bf-9d96-b876987de1d3" d="M178.89,684.18l-73.95-92.12c-17.79-22.16-27.45-49.42-27.45-77.47V181.02c0-42.02,33.62-76.88,76.99-79.85l342.95-23.42c24.92-1.7,49.68,4.92,70.15,18.76l120.49,81.47c21.57,14.58,34.42,38.42,34.42,63.86v379.24c0,41.12-33.05,75.17-75.52,77.78l-380.64,23.43c-33.88,2.09-66.64-12.19-87.45-38.12Z"/>
      <path class="uuid-db746312-f9c7-4a4e-b955-264b2c95c3b6" d="M297.83,347.94v-4.37c0-11.07,8.87-20.25,20.29-21.01l83.23-5.56,115.1,169.5v-148.77l-29.63-3.95v-2.07c0-11.2,9.07-20.44,20.64-21.04l75.73-3.88v10.9c0,5.11-3.81,9.49-9.02,10.37l-18.23,3.08v240.92l-22.87,7.86c-19.11,6.57-40.38-.46-51.32-16.97l-111.75-168.63v160.94l34.39,6.58-.48,3.19c-1.5,9.99-10.13,17.55-20.57,18.02l-85.55,3.81c-1.13-10.75,6.92-20.36,18.03-21.53l11.25-1.18v-214.59l-29.29-1.64Z"/>
      <path class="uuid-e43d6a37-d3d5-4dcf-8ad9-8327d19de0cf" d="M500.51,119.79l-342.96,23.42c-20.54,1.4-36.47,17.92-36.47,37.82v333.57c0,18.7,6.44,36.87,18.3,51.65l73.95,92.12c11.96,14.89,30.77,23.1,50.24,21.9l380.64-23.43c19.51-1.2,34.7-16.85,34.7-35.74V241.85c0-11.69-5.9-22.64-15.81-29.34l-120.49-81.47c-12.28-8.3-27.14-12.28-42.09-11.26ZM174.56,186.23c-4.77-3.53-2.5-10.89,3.49-11.32l324.76-23.29c10.35-.74,20.63,2.11,29,8.04l65.16,46.17c2.47,1.75,1.31,5.54-1.75,5.7l-343.92,18.7c-10.41.57-20.68-2.49-28.96-8.62l-47.78-35.38ZM235.17,288.86c0-11.17,9.03-20.4,20.57-21.03l363.62-19.8c11.25-.61,20.72,8.04,20.72,18.93v328.38c0,11.15-8.99,20.37-20.51,21.03l-361.32,20.56c-12.52.71-23.08-8.91-23.08-21.03v-327.03Z"/>
    </g>
  </g>
</svg>