<?xml version="1.0" encoding="UTF-8"?>
<svg xmlns="http://www.w3.org/2000/svg" xmlns:xlink="http://www.w3.org/1999/xlink" viewBox="0 0 800 800">
  <defs>
    <style>
      .uuid-457908aa-fd63-4693-9d32-ec113cb4e084 {
        fill: none;
      }

      .uuid-457908aa-fd63-4693-9d32-ec113cb4e084, .uuid-c403ceb4-af6e-44a4-9e03-66a40cc779c0, .uuid-af70c173-30b1-47f8-ad4e-e2c263ddb6ca, .uuid-3c7f04e7-bcfb-4360-b2c3-4d788f16e8bf, .uuid-526c276f-1b81-4fef-a6ac-b29f85e0d8b4 {
        stroke-width: 0px;
      }

      .uuid-c403ceb4-af6e-44a4-9e03-66a40cc779c0 {
        fill: #1e415d;
      }

      .uuid-af70c173-30b1-47f8-ad4e-e2c263ddb6ca {
        fill: url(#uuid-b10b2d7f-fbaf-4723-89e7-f3ac9666db82);
      }

      .uuid-3c7f04e7-bcfb-4360-b2c3-4d788f16e8bf {
        fill: url(#uuid-d36ca4aa-e950-477a-998e-d3ccfda59d1d);
      }

      .uuid-526c276f-1b81-4fef-a6ac-b29f85e0d8b4 {
        fill: #fff;
      }
    </style>
    <linearGradient id="uuid-d36ca4aa-e950-477a-998e-d3ccfda59d1d" x1="-448.03" y1="1702.16" x2="-447.66" y2="1701.79" gradientTransform="translate(265374.07 1009842.59) scale(591.82 -593.14)" gradientUnits="userSpaceOnUse">
      <stop offset="0" stop-color="#387eb8"/>
      <stop offset="1" stop-color="#366994"/>
    </linearGradient>
    <linearGradient id="uuid-b10b2d7f-fbaf-4723-89e7-f3ac9666db82" x1="-448.15" y1="1702.26" x2="-447.75" y2="1701.88" gradientTransform="translate(265580.32 1010043.45) scale(591.82 -593.14)" gradientUnits="userSpaceOnUse">
      <stop offset="0" stop-color="#ffe052"/>
      <stop offset="1" stop-color="#ffc331"/>
    </linearGradient>
  </defs>
  <g id="uuid-0c4b3aaf-2948-46d8-b2bb-e3c6db165961" data-name="Layer 5">
    <rect class="uuid-457908aa-fd63-4693-9d32-ec113cb4e084" width="800" height="800"/>
  </g>
  <g id="uuid-a719b247-1ef4-416a-9b03-b6dc3adf9c93" data-name="Layer 3">
    <path class="uuid-c403ceb4-af6e-44a4-9e03-66a40cc779c0" d="M553.24,77.5H246.76c-111.77,0-169.26,57.5-169.26,169.26v306.48c0,111.76,57.49,169.26,169.26,169.26h306.48c111.76,0,169.26-57.49,169.26-169.26V246.76c0-111.77-57.5-169.26-169.26-169.26Z"/>
  </g>
  <g id="uuid-26d84f57-2c0d-43f1-9ccc-0ae9fdd2d5ce" data-name="Layer 1">
    <g>
      <path class="uuid-3c7f04e7-bcfb-4360-b2c3-4d788f16e8bf" d="M398.4,178.66c-112.97,0-105.92,48.99-105.92,48.99l.13,50.75h107.8v15.24h-150.62s-72.29-8.2-72.29,105.79,63.1,109.94,63.1,109.94h37.65v-52.89s-2.03-63.1,62.09-63.1h106.92s60.07.97,60.07-58.05v-97.61s9.12-59.06-108.93-59.06ZM338.95,251.58c-10.72,0-19.39-8.67-19.39-19.4s8.67-19.39,19.39-19.39,19.4,8.67,19.4,19.39-8.67,19.4-19.4,19.4Z"/>
      <path class="uuid-526c276f-1b81-4fef-a6ac-b29f85e0d8b4" d="M358.35,232.18c0,10.73-8.67,19.4-19.4,19.4s-19.39-8.67-19.39-19.4,8.67-19.39,19.39-19.39,19.4,8.67,19.4,19.39Z"/>
      <path class="uuid-af70c173-30b1-47f8-ad4e-e2c263ddb6ca" d="M559.4,290.63h-37.65v52.89s2.03,63.1-62.09,63.1h-106.92s-60.07-.97-60.07,58.05v97.61s-9.12,59.06,108.93,59.06,105.92-48.99,105.92-48.99l-.13-50.75h-107.8v-15.24h150.62s72.29,8.2,72.29-105.79-63.1-109.94-63.1-109.94ZM461.05,548.42c10.72,0,19.39,8.67,19.39,19.4s-8.67,19.39-19.39,19.39-19.4-8.67-19.4-19.39,8.67-19.4,19.4-19.4Z"/>
      <path class="uuid-526c276f-1b81-4fef-a6ac-b29f85e0d8b4" d="M480.44,567.82c0,10.72-8.67,19.39-19.39,19.39s-19.4-8.67-19.4-19.39,8.67-19.4,19.4-19.4,19.39,8.67,19.39,19.4Z"/>
    </g>
  </g>
</svg>