<?xml version="1.0" encoding="UTF-8"?>
<svg xmlns="http://www.w3.org/2000/svg" viewBox="0 0 800 800">
  <defs>
    <style>
      .uuid-ba40c690-a1bc-4326-b540-6e898fef55eb {
        fill: none;
      }

      .uuid-ba40c690-a1bc-4326-b540-6e898fef55eb, .uuid-1232df9e-bbcf-4fb3-9f77-2e3eb0a2db55, .uuid-a06aee93-bd89-40f9-b427-109fcb02f30c {
        stroke-width: 0px;
      }

      .uuid-1232df9e-bbcf-4fb3-9f77-2e3eb0a2db55 {
        fill: #00d8ff;
      }

      .uuid-a06aee93-bd89-40f9-b427-109fcb02f30c {
        fill: #23272f;
      }
    </style>
  </defs>
  <g id="uuid-b22177a3-90c7-4140-b57a-30a093c4552f" data-name="Layer 5">
    <rect class="uuid-ba40c690-a1bc-4326-b540-6e898fef55eb" width="800" height="800"/>
  </g>
  <g id="uuid-1f864bd1-f758-4f09-ace6-cee50f631aae" data-name="Layer 3">
    <path class="uuid-a06aee93-bd89-40f9-b427-109fcb02f30c" d="M553.24,77.5H246.76c-111.77,0-169.26,57.5-169.26,169.26v306.48c0,111.76,57.49,169.26,169.26,169.26h306.48c111.76,0,169.26-57.49,169.26-169.26V246.76c0-111.77-57.5-169.26-169.26-169.26Z"/>
  </g>
  <g id="uuid-69bd1f93-e896-41b1-94f2-26dbacb61849" data-name="Layer 1">
    <path class="uuid-1232df9e-bbcf-4fb3-9f77-2e3eb0a2db55" d="M543.38,330.36c-4.62-1.59-9.4-3.09-14.33-4.51.81-3.3,1.55-6.56,2.21-9.77,10.84-52.64,3.75-95.04-20.46-109-23.21-13.39-61.18.57-99.52,33.94-3.69,3.21-7.38,6.61-11.08,10.17-2.46-2.36-4.92-4.63-7.37-6.81-40.19-35.68-80.46-50.72-104.65-36.72-23.19,13.43-30.06,53.29-20.3,103.17.94,4.82,2.04,9.74,3.29,14.74-5.7,1.62-11.2,3.34-16.47,5.18-47.11,16.43-77.2,42.17-77.2,68.87s32.3,55.24,81.37,72.01c3.87,1.32,7.89,2.58,12.03,3.76-1.34,5.41-2.51,10.71-3.49,15.88-9.31,49.02-2.04,87.94,21.09,101.28,23.89,13.78,63.99-.38,103.03-34.51,3.09-2.7,6.18-5.56,9.29-8.56,4.02,3.87,8.04,7.54,12.03,10.98,37.82,32.54,75.17,45.69,98.28,32.31,23.87-13.82,31.63-55.63,21.55-106.5-.77-3.89-1.66-7.85-2.67-11.89,2.82-.83,5.58-1.69,8.28-2.59,51.01-16.9,84.21-44.23,84.21-72.17s-31.06-52.72-79.12-69.26h0ZM532.31,453.75c-2.43.81-4.93,1.58-7.47,2.34-5.63-17.83-13.23-36.79-22.53-56.38,8.88-19.12,16.18-37.84,21.66-55.55,4.55,1.32,8.97,2.71,13.23,4.17,41.18,14.18,66.3,35.14,66.3,51.29,0,17.2-27.13,39.53-71.18,54.13h0ZM514.04,489.97c4.45,22.49,5.09,42.83,2.14,58.73-2.65,14.29-7.98,23.81-14.57,27.63-14.02,8.12-44.01-2.43-76.36-30.27-3.71-3.19-7.44-6.6-11.19-10.2,12.54-13.71,25.07-29.66,37.3-47.36,21.51-1.91,41.84-5.03,60.27-9.29.91,3.66,1.71,7.25,2.41,10.76h0ZM329.21,574.93c-13.7,4.84-24.61,4.98-31.21,1.17-14.04-8.1-19.87-39.35-11.91-81.27.91-4.8,2-9.73,3.25-14.77,18.23,4.03,38.4,6.93,59.97,8.68,12.31,17.33,25.21,33.25,38.2,47.19-2.84,2.74-5.67,5.35-8.48,7.81-17.27,15.09-34.57,25.8-49.81,31.18h0ZM265.02,453.65c-21.7-7.42-39.62-17.06-51.9-27.57-11.04-9.45-16.61-18.84-16.61-26.45,0-16.2,24.16-36.87,64.45-50.92,4.89-1.7,10.01-3.31,15.32-4.82,5.57,18.11,12.87,37.05,21.69,56.2-8.93,19.43-16.34,38.67-21.96,57-3.79-1.09-7.45-2.23-10.98-3.44h0ZM286.54,307.18c-8.36-42.74-2.81-74.98,11.17-83.07,14.89-8.62,47.81,3.67,82.5,34.48,2.22,1.97,4.44,4.03,6.68,6.16-12.93,13.88-25.71,29.69-37.91,46.91-20.93,1.94-40.96,5.06-59.38,9.23-1.16-4.66-2.18-9.24-3.06-13.71h0ZM478.49,354.58c-4.4-7.61-8.92-15.03-13.53-22.25,14.2,1.79,27.8,4.18,40.58,7.09-3.84,12.29-8.62,25.14-14.24,38.32-4.04-7.66-8.31-15.39-12.8-23.16h0ZM400.21,278.34c8.77,9.5,17.55,20.11,26.19,31.61-8.7-.41-17.51-.62-26.4-.62s-17.55.21-26.2.61c8.65-11.4,17.5-21.99,26.41-31.6h0ZM321.43,354.71c-4.4,7.63-8.59,15.31-12.56,23.01-5.54-13.13-10.27-26.04-14.14-38.51,12.7-2.84,26.24-5.16,40.34-6.93-4.67,7.29-9.23,14.77-13.64,22.42h0ZM335.48,468.31c-14.58-1.63-28.32-3.83-41.01-6.59,3.93-12.69,8.77-25.87,14.42-39.29,3.98,7.69,8.19,15.38,12.62,23.03h0c4.51,7.79,9.18,15.41,13.97,22.85h0ZM400.74,522.25c-9.01-9.72-18-20.47-26.77-32.04,8.52.33,17.21.51,26.04.51s18.04-.2,26.86-.6c-8.67,11.78-17.41,22.55-26.12,32.13h0ZM491.47,421.75c5.95,13.56,10.96,26.67,14.94,39.15-12.9,2.94-26.83,5.31-41.51,7.08,4.62-7.32,9.18-14.87,13.66-22.64,4.53-7.86,8.84-15.73,12.91-23.58h0ZM462.1,435.83c-6.96,12.06-14.1,23.58-21.35,34.44-13.21.94-26.85,1.43-40.75,1.43s-27.32-.43-40.29-1.27c-7.54-11.01-14.84-22.56-21.75-34.5h0c-6.89-11.91-13.24-23.91-18.99-35.85,5.75-11.97,12.08-23.99,18.93-35.87h0c6.87-11.91,14.1-23.41,21.58-34.35,13.23-1,26.81-1.52,40.52-1.52h0c13.78,0,27.37.53,40.6,1.54,7.36,10.86,14.54,22.32,21.44,34.24,6.98,12.05,13.39,23.99,19.18,35.7-5.78,11.91-12.17,23.97-19.12,36.02h0ZM501.32,223.55c14.9,8.59,20.7,43.25,11.33,88.7-.6,2.9-1.27,5.85-2,8.85-18.46-4.26-38.51-7.43-59.5-9.4-12.23-17.41-24.9-33.24-37.62-46.95,3.42-3.29,6.83-6.43,10.23-9.39,32.85-28.59,63.56-39.88,77.55-31.81h0ZM400,359.89c21.95,0,39.74,17.79,39.74,39.74s-17.79,39.74-39.74,39.74-39.74-17.79-39.74-39.74,17.79-39.74,39.74-39.74h0Z"/>
  </g>
</svg>