<?xml version="1.0" encoding="UTF-8"?>
<svg xmlns="http://www.w3.org/2000/svg" viewBox="0 0 800 800">
  <defs>
    <style>
      .uuid-8ca6bfd4-5bc7-48f0-832a-3daccd23b582 {
        fill: #fdb300;
      }

      .uuid-8ca6bfd4-5bc7-48f0-832a-3daccd23b582, .uuid-7aaf6753-c667-4433-87c4-c09b6b2fe961, .uuid-d2e76dde-d29e-4867-a380-514b8634020b, .uuid-54940c1f-d6f6-4bc8-bc8c-938a9ffdbb93, .uuid-b3ed546c-7b67-4aa6-b295-e7b084e00054, .uuid-509e66c1-c11a-46ef-9761-cec698274d61, .uuid-61257cdb-35c2-4e3a-bf34-1889cbfe17bf {
        stroke-width: 0px;
      }

      .uuid-7aaf6753-c667-4433-87c4-c09b6b2fe961 {
        fill: none;
      }

      .uuid-d2e76dde-d29e-4867-a380-514b8634020b {
        fill: #ea6c00;
      }

      .uuid-54940c1f-d6f6-4bc8-bc8c-938a9ffdbb93 {
        fill: #fdd231;
      }

      .uuid-b3ed546c-7b67-4aa6-b295-e7b084e00054 {
        fill: #fdad00;
      }

      .uuid-509e66c1-c11a-46ef-9761-cec698274d61 {
        fill: #feeeb7;
      }

      .uuid-61257cdb-35c2-4e3a-bf34-1889cbfe17bf {
        fill: #fff;
      }
    </style>
  </defs>
  <g id="uuid-0d456ff1-9e47-4c16-b0b9-fb295df21c86" data-name="Layer 5">
    <rect class="uuid-7aaf6753-c667-4433-87c4-c09b6b2fe961" width="800" height="800"/>
  </g>
  <g id="uuid-e8b9fa98-bcb1-4655-afa3-7b9d32e6328d" data-name="Layer 3">
    <path class="uuid-61257cdb-35c2-4e3a-bf34-1889cbfe17bf" d="M553.24,77.5H246.76c-111.77,0-169.26,57.5-169.26,169.26v306.48c0,111.76,57.49,169.26,169.26,169.26h306.48c111.76,0,169.26-57.49,169.26-169.26V246.76c0-111.77-57.5-169.26-169.26-169.26Z"/>
  </g>
  <g id="uuid-d11e7366-42c2-4580-b91a-c9032ab1bb97" data-name="Layer 1">
    <g>
      <path class="uuid-8ca6bfd4-5bc7-48f0-832a-3daccd23b582" d="M274.59,213.42l125.41-13.14,125.41,13.16,97.09,129.35-222.5,256.94-222.5-256.94,97.09-129.37Z"/>
      <polygon class="uuid-d2e76dde-d29e-4867-a380-514b8634020b" points="267.63 342.71 400 599.73 177.5 342.71 267.63 342.71"/>
      <polygon class="uuid-d2e76dde-d29e-4867-a380-514b8634020b" points="532.37 342.71 400 599.73 622.5 342.71 532.37 342.71"/>
      <polygon class="uuid-b3ed546c-7b67-4aa6-b295-e7b084e00054" points="267.63 342.71 532.37 342.71 400 599.73 267.63 342.71"/>
      <polygon class="uuid-54940c1f-d6f6-4bc8-bc8c-938a9ffdbb93" points="400 200.27 274.59 213.42 267.63 342.71 400 200.27"/>
      <polygon class="uuid-54940c1f-d6f6-4bc8-bc8c-938a9ffdbb93" points="400 200.27 525.41 213.42 532.37 342.71 400 200.27"/>
      <polygon class="uuid-b3ed546c-7b67-4aa6-b295-e7b084e00054" points="622.5 342.71 525.41 213.42 532.37 342.71 622.5 342.71"/>
      <polygon class="uuid-b3ed546c-7b67-4aa6-b295-e7b084e00054" points="177.5 342.71 274.59 213.42 267.63 342.71 177.5 342.71"/>
      <polygon class="uuid-509e66c1-c11a-46ef-9761-cec698274d61" points="400 200.27 267.63 342.71 532.37 342.71 400 200.27"/>
    </g>
  </g>
</svg>