<?xml version="1.0" encoding="UTF-8"?>
<svg xmlns="http://www.w3.org/2000/svg" viewBox="0 0 800 800">
  <defs>
    <style>
      .uuid-9aeb2c61-582c-4e85-8371-19fcbdf1d217 {
        fill: none;
      }

      .uuid-9aeb2c61-582c-4e85-8371-19fcbdf1d217, .uuid-005313c5-5c49-43ee-9436-ed1d6742a0d4, .uuid-201a1bf1-8f53-4b51-9e8b-b9aededb0bb7, .uuid-454d340e-95ab-49d8-b26c-b402cf3dcb33, .uuid-79fbbb8b-2a83-48da-a15a-cc4f96cd07b4, .uuid-be05f609-e17f-4eb7-9091-98f8cfc67ebd {
        stroke-width: 0px;
      }

      .uuid-005313c5-5c49-43ee-9436-ed1d6742a0d4 {
        fill: #e01e5a;
      }

      .uuid-201a1bf1-8f53-4b51-9e8b-b9aededb0bb7 {
        fill: #ecb22e;
      }

      .uuid-454d340e-95ab-49d8-b26c-b402cf3dcb33 {
        fill: #2eb67d;
      }

      .uuid-79fbbb8b-2a83-48da-a15a-cc4f96cd07b4 {
        fill: #36c5f0;
      }

      .uuid-be05f609-e17f-4eb7-9091-98f8cfc67ebd {
        fill: #fff;
      }
    </style>
  </defs>
  <g id="uuid-fe070578-8724-4c9e-9015-88c50e549eca" data-name="Layer 5">
    <rect class="uuid-9aeb2c61-582c-4e85-8371-19fcbdf1d217" width="800" height="800"/>
  </g>
  <g id="uuid-9c41bed1-ad1e-4926-9474-24db92ed7d65" data-name="Layer 3">
    <g>
      <path class="uuid-be05f609-e17f-4eb7-9091-98f8cfc67ebd" d="M553.24,77.5H246.76c-111.77,0-169.26,57.5-169.26,169.26v306.48c0,111.76,57.49,169.26,169.26,169.26h306.48c111.76,0,169.26-57.49,169.26-169.26V246.76c0-111.77-57.5-169.26-169.26-169.26Z"/>
      <g>
        <path class="uuid-454d340e-95ab-49d8-b26c-b402cf3dcb33" d="M579.71,382.88c23.63,0,42.79-19.16,42.79-42.79s-19.16-42.79-42.79-42.79-42.79,19.16-42.79,42.79v42.78h42.79ZM459.9,382.88c23.63,0,42.79-19.16,42.79-42.79v-119.8c0-23.63-19.16-42.79-42.79-42.79s-42.79,19.16-42.79,42.79v119.8c0,23.63,19.16,42.79,42.79,42.79Z"/>
        <path class="uuid-005313c5-5c49-43ee-9436-ed1d6742a0d4" d="M220.28,417.12c-23.63,0-42.78,19.16-42.78,42.79s19.16,42.79,42.79,42.79,42.79-19.16,42.79-42.79v-42.78h-42.79ZM340.1,417.12c-23.63,0-42.79,19.16-42.79,42.79v119.8c0,23.63,19.16,42.79,42.79,42.79s42.79-19.16,42.79-42.79v-119.8c0-23.63-19.16-42.79-42.79-42.79Z"/>
        <path class="uuid-201a1bf1-8f53-4b51-9e8b-b9aededb0bb7" d="M417.12,579.71c0,23.63,19.16,42.79,42.79,42.79s42.79-19.16,42.79-42.79-19.16-42.79-42.79-42.79h-42.78v42.79ZM417.12,459.9c0,23.63,19.16,42.79,42.79,42.79h119.8c23.63,0,42.79-19.16,42.79-42.79s-19.16-42.79-42.79-42.79h-119.8c-23.63,0-42.79,19.16-42.79,42.79Z"/>
        <path class="uuid-79fbbb8b-2a83-48da-a15a-cc4f96cd07b4" d="M382.88,220.28c0-23.63-19.16-42.78-42.79-42.78s-42.79,19.16-42.79,42.79,19.16,42.79,42.79,42.79h42.78v-42.79ZM382.88,340.1c0-23.63-19.16-42.79-42.79-42.79h-119.8c-23.63,0-42.79,19.16-42.79,42.79s19.16,42.79,42.79,42.79h119.8c23.63,0,42.79-19.16,42.79-42.79Z"/>
      </g>
    </g>
  </g>
</svg>