<?xml version="1.0" encoding="UTF-8"?>
<svg xmlns="http://www.w3.org/2000/svg" xmlns:xlink="http://www.w3.org/1999/xlink" viewBox="0 0 800 800">
  <defs>
    <style>
      .uuid-ea5a44b7-160f-43d5-b40b-1a3f4668516f {
        fill: #0f80cc;
      }

      .uuid-ea5a44b7-160f-43d5-b40b-1a3f4668516f, .uuid-687d3209-953b-4a3e-9457-086ee577d533, .uuid-a1033e57-4cf7-4738-83f7-a7cc2db5905f, .uuid-6c8cfc3b-2191-4649-b88c-0d3092433e13, .uuid-368750f2-ebdc-4f55-93e9-58cd25eb0f3c {
        stroke-width: 0px;
      }

      .uuid-687d3209-953b-4a3e-9457-086ee577d533 {
        fill: none;
      }

      .uuid-a1033e57-4cf7-4738-83f7-a7cc2db5905f {
        fill: url(#uuid-2d14aff7-fc4c-4905-af62-d0603a900ad9);
      }

      .uuid-6c8cfc3b-2191-4649-b88c-0d3092433e13 {
        fill: #fff;
      }

      .uuid-368750f2-ebdc-4f55-93e9-58cd25eb0f3c {
        fill: #003b57;
      }
    </style>
    <linearGradient id="uuid-2d14aff7-fc4c-4905-af62-d0603a900ad9" x1="-1342.66" y1="2608.17" x2="-1342.66" y2="2607.56" gradientTransform="translate(310229.84 636170.5) scale(230.89 -243.8)" gradientUnits="userSpaceOnUse">
      <stop offset="0" stop-color="#97d9f6"/>
      <stop offset=".92" stop-color="#0f80cc"/>
      <stop offset="1" stop-color="#0f80cc"/>
    </linearGradient>
  </defs>
  <g id="uuid-47721351-b00e-4439-b09c-d7feacab3439" data-name="Layer 5">
    <rect class="uuid-687d3209-953b-4a3e-9457-086ee577d533" width="800" height="800"/>
  </g>
  <g id="uuid-d1f9a325-d969-4358-b3f5-6735456674af" data-name="Layer 3">
    <path class="uuid-6c8cfc3b-2191-4649-b88c-0d3092433e13" d="M553.24,77.5H246.76c-111.77,0-169.26,57.5-169.26,169.26v306.48c0,111.76,57.49,169.26,169.26,169.26h306.48c111.76,0,169.26-57.49,169.26-169.26V246.76c0-111.77-57.5-169.26-169.26-169.26Z"/>
  </g>
  <g id="uuid-9bd82f13-f2e1-493e-be63-920f4a2ab885" data-name="Layer 1">
    <g>
      <path class="uuid-368750f2-ebdc-4f55-93e9-58cd25eb0f3c" d="M336.44,398.42c-7.06,0-12.81,2.09-17.21,6.27-4.4,4.18-6.64,9.67-6.64,16.39,0,3.48.55,6.66,1.65,9.57,1.09,2.92,2.79,5.62,5.08,8.06,2.29,2.44,6.86,5.76,13.69,9.98,8.37,5.11,13.85,9.26,16.48,12.5,2.63,3.24,3.94,6.63,3.94,10.16,0,4.73-1.56,8.51-4.76,11.35-3.21,2.84-7.5,4.26-12.82,4.26-5.61,0-10.5-1.98-14.69-5.9-4.2-3.93-6.31-9.13-6.36-15.65h-2.61v23.66h2.61c.8-2.24,1.9-3.39,3.34-3.39.69,0,2.32.48,4.85,1.37,6.16,2.19,11.22,3.25,15.2,3.25,6.85,0,12.7-2.4,17.58-7.28,4.87-4.88,7.32-10.76,7.32-17.62,0-5.32-1.62-10.06-4.81-14.19-3.18-4.13-9.38-8.94-18.63-14.46-7.96-4.78-13.13-8.68-15.52-11.72-2.39-3.03-3.62-6.39-3.62-10.07,0-3.98,1.46-7.18,4.35-9.57,2.89-2.39,6.67-3.57,11.4-3.57,5.32,0,9.76,1.58,13.27,4.76,3.51,3.19,5.54,7.6,6.13,13.27h2.61v-20.51h-2.43c-.3,1.05-.57,1.71-.82,2.01-.25.3-.72.46-1.42.46-.84,0-2.35-.36-4.49-1.05-4.58-1.54-8.8-2.33-12.68-2.33h0ZM421.72,398.42c-8.61,0-16.42,2.03-23.48,6.09-7.07,4.05-12.67,9.68-16.8,16.84-4.13,7.17-6.18,14.78-6.18,22.89,0,10.9,3.57,20.6,10.76,29.11,7.19,8.5,15.81,13.8,25.82,15.84,2.29,1.19,5.56,4.27,9.84,9.25,4.83,5.62,8.91,9.67,12.27,12.08,3.35,2.41,6.98,4.18,10.8,5.36,3.83,1.17,7.97,1.74,12.45,1.74,5.42,0,10.28-.94,14.56-2.88l-.96-2.38c-2.48.9-5.13,1.33-7.92,1.33-3.78,0-7.61-1.25-11.44-3.75-3.83-2.51-8.62-7.3-14.33-14.37-2.68-3.39-4.54-5.52-5.58-6.36,10.94-2.14,19.94-7.44,26.96-15.93,7.02-8.48,10.53-18.17,10.53-29.02,0-12.89-4.58-23.72-13.69-32.54-9.11-8.83-20.31-13.27-33.6-13.27h0ZM474.95,398.42l.14,2.79c5.73,0,8.94,1.69,9.66,5.08.27,1.21.39,3.46.41,6.68l-.05,61.75c-.05,4.61-.7,7.56-1.97,8.83-1.27,1.27-3.4,2.06-6.5,2.38l-.14,2.79h57.12l1.46-14.01h-2.61c-.75,3.82-2.45,6.55-5.17,8.1-2.73,1.56-7.55,2.33-14.51,2.33h-5.4c-6.27,0-9.89-2.27-10.85-6.82-.2-.9-.27-1.87-.27-2.93l.23-62.43c0-4.6.58-7.69,1.79-9.2,1.22-1.51,3.41-2.35,6.59-2.56l-.14-2.79h-29.8ZM422.63,401.81c9.71,0,17.63,3.82,23.76,11.53,6.12,7.71,9.15,18.29,9.15,31.67,0,12.69-3.08,22.84-9.25,30.48-6.17,7.64-14.38,11.44-24.58,11.44s-17.75-3.92-23.85-11.81c-6.09-7.89-9.11-18.12-9.11-30.71s3.05-23.29,9.2-31.03c6.14-7.73,14.37-11.58,24.67-11.58h0ZM554,415.08c-1.39,0-2.46.47-3.25,1.42-.81.94-1.06,2.09-.78,3.48.27,1.35,1.03,2.53,2.24,3.52,1.2.99,2.5,1.51,3.89,1.51s2.37-.52,3.11-1.51c.74-.99.96-2.18.69-3.52-.28-1.39-1.02-2.53-2.15-3.48-1.15-.95-2.41-1.42-3.75-1.42h0ZM591.67,424.56c-2.37,9.11-7.5,14.04-15.38,14.83l.09,2.61h9.2l-.18,30.85c.01,5.27.18,8.79.55,10.57.91,4.28,3.7,6.45,8.38,6.45,6.77,0,13.86-4.12,21.28-12.36l-2.24-1.92c-5.36,5.42-10.1,8.15-14.24,8.15-2.54,0-4.12-1.46-4.71-4.35-.16-.7-.23-1.52-.23-2.47l.09-34.92h14.05l-.14-4.17h-13.87v-13.27h-2.65ZM646,436.18c-7.86,0-14.25,3.82-19.22,11.4-4.95,7.59-6.48,16.01-4.53,25.27,1.14,5.42,3.42,9.63,6.91,12.59,3.48,2.96,7.9,4.44,13.18,4.44,4.92,0,11.77-1.25,14.65-3.75,2.89-2.51,5.55-6.57,8.01-12.13l-1.97-2.06c-3.92,7.22-11.84,10.85-17.81,10.85-8.21,0-13.23-4.5-15.1-13.46-.24-1.14-.42-2.37-.55-3.66,9.76-1.55,17.16-4.28,22.15-8.24,4.99-3.96,10-8.15,9.06-12.59-.56-2.63-1.92-4.71-4.03-6.27-2.13-1.56-7.66-2.38-10.76-2.38h0ZM560.09,436.5l-16.94,3.89v3.02l5.86-.73c2.84,0,4.51,1.29,5.03,3.84.18.86.29,2.06.32,3.57l-.18,27.69c-.05,3.83-.47,6.06-1.33,6.73-.86.67-3.14,1.01-6.82,1.01l-.09,2.61h26.87l-.05-2.61c-3.73,0-6.15-.29-7.23-.87-1.06-.57-1.79-1.61-2.11-3.2-.24-1.15-.35-3.13-.37-5.86l.09-39.09h-3.07ZM641.7,441.63c1.64,0,3.22.63,4.81,1.88,1.57,1.24,2.52,2.62,2.84,4.12,1.53,7.36-4.99,12.45-19.68,15.29-.42-5.37.51-10.24,2.88-14.65,2.35-4.4,5.42-6.64,9.15-6.64h0Z"/>
      <path class="uuid-ea5a44b7-160f-43d5-b40b-1a3f4668516f" d="M298.51,292.69h-145.75c-9.77,0-17.76,7.99-17.76,17.76v160.73c0,9.77,7.99,17.76,17.76,17.76h95.99c-1.09-47.76,15.22-140.46,49.75-196.25h0Z"/>
      <path class="uuid-a1033e57-4cf7-4738-83f7-a7cc2db5905f" d="M293.21,297.88h-140.45c-6.94,0-12.58,5.64-12.58,12.58v149.01c31.81-12.21,79.55-22.74,112.56-22.26,6.63-34.69,26.13-102.66,40.47-139.32h0Z"/>
      <path class="uuid-368750f2-ebdc-4f55-93e9-58cd25eb0f3c" d="M332.51,287.43c-9.98-8.9-22.07-5.33-34,5.26-1.77,1.57-3.54,3.32-5.29,5.18-20.41,21.65-39.35,61.74-45.23,92.37,2.29,4.65,4.08,10.58,5.26,15.11.3,1.16.57,2.25.79,3.18.52,2.2.8,3.62.8,3.62,0,0-.18-.69-.93-2.87-.14-.42-.3-.87-.49-1.41-.08-.22-.19-.49-.31-.78-1.33-3.09-5.01-9.63-6.63-12.47-1.39,4.09-2.61,7.91-3.64,11.37,4.68,8.56,7.53,23.23,7.53,23.23,0,0-.25-.95-1.42-4.27-1.04-2.93-6.24-12.04-7.47-14.17-2.11,7.78-2.94,13.03-2.19,14.3,1.47,2.48,2.86,6.75,4.09,11.48,2.77,10.65,4.69,23.61,4.69,23.61,0,0,.06.86.17,2.18-.38,8.94-.15,18.21.54,26.59.92,11.09,2.64,20.62,4.84,25.72l1.49-.81c-3.23-10.05-4.54-23.21-3.97-38.4.87-23.21,6.21-51.2,16.08-80.37,16.67-44.04,39.8-79.37,60.97-96.24-19.3,17.43-45.41,73.83-53.23,94.72-8.75,23.39-14.96,45.34-18.7,66.37,6.45-19.72,27.31-28.19,27.31-28.19,0,0,10.23-12.62,22.18-30.64-7.16,1.63-18.92,4.43-22.86,6.08-5.81,2.44-7.37,3.27-7.37,3.27,0,0,18.82-11.46,34.96-16.65,22.2-34.97,46.39-84.65,22.03-106.38"/>
    </g>
  </g>
</svg>