<?xml version="1.0" encoding="UTF-8"?>
<svg xmlns="http://www.w3.org/2000/svg" xmlns:xlink="http://www.w3.org/1999/xlink" viewBox="0 0 800 800">
  <defs>
    <style>
      .uuid-2457f3c8-e724-4807-a202-6d3fc76e3f2f {
        fill: #0f80cc;
      }

      .uuid-2457f3c8-e724-4807-a202-6d3fc76e3f2f, .uuid-01fcb54c-57d1-41a3-891f-6e355cc90bd6, .uuid-7c10f33f-37a3-4e30-b4f6-dddcb4350942, .uuid-f109a498-c60f-498d-a755-3d29154805ae {
        stroke-width: 0px;
      }

      .uuid-01fcb54c-57d1-41a3-891f-6e355cc90bd6 {
        fill: none;
      }

      .uuid-7c10f33f-37a3-4e30-b4f6-dddcb4350942 {
        fill: url(#uuid-0cdf5ef6-283c-41ad-9778-ca27a24cb011);
      }

      .uuid-f109a498-c60f-498d-a755-3d29154805ae {
        fill: #003b57;
      }
    </style>
    <linearGradient id="uuid-0cdf5ef6-283c-41ad-9778-ca27a24cb011" x1="326.36" y1="2557.27" x2="327.98" y2="2557.27" gradientTransform="translate(734649.93 -93616.98) rotate(90) scale(287.15)" gradientUnits="userSpaceOnUse">
      <stop offset="0" stop-color="#97d9f6"/>
      <stop offset=".92" stop-color="#0f80cc"/>
      <stop offset="1" stop-color="#0f80cc"/>
    </linearGradient>
  </defs>
  <g id="uuid-a7780a18-1a9d-4c95-bd91-b8fa81b0467a" data-name="Layer 5">
    <rect class="uuid-01fcb54c-57d1-41a3-891f-6e355cc90bd6" width="800" height="800"/>
  </g>
  <g id="uuid-9c2bbbff-e62c-4111-aabf-ca9dbeb70d05" data-name="Layer 1">
    <g>
      <path class="uuid-2457f3c8-e724-4807-a202-6d3fc76e3f2f" d="M585.29,71.29H132.66c-30.43.08-55.07,24.73-55.16,55.16v499.18c.08,30.43,24.73,55.07,55.16,55.16h298.13c-3.4-148.34,47.27-436.22,154.5-609.5Z"/>
      <path class="uuid-7c10f33f-37a3-4e30-b4f6-dddcb4350942" d="M568.85,87.4H132.66c-21.56.03-39.03,17.5-39.06,39.06v462.75c111.9-42.21,230.03-65.57,349.58-69.15,31.62-147.01,73.61-291.59,125.67-432.66Z"/>
      <path class="uuid-f109a498-c60f-498d-a755-3d29154805ae" d="M690.86,54.96c-30.92-27.64-68.53-16.54-105.63,16.33-5.49,4.89-10.98,10.31-16.44,16.1-69.79,82.54-118.05,181.08-140.46,286.82,6.92,15.09,12.39,30.81,16.33,46.94.93,3.61,1.78,7.01,2.58,9.89,1.6,6.83,2.58,11.26,2.58,11.26,0,0-.57-2.14-2.91-8.91l-1.52-4.38c-.26-.7-.59-1.52-.98-2.42-4.12-9.61-15.46-29.88-20.61-38.64-4.3,12.7-8.12,24.58-11.28,35.32,10.7,23.01,18.55,47.23,23.39,72.14,0,0-.77-2.96-4.41-13.27-6.98-15.05-14.72-29.74-23.19-44-5.48,14.13-7.8,29.29-6.8,44.42,5.67,11.31,9.94,23.28,12.7,35.63,8.6,33.05,14.58,73.32,14.58,73.32,0,0,.21,2.58.52,6.78-1.13,27.53-.57,55.11,1.67,82.57,1.28,27.19,6.34,54.07,15.05,79.87l4.64-2.58c-10.79-38.77-14.96-79.08-12.31-119.23,4.85-85.13,21.66-169.15,49.93-249.59,51.78-136.75,123.66-246.5,189.36-298.85-59.92,54.1-141.03,229.29-165.32,294.16-25.58,66.79-45.02,135.78-58.07,206.1,15.53-39.25,45.94-70.77,84.61-87.7,0,0,31.77-39.19,68.89-95.14-23.98,5-47.68,11.31-70.98,18.88-18.03,7.57-22.9,10.15-22.9,10.15,34.43-20.73,70.8-38.05,108.59-51.71,68.94-108.59,144.07-262.78,68.43-330.38"/>
    </g>
  </g>
</svg>