<?xml version="1.0" encoding="UTF-8"?>
<svg xmlns="http://www.w3.org/2000/svg" viewBox="0 0 800 800">
  <defs>
    <style>
      .uuid-43f1cd26-616e-43ff-9b3a-bde6c7c27edb {
        fill: none;
      }

      .uuid-43f1cd26-616e-43ff-9b3a-bde6c7c27edb, .uuid-225344d4-5ca9-49dd-bc59-6153f7d9872b, .uuid-bcbe5de8-9bfd-43b3-aa84-b1568d4e947f {
        stroke-width: 0px;
      }

      .uuid-225344d4-5ca9-49dd-bc59-6153f7d9872b {
        fill: #1a1918;
      }

      .uuid-bcbe5de8-9bfd-43b3-aa84-b1568d4e947f {
        fill: #fff;
      }
    </style>
  </defs>
  <g id="uuid-e871b601-dc9f-4d94-9468-af1e2fe75144" data-name="Layer 5">
    <rect class="uuid-43f1cd26-616e-43ff-9b3a-bde6c7c27edb" width="800" height="800"/>
  </g>
  <g id="uuid-65fb1f70-38ac-45d2-bda0-25d31b692fd9" data-name="Layer 3">
    <path class="uuid-bcbe5de8-9bfd-43b3-aa84-b1568d4e947f" d="M553.24,77.5H246.76c-111.77,0-169.26,57.5-169.26,169.26v306.48c0,111.76,57.49,169.26,169.26,169.26h306.48c111.76,0,169.26-57.49,169.26-169.26V246.76c0-111.77-57.5-169.26-169.26-169.26Z"/>
  </g>
  <g id="uuid-7ba5b30e-fd8e-4a8d-80bf-5b39af16700e" data-name="Layer 1">
    <path class="uuid-225344d4-5ca9-49dd-bc59-6153f7d9872b" d="M460.72,293.74c-8.38-8.38-21.98-8.38-30.36,0l-136.62,136.63c-16.78,16.76-43.96,16.76-60.72,0-16.78-16.77-16.78-43.95,0-60.73l133.99-133.99c-16.77-16.77-43.96-16.77-60.72,0l-103.64,103.64c-33.53,33.54-33.53,87.9,0,121.45,33.54,33.54,87.9,33.54,121.44,0l136.63-136.63c8.38-8.38,8.38-21.98,0-30.36h0ZM506.26,248.2c-33.54-33.54-87.9-33.54-121.44,0l-136.62,136.62c-8.38,8.38-8.38,21.98,0,30.36,8.38,8.38,21.97,8.38,30.36,0l136.63-136.62c16.77-16.77,43.95-16.77,60.71,0,8.39,8.38,21.98,8.38,30.37,0,8.38-8.39,8.38-21.98,0-30.36h0ZM551.81,384.82c-8.38-8.37-21.98-8.37-30.37,0l-136.62,136.62c-16.77,16.77-43.96,16.77-60.72,0-8.38-8.38-21.97-8.38-30.35,0-8.4,8.39-8.4,21.98,0,30.36,33.53,33.54,87.9,33.54,121.44,0l136.62-136.62c8.38-8.38,8.38-21.98,0-30.36h0ZM597.35,339.28c-33.54-33.54-87.91-33.54-121.44,0l-136.63,136.63c-8.38,8.37-8.38,21.98,0,30.36,8.39,8.39,21.98,8.39,30.36,0l136.62-136.62c16.76-16.77,43.96-16.77,60.72,0,16.77,16.77,16.77,43.95,0,60.72l-133.99,134c16.77,16.76,43.94,16.76,60.72,0l103.64-103.64c33.53-33.54,33.53-87.91,0-121.44h0Z"/>
  </g>
</svg>