<?xml version="1.0" encoding="UTF-8"?>
<svg xmlns="http://www.w3.org/2000/svg" xmlns:xlink="http://www.w3.org/1999/xlink" viewBox="0 0 800 800">
  <defs>
    <style>
      .uuid-15e8f24c-cba8-43ca-a8c0-6a3150327249 {
        fill: none;
      }

      .uuid-15e8f24c-cba8-43ca-a8c0-6a3150327249, .uuid-9e84b1f0-9956-4f7c-b9ae-78476dfb7d6a, .uuid-edc5593e-6c7d-4315-9f35-82a679612b52, .uuid-1961be48-7a95-4ea6-b261-17ce78ee36f6 {
        stroke-width: 0px;
      }

      .uuid-9e84b1f0-9956-4f7c-b9ae-78476dfb7d6a {
        fill: url(#uuid-96ead48f-8425-4daf-aef3-cacb7e5c1b54);
      }

      .uuid-edc5593e-6c7d-4315-9f35-82a679612b52 {
        fill: url(#uuid-dee2c324-8b6e-4ad4-aff7-8070754f946b);
      }

      .uuid-1961be48-7a95-4ea6-b261-17ce78ee36f6 {
        fill: #fff;
      }
    </style>
    <linearGradient id="uuid-dee2c324-8b6e-4ad4-aff7-8070754f946b" x1="-5967.41" y1="1406.38" x2="-5928.44" y2="1627.39" gradientTransform="translate(-18186.91 -4340.3) rotate(-180) scale(3.12 -3.12)" gradientUnits="userSpaceOnUse">
      <stop offset="0" stop-color="#faae42"/>
      <stop offset="1" stop-color="#ef3e31"/>
    </linearGradient>
    <linearGradient id="uuid-96ead48f-8425-4daf-aef3-cacb7e5c1b54" x1="-2041.32" y1="4338.42" x2="-2069.86" y2="4176.56" gradientTransform="translate(6785.62 13645.62) scale(3.12 -3.12)" gradientUnits="userSpaceOnUse">
      <stop offset="0" stop-color="#e39f3a"/>
      <stop offset="1" stop-color="#d33929"/>
    </linearGradient>
  </defs>
  <g id="uuid-21cf4de9-0cbc-46ea-bc62-7b0111fc417b" data-name="Layer 5">
    <rect class="uuid-15e8f24c-cba8-43ca-a8c0-6a3150327249" width="800" height="800"/>
  </g>
  <g id="uuid-df353cf9-d3d7-4270-8bfa-c8b612214fd0" data-name="Layer 1">
    <g>
      <path class="uuid-edc5593e-6c7d-4315-9f35-82a679612b52" d="M220.81,77.63h357.13c17.38,0,34.25,2.77,50.62,8.56,23.67,8.56,45.08,23.67,61.2,43.32,16.37,19.64,27.2,43.82,30.98,69.01,1.51,9.32,1.76,18.64,1.76,27.96v348.32c0,11.08-.5,22.42-2.77,33.24-5.04,24.93-16.87,48.36-34,67.25-16.87,18.89-39.04,32.99-62.96,40.55-14.61,4.53-29.72,6.55-45.08,6.55-6.8,0-357.89,0-363.17-.25-25.69-1.26-51.13-9.57-72.53-23.93-20.9-14.1-38.03-33.75-49.11-56.42-9.57-19.39-14.36-41.05-14.36-62.71V220.93c-.5-21.41,4.03-42.56,13.35-61.7,10.83-22.67,27.7-42.56,48.61-56.67,21.41-14.61,46.59-23.17,72.28-24.43,2.52-.5,5.29-.5,8.06-.5Z"/>
      <path class="uuid-9e84b1f0-9956-4f7c-b9ae-78476dfb7d6a" d="M621.51,605.01c-2.27-3.53-4.79-7.05-7.56-10.33-6.3-7.56-13.6-14.1-21.66-19.64-10.07-6.8-21.91-11.08-34-11.59-8.56-.5-17.13,1.01-25.19,4.03-8.06,2.77-15.87,6.8-23.42,10.83-8.81,4.53-17.63,9.07-26.95,12.84-11.08,4.53-22.67,8.06-34.5,10.58-14.86,2.77-29.97,3.78-44.83,3.53-26.95-.5-53.9-4.53-79.59-12.09-22.67-6.8-44.33-16.12-64.73-27.96-17.88-10.33-34.5-22.16-50.12-35.51-12.84-11.08-24.68-22.92-35.76-35.51-7.56-8.81-14.86-18.13-21.66-27.7-2.77-3.78-5.29-7.81-7.56-11.84h0l-66.49-71.78v-162.45c0-78.83,63.72-142.8,142.55-142.8h127.19l94.19,95.7h0c212.57,144.56,143.81,303.99,143.81,303.99,0,0,60.45,68,36.27,127.69Z"/>
      <path class="uuid-1961be48-7a95-4ea6-b261-17ce78ee36f6" d="M441.93,173.33c212.57,144.56,143.81,303.99,143.81,303.99,0,0,60.45,68.25,36.02,127.94,0,0-24.93-41.81-66.74-41.81s-63.97,41.81-145.07,41.81c-180.58,0-265.96-150.86-265.96-150.86,162.7,107.04,273.77,31.23,273.77,31.23-73.29-42.56-229.19-246.06-229.19-246.06,135.75,115.6,194.43,146.08,194.43,146.08-35.01-28.96-133.23-170.51-133.23-170.51,78.58,79.59,234.73,190.65,234.73,190.65,44.33-122.91-42.56-232.46-42.56-232.46Z"/>
    </g>
  </g>
</svg>