<?xml version="1.0" encoding="UTF-8"?>
<svg xmlns="http://www.w3.org/2000/svg" xmlns:xlink="http://www.w3.org/1999/xlink" viewBox="0 0 800 800">
  <defs>
    <style>
      .uuid-1c1c3fdf-3c52-4fee-b834-d0f39f33adb9 {
        fill: none;
      }

      .uuid-1c1c3fdf-3c52-4fee-b834-d0f39f33adb9, .uuid-a4e60187-3afe-47bf-8746-4117bbcae38d, .uuid-4b10e7ba-e5a2-41fe-ae7d-298bc14b1b6f {
        stroke-width: 0px;
      }

      .uuid-a4e60187-3afe-47bf-8746-4117bbcae38d {
        fill: url(#uuid-9b129318-ddb9-4add-9e00-6dbb46259fec);
      }

      .uuid-4b10e7ba-e5a2-41fe-ae7d-298bc14b1b6f {
        fill: #fff;
      }
    </style>
    <linearGradient id="uuid-9b129318-ddb9-4add-9e00-6dbb46259fec" x1="-448.35" y1="3506.24" x2="-447.78" y2="3506.04" gradientTransform="translate(358845 1683344.44) scale(800 -480)" gradientUnits="userSpaceOnUse">
      <stop offset="0" stop-color="#2298bd"/>
      <stop offset="1" stop-color="#0ed7b5"/>
    </linearGradient>
  </defs>
  <g id="uuid-ce2efa2f-5ecc-4d0d-adc4-a4ba3d99207d" data-name="Layer 5">
    <rect class="uuid-1c1c3fdf-3c52-4fee-b834-d0f39f33adb9" width="800" height="800"/>
  </g>
  <g id="uuid-3074c9e2-69ea-4efc-a7ba-ffb1b9d292ac" data-name="Layer 3">
    <path class="uuid-4b10e7ba-e5a2-41fe-ae7d-298bc14b1b6f" d="M553.24,77.5H246.76c-111.77,0-169.26,57.5-169.26,169.26v306.48c0,111.76,57.49,169.26,169.26,169.26h306.48c111.76,0,169.26-57.49,169.26-169.26V246.76c0-111.77-57.5-169.26-169.26-169.26Z"/>
  </g>
  <g id="uuid-509952d9-86a6-4af4-9437-0979c11c9878" data-name="Layer 1">
    <path class="uuid-a4e60187-3afe-47bf-8746-4117bbcae38d" d="M400,266.5c-59.33,0-96.42,29.67-111.25,89,22.25-29.67,48.21-40.79,77.88-33.38,16.93,4.23,29.02,16.51,42.42,30.1,21.81,22.14,47.06,47.77,102.21,47.77,59.33,0,96.42-29.67,111.25-89-22.25,29.67-48.21,40.79-77.88,33.37-16.93-4.23-29.02-16.51-42.42-30.1-21.81-22.14-47.06-47.77-102.21-47.77ZM288.75,400c-59.33,0-96.42,29.67-111.25,89,22.25-29.67,48.21-40.79,77.87-33.37,16.93,4.23,29.02,16.51,42.42,30.1,21.81,22.14,47.06,47.77,102.21,47.77,59.33,0,96.42-29.67,111.25-89-22.25,29.67-48.21,40.79-77.88,33.37-16.93-4.23-29.02-16.51-42.42-30.1-21.81-22.14-47.06-47.77-102.21-47.77Z"/>
  </g>
</svg>