<?xml version="1.0" encoding="UTF-8"?>
<svg id="Layer_1" data-name="Layer 1" xmlns="http://www.w3.org/2000/svg" xmlns:xlink="http://www.w3.org/1999/xlink" version="1.1" viewBox="0 0 96 96">
  <defs>
    <style>
      .cls-1 {
        fill: url(#linear-gradient);
      }

      .cls-1, .cls-2, .cls-3, .cls-4 {
        stroke-width: 0px;
      }

      .cls-2 {
        fill: #000;
        isolation: isolate;
        opacity: 0;
      }

      .cls-3 {
        fill: url(#linear-gradient-2);
      }

      .cls-4 {
        fill: #fff;
      }
    </style>
    <linearGradient id="linear-gradient" x1="-104.4" y1="618.7" x2="-104.6" y2="565.5" gradientTransform="translate(257 -1137) scale(2)" gradientUnits="userSpaceOnUse">
      <stop offset="0" stop-color="#2e64e3"/>
      <stop offset=".5" stop-color="#398dea"/>
      <stop offset="1" stop-color="#45b7f1"/>
    </linearGradient>
    <linearGradient id="linear-gradient-2" x1="-124.1" y1="592.5" x2="-84.9" y2="592.5" gradientTransform="translate(257 -1137) scale(2)" gradientUnits="userSpaceOnUse">
      <stop offset="0" stop-color="#3395ec"/>
      <stop offset="0" stop-color="#3a9aed"/>
      <stop offset=".3" stop-color="#47a4ef"/>
      <stop offset=".5" stop-color="#4fa9f0"/>
      <stop offset="1" stop-color="#51abf0"/>
    </linearGradient>
  </defs>
  <path class="cls-1" d="M74.9.1H21.1C9.5.1.1,9.5.1,21.1v53.8c0,11.6,9.4,21,21,21h53.8c11.6,0,21-9.4,21-21V21.1C95.9,9.5,86.5.1,74.9.1Z"/>
  <path class="cls-3" d="M48,8.8c-21.7,0-39.2,17.6-39.2,39.2s17.6,39.2,39.2,39.2,39.2-17.6,39.2-39.2S69.7,8.8,48,8.8ZM48,78c-16.6,0-30-13.4-30-30s13.4-30,30-30,30,13.4,30,30-13.4,30-30,30Z"/>
  <path class="cls-2" d="M61.8,9.8l-1.3-.5-.5,1.3-.5,1.3-.5,1.3,1.3.5c14.4,5.2,24.2,19,24.2,34.4s-1,9.6-2.8,14l-3.4-2.4c1.4-3.7,2.2-7.7,2.2-11.7,0-12.5-7.3-24.1-18.6-29.5l-1.2-.6-.6,1.2-.6,1.2-.6,1.2,1.2.6c9.9,4.7,16.4,14.9,16.4,25.8s-.5,6.3-1.5,9.3l-7.6-5.4c-2-1.4-4.3-2.5-6.7-3.1l-8.6-2.1c.3-.6.5-1.2.5-1.6l1.3-23h0c0-.1,0-.2,0-.2-1-9.5-3-14.4-6-14.8-.2,0-.4,0-.5,0-.7,0-1.3.1-1.9.4h-.2C24,9,7.4,26.7,7.4,48v1.3h4v-1.3c0-18.1,13.7-33.7,31.5-36.2h0s-.2,4-.2,4c-15.7,2.5-27.3,16.2-27.3,32.2v1.3h4v-1.3c0-13.7,9.9-25.5,23.2-28.1l-.6,13.4v.2s0,.3,0,.3l3.1,11.7c-.6-.1-1.1-.2-1.5-.2s-.4,0-.4,0h-.3s-.3.2-.3.2l-20.6,11.4h-.1c0,0-.1.2-.1.2l-7.5,7.2c-1.1.8-1.6,2.1-1.5,3.4l-.3.2.7,1.1c7.4,12.3,20.4,19.6,34.7,19.6s12.9-1.6,18.6-4.5l1.2-.6-.6-1.2-.6-1.2-.6-1.2-1.2.6c-5.1,2.7-11,4.1-16.8,4.1-11.6,0-22.1-5.2-29.1-14.4l3.7-1.9c6.2,7.7,15.6,12.3,25.4,12.3s10.4-1.3,14.9-3.6l1.2-.6-.6-1.2-.6-1.2-.6-1.2-1.2.6c-4.1,2.1-8.5,3.2-13.1,3.2-8.3,0-16.4-3.8-21.8-10.1l11.8-6h.2c0,0,.1-.2.1-.2l8.8-7.9.8.6,16.4,11.7h0s0,0,0,0c.2,0,3.9,2.1,7.2,2.6,2.1.3,5.8,1.3,7.6,1.9l1.3.4v-.2c.8,0,1.5-.3,2.1-.7l.3.2.6-1.1h0s0,0,0,0c3.3-6,5-12.7,5-19.6,0-17-10.8-32.4-26.8-38.2Z"/>
  <path class="cls-2" d="M62.2,8.8l-1.3-.5-1.3-.5-.5,1.3-.5,1.3-.5,1.3-.5,1.3-.5,1.3,1.3.5,1.3.5c13.9,5,23.3,18.4,23.3,33.2s-.7,8.1-2.1,12l-1.1-.8c1.3-3.6,1.9-7.4,1.9-11.2,0-13-7.6-25.1-19.4-30.7l-1.2-.6-1.2-.6-.6,1.2-.6,1.2-.6,1.2-.6,1.2-.6,1.2,1.2.6,1.2.6c9.5,4.5,15.6,14.2,15.6,24.6s-.3,4.8-.9,7.1l-6.1-4.3c-2.2-1.5-4.6-2.6-7.2-3.3l-7.2-1.8c0-.3,0-.5,0-.7l1.3-22.9h0c0-.1,0-.3,0-.3-1.1-10.6-3.4-15.6-7.2-16.1-.2,0-.5,0-.7,0-.8,0-1.5.1-2.2.5C23.2,7.9,6.1,26.3,6.1,48.2v2.7h6.7v-2.7c0-16.9,12.3-31.5,28.8-34.6v1.3c-16,3.1-27.4,16.9-27.4,33.3v2.7h6.6v-2.7c0-12.5,8.5-23.3,20.4-26.4l-.5,11.6v.2s0,.1,0,.1h0c0,.1,0,.4,0,.4l2.7,10c-.1,0-.2,0-.2,0h-.3s-.3,0-.3,0h-.3c0,.1-.3.3-.3.3l-20.6,11.4h-.1c0,0-.1.2-.1.2h-.1c0,.1-.1.2-.1.2l-7.5,7.1c-1.1.9-1.8,2.2-1.9,3.6l-.7.4.7,1.1.7,1.1c7.7,12.7,21.1,20.2,35.9,20.2s13.4-1.6,19.3-4.7l1.2-.6,1.2-.6-.6-1.2-.6-1.2-.6-1.2-.6-1.2-.6-1.2-1.2.6-1.2.6c-5,2.6-10.6,3.9-16.2,3.9-10.6,0-20.3-4.6-27-12.6l1.3-.7c6.4,7.5,16,11.9,25.7,11.9s10.8-1.3,15.5-3.8l1.2-.6,1.2-.6-.6-1.2-.6-1.2-.6-1.2-.6-1.2-.6-1.2-1.2.6-1.2.6c-3.9,2-8.1,3-12.5,3-7.3,0-14.5-3.1-19.6-8.4l10.2-5.3h.2c0,0,.2-.2.2-.2h.1c0-.1.1-.2.1-.2l7.9-7.1,16.4,11.6h0c0,0,.1.1.1.1.5.3,4.2,2.2,7.7,2.7,2.1.3,5.7,1.3,7.5,1.8l1.3.4,1.3.4.2-.6c.4,0,.7-.2,1.1-.4l.8.4.7-1.2.6-1.1h0c0-.1,0-.2,0-.2,3.4-6.1,5.2-13.1,5.2-20.1,0-17.6-11.1-33.5-27.7-39.4Z"/>
  <path class="cls-4" d="M47.7,8.4c-.8,0-1.4,0-1.9.4h-.5C24.8,10.2,8.8,27.4,8.8,48h1.3c0-19.6,15-35.9,34.4-37.7-.3.8-.3,1.6-.3,1.6l-.2,5.1c-15.6,2-27.3,15.3-27.3,31h1.3c0-15,11.1-27.6,25.9-29.6l-.6,15.1,3.5,13.1h.4c.7.3,1.3.4,1.9.4.8,0,1.5-.3,1.8-.8.2-.3.4-.7.3-1.1l1.3-23c-.3-3.1-1.6-13.2-4.8-13.6ZM49.9,45.2c0,0,0,.2-.2.3-.1.1-.6.3-1.8,0l-3.3-12.2.9-21.4c0-.3,0-1.3.6-1.8.3-.3.8-.4,1.4-.3,1.4.2,3,6.5,3.6,12.3l-1.3,23.1Z"/>
  <path class="cls-4" d="M87.2,48c0-16.5-10.4-31.3-25.9-36.9l-.5,1.3c15,5.4,25,19.7,25,35.7s-1.2,11.2-3.6,16.2c-.1-.2-.3-.4-.5-.5l-5-3.5c1.6-3.8,2.5-8,2.5-12.1,0-12-7-23.1-17.9-28.3l-.6,1.2c10.4,4.9,17.1,15.6,17.1,27.1s-.8,7.8-2.2,11.4l-9-6.4c-1.9-1.3-4-2.3-6.3-2.9l-9.6-2.3c-1.3-.3-2.6.5-2.9,1.8-.2.9.1,1.7.7,2.3h0c0,0,16.4,11.7,16.4,11.7.2,0,3.7,2,6.7,2.4,2.9.4,7.8,1.9,7.8,1.9h0c.3,0,.5.1.8.1.8,0,1.5-.4,2-1,0,0,0,0,0,0h0c3.2-5.8,4.9-12.3,4.9-19ZM71.9,64.7c-2.8-.4-6.2-2.2-6.2-2.2l-13-9.3,6.6,1.6c1.7.4,3.2,1.1,4.6,2.1l12.3,8.7c-1.4-.4-3-.7-4.2-.9Z"/>
  <path class="cls-4" d="M65.4,81.7c-5.3,2.8-11.4,4.2-17.4,4.2-12.6,0-24.1-6.1-31.2-16.3.3,0,.6,0,.8-.2l5.3-2.7c5.9,7.9,15.1,12.6,25,12.6s9.9-1.2,14.3-3.5l-.6-1.2c-4.3,2.2-8.9,3.3-13.7,3.3-9.4,0-18.2-4.5-23.8-11.9l13.2-6.8,9-8.1c.8-.7,1-1.8.6-2.7-.1-.4-.3-.7-.6-1-1-1-2.8-.9-3-.8l-20.6,11.4-7.6,7.2c-.9.7-1.3,1.9-.8,3h0c7.2,11.9,19.7,19,33.6,19s12.5-1.5,18-4.4l-.6-1.2ZM23.5,59.2l17.8-9.9-6.4,5.8-15.4,7.9,4-3.8Z"/>
</svg>