<?xml version="1.0" encoding="UTF-8"?>
<svg xmlns="http://www.w3.org/2000/svg" viewBox="0 0 800 800">
  <defs>
    <style>
      .uuid-87099e8d-0f3d-4cf8-a4c8-c377b168f58f {
        fill: none;
      }

      .uuid-87099e8d-0f3d-4cf8-a4c8-c377b168f58f, .uuid-37d21ffd-0b29-4176-9d1f-9895b564bcc1, .uuid-d185716e-0cb5-4a91-93aa-72c0ae698f33 {
        stroke-width: 0px;
      }

      .uuid-37d21ffd-0b29-4176-9d1f-9895b564bcc1 {
        fill: #fff;
      }

      .uuid-d185716e-0cb5-4a91-93aa-72c0ae698f33 {
        fill: #007acc;
      }
    </style>
  </defs>
  <g id="uuid-06128ec6-b092-47b4-9331-040fa745996c" data-name="Layer 5">
    <rect class="uuid-87099e8d-0f3d-4cf8-a4c8-c377b168f58f" x="-.61" width="800" height="800"/>
  </g>
  <g id="uuid-b19520bb-2c7a-4aaf-ac1d-0870c9319e3a" data-name="Layer 1">
    <g>
      <polygon class="uuid-d185716e-0cb5-4a91-93aa-72c0ae698f33" points="76.89 400 76.89 722.5 399.39 722.5 721.89 722.5 721.89 400 721.89 77.5 399.39 77.5 76.89 77.5 76.89 400"/>
      <path class="uuid-37d21ffd-0b29-4176-9d1f-9895b564bcc1" d="M219.52,402.14l-.2,26.41h83.95v238.55h59.38v-238.55h83.95v-25.9c0-14.33-.31-26.31-.72-26.62-.31-.41-51.4-.61-113.34-.51l-112.72.31-.31,26.31Z"/>
      <path class="uuid-37d21ffd-0b29-4176-9d1f-9895b564bcc1" d="M597.34,375.08c16.38,4.1,28.87,11.36,40.34,23.24,5.94,6.35,14.74,17.92,15.46,20.68.2.82-27.85,19.66-44.84,30.2-.61.41-3.07-2.25-5.84-6.35-8.29-12.08-17-17.3-30.3-18.22-19.55-1.33-32.15,8.91-32.05,26,0,5.02.72,7.99,2.76,12.08,4.3,8.91,12.29,14.23,37.37,25.08,46.17,19.86,65.93,32.97,78.22,51.6,13.72,20.78,16.79,53.95,7.47,78.63-10.24,26.82-35.63,45.05-71.36,51.09-11.06,1.95-37.27,1.64-49.14-.51-25.9-4.61-50.47-17.4-65.63-34.2-5.94-6.55-17.51-23.65-16.79-24.88.31-.41,2.97-2.05,5.94-3.79,2.87-1.64,13.72-7.88,23.96-13.82l18.53-10.75,3.89,5.73c5.43,8.29,17.3,19.66,24.47,23.45,20.58,10.85,48.84,9.32,62.76-3.17,5.94-5.43,8.4-11.06,8.4-19.35,0-7.47-.92-10.75-4.81-16.38-5.02-7.17-15.25-13.21-44.33-25.8-33.27-14.33-47.61-23.24-60.71-37.37-7.58-8.19-14.74-21.3-17.71-32.25-2.46-9.11-3.07-31.94-1.13-41.16,6.86-32.15,31.12-54.57,66.14-61.22,11.36-2.15,37.78-1.33,48.94,1.43Z"/>
    </g>
  </g>
</svg>