<?xml version="1.0" encoding="UTF-8"?>
<svg xmlns="http://www.w3.org/2000/svg" viewBox="0 0 800 800">
  <defs>
    <style>
      .uuid-db88b613-3276-4059-9efc-2a328b3cf781 {
        fill: none;
      }

      .uuid-db88b613-3276-4059-9efc-2a328b3cf781, .uuid-fa538db5-3331-4094-98ff-bb873b8b1034, .uuid-7773d916-711f-43ca-960f-3f02291eafd7, .uuid-5c5f680a-5db5-4fea-bbe6-1ad46f886b1d, .uuid-a98872c4-15c3-475d-ba1f-6a900d07da4a {
        stroke-width: 0px;
      }

      .uuid-fa538db5-3331-4094-98ff-bb873b8b1034 {
        fill: #1f9cf0;
      }

      .uuid-7773d916-711f-43ca-960f-3f02291eafd7 {
        fill: #0065a9;
      }

      .uuid-5c5f680a-5db5-4fea-bbe6-1ad46f886b1d {
        fill: #fff;
      }

      .uuid-a98872c4-15c3-475d-ba1f-6a900d07da4a {
        fill: #007acc;
      }
    </style>
  </defs>
  <g id="uuid-2e77a48a-4d56-4605-aacb-bda62104779e" data-name="Layer 5">
    <rect class="uuid-db88b613-3276-4059-9efc-2a328b3cf781" width="800" height="800"/>
  </g>
  <g id="uuid-37561105-0807-4888-bd1b-bb5137481128" data-name="Layer 3">
    <path class="uuid-5c5f680a-5db5-4fea-bbe6-1ad46f886b1d" d="M553.24,77.5H246.76c-111.77,0-169.26,57.5-169.26,169.26v306.48c0,111.76,57.49,169.26,169.26,169.26h306.48c111.76,0,169.26-57.49,169.26-169.26V246.76c0-111.77-57.5-169.26-169.26-169.26Z"/>
  </g>
  <g id="uuid-6f2e4b8d-45b5-4095-a40e-c8b60bd48371" data-name="Layer 1">
    <g>
      <path class="uuid-7773d916-711f-43ca-960f-3f02291eafd7" d="M607.99,224.64l-92.17-44.37c-10.67-5.14-23.42-2.98-31.79,5.4L182.3,460.74c-7.62,6.92-8.2,18.7-1.28,26.33.4.43.8.85,1.23,1.23l24.63,22.38c6.64,6.04,16.65,6.49,23.8,1.06l363.42-275.58c8.14-6.18,19.76-4.59,25.94,3.56,2.44,3.22,3.76,7.14,3.76,11.18v-1.07c0-10.74-6.15-20.52-15.83-25.18Z"/>
      <path class="uuid-a98872c4-15c3-475d-ba1f-6a900d07da4a" d="M607.99,575.36l-92.17,44.39c-10.67,5.13-23.42,2.96-31.79-5.4L182.3,339.26c-7.62-6.92-8.2-18.7-1.28-26.33.4-.43.8-.85,1.23-1.23l24.63-22.38c6.65-6.07,16.69-6.52,23.85-1.06l363.37,275.58c8.14,6.18,19.76,4.59,25.94-3.56,2.44-3.22,3.76-7.14,3.76-11.18v1.15c-.04,10.71-6.18,20.45-15.83,25.1Z"/>
      <path class="uuid-fa538db5-3331-4094-98ff-bb873b8b1034" d="M515.82,619.75c-10.67,5.13-23.42,2.96-31.79-5.4,6.44,6.36,16.81,6.29,23.17-.15,3.01-3.05,4.7-7.15,4.72-11.44V197.24c0-9.04-7.31-16.37-16.36-16.38-4.35,0-8.53,1.73-11.6,4.81,8.37-8.38,21.12-10.55,31.79-5.42l92.15,44.31c9.7,4.63,15.89,14.42,15.91,25.18v300.52c0,10.74-6.16,20.54-15.84,25.19l-92.15,44.29Z"/>
    </g>
  </g>
</svg>