<?xml version="1.0" encoding="UTF-8"?>
<svg id="uuid-4bc21f0c-9140-4e18-9d16-ca72ea718ebf" xmlns="http://www.w3.org/2000/svg" version="1.1" viewBox="0 0 608.9 224">
  <!-- Generator: Adobe Illustrator 29.1.0, SVG Export Plug-In . SVG Version: 2.1.0 Build 142)  -->
  <defs>
    <style>
      .st0 {
        fill: #e6ebf2;
      }
    </style>
  </defs>
  <g id="uuid-73211879-8c8e-40bc-b592-b75df7b9ccc7">
    <path class="st0" d="M111.7,119H0v89.6h176.5v-89.6s-64.8,0-64.8,0ZM55.8,199.6H9v-71.6h46.8v71.6ZM111.7,199.6h-46.8v-71.6h46.8v71.6ZM143.4,192.6l2.1,1.6c.9.8,2.6,2.3,5.1,4.8s.3.4.5.5h-14.7c1.6-2.2,3.9-4.6,7-7h0ZM138,179.7c-1.1-1.5-1.7-3-1.7-4.6s.7-3.3,2.1-4.9c1.4-1.6,3.4-2.4,6-2.4s4.4.7,6,2.2c1.6,1.4,2.3,3,2.3,4.8s-.4,3-1.3,4.7c-.8,1.7-2.9,3.8-6.2,6.3l-1.6-1.2c-2.5-1.8-4.4-3.4-5.5-4.9h-.1ZM141.7,128c-.7.9-1.4,2-2.1,3.1-2.2,3.2-3.7,6.1-4.6,8.7-.9,2.6-1.3,5.8-1.3,9.6v4.9h7.1v-4.9c0-3.5.3-6.3.9-8.4s1.4-4.2,2.6-6.1c1-1.8,2.5-4,4.4-6.9h18.9v71.6h-7.5c-.1-.3-.3-.6-.4-.8-1.2-2-3.5-4.5-7-7.3l-3-2.4c3.2-2.6,5.3-4.6,6.4-6,1.1-1.4,1.9-2.8,2.4-4.3.5-1.4.8-2.9.8-4.5s-.6-4.3-1.8-6.2-2.8-3.3-5-4.3-4.6-1.5-7.3-1.5c-4.4,0-8,1.3-10.9,3.9-2.9,2.6-4.3,5.7-4.3,9.3s.8,5.3,2.4,7.5c1.6,2.3,3.2,4,4.9,5.2l1.2.9c-4.8,3.4-8.1,6.8-9.9,10.4h-7.9v-71.6h21ZM109.9,93.3c3.9-2,6.9-4.9,9.1-8.7s3.2-7.7,3.2-11.7-1.3-8.4-3.8-12.7c-2.6-4.2-7.4-7.8-14.7-10.7,3.9-2.1,6.9-4.3,9-6.7s3.6-5,4.7-7.8,1.6-5.9,1.6-9.1-.9-7.7-2.7-10.8c-1.8-3.2-4.5-5.6-8.1-7.2-3.6-1.6-10.8-2.4-21.4-2.4h-17.8v90.9h22.1c8.6,0,14.8-1,18.8-3.1h0ZM80.9,14.5h8.3c7.3,0,12.2,1.1,14.7,3.2s3.8,5.3,3.8,9.6-.5,5.2-1.4,7.5-2.3,4.4-4.2,6.2c-1.9,1.9-4.8,3.6-8.8,5.3h-12.4V14.4h0ZM80.9,55.5h3.3c7.3,0,12.7.8,16.2,2.3,3.4,1.5,6,3.5,7.6,6.1,1.6,2.6,2.5,5.4,2.5,8.4s-1.5,7.7-4.5,10.6-7.6,4.4-13.9,4.4h-11.2v-31.8h0ZM156.6,87.3h20.4v9.1h-31.4V10.9h-19.6V1.8h30.5v85.5h.1ZM253,81.4c-2.9-5.2-4.3-11.1-4.3-17.7,0-9.9,3.2-18.2,9.7-24.7,6.5-6.6,14.3-9.8,23.4-9.8s13.9,1.3,21.5,3.8v10.5c-7.6-3.5-14.4-5.2-20.5-5.2s-7.7,1-11.2,3-6.2,5-8.1,9.2-2.9,8.5-2.9,12.9,1.9,11.5,5.5,16.9,9.5,8,17.4,8,4.7-.2,7-.5,6.6-1.6,12.8-3.7v10.5c-7.3,2.5-14.3,3.7-20.9,3.7s-12.4-1.5-17.5-4.5-9.1-7.1-11.9-12.3h0ZM322,96.4h-10.9V1.8h10.9v94.6ZM353.8,96.4l-31.8-35.2,31.5-30.3h14.4l-31.2,30,32.1,35.5h-15ZM400.2,7.3c0-2.4.8-4.3,2.5-5.5,1.7-1.2,3.2-1.8,4.8-1.8s3.1.6,4.8,1.8c1.7,1.2,2.5,3,2.5,5.5s-.8,4.2-2.5,5.4c-1.7,1.2-3.2,1.8-4.8,1.8s-3.1-.6-4.8-1.8c-1.7-1.2-2.5-3-2.5-5.4ZM384.2,123.6c-4.6,0-9.6-.5-15-1.6v-10.1c6.1,1.8,11.2,2.7,15.4,2.7s6.7-.6,9.3-1.9c2.5-1.3,4.5-3.4,6-6.4,1.4-3,2.1-8.2,2.1-15.7v-50.5h-27.8v-9.1h38.7v57.5c0,11.1-1.3,18.8-3.9,23.1s-5.8,7.4-9.5,9.3-8.8,2.8-15.2,2.8h-.1ZM521.8,29.1c6.8,0,13.9,1.3,21.5,3.8v10.5c-7.6-3.5-14.4-5.2-20.5-5.2s-7.7,1-11.2,3-6.2,5-8.1,9.2-2.9,8.5-2.9,12.9,1.9,11.5,5.5,16.9,9.5,8,17.4,8,4.7-.2,7-.5,6.6-1.6,12.8-3.7v10.5c-7.3,2.5-14.3,3.7-20.9,3.7s-12.4-1.5-17.5-4.5-9.1-7.1-11.9-12.3c-2.9-5.2-4.3-11.1-4.3-17.7,0-9.9,3.2-18.2,9.7-24.7,6.5-6.6,14.3-9.8,23.4-9.8h0ZM593.9,96.4l-31.8-35.2,31.5-30.3h14.4l-31.2,30,32.1,35.5h-15ZM562,96.4h-10.9V1.8h10.9v94.6ZM223,117.1c5.4,0,11.5,1.3,18.3,3.8v10.8c-6.3-3.6-12.5-5.5-18.8-5.5s-9,1.6-12.9,4.8c-3.9,3.2-7,7.9-9.4,14.1-2.4,6.2-3.6,12.9-3.6,20.2s1.2,14.2,3.7,20.5,5.6,10.9,9.4,14c3.8,3.1,8.1,4.7,12.7,4.7s12.4-1.8,18.8-5.4v10.7c-6.8,2.5-12.9,3.8-18.3,3.8s-13.6-1.9-19.6-5.7-10.6-9.5-13.9-17c-3.3-7.5-5-16-5-25.5s1.6-17.9,4.9-25.4,7.9-13.2,13.9-17.1,12.6-5.8,19.8-5.8h0ZM273.6,143.5c-9.4,0-16.9,3.3-22.5,9.8s-8.4,14.8-8.4,24.7,2.8,18.2,8.4,24.8c5.6,6.6,13.1,9.8,22.5,9.8s16.8-3.3,22.4-9.8,8.4-14.8,8.4-24.8-2.8-18.2-8.4-24.7-13.1-9.8-22.4-9.8ZM287.5,196.7c-3.4,4.5-8,6.8-13.9,6.8s-10.5-2.3-13.9-6.8-5.1-10.8-5.1-18.7,1.7-14.1,5.1-18.6,8.1-6.8,13.9-6.8,10.4,2.3,13.9,6.8,5.1,10.7,5.1,18.6-1.7,14.2-5.1,18.7ZM349.6,145.4h10.9v65.4h-10.9v-14.4c-3.5,5.4-7.4,9.4-11.7,12.1-4.3,2.7-8.6,4-12.9,4s-7.3-1-10.5-3.1-5.4-4.8-6.6-8.1-1.9-9.9-1.9-19.5v-36.6h10.9v37.9c0,6.3.3,10.4.9,12.4s1.7,3.7,3.3,4.9,3.4,1.9,5.2,1.9c3.8,0,7.9-1.8,12.3-5.4s8-8.2,10.9-13.7v-38.1h0v.3ZM419.3,154.7c1.3,3.3,1.9,9.8,1.9,19.6v36.6h-10.9v-37.9c0-6.3-.3-10.4-.9-12.4s-1.7-3.7-3.3-4.9-3.4-1.9-5.3-1.9c-3.8,0-7.9,1.8-12.3,5.4s-8,8.2-10.9,13.6v38.1h-10.9v-65.4h10.9v14.3c3.1-5,6.9-9,11.3-11.8s8.8-4.3,13.2-4.3,7.4,1,10.5,3.1,5.4,4.7,6.6,8.1v-.2ZM464.8,203.5c5.3,0,10.8-1.7,16.6-5v9.6c-5.1,2.1-8.8,3.4-11.1,3.8s-4.5.6-6.7.6c-4.6,0-8.8-.9-12.5-2.6s-6.6-4.4-8.6-7.8-2.9-8.8-2.9-15.9v-26.4h-16.4v-9.1h16.4v-26.4h10.9v26.4h29.1v9.1h-29.1v26.2c0,5.3.6,9,1.9,11.2s2.9,3.8,5,4.8,4.6,1.5,7.4,1.5h0ZM516.3,143.5c-5.9,0-11.2,1.5-15.9,4.6s-8.5,7.4-11.1,12.9c-2.7,5.5-4,11.2-4,17.2s1.4,12,4.2,17.5c2.8,5.4,6.5,9.6,11.2,12.6s9.9,4.4,15.8,4.4,16-2.1,24.7-6.2v-10c-8.5,4.7-16.3,7.1-23.3,7.1s-7.5-.9-10.5-2.8-5.6-4.7-7.5-8.5-2.8-7.9-2.8-12.4h45.1v-2.3c0-11.5-2.3-20.1-7.1-25.6s-11-8.3-18.7-8.3h0v-.2ZM530.2,171.7h-32.6c1.3-6.3,3.5-11,6.8-14.2s7-4.8,11.5-4.8,7.9,1.6,10.5,4.7,3.9,7.4,3.9,12.7v1.6h-.1ZM589.5,143.5c4,0,7.9.6,11.8,1.8v23.6h-10.5v-14.9c-1.8-.3-3.3-.5-4.3-.5-4.1,0-8,1.6-12,4.8-3.9,3.2-7.7,8-11.4,14.4v38h-10.9v-65.4h10.9v14.3c3.4-5.4,7.3-9.4,11.7-12.1s9.3-4,14.7-4h0ZM106.6,190.5h-33v-5.4h13.4v-42.1c-2,1.6-3.9,2.9-5.7,4-1.8,1.1-4.4,2.2-7.6,3.4v-5.9c5.1-2.2,9.6-5,13.4-8.5h6.5v49.1h13.1v5.4h-.1ZM32.4,192.2c6.2,0,11-2.6,14.2-7.8,3.3-5.2,4.9-12.2,4.9-21.1s-1.6-15.9-4.9-21.1c-3.3-5.2-8-7.8-14.2-7.8s-10.9,2.6-14.2,7.8c-3.3,5.2-4.9,12.2-4.9,21.1s1.6,15.9,4.9,21.1c3.3,5.2,8,7.8,14.2,7.8ZM44.4,162.7c0,6.1-.9,11.6-2.8,16.6-1.9,5-5,7.5-9.5,7.5s-3.1-.4-4.4-1.3c-1.3-.9-2.5-2.1-3.5-3.9l18.7-29.7c1,3.5,1.4,7.1,1.4,10.8h0ZM23.5,146.3c2-4.4,5-6.5,8.9-6.5s2.9.4,4.3,1.1c1.4.8,2.7,2.2,3.9,4.4l-18.9,29.6c-.7-3-1.1-5.4-1.2-7.1,0-1.8-.1-3.4-.1-4.9,0-6.7,1-12.2,3-16.5h0ZM211.9,25.1c14.4,20.5,29.8,32.4,30,48.4.1,5.2-2.7,14-11.5,15.7-5.7,1.1-13.5-3.5-13.7-12.9,0-1.9-2-1.8-1.9.7.3,7.4,2.6,16,6.5,23h-18.8c3.9-7,6.3-15.6,6.5-23,0-2.6-2-2.6-1.9-.7-.2,9.4-8,14-13.7,12.9-8.8-1.7-11.6-10.5-11.5-15.7.2-16,15.6-27.8,30-48.4h0ZM421.4,73.5c.2-16,15.6-27.8,30-48.4,14.4,20.5,29.8,32.4,30,48.4.1,5.2-2.7,14-11.5,15.7-5.7,1.1-13.5-3.5-13.7-12.9,0-1.9-2-1.8-2,.7.3,7.4,2.6,16,6.5,23h-18.8c3.9-7,6.3-15.6,6.5-23,0-2.6-2-2.6-2-.7-.2,9.4-8,14-13.7,12.9-8.8-1.7-11.6-10.5-11.5-15.7h.2Z"/>
  </g>
</svg>