<?xml version="1.0" encoding="UTF-8"?>
<svg id="uuid-d4d085e2-299c-49b7-8a3e-695e1c549a82" data-name="Layer_2" xmlns="http://www.w3.org/2000/svg" fill="#fefefe" viewBox="0 0 1408.68 239.2">
  <g id="uuid-61ba96c9-6304-4f7b-9e3f-c8230e87abb5" data-name="hourglassLettering">
    <path d="M639.7,63.49c-.3-7.04-1.53-13.81-3.67-20.28-2.5-7.56-6.2-14.18-11.11-19.88-4.91-5.7-11.07-10.24-18.47-13.64-6.95-3.18-15.04-4.87-24.26-5.07-.3,0-.61-.02-.92,0-.12-.01-.25-.01-.38-.01h-70.01v230h20v-97.44h67.24c5.55,0,9.44,1.58,11.66,4.73.81,1.15,1.47,2.47,1.98,3.97.91,2.64,1.36,5.83,1.36,9.57v79.17h20v-82.8c0-6.32-1.07-11.45-3.21-15.39-.46-.84-.96-1.62-1.52-2.35,0,0,0,0-.01,0-.62-.83-1.29-1.59-2.01-2.29-1.04-1.02-2.18-1.91-3.42-2.68-1.7-1.05-3.58-1.86-5.66-2.45-.63-.17-1.28-.33-1.95-.46v-3.94c.36-.2.71-.4,1.06-.61,7.8-4.56,13.6-10.93,17.41-19.11,2.67-5.73,4.45-11.46,5.32-17.19.43-2.81.65-5.62.65-8.43v-9.63c0-1.27-.03-2.53-.08-3.77ZM619.78,73.77c0,3.06-.15,5.95-.45,8.69-1.07,10.01-4.11,17.9-9.13,23.67-3.77,4.35-8.73,7.41-14.86,9.18-4.25,1.23-9.07,1.85-14.45,1.85h-50.01V24.6h50.01c.25,0,.5,0,.75.01,6.49.13,12.03,1.23,16.48,3.27,4.8,2.2,8.62,4.99,11.65,8.51,3.21,3.72,5.59,8.01,7.28,13.1,1.28,3.87,2.11,7.94,2.49,12.16.06.6.1,1.21.13,1.82.01.04.02.09.01.13.03.43.05.86.06,1.3.03.7.04,1.41.04,2.13v6.74ZM462.82,4.6h20v152.46c0,26.73-5.93,47.1-17.78,61.11-11.85,14.02-28.15,21.03-48.9,21.03s-37.04-7.01-48.9-21.03c-11.85-14.02-17.78-34.39-17.78-61.11V4.6h20v152.46c0,21.74,4.39,37.96,13.05,48.2,8.04,9.51,18.72,13.94,33.62,13.94s25.58-4.43,33.62-13.94c8.66-10.24,13.05-26.46,13.05-48.2V4.6h0ZM90.91,119.6h0s0,0,0,0h0l-40.91,40.91v74.09H0l30-30V34.6L0,4.6h50v74.09l40.91,40.91h0ZM160,204.6l30,30h-50v-74.09l-40.91-40.91h0,0s0,0,0,0h0l40.91-40.91V4.6h50l-30,30v170ZM260.01,20c15.07,0,25.92,5.23,34.15,16.46,9.42,12.85,14.19,32.2,14.19,57.51v51.26c0,26.09-4.72,45.59-14.04,57.96-8.23,10.93-19.13,16.02-34.31,16.02s-26.08-5.09-34.31-16.02c-9.31-12.36-14.03-31.86-14.03-57.95v-51.26c0-25.31,4.77-44.66,14.19-57.51,8.23-11.23,19.08-16.46,34.15-16.46M260.01,0c-21.49,0-38.25,8.21-50.28,24.64-12.04,16.43-18.06,39.54-18.06,69.33v51.26c0,30.67,6.02,54,18.06,69.99,12.04,15.99,28.8,23.99,50.28,23.99s38.24-7.99,50.28-23.99c12.04-15.99,18.06-39.32,18.06-69.99v-51.26c0-29.79-6.02-52.9-18.06-69.33-12.04-16.43-28.8-24.64-50.28-24.64h0ZM948.71,214.6v20h-125.02V4.6h20v210h105.02ZM1093.51,234.6h22l-58.9-230h-37.89l-58.9,230h22l15.7-62.8h80.28l15.7,62.8ZM1002.53,151.8l34.06-136.2h2.16l34.06,136.2h-70.28ZM639.7,63.49c-.3-7.04-1.53-13.81-3.67-20.28-2.5-7.56-6.2-14.18-11.11-19.88-4.91-5.7-11.07-10.24-18.47-13.64-6.95-3.18-15.04-4.87-24.26-5.07-.3,0-.61-.02-.92,0-.12-.01-.25-.01-.38-.01h-70.01v230h20v-97.44h67.24c5.55,0,9.44,1.58,11.66,4.73.81,1.15,1.47,2.47,1.98,3.97.91,2.64,1.36,5.83,1.36,9.57v79.17h20v-82.8c0-6.32-1.07-11.45-3.21-15.39-.46-.84-.96-1.62-1.52-2.35,0,0,0,0-.01,0-.62-.83-1.29-1.59-2.01-2.29-1.04-1.02-2.18-1.91-3.42-2.68-1.7-1.05-3.58-1.86-5.66-2.45-.63-.17-1.28-.33-1.95-.46v-3.94c.36-.2.71-.4,1.06-.61,7.8-4.56,13.6-10.93,17.41-19.11,2.67-5.73,4.45-11.46,5.32-17.19.43-2.81.65-5.62.65-8.43v-9.63c0-1.27-.03-2.53-.08-3.77ZM619.78,73.77c0,3.06-.15,5.95-.45,8.69-1.07,10.01-4.11,17.9-9.13,23.67-3.77,4.35-8.73,7.41-14.86,9.18-4.25,1.23-9.07,1.85-14.45,1.85h-50.01V24.6h50.01c.25,0,.5,0,.75.01,6.49.13,12.03,1.23,16.48,3.27,4.8,2.2,8.62,4.99,11.65,8.51,3.21,3.72,5.59,8.01,7.28,13.1,1.28,3.87,2.11,7.94,2.49,12.16.06.6.1,1.21.13,1.82.01.04.02.09.01.13.03.43.05.86.06,1.3.03.7.04,1.41.04,2.13v6.74ZM776.47,87.4v-3.94c0-9.66-1.23-18.78-3.65-27.11-2.26-7.77-5.55-14.54-9.78-20.1-3.9-5.14-8.62-9.05-14.43-11.96-5.67-2.85-12.56-4.29-20.48-4.29-15.07,0-25.92,5.23-34.15,16.47-9.42,12.84-14.19,32.19-14.19,57.5v51.26c0,26.11,4.69,45.63,13.94,58.02,8.13,10.88,18.71,15.95,33.29,15.95.48,0,.95-.01,1.42-.02.16,0,.31,0,.46-.02,14.4-.48,25.76-6.66,34.07-18.52,2.82-4.02,5.18-8.57,7.08-13.64,3.95-10.49,5.92-23.22,5.92-38.17v-4.63h-66.18v-20h86.68v110.4h-20v-27.6h-3.28c-2.41,5.66-6.85,13.64-14.87,20.55-5.82,5-11.1,7.35-12.21,7.84-5.93,2.58-11.25,3.43-15.32,3.71-.27.02-.55.03-.83.04-.97.04-1.95.06-2.94.06-20.93,0-37.37-7.99-49.31-23.99-11.95-15.98-17.92-39.31-17.92-69.98v-51.26c0-29.79,6.01-52.9,18.06-69.33C689.88,8.21,706.64,0,728.13,0c11.11,0,20.93,2.14,29.45,6.41,8.51,4.27,15.65,10.18,21.39,17.74s10.09,16.43,13.06,26.61c2.96,10.19,4.44,21.09,4.44,32.7v3.94h-20ZM1257.68,134.6v70l-30,30h-70l-30-30v-40h20v31.72l18.28,18.28h53.44l18.28-18.28v-35.81l-40.91-40.91,40.91-40.91v35.91l20,20ZM1227.68,4.6h-70l-30,30v60l20,20v45.91l40.91-40.91-40.91-40.91v-35.81l18.28-18.28h53.44l18.28,18.28v31.72h20v-40l-30-30ZM1408.68,134.6v70l-30,30h-70l-30-30v-40h20v31.72l18.28,18.28h53.44l18.28-18.28v-35.81l-40.91-40.91,40.91-40.91v35.91l20,20ZM1378.68,4.6h-70l-30,30v60l20,20v45.91l40.91-40.91-40.91-40.91v-35.81l18.28-18.28h53.44l18.28,18.28v31.72h20v-40l-30-30Z"/>
  </g>
</svg>