<?xml version="1.0" encoding="UTF-8"?>
<svg id="uuid-0ef7c3ce-377f-4702-97c9-77f47832eaaa" xmlns="http://www.w3.org/2000/svg" version="1.1" viewBox="0 0 732.8 309.5">
  <!-- Generator: Adobe Illustrator 29.1.0, SVG Export Plug-In . SVG Version: 2.1.0 Build 142)  -->
  <defs>
    <style>
      .st0 {
        fill: #fff9ee;
      }
    </style>
  </defs>
  <g id="uuid-0cdbb512-e737-473b-8f3e-169fecb21802">
    <path class="st0" d="M153.7,134.4c15.2,0,28,5.3,38.6,15.9s15.9,23.5,15.9,38.7-5.3,27.6-15.9,38.4-23.5,16.2-38.6,16.2-27.6-5.4-38.4-16.2-16.2-23.6-16.2-38.4,5.4-28,16.2-38.7,23.6-15.9,38.4-15.9h0ZM153.7,148.3c-11.5,0-21.1,3.9-28.9,11.8-7.8,7.8-11.8,17.5-11.8,28.9s3.9,21.1,11.8,28.9c7.8,7.8,17.5,11.8,28.9,11.8s20.9-4,28.8-11.9c7.9-7.9,11.9-17.5,11.9-28.8s-4-20.9-11.9-28.8-17.5-11.9-28.8-11.9h0ZM296,137.2v103.3l-11.9-9.6c-7.9,8.2-17.7,12.4-29.3,12.4s-21.4-4-29.3-11.9c-7.9-7.9-11.9-17.7-11.9-29.3v-64.9h13.9v64.9c0,7.6,2.7,14,8.2,19.3s11.8,8,19.1,8,14.4-2.7,19.6-8.2c5.1-5.5,7.7-11.8,7.7-19.1v-64.9s13.9,0,13.9,0ZM359.2,136.9l-6.3,12.4c-2-.7-4.5-1-7.3-1-7.8,0-14.1,2.6-19.1,7.8-5,5.2-7.5,11.5-7.5,18.7v65.7h-13.9v-103.3l11.6,9.3c7.7-8.1,17.3-12.1,28.8-12.1s9.6.8,13.6,2.5h0ZM368.8,279.1c8.1,10.9,19.3,16.4,33.6,16.4s21.3-3.9,29.4-11.8c8.2-7.8,12.2-17.8,12.2-29.9v-28.6c-11,12.1-24.5,18.2-40.7,18.2s-27.6-5.4-38.4-16.2-16.2-23.6-16.2-38.4,5.4-28,16.2-38.7,23.6-15.9,38.4-15.9,28.5,5.7,39.4,16.9l15.2-14.2v116.7c0,15.5-5.5,28.6-16.4,39.4-11,10.8-24,16.2-39.2,16.2s-32.9-7.2-44.2-21.7l10.6-8.6h0v.2ZM403.5,148.3c-11.5,0-21.1,3.9-28.9,11.8-7.8,7.8-11.8,17.5-11.8,28.9s3.9,21.1,11.8,28.9c7.8,7.8,17.5,11.8,28.9,11.8s20.9-4,28.8-11.9,11.9-17.5,11.9-28.8-4-20.9-11.9-28.8-17.5-11.9-28.8-11.9h0ZM471.2,240.5V68.7h13.9v171.8h-13.9ZM588.4,226.6c-11,11.3-24.1,16.9-39.4,16.9s-27.6-5.4-38.4-16.2-16.2-23.6-16.2-38.4,5.4-28,16.2-38.7,23.6-15.9,38.4-15.9,28.5,5.7,39.4,16.9l15.2-14.2v103.3l-15.2-13.9h0v.2ZM549,148.3c-11.5,0-21.1,3.9-28.9,11.8-7.8,7.8-11.8,17.5-11.8,28.9s3.9,21.1,11.8,28.9c7.8,7.8,17.5,11.8,28.9,11.8s20.9-4,28.8-11.9c7.9-7.9,11.9-17.5,11.9-28.8s-4-20.9-11.9-28.8-17.5-11.9-28.8-11.9h0ZM621.1,218.5c3.4,6.7,8.9,10.1,16.7,10.1s9.6-1.8,13.1-5.3,5.3-7.9,5.3-13.1-1.2-8-3.7-11.2-5.5-5.4-9.2-6.4l-12.1-3.5c-6.1-1.8-11-5.2-14.7-10s-5.6-10.2-5.6-16.3,2.7-14,8-19.3,11.8-8,19.3-8,10.4,1.5,15,4.6c4.6,3,8,7.1,10,12.1l-12.6,5.3c-2-5.4-6.2-8.1-12.4-8.1s-7.1,1.3-9.6,4-3.8,5.8-3.8,9.3c0,6.7,3.3,11,9.8,12.9l12.1,3.5c6.9,1.9,12.5,5.7,16.8,11.4,4.3,5.7,6.4,12.3,6.4,19.7s-1.4,11.5-4.3,16.4c-2.9,4.9-6.7,8.8-11.6,11.6-4.9,2.9-10.4,4.3-16.4,4.3s-11.6-1.6-16.7-4.7-9.1-7.4-12.1-12.8l12.1-6.6h.2ZM683.8,218.5c3.4,6.7,8.9,10.1,16.7,10.1s9.6-1.8,13.1-5.3,5.3-7.9,5.3-13.1-1.2-8-3.7-11.2-5.5-5.4-9.2-6.4l-12.1-3.5c-6.1-1.8-11-5.2-14.7-10s-5.6-10.2-5.6-16.3,2.7-14,8-19.3,11.8-8,19.3-8,10.4,1.5,15,4.6c4.6,3,8,7.1,10,12.1l-12.6,5.3c-2-5.4-6.2-8.1-12.4-8.1s-7.1,1.3-9.6,4-3.8,5.8-3.8,9.3c0,6.7,3.3,11,9.8,12.9l12.1,3.5c6.9,1.9,12.5,5.7,16.8,11.4,4.3,5.7,6.4,12.3,6.4,19.7s-1.4,11.5-4.3,16.4c-2.9,4.9-6.7,8.8-11.6,11.6-4.9,2.9-10.4,4.3-16.4,4.3s-11.6-1.6-16.7-4.7-9.1-7.4-12.1-12.8l12.1-6.6h.2ZM79.9,68.7v57.9l-30.3,28.3,30.3,27.8v57.8h13.9V68.7h-13.9ZM13.9,126.6v-57.9H0v171.8h13.9v-57.8l30.3-27.8-30.3-28.3h0Z"/>
  </g>
</svg>