<?xml version="1.0" encoding="UTF-8"?>
<svg id="uuid-88ed3cba-9be2-448d-a0b2-ee0f01beb787" data-name="Layer_2" xmlns="http://www.w3.org/2000/svg" fill="#00ff00" viewBox="0 0 1218.88 143.51">
  <g id="uuid-91b08155-b904-44ed-900a-7e3d0ac6b042" data-name="Wordmark">
    <path d="M57.12,23.92H0v119.59h17.94v-41.86h39.18c14.35,0,23.92-9.57,23.92-23.92v-29.9c0-14.35-9.57-23.92-23.92-23.92ZM57.12,83.71H17.94v-41.86h39.18c3.57,0,5.98,2.39,5.98,5.98v29.9c0,3.59-2.41,5.98-5.98,5.98ZM150.69,23.92h-30.17c-14.35,0-23.92,9.57-23.92,23.92h17.94c0-3.59,2.39-5.98,5.98-5.98h30.17c3.57,0,5.98,2.39,5.98,5.98v5.98h-39.18c-14.35,0-23.92,9.57-23.92,23.92s9.57,23.92,23.92,23.92h0s39.18,0,39.18,0h17.94v-53.82c0-14.35-9.57-23.92-23.92-23.92ZM156.67,83.71h-39.18c-3.59,0-5.98-2.39-5.98-5.98s2.39-5.98,5.98-5.98h0s39.18,0,39.18,0v11.96ZM261.74,47.84h-17.94c0-3.59-2.41-5.98-5.98-5.98h-30.21v59.8h-17.94V23.92h48.15c14.35,0,23.92,9.57,23.92,23.92ZM600,47.84h-17.94c0-3.59-2.41-5.98-5.98-5.98h-30.21v59.8h-17.94V23.92h48.15c14.35,0,23.92,9.57,23.92,23.92ZM288.37,41.86v35.88c0,3.59,2.39,5.98,5.98,5.98h30.21v17.94h-30.21c-14.35,0-23.92-9.57-23.92-23.92h0V0h17.94v23.92h36.19v17.94h-36.19ZM420.61,47.84v53.82h-17.94v-53.82c0-3.59-2.41-5.98-5.98-5.98h-39.18v59.8h-17.94V23.92h57.12c14.35,0,23.92,9.57,23.92,23.92ZM491.53,83.71h-33.2c-3.59,0-5.98-2.39-5.98-5.98v-5.98h39.18c14.35,0,23.92-9.57,23.92-23.92s-9.57-23.92-23.92-23.92h-33.2c-14.35,0-23.92,9.57-23.92,23.92v29.9c0,14.35,9.57,23.92,23.92,23.92h33.2c14.35,0,23.92-9.57,23.92-23.92h-17.94c0,3.59-2.39,5.98-5.98,5.98ZM458.33,41.86h33.2c3.57,0,5.98,2.39,5.98,5.98s-2.41,5.98-5.98,5.98h-39.18v-5.98c0-3.59,2.39-5.98,5.98-5.98ZM1034.31,47.84h-17.94c0-3.59-2.41-5.98-5.98-5.98h-30.21v59.8h-17.94V23.92h48.15c14.35,0,23.92,9.57,23.92,23.92ZM854.92,47.84v53.82h-17.94v-53.82c0-3.59-2.41-5.98-5.98-5.98h-39.18v59.8h-17.94V23.92h57.12c14.35,0,23.92,9.57,23.92,23.92ZM925.84,83.71h-33.2c-3.59,0-5.98-2.39-5.98-5.98v-5.98h39.18c14.35,0,23.92-9.57,23.92-23.92s-9.57-23.92-23.92-23.92h-33.2c-14.35,0-23.92,9.57-23.92,23.92v29.9c0,14.35,9.57,23.92,23.92,23.92h33.2c14.35,0,23.92-9.57,23.92-23.92h-17.94c0,3.59-2.39,5.98-5.98,5.98ZM892.64,41.86h33.2c3.57,0,5.98,2.39,5.98,5.98s-2.41,5.98-5.98,5.98h-39.18v-5.98c0-3.59,2.39-5.98,5.98-5.98ZM738.16,83.71h-33.2c-3.59,0-5.98-2.39-5.98-5.98v-5.98h39.18c14.35,0,23.92-9.57,23.92-23.92s-9.57-23.92-23.92-23.92h-33.2c-14.35,0-23.92,9.57-23.92,23.92v29.9c0,14.35,9.57,23.92,23.92,23.92h33.2c14.35,0,23.92-9.57,23.92-23.92h-17.94c0,3.59-2.39,5.98-5.98,5.98ZM704.96,41.86h33.2c3.57,0,5.98,2.39,5.98,5.98s-2.41,5.98-5.98,5.98h-39.18v-5.98c0-3.59,2.39-5.98,5.98-5.98ZM1100.12,23.92h-33.2c-14.35,0-23.92,9.57-23.92,23.92v29.9c0,14.35,9.57,23.92,23.92,23.92h39.18v17.94h0c0,3.59-2.39,5.98-5.98,5.98h-33.2c-3.59,0-5.98-2.39-5.98-5.98h-17.94c0,14.35,9.57,23.92,23.92,23.92h33.2c14.35,0,23.92-9.57,23.92-23.92V47.84h0c0-14.35-9.57-23.92-23.92-23.92ZM1106.1,83.71h-39.18c-3.59,0-5.98-2.39-5.98-5.98v-29.9c0-3.59,2.39-5.98,5.98-5.98h33.2c3.57,0,5.98,2.39,5.98,5.98v35.88ZM1218.88,23.92v95.67c0,14.35-9.57,23.92-23.92,23.92h-33.2c-14.35,0-23.92-9.57-23.92-23.92h17.94c0,3.59,2.39,5.98,5.98,5.98h33.2c3.59,0,5.98-2.39,5.98-5.98h0v-17.94h-39.18c-14.35,0-23.92-9.57-23.92-23.92V23.92h17.94v53.82c0,3.59,2.39,5.98,5.98,5.98h39.18V23.92h17.94Z"/>
  </g>
</svg>