<?xml version="1.0" encoding="UTF-8"?>
<svg id="uuid-cf60be61-3425-49de-be70-b5afd6a58747" data-name="Layer_2" xmlns="http://www.w3.org/2000/svg" fill="#00ff00" viewBox="0 0 1500 279.43">
  <g id="uuid-535a0b5b-5f04-408b-8584-d0cd11fc39d6" data-name="Logo">
    <path d="M55.71,3.09c10.32,0,23.52,1.65,33.63,12.17,7.84,8.05,11.76,20.01,11.76,30.95,0,11.76-4.13,22.08-10.94,28.68-5.36,5.16-12.59,8.25-18.98,9.49l43.13,56.33h-44.36l-34.25-52.82v52.82H0V3.09h55.71ZM35.7,64.79h6.81c5.36,0,13-1.44,17.33-5.57,2.68-2.68,4.54-7.22,4.54-11.56s-1.65-8.67-4.75-11.56c-3.3-3.3-9.29-5.36-17.13-5.36h-6.81v34.05ZM274.07,123.39c-14.03,13.41-33.84,20.43-54.27,20.43s-40.24-7.02-54.27-20.43c-14.65-14.03-21.67-33.22-21.67-51.38s7.02-37.76,21.67-51.59C179.57,7.02,199.38,0,219.8,0s40.24,7.02,54.27,20.43c14.65,13.82,21.67,33.22,21.67,51.59s-7.02,37.35-21.67,51.38ZM191.95,45.6c-7.43,7.22-10.94,17.33-10.94,27.03,0,12.17,5.78,20.63,10.94,25.59,6.6,6.4,15.89,10.93,27.86,10.93s21.25-4.33,27.65-10.73c6.4-6.4,11.14-15.89,11.14-26.41s-4.75-20.22-11.14-26.41c-7.63-7.22-18.16-10.94-27.65-10.94s-20.43,3.51-27.86,10.94ZM439.29,137.01c-14.24,5.16-22.08,6.81-30.95,6.81-23.94,0-41.89-9.49-53.24-20.63-13.41-13.41-20.84-32.19-20.84-50.14,0-19.6,8.46-38.17,20.84-50.76,12.17-12.38,30.54-21.46,52-21.46,6.6,0,17.33,1.03,32.19,7.02v42.71c-11.56-14.24-25.17-15.06-31.16-15.06-10.32,0-18.16,3.1-24.76,9.08-8.46,7.84-11.97,18.57-11.97,28.27s3.92,20.01,11.14,26.82c5.98,5.57,15.48,9.49,25.59,9.49,5.36,0,18.57-.62,31.16-14.44v42.3ZM532.51,59.84l43.74-56.74h44.16l-54.68,65.2,59.63,72.42h-46.22l-46.63-59.63v59.63h-35.7V3.09h35.7v56.74ZM743.1,33.43h-42.51v22.9h40.24v30.33h-40.24v23.73h42.51v30.33h-78.2V3.09h78.2v30.33ZM857.17,33.43v107.3h-35.7V33.43h-29.3V3.09h94.3v30.33h-29.3ZM1107.36,137.01c-14.24,5.16-22.08,6.81-30.95,6.81-23.93,0-41.89-9.49-53.24-20.63-13.41-13.41-20.84-32.19-20.84-50.14,0-19.6,8.46-38.17,20.84-50.76,12.17-12.38,30.54-21.46,52-21.46,6.6,0,17.33,1.03,32.19,7.02v42.71c-11.55-14.24-25.17-15.06-31.16-15.06-10.32,0-18.16,3.1-24.76,9.08-8.46,7.84-11.97,18.57-11.97,28.27s3.92,20.01,11.14,26.82c5.98,5.57,15.47,9.49,25.59,9.49,5.37,0,18.57-.62,31.16-14.44v42.3ZM1197.47,3.09v137.63h-35.7V3.09h35.7ZM1308.15,33.43v107.3h-35.7V33.43h-29.3V3.09h94.3v30.33h-29.3ZM1412.72,74.69l-49.73-71.6h42.71l26,37.55,24.97-37.55h43.33l-51.38,71.6v66.03h-35.9v-66.03ZM0,275.55v-64.28l43.69,45.77v-41.71h9.21v63.91l-43.69-45.77v42.07H0ZM226.3,224h-24.01v15.26h23.29v8.67h-23.29v18.96h24.01v8.67h-33.22v-60.21h33.22v8.67ZM367.03,215.34l15.89,40.26,16.25-43.15,15.71,43.15,16.43-40.26h9.93l-26.9,64.09-15.71-42.7-15.89,42.7-25.64-64.09h9.93ZM719.53,275.55l12.64-64.73,20.94,46.76,21.13-46.76,11.37,64.73h-9.39l-6.14-36.29-17.51,39.09-17.33-39.18-6.32,36.38h-9.39ZM933.19,215.34v36.29c0,3.25.09,7.22,1.9,10.38,1.81,3.07,5.87,6.23,11.19,6.23s9.39-3.16,11.19-6.23c1.81-3.16,1.9-7.13,1.9-10.38v-36.29h9.21v38.73c0,4.78-.99,10.56-5.6,15.62-3.16,3.43-8.49,7.04-16.7,7.04s-13.54-3.61-16.7-7.04c-4.6-5.06-5.6-10.83-5.6-15.62v-38.73h9.21ZM1134.77,228.7c-.54-1.36-1.35-2.62-2.71-3.79-1.9-1.53-3.88-2.17-6.5-2.17-5.6,0-8.49,3.34-8.49,7.22,0,1.81.63,4.97,6.5,7.31l6.05,2.44c11.1,4.51,14.17,10.83,14.17,17.69,0,11.46-8.13,19.32-19.41,19.32-6.95,0-11.1-2.62-14.17-6.05-3.25-3.61-4.69-7.58-5.06-11.74l9.12-1.99c0,2.98,1.08,5.78,2.53,7.67,1.71,2.17,4.24,3.61,7.85,3.61,5.6,0,9.93-4.06,9.93-10.11s-4.69-8.67-8.67-10.29l-5.78-2.44c-4.97-2.08-12.28-6.23-12.28-15.26,0-8.12,6.32-15.89,17.6-15.89,6.5,0,10.2,2.44,12.1,4.06,1.63,1.44,3.34,3.52,4.6,6.05l-7.4,4.33ZM1290.3,215.34v60.21h-9.21v-60.21h9.21ZM1475.08,229.42c-6.68-6.05-12.91-6.68-16.34-6.68-13.09,0-21.94,9.66-21.94,22.93s9.21,22.57,22.03,22.57c7.22,0,12.82-3.7,16.25-6.95v10.92c-6.05,3.61-12.37,4.51-16.52,4.51-10.92,0-17.78-4.96-21.3-8.3-7.04-6.59-9.66-14.26-9.66-22.75,0-11.1,4.6-18.78,9.66-23.56,6.23-5.87,13.45-7.85,21.76-7.85,5.51,0,10.83.99,16.07,4.33v10.83Z"/>
  </g>
</svg>